<svg width="101" height="100" viewBox="0 0 101 100" fill="none" xmlns="http://www.w3.org/2000/svg">
<path d="M29.5159 24.2344L41.7971 35.1719C42.3685 35.6835 43.1082 35.9672 43.8752 35.9688H88.0002V90.5C88.0644 91.7044 87.6507 92.8854 86.8491 93.7865C86.0475 94.6876 84.9226 95.236 83.719 95.3125H9.46898C8.26534 95.236 7.1405 94.6876 6.33887 93.7865C5.53723 92.8854 5.12356 91.7044 5.18773 90.5V28.125C5.12374 26.9487 5.52847 25.7949 6.31332 24.9164C7.09816 24.0378 8.19916 23.506 9.37523 23.4375H27.4377C28.2048 23.4391 28.9444 23.7227 29.5159 24.2344Z" fill="black"/>
<path d="M29.5159 24.2344L41.7971 35.1719C42.3685 35.6835 43.1082 35.9672 43.8752 35.9688H88.0002V90.5C88.0644 91.7044 87.6507 92.8854 86.8491 93.7865C86.0475 94.6876 84.9226 95.236 83.719 95.3125H9.46898C8.26534 95.236 7.1405 94.6876 6.33887 93.7865C5.53723 92.8854 5.12356 91.7044 5.18773 90.5V28.125C5.12374 26.9487 5.52847 25.7949 6.31332 24.9164C7.09816 24.0378 8.19916 23.506 9.37523 23.4375H27.4377C28.2048 23.4391 28.9444 23.7227 29.5159 24.2344Z" fill="black"/>
<path d="M29.5159 24.2344L41.7971 35.1719C42.3685 35.6835 43.1082 35.9672 43.8752 35.9688H88.0002V90.5C88.0644 91.7044 87.6507 92.8854 86.8491 93.7865C86.0475 94.6876 84.9226 95.236 83.719 95.3125H9.46898C8.26534 95.236 7.1405 94.6876 6.33887 93.7865C5.53723 92.8854 5.12356 91.7044 5.18773 90.5V28.125C5.12374 26.9487 5.52847 25.7949 6.31332 24.9164C7.09816 24.0378 8.19916 23.506 9.37523 23.4375H27.4377C28.2048 23.4391 28.9444 23.7227 29.5159 24.2344Z" fill="#FFC700"/>
<path d="M77.0625 89.0625H11.4375V4.6875H77.0625V89.0625Z" fill="#D7E6EF"/>
<path d="M70.8125 35.9375H95.8125V26.5625C95.8125 25.7337 95.4833 24.9388 94.8972 24.3528C94.3112 23.7667 93.5163 23.4375 92.6875 23.4375H83.3125L70.8125 35.9375Z" fill="black"/>
<path d="M70.8125 35.9375H95.8125V26.5625C95.8125 25.7337 95.4833 24.9388 94.8972 24.3528C94.3112 23.7667 93.5163 23.4375 92.6875 23.4375H83.3125L70.8125 35.9375Z" fill="black"/>
<path d="M70.8125 35.9375H95.8125V26.5625C95.8125 25.7337 95.4833 24.9388 94.8972 24.3528C94.3112 23.7667 93.5163 23.4375 92.6875 23.4375H83.3125L70.8125 35.9375Z" fill="#FFC700"/>
<path d="M22.375 14.0625H88V35.9375H22.375V14.0625Z" fill="#F7FCFF"/>
<path d="M40.6407 24.2344L52.2345 35.1719C52.7575 35.6808 53.4578 35.9666 54.1876 35.9688H95.8126V90.5C95.9039 91.6726 95.5309 92.8342 94.7739 93.7344C94.0169 94.6345 92.9366 95.2013 91.7657 95.3125H21.7345C20.5636 95.2013 19.4832 94.6345 18.7262 93.7344C17.9693 92.8342 17.5962 91.6726 17.6876 90.5V28.125C17.5965 26.9806 17.9606 25.8464 18.7007 24.9687C19.4408 24.0911 20.4973 23.5409 21.6407 23.4375H38.672C39.4065 23.4389 40.112 23.7245 40.6407 24.2344Z" fill="#282828"/>
<path d="M40.6407 24.2344L52.2345 35.1719C52.7575 35.6808 53.4578 35.9666 54.1876 35.9688H95.8126V90.5C95.9039 91.6726 95.5309 92.8342 94.7739 93.7344C94.0169 94.6345 92.9366 95.2013 91.7657 95.3125H21.7345C20.5636 95.2013 19.4832 94.6345 18.7262 93.7344C17.9693 92.8342 17.5962 91.6726 17.6876 90.5V28.125C17.5965 26.9806 17.9606 25.8464 18.7007 24.9687C19.4408 24.0911 20.4973 23.5409 21.6407 23.4375H38.672C39.4065 23.4389 40.112 23.7245 40.6407 24.2344Z" fill="#282828"/>
<path d="M40.6407 24.2344L52.2345 35.1719C52.7575 35.6808 53.4578 35.9666 54.1876 35.9688H95.8126V90.5C95.9039 91.6726 95.5309 92.8342 94.7739 93.7344C94.0169 94.6345 92.9366 95.2013 91.7657 95.3125H21.7345C20.5636 95.2013 19.4832 94.6345 18.7262 93.7344C17.9693 92.8342 17.5962 91.6726 17.6876 90.5V28.125C17.5965 26.9806 17.9606 25.8464 18.7007 24.9687C19.4408 24.0911 20.4973 23.5409 21.6407 23.4375H38.672C39.4065 23.4389 40.112 23.7245 40.6407 24.2344Z" fill="#282828"/>
<path d="M56.75 85.9375C67.9683 85.9375 77.0625 76.8433 77.0625 65.625C77.0625 54.4067 67.9683 45.3125 56.75 45.3125C45.5317 45.3125 36.4375 54.4067 36.4375 65.625C36.4375 76.8433 45.5317 85.9375 56.75 85.9375Z" fill="#F7FCFF"/>
<path d="M61.4373 56.25L59.2029 67.1875C59.0765 67.7437 58.765 68.2404 58.3192 68.5962C57.8735 68.9521 57.3201 69.1459 56.7498 69.1459C56.1794 69.1459 55.626 68.9521 55.1803 68.5962C54.7346 68.2404 54.423 67.7437 54.2966 67.1875L52.0623 56.25C51.0154 48.6563 62.4841 48.6719 61.4373 56.25Z" fill="black"/>
<path d="M61.4373 56.25L59.2029 67.1875C59.0765 67.7437 58.765 68.2404 58.3192 68.5962C57.8735 68.9521 57.3201 69.1459 56.7498 69.1459C56.1794 69.1459 55.626 68.9521 55.1803 68.5962C54.7346 68.2404 54.423 67.7437 54.2966 67.1875L52.0623 56.25C51.0154 48.6563 62.4841 48.6719 61.4373 56.25Z" fill="black"/>
<path d="M61.4373 56.25L59.2029 67.1875C59.0765 67.7437 58.765 68.2404 58.3192 68.5962C57.8735 68.9521 57.3201 69.1459 56.7498 69.1459C56.1794 69.1459 55.626 68.9521 55.1803 68.5962C54.7346 68.2404 54.423 67.7437 54.2966 67.1875L52.0623 56.25C51.0154 48.6563 62.4841 48.6719 61.4373 56.25Z" fill="#FFC700"/>
<path d="M56.75 79.6875C58.4759 79.6875 59.875 78.2884 59.875 76.5625C59.875 74.8366 58.4759 73.4375 56.75 73.4375C55.0241 73.4375 53.625 74.8366 53.625 76.5625C53.625 78.2884 55.0241 79.6875 56.75 79.6875Z" fill="black"/>
<path d="M56.75 79.6875C58.4759 79.6875 59.875 78.2884 59.875 76.5625C59.875 74.8366 58.4759 73.4375 56.75 73.4375C55.0241 73.4375 53.625 74.8366 53.625 76.5625C53.625 78.2884 55.0241 79.6875 56.75 79.6875Z" fill="black"/>
<path d="M56.75 79.6875C58.4759 79.6875 59.875 78.2884 59.875 76.5625C59.875 74.8366 58.4759 73.4375 56.75 73.4375C55.0241 73.4375 53.625 74.8366 53.625 76.5625C53.625 78.2884 55.0241 79.6875 56.75 79.6875Z" fill="#FFC700"/>
<path d="M81.75 20.3125H50.5C50.0856 20.3125 49.6882 20.4771 49.3951 20.7701C49.1021 21.0632 48.9375 21.4606 48.9375 21.875C48.9375 22.2894 49.1021 22.6868 49.3951 22.9799C49.6882 23.2729 50.0856 23.4375 50.5 23.4375H81.75C82.1644 23.4375 82.5618 23.2729 82.8549 22.9799C83.1479 22.6868 83.3125 22.2894 83.3125 21.875C83.3125 21.4606 83.1479 21.0632 82.8549 20.7701C82.5618 20.4771 82.1644 20.3125 81.75 20.3125ZM81.75 26.5625H58.3125C57.8981 26.5625 57.5007 26.7271 57.2076 27.0201C56.9146 27.3132 56.75 27.7106 56.75 28.125C56.75 28.5394 56.9146 28.9368 57.2076 29.2299C57.5007 29.5229 57.8981 29.6875 58.3125 29.6875H81.75C82.1644 29.6875 82.5618 29.5229 82.8549 29.2299C83.1479 28.9368 83.3125 28.5394 83.3125 28.125C83.3125 27.7106 83.1479 27.3132 82.8549 27.0201C82.5618 26.7271 82.1644 26.5625 81.75 26.5625Z" fill="#D7E6EF"/>
</svg>
