<svg width="251" height="53" viewBox="0 0 251 53" fill="none" xmlns="http://www.w3.org/2000/svg">
<path d="M60.8449 39.6431C60.526 39.6431 60.2651 39.5416 60.0622 39.3387C59.8593 39.1358 59.7578 38.8749 59.7578 38.556V10.2931C59.7578 9.97422 59.8593 9.71333 60.0622 9.51042C60.2651 9.3075 60.526 9.20604 60.8449 9.20604H80.542C80.8608 9.20604 81.1217 9.3075 81.3246 9.51042C81.5275 9.71333 81.629 9.97422 81.629 10.2931V13.7716C81.629 14.0615 81.5275 14.3079 81.3246 14.5108C81.1217 14.7137 80.8608 14.8152 80.542 14.8152H66.454V21.6417H79.5854C79.9042 21.6417 80.1651 21.7432 80.368 21.9461C80.5709 22.149 80.6724 22.4099 80.6724 22.7288V25.9464C80.6724 26.2363 80.5709 26.4827 80.368 26.6856C80.1651 26.8885 79.9042 26.99 79.5854 26.99H66.454V34.034H80.8898C81.2087 34.034 81.4696 34.1354 81.6725 34.3383C81.8754 34.5412 81.9768 34.8021 81.9768 35.121V38.556C81.9768 38.8749 81.8754 39.1358 81.6725 39.3387C81.4696 39.5416 81.2087 39.6431 80.8898 39.6431H60.8449ZM102.542 47.9045C102.252 47.9045 102.005 47.8031 101.802 47.6002C101.599 47.3973 101.498 47.1364 101.498 46.8175V37.0777C100.802 38.0053 99.9037 38.7444 98.8021 39.2952C97.7296 39.817 96.4541 40.0779 94.9758 40.0779C93.4974 40.0779 92.1929 39.8315 91.0624 39.3387C89.9319 38.8459 88.9753 38.1502 88.1927 37.2516C87.41 36.353 86.8157 35.2804 86.4099 34.034C86.0041 32.7875 85.7722 31.4251 85.7142 29.9467C85.6852 29.3669 85.6707 28.8307 85.6707 28.3379C85.6707 27.8451 85.6852 27.3233 85.7142 26.7726C85.7722 25.2072 86.0041 23.8013 86.4099 22.5549C86.8447 21.3084 87.439 20.2503 88.1927 19.3807C88.9753 18.4821 89.9319 17.8009 91.0624 17.3371C92.1929 16.8443 93.4974 16.5979 94.9758 16.5979C96.6281 16.5979 98.005 16.9023 99.1065 17.511C100.237 18.0908 101.136 18.8444 101.802 19.772V18.1197C101.802 17.8009 101.904 17.54 102.107 17.3371C102.31 17.1342 102.571 17.0327 102.889 17.0327H107.02C107.339 17.0327 107.6 17.1342 107.803 17.3371C108.006 17.54 108.107 17.8009 108.107 18.1197V46.8175C108.107 47.1364 108.006 47.3973 107.803 47.6002C107.6 47.8031 107.339 47.9045 107.02 47.9045H102.542ZM96.9324 34.8601C97.976 34.8601 98.8166 34.6282 99.4544 34.1644C100.121 33.7006 100.614 33.1208 100.933 32.4251C101.281 31.7005 101.469 30.9323 101.498 30.1206C101.527 29.5699 101.541 29.0191 101.541 28.4683C101.541 27.9176 101.527 27.3813 101.498 26.8595C101.469 25.9899 101.295 25.1782 100.976 24.4246C100.686 23.6709 100.208 23.0476 99.5413 22.5549C98.9036 22.0621 98.034 21.8157 96.9324 21.8157C95.8599 21.8157 94.9903 22.0621 94.3235 22.5549C93.6858 23.0187 93.222 23.6419 92.9321 24.4246C92.6712 25.2072 92.5118 26.0624 92.4538 26.99C92.3959 27.8886 92.3959 28.7872 92.4538 29.6858C92.5118 30.6134 92.6712 31.4686 92.9321 32.2512C93.222 33.0339 93.6858 33.6716 94.3235 34.1644C94.9903 34.6282 95.8599 34.8601 96.9324 34.8601ZM121.894 40.0779C120.213 40.0779 118.72 39.701 117.415 38.9474C116.14 38.1647 115.14 37.0487 114.415 35.5993C113.719 34.1209 113.371 32.3382 113.371 30.2511V18.1197C113.371 17.8009 113.473 17.54 113.676 17.3371C113.879 17.1342 114.125 17.0327 114.415 17.0327H119.024C119.343 17.0327 119.604 17.1342 119.807 17.3371C120.01 17.54 120.111 17.8009 120.111 18.1197V29.9902C120.111 33.2368 121.531 34.8601 124.372 34.8601C125.735 34.8601 126.807 34.4398 127.59 33.5991C128.402 32.7295 128.807 31.5265 128.807 29.9902V18.1197C128.807 17.8009 128.909 17.54 129.112 17.3371C129.315 17.1342 129.576 17.0327 129.894 17.0327H134.503C134.793 17.0327 135.04 17.1342 135.243 17.3371C135.446 17.54 135.547 17.8009 135.547 18.1197V38.556C135.547 38.8749 135.446 39.1358 135.243 39.3387C135.04 39.5416 134.793 39.6431 134.503 39.6431H130.242C129.923 39.6431 129.663 39.5416 129.46 39.3387C129.257 39.1358 129.155 38.8749 129.155 38.556V36.8603C128.402 37.9038 127.43 38.701 126.242 39.2517C125.053 39.8025 123.604 40.0779 121.894 40.0779ZM142.063 39.6431C141.773 39.6431 141.527 39.5416 141.324 39.3387C141.121 39.1358 141.02 38.8749 141.02 38.556V18.1197C141.02 17.8009 141.121 17.54 141.324 17.3371C141.527 17.1342 141.773 17.0327 142.063 17.0327H146.411C146.73 17.0327 146.991 17.1342 147.194 17.3371C147.397 17.54 147.498 17.8009 147.498 18.1197V38.556C147.498 38.8749 147.397 39.1358 147.194 39.3387C146.991 39.5416 146.73 39.6431 146.411 39.6431H142.063ZM141.933 13.5542C141.643 13.5542 141.396 13.4527 141.193 13.2498C140.991 13.0469 140.889 12.786 140.889 12.4672V8.98864C140.889 8.66977 140.991 8.40889 141.193 8.20597C141.396 7.97407 141.643 7.85812 141.933 7.85812H146.498C146.817 7.85812 147.078 7.97407 147.281 8.20597C147.513 8.40889 147.629 8.66977 147.629 8.98864V12.4672C147.629 12.786 147.513 13.0469 147.281 13.2498C147.078 13.4527 146.817 13.5542 146.498 13.5542H141.933ZM154.517 39.6431C154.198 39.6431 153.937 39.5416 153.734 39.3387C153.531 39.1358 153.43 38.8749 153.43 38.556V10.2931C153.43 9.97422 153.531 9.71333 153.734 9.51042C153.937 9.3075 154.198 9.20604 154.517 9.20604H158.474C158.908 9.20604 159.227 9.3075 159.43 9.51042C159.633 9.71333 159.764 9.87276 159.822 9.98871L171.431 28.1205V10.2931C171.431 9.97422 171.533 9.71333 171.735 9.51042C171.938 9.3075 172.185 9.20604 172.475 9.20604H176.91C177.229 9.20604 177.49 9.3075 177.692 9.51042C177.895 9.71333 177.997 9.97422 177.997 10.2931V38.556C177.997 38.8459 177.895 39.1068 177.692 39.3387C177.49 39.5416 177.229 39.6431 176.91 39.6431H172.909C172.475 39.6431 172.156 39.5416 171.953 39.3387C171.779 39.1068 171.649 38.9474 171.562 38.8604L159.995 21.2939V38.556C159.995 38.8749 159.894 39.1358 159.691 39.3387C159.488 39.5416 159.227 39.6431 158.908 39.6431H154.517ZM194.037 40.0779C190.703 40.0779 188.051 39.1503 186.08 37.2951C184.137 35.4399 183.108 32.744 182.992 29.2075C182.992 28.9756 182.992 28.6712 182.992 28.2944C182.992 27.8886 182.992 27.5697 182.992 27.3378C183.108 25.1058 183.616 23.1926 184.514 21.5983C185.413 19.975 186.674 18.743 188.297 17.9023C189.92 17.0327 191.819 16.5979 193.993 16.5979C196.428 16.5979 198.457 17.1052 200.081 18.1197C201.733 19.1053 202.965 20.4677 203.777 22.207C204.617 23.9173 205.038 25.8884 205.038 28.1205V29.1206C205.038 29.4104 204.922 29.6568 204.69 29.8597C204.487 30.0627 204.24 30.1641 203.95 30.1641H189.732C189.732 30.1931 189.732 30.2511 189.732 30.338C189.732 30.396 189.732 30.454 189.732 30.512C189.761 31.4396 189.935 32.2947 190.254 33.0774C190.602 33.831 191.08 34.4398 191.689 34.9036C192.326 35.3674 193.08 35.5993 193.95 35.5993C194.674 35.5993 195.269 35.4978 195.732 35.2949C196.196 35.092 196.573 34.8456 196.863 34.5557C197.182 34.2659 197.414 34.0195 197.559 33.8166C197.82 33.5267 198.023 33.3527 198.167 33.2948C198.341 33.2078 198.602 33.1643 198.95 33.1643H203.472C203.762 33.1643 203.994 33.2513 204.168 33.4252C204.371 33.5702 204.458 33.7876 204.429 34.0774C204.4 34.5412 204.153 35.121 203.69 35.8167C203.255 36.4834 202.603 37.1501 201.733 37.8168C200.863 38.4546 199.776 38.9908 198.472 39.4257C197.196 39.8605 195.718 40.0779 194.037 40.0779ZM189.732 26.2073H198.254V26.1203C198.254 25.0768 198.08 24.1782 197.733 23.4245C197.414 22.6418 196.935 22.0331 196.298 21.5983C195.66 21.1634 194.892 20.946 193.993 20.946C193.095 20.946 192.326 21.1634 191.689 21.5983C191.051 22.0331 190.558 22.6418 190.21 23.4245C189.891 24.1782 189.732 25.0768 189.732 26.1203V26.2073ZM218.298 40.0779C216.5 40.0779 214.95 39.875 213.645 39.4691C212.37 39.0343 211.326 38.5125 210.514 37.9038C209.732 37.2951 209.138 36.6863 208.732 36.0776C208.355 35.4399 208.152 34.9036 208.123 34.4688C208.094 34.1499 208.195 33.889 208.427 33.6861C208.659 33.4832 208.891 33.3817 209.123 33.3817H213.341C213.428 33.3817 213.515 33.3962 213.602 33.4252C213.689 33.4542 213.776 33.5267 213.863 33.6426C214.239 33.9035 214.631 34.2079 215.037 34.5557C215.442 34.8746 215.906 35.15 216.428 35.3819C216.979 35.6138 217.66 35.7297 218.472 35.7297C219.428 35.7297 220.24 35.5413 220.907 35.1645C221.573 34.7586 221.907 34.1934 221.907 33.4687C221.907 32.9469 221.747 32.5121 221.428 32.1643C221.138 31.8164 220.573 31.4975 219.733 31.2077C218.892 30.9178 217.645 30.5989 215.993 30.2511C214.428 29.9032 213.094 29.4394 211.993 28.8597C210.891 28.2799 210.065 27.5552 209.514 26.6856C208.964 25.787 208.688 24.7144 208.688 23.468C208.688 22.3374 209.036 21.2504 209.732 20.2069C210.457 19.1633 211.515 18.3082 212.906 17.6414C214.297 16.9457 216.037 16.5979 218.124 16.5979C219.718 16.5979 221.109 16.8008 222.298 17.2066C223.515 17.5835 224.53 18.0763 225.342 18.685C226.153 19.2648 226.762 19.8735 227.168 20.5112C227.603 21.12 227.835 21.6562 227.864 22.12C227.893 22.4099 227.806 22.6563 227.603 22.8592C227.4 23.0621 227.168 23.1636 226.907 23.1636H223.037C222.892 23.1636 222.762 23.1491 222.646 23.1201C222.53 23.0621 222.428 22.9897 222.341 22.9027C221.994 22.6708 221.631 22.4099 221.254 22.12C220.907 21.8012 220.486 21.5258 219.993 21.2939C219.501 21.062 218.863 20.946 218.08 20.946C217.124 20.946 216.384 21.1634 215.863 21.5983C215.37 22.0041 215.124 22.5259 215.124 23.1636C215.124 23.5694 215.254 23.9463 215.515 24.2941C215.776 24.642 216.312 24.9608 217.124 25.2507C217.935 25.5406 219.167 25.845 220.82 26.1638C222.791 26.5117 224.356 27.0334 225.516 27.7291C226.675 28.4249 227.501 29.2365 227.994 30.1641C228.516 31.0627 228.777 32.0338 228.777 33.0774C228.777 34.4398 228.371 35.6573 227.559 36.7298C226.748 37.7734 225.559 38.5995 223.994 39.2083C222.457 39.788 220.559 40.0779 218.298 40.0779ZM243.736 39.6431C241.939 39.6431 240.402 39.3532 239.127 38.7734C237.852 38.1647 236.88 37.2371 236.214 35.9906C235.576 34.7442 235.257 33.1788 235.257 31.2946V22.1635H231.866C231.547 22.1635 231.286 22.0621 231.083 21.8592C230.88 21.6562 230.779 21.3953 230.779 21.0765V18.1197C230.779 17.8009 230.88 17.54 231.083 17.3371C231.286 17.1342 231.547 17.0327 231.866 17.0327H235.257V9.85827C235.257 9.5394 235.359 9.27851 235.561 9.0756C235.793 8.87269 236.054 8.77123 236.344 8.77123H240.605C240.924 8.77123 241.185 8.87269 241.388 9.0756C241.591 9.27851 241.692 9.5394 241.692 9.85827V17.0327H247.128C247.417 17.0327 247.664 17.1342 247.867 17.3371C248.07 17.54 248.171 17.8009 248.171 18.1197V21.0765C248.171 21.3953 248.07 21.6562 247.867 21.8592C247.664 22.0621 247.417 22.1635 247.128 22.1635H241.692V30.7728C241.692 31.8744 241.881 32.744 242.258 33.3817C242.663 33.9905 243.359 34.2948 244.345 34.2948H247.519C247.809 34.2948 248.055 34.3963 248.258 34.5992C248.461 34.8021 248.562 35.0485 248.562 35.3384V38.556C248.562 38.8749 248.461 39.1358 248.258 39.3387C248.055 39.5416 247.809 39.6431 247.519 39.6431H243.736Z" fill="#282828"/>
<path d="M60.8449 39.6431C60.526 39.6431 60.2651 39.5416 60.0622 39.3387C59.8593 39.1358 59.7578 38.8749 59.7578 38.556V10.2931C59.7578 9.97422 59.8593 9.71333 60.0622 9.51042C60.2651 9.3075 60.526 9.20604 60.8449 9.20604H80.542C80.8608 9.20604 81.1217 9.3075 81.3246 9.51042C81.5275 9.71333 81.629 9.97422 81.629 10.2931V13.7716C81.629 14.0615 81.5275 14.3079 81.3246 14.5108C81.1217 14.7137 80.8608 14.8152 80.542 14.8152H66.454V21.6417H79.5854C79.9042 21.6417 80.1651 21.7432 80.368 21.9461C80.5709 22.149 80.6724 22.4099 80.6724 22.7288V25.9464C80.6724 26.2363 80.5709 26.4827 80.368 26.6856C80.1651 26.8885 79.9042 26.99 79.5854 26.99H66.454V34.034H80.8898C81.2087 34.034 81.4696 34.1354 81.6725 34.3383C81.8754 34.5412 81.9768 34.8021 81.9768 35.121V38.556C81.9768 38.8749 81.8754 39.1358 81.6725 39.3387C81.4696 39.5416 81.2087 39.6431 80.8898 39.6431H60.8449ZM102.542 47.9045C102.252 47.9045 102.005 47.8031 101.802 47.6002C101.599 47.3973 101.498 47.1364 101.498 46.8175V37.0777C100.802 38.0053 99.9037 38.7444 98.8021 39.2952C97.7296 39.817 96.4541 40.0779 94.9758 40.0779C93.4974 40.0779 92.1929 39.8315 91.0624 39.3387C89.9319 38.8459 88.9753 38.1502 88.1927 37.2516C87.41 36.353 86.8157 35.2804 86.4099 34.034C86.0041 32.7875 85.7722 31.4251 85.7142 29.9467C85.6852 29.3669 85.6707 28.8307 85.6707 28.3379C85.6707 27.8451 85.6852 27.3233 85.7142 26.7726C85.7722 25.2072 86.0041 23.8013 86.4099 22.5549C86.8447 21.3084 87.439 20.2503 88.1927 19.3807C88.9753 18.4821 89.9319 17.8009 91.0624 17.3371C92.1929 16.8443 93.4974 16.5979 94.9758 16.5979C96.6281 16.5979 98.005 16.9023 99.1065 17.511C100.237 18.0908 101.136 18.8444 101.802 19.772V18.1197C101.802 17.8009 101.904 17.54 102.107 17.3371C102.31 17.1342 102.571 17.0327 102.889 17.0327H107.02C107.339 17.0327 107.6 17.1342 107.803 17.3371C108.006 17.54 108.107 17.8009 108.107 18.1197V46.8175C108.107 47.1364 108.006 47.3973 107.803 47.6002C107.6 47.8031 107.339 47.9045 107.02 47.9045H102.542ZM96.9324 34.8601C97.976 34.8601 98.8166 34.6282 99.4544 34.1644C100.121 33.7006 100.614 33.1208 100.933 32.4251C101.281 31.7005 101.469 30.9323 101.498 30.1206C101.527 29.5699 101.541 29.0191 101.541 28.4683C101.541 27.9176 101.527 27.3813 101.498 26.8595C101.469 25.9899 101.295 25.1782 100.976 24.4246C100.686 23.6709 100.208 23.0476 99.5413 22.5549C98.9036 22.0621 98.034 21.8157 96.9324 21.8157C95.8599 21.8157 94.9903 22.0621 94.3235 22.5549C93.6858 23.0187 93.222 23.6419 92.9321 24.4246C92.6712 25.2072 92.5118 26.0624 92.4538 26.99C92.3959 27.8886 92.3959 28.7872 92.4538 29.6858C92.5118 30.6134 92.6712 31.4686 92.9321 32.2512C93.222 33.0339 93.6858 33.6716 94.3235 34.1644C94.9903 34.6282 95.8599 34.8601 96.9324 34.8601ZM121.894 40.0779C120.213 40.0779 118.72 39.701 117.415 38.9474C116.14 38.1647 115.14 37.0487 114.415 35.5993C113.719 34.1209 113.371 32.3382 113.371 30.2511V18.1197C113.371 17.8009 113.473 17.54 113.676 17.3371C113.879 17.1342 114.125 17.0327 114.415 17.0327H119.024C119.343 17.0327 119.604 17.1342 119.807 17.3371C120.01 17.54 120.111 17.8009 120.111 18.1197V29.9902C120.111 33.2368 121.531 34.8601 124.372 34.8601C125.735 34.8601 126.807 34.4398 127.59 33.5991C128.402 32.7295 128.807 31.5265 128.807 29.9902V18.1197C128.807 17.8009 128.909 17.54 129.112 17.3371C129.315 17.1342 129.576 17.0327 129.894 17.0327H134.503C134.793 17.0327 135.04 17.1342 135.243 17.3371C135.446 17.54 135.547 17.8009 135.547 18.1197V38.556C135.547 38.8749 135.446 39.1358 135.243 39.3387C135.04 39.5416 134.793 39.6431 134.503 39.6431H130.242C129.923 39.6431 129.663 39.5416 129.46 39.3387C129.257 39.1358 129.155 38.8749 129.155 38.556V36.8603C128.402 37.9038 127.43 38.701 126.242 39.2517C125.053 39.8025 123.604 40.0779 121.894 40.0779ZM142.063 39.6431C141.773 39.6431 141.527 39.5416 141.324 39.3387C141.121 39.1358 141.02 38.8749 141.02 38.556V18.1197C141.02 17.8009 141.121 17.54 141.324 17.3371C141.527 17.1342 141.773 17.0327 142.063 17.0327H146.411C146.73 17.0327 146.991 17.1342 147.194 17.3371C147.397 17.54 147.498 17.8009 147.498 18.1197V38.556C147.498 38.8749 147.397 39.1358 147.194 39.3387C146.991 39.5416 146.73 39.6431 146.411 39.6431H142.063ZM141.933 13.5542C141.643 13.5542 141.396 13.4527 141.193 13.2498C140.991 13.0469 140.889 12.786 140.889 12.4672V8.98864C140.889 8.66977 140.991 8.40889 141.193 8.20597C141.396 7.97407 141.643 7.85812 141.933 7.85812H146.498C146.817 7.85812 147.078 7.97407 147.281 8.20597C147.513 8.40889 147.629 8.66977 147.629 8.98864V12.4672C147.629 12.786 147.513 13.0469 147.281 13.2498C147.078 13.4527 146.817 13.5542 146.498 13.5542H141.933ZM154.517 39.6431C154.198 39.6431 153.937 39.5416 153.734 39.3387C153.531 39.1358 153.43 38.8749 153.43 38.556V10.2931C153.43 9.97422 153.531 9.71333 153.734 9.51042C153.937 9.3075 154.198 9.20604 154.517 9.20604H158.474C158.908 9.20604 159.227 9.3075 159.43 9.51042C159.633 9.71333 159.764 9.87276 159.822 9.98871L171.431 28.1205V10.2931C171.431 9.97422 171.533 9.71333 171.735 9.51042C171.938 9.3075 172.185 9.20604 172.475 9.20604H176.91C177.229 9.20604 177.49 9.3075 177.692 9.51042C177.895 9.71333 177.997 9.97422 177.997 10.2931V38.556C177.997 38.8459 177.895 39.1068 177.692 39.3387C177.49 39.5416 177.229 39.6431 176.91 39.6431H172.909C172.475 39.6431 172.156 39.5416 171.953 39.3387C171.779 39.1068 171.649 38.9474 171.562 38.8604L159.995 21.2939V38.556C159.995 38.8749 159.894 39.1358 159.691 39.3387C159.488 39.5416 159.227 39.6431 158.908 39.6431H154.517ZM194.037 40.0779C190.703 40.0779 188.051 39.1503 186.08 37.2951C184.137 35.4399 183.108 32.744 182.992 29.2075C182.992 28.9756 182.992 28.6712 182.992 28.2944C182.992 27.8886 182.992 27.5697 182.992 27.3378C183.108 25.1058 183.616 23.1926 184.514 21.5983C185.413 19.975 186.674 18.743 188.297 17.9023C189.92 17.0327 191.819 16.5979 193.993 16.5979C196.428 16.5979 198.457 17.1052 200.081 18.1197C201.733 19.1053 202.965 20.4677 203.777 22.207C204.617 23.9173 205.038 25.8884 205.038 28.1205V29.1206C205.038 29.4104 204.922 29.6568 204.69 29.8597C204.487 30.0627 204.24 30.1641 203.95 30.1641H189.732C189.732 30.1931 189.732 30.2511 189.732 30.338C189.732 30.396 189.732 30.454 189.732 30.512C189.761 31.4396 189.935 32.2947 190.254 33.0774C190.602 33.831 191.08 34.4398 191.689 34.9036C192.326 35.3674 193.08 35.5993 193.95 35.5993C194.674 35.5993 195.269 35.4978 195.732 35.2949C196.196 35.092 196.573 34.8456 196.863 34.5557C197.182 34.2659 197.414 34.0195 197.559 33.8166C197.82 33.5267 198.023 33.3527 198.167 33.2948C198.341 33.2078 198.602 33.1643 198.95 33.1643H203.472C203.762 33.1643 203.994 33.2513 204.168 33.4252C204.371 33.5702 204.458 33.7876 204.429 34.0774C204.4 34.5412 204.153 35.121 203.69 35.8167C203.255 36.4834 202.603 37.1501 201.733 37.8168C200.863 38.4546 199.776 38.9908 198.472 39.4257C197.196 39.8605 195.718 40.0779 194.037 40.0779ZM189.732 26.2073H198.254V26.1203C198.254 25.0768 198.08 24.1782 197.733 23.4245C197.414 22.6418 196.935 22.0331 196.298 21.5983C195.66 21.1634 194.892 20.946 193.993 20.946C193.095 20.946 192.326 21.1634 191.689 21.5983C191.051 22.0331 190.558 22.6418 190.21 23.4245C189.891 24.1782 189.732 25.0768 189.732 26.1203V26.2073ZM218.298 40.0779C216.5 40.0779 214.95 39.875 213.645 39.4691C212.37 39.0343 211.326 38.5125 210.514 37.9038C209.732 37.2951 209.138 36.6863 208.732 36.0776C208.355 35.4399 208.152 34.9036 208.123 34.4688C208.094 34.1499 208.195 33.889 208.427 33.6861C208.659 33.4832 208.891 33.3817 209.123 33.3817H213.341C213.428 33.3817 213.515 33.3962 213.602 33.4252C213.689 33.4542 213.776 33.5267 213.863 33.6426C214.239 33.9035 214.631 34.2079 215.037 34.5557C215.442 34.8746 215.906 35.15 216.428 35.3819C216.979 35.6138 217.66 35.7297 218.472 35.7297C219.428 35.7297 220.24 35.5413 220.907 35.1645C221.573 34.7586 221.907 34.1934 221.907 33.4687C221.907 32.9469 221.747 32.5121 221.428 32.1643C221.138 31.8164 220.573 31.4975 219.733 31.2077C218.892 30.9178 217.645 30.5989 215.993 30.2511C214.428 29.9032 213.094 29.4394 211.993 28.8597C210.891 28.2799 210.065 27.5552 209.514 26.6856C208.964 25.787 208.688 24.7144 208.688 23.468C208.688 22.3374 209.036 21.2504 209.732 20.2069C210.457 19.1633 211.515 18.3082 212.906 17.6414C214.297 16.9457 216.037 16.5979 218.124 16.5979C219.718 16.5979 221.109 16.8008 222.298 17.2066C223.515 17.5835 224.53 18.0763 225.342 18.685C226.153 19.2648 226.762 19.8735 227.168 20.5112C227.603 21.12 227.835 21.6562 227.864 22.12C227.893 22.4099 227.806 22.6563 227.603 22.8592C227.4 23.0621 227.168 23.1636 226.907 23.1636H223.037C222.892 23.1636 222.762 23.1491 222.646 23.1201C222.53 23.0621 222.428 22.9897 222.341 22.9027C221.994 22.6708 221.631 22.4099 221.254 22.12C220.907 21.8012 220.486 21.5258 219.993 21.2939C219.501 21.062 218.863 20.946 218.08 20.946C217.124 20.946 216.384 21.1634 215.863 21.5983C215.37 22.0041 215.124 22.5259 215.124 23.1636C215.124 23.5694 215.254 23.9463 215.515 24.2941C215.776 24.642 216.312 24.9608 217.124 25.2507C217.935 25.5406 219.167 25.845 220.82 26.1638C222.791 26.5117 224.356 27.0334 225.516 27.7291C226.675 28.4249 227.501 29.2365 227.994 30.1641C228.516 31.0627 228.777 32.0338 228.777 33.0774C228.777 34.4398 228.371 35.6573 227.559 36.7298C226.748 37.7734 225.559 38.5995 223.994 39.2083C222.457 39.788 220.559 40.0779 218.298 40.0779ZM243.736 39.6431C241.939 39.6431 240.402 39.3532 239.127 38.7734C237.852 38.1647 236.88 37.2371 236.214 35.9906C235.576 34.7442 235.257 33.1788 235.257 31.2946V22.1635H231.866C231.547 22.1635 231.286 22.0621 231.083 21.8592C230.88 21.6562 230.779 21.3953 230.779 21.0765V18.1197C230.779 17.8009 230.88 17.54 231.083 17.3371C231.286 17.1342 231.547 17.0327 231.866 17.0327H235.257V9.85827C235.257 9.5394 235.359 9.27851 235.561 9.0756C235.793 8.87269 236.054 8.77123 236.344 8.77123H240.605C240.924 8.77123 241.185 8.87269 241.388 9.0756C241.591 9.27851 241.692 9.5394 241.692 9.85827V17.0327H247.128C247.417 17.0327 247.664 17.1342 247.867 17.3371C248.07 17.54 248.171 17.8009 248.171 18.1197V21.0765C248.171 21.3953 248.07 21.6562 247.867 21.8592C247.664 22.0621 247.417 22.1635 247.128 22.1635H241.692V30.7728C241.692 31.8744 241.881 32.744 242.258 33.3817C242.663 33.9905 243.359 34.2948 244.345 34.2948H247.519C247.809 34.2948 248.055 34.3963 248.258 34.5992C248.461 34.8021 248.562 35.0485 248.562 35.3384V38.556C248.562 38.8749 248.461 39.1358 248.258 39.3387C248.055 39.5416 247.809 39.6431 247.519 39.6431H243.736Z" fill="#282828"/>
<path d="M60.8449 39.6431C60.526 39.6431 60.2651 39.5416 60.0622 39.3387C59.8593 39.1358 59.7578 38.8749 59.7578 38.556V10.2931C59.7578 9.97422 59.8593 9.71333 60.0622 9.51042C60.2651 9.3075 60.526 9.20604 60.8449 9.20604H80.542C80.8608 9.20604 81.1217 9.3075 81.3246 9.51042C81.5275 9.71333 81.629 9.97422 81.629 10.2931V13.7716C81.629 14.0615 81.5275 14.3079 81.3246 14.5108C81.1217 14.7137 80.8608 14.8152 80.542 14.8152H66.454V21.6417H79.5854C79.9042 21.6417 80.1651 21.7432 80.368 21.9461C80.5709 22.149 80.6724 22.4099 80.6724 22.7288V25.9464C80.6724 26.2363 80.5709 26.4827 80.368 26.6856C80.1651 26.8885 79.9042 26.99 79.5854 26.99H66.454V34.034H80.8898C81.2087 34.034 81.4696 34.1354 81.6725 34.3383C81.8754 34.5412 81.9768 34.8021 81.9768 35.121V38.556C81.9768 38.8749 81.8754 39.1358 81.6725 39.3387C81.4696 39.5416 81.2087 39.6431 80.8898 39.6431H60.8449ZM102.542 47.9045C102.252 47.9045 102.005 47.8031 101.802 47.6002C101.599 47.3973 101.498 47.1364 101.498 46.8175V37.0777C100.802 38.0053 99.9037 38.7444 98.8021 39.2952C97.7296 39.817 96.4541 40.0779 94.9758 40.0779C93.4974 40.0779 92.1929 39.8315 91.0624 39.3387C89.9319 38.8459 88.9753 38.1502 88.1927 37.2516C87.41 36.353 86.8157 35.2804 86.4099 34.034C86.0041 32.7875 85.7722 31.4251 85.7142 29.9467C85.6852 29.3669 85.6707 28.8307 85.6707 28.3379C85.6707 27.8451 85.6852 27.3233 85.7142 26.7726C85.7722 25.2072 86.0041 23.8013 86.4099 22.5549C86.8447 21.3084 87.439 20.2503 88.1927 19.3807C88.9753 18.4821 89.9319 17.8009 91.0624 17.3371C92.1929 16.8443 93.4974 16.5979 94.9758 16.5979C96.6281 16.5979 98.005 16.9023 99.1065 17.511C100.237 18.0908 101.136 18.8444 101.802 19.772V18.1197C101.802 17.8009 101.904 17.54 102.107 17.3371C102.31 17.1342 102.571 17.0327 102.889 17.0327H107.02C107.339 17.0327 107.6 17.1342 107.803 17.3371C108.006 17.54 108.107 17.8009 108.107 18.1197V46.8175C108.107 47.1364 108.006 47.3973 107.803 47.6002C107.6 47.8031 107.339 47.9045 107.02 47.9045H102.542ZM96.9324 34.8601C97.976 34.8601 98.8166 34.6282 99.4544 34.1644C100.121 33.7006 100.614 33.1208 100.933 32.4251C101.281 31.7005 101.469 30.9323 101.498 30.1206C101.527 29.5699 101.541 29.0191 101.541 28.4683C101.541 27.9176 101.527 27.3813 101.498 26.8595C101.469 25.9899 101.295 25.1782 100.976 24.4246C100.686 23.6709 100.208 23.0476 99.5413 22.5549C98.9036 22.0621 98.034 21.8157 96.9324 21.8157C95.8599 21.8157 94.9903 22.0621 94.3235 22.5549C93.6858 23.0187 93.222 23.6419 92.9321 24.4246C92.6712 25.2072 92.5118 26.0624 92.4538 26.99C92.3959 27.8886 92.3959 28.7872 92.4538 29.6858C92.5118 30.6134 92.6712 31.4686 92.9321 32.2512C93.222 33.0339 93.6858 33.6716 94.3235 34.1644C94.9903 34.6282 95.8599 34.8601 96.9324 34.8601ZM121.894 40.0779C120.213 40.0779 118.72 39.701 117.415 38.9474C116.14 38.1647 115.14 37.0487 114.415 35.5993C113.719 34.1209 113.371 32.3382 113.371 30.2511V18.1197C113.371 17.8009 113.473 17.54 113.676 17.3371C113.879 17.1342 114.125 17.0327 114.415 17.0327H119.024C119.343 17.0327 119.604 17.1342 119.807 17.3371C120.01 17.54 120.111 17.8009 120.111 18.1197V29.9902C120.111 33.2368 121.531 34.8601 124.372 34.8601C125.735 34.8601 126.807 34.4398 127.59 33.5991C128.402 32.7295 128.807 31.5265 128.807 29.9902V18.1197C128.807 17.8009 128.909 17.54 129.112 17.3371C129.315 17.1342 129.576 17.0327 129.894 17.0327H134.503C134.793 17.0327 135.04 17.1342 135.243 17.3371C135.446 17.54 135.547 17.8009 135.547 18.1197V38.556C135.547 38.8749 135.446 39.1358 135.243 39.3387C135.04 39.5416 134.793 39.6431 134.503 39.6431H130.242C129.923 39.6431 129.663 39.5416 129.46 39.3387C129.257 39.1358 129.155 38.8749 129.155 38.556V36.8603C128.402 37.9038 127.43 38.701 126.242 39.2517C125.053 39.8025 123.604 40.0779 121.894 40.0779ZM142.063 39.6431C141.773 39.6431 141.527 39.5416 141.324 39.3387C141.121 39.1358 141.02 38.8749 141.02 38.556V18.1197C141.02 17.8009 141.121 17.54 141.324 17.3371C141.527 17.1342 141.773 17.0327 142.063 17.0327H146.411C146.73 17.0327 146.991 17.1342 147.194 17.3371C147.397 17.54 147.498 17.8009 147.498 18.1197V38.556C147.498 38.8749 147.397 39.1358 147.194 39.3387C146.991 39.5416 146.73 39.6431 146.411 39.6431H142.063ZM141.933 13.5542C141.643 13.5542 141.396 13.4527 141.193 13.2498C140.991 13.0469 140.889 12.786 140.889 12.4672V8.98864C140.889 8.66977 140.991 8.40889 141.193 8.20597C141.396 7.97407 141.643 7.85812 141.933 7.85812H146.498C146.817 7.85812 147.078 7.97407 147.281 8.20597C147.513 8.40889 147.629 8.66977 147.629 8.98864V12.4672C147.629 12.786 147.513 13.0469 147.281 13.2498C147.078 13.4527 146.817 13.5542 146.498 13.5542H141.933ZM154.517 39.6431C154.198 39.6431 153.937 39.5416 153.734 39.3387C153.531 39.1358 153.43 38.8749 153.43 38.556V10.2931C153.43 9.97422 153.531 9.71333 153.734 9.51042C153.937 9.3075 154.198 9.20604 154.517 9.20604H158.474C158.908 9.20604 159.227 9.3075 159.43 9.51042C159.633 9.71333 159.764 9.87276 159.822 9.98871L171.431 28.1205V10.2931C171.431 9.97422 171.533 9.71333 171.735 9.51042C171.938 9.3075 172.185 9.20604 172.475 9.20604H176.91C177.229 9.20604 177.49 9.3075 177.692 9.51042C177.895 9.71333 177.997 9.97422 177.997 10.2931V38.556C177.997 38.8459 177.895 39.1068 177.692 39.3387C177.49 39.5416 177.229 39.6431 176.91 39.6431H172.909C172.475 39.6431 172.156 39.5416 171.953 39.3387C171.779 39.1068 171.649 38.9474 171.562 38.8604L159.995 21.2939V38.556C159.995 38.8749 159.894 39.1358 159.691 39.3387C159.488 39.5416 159.227 39.6431 158.908 39.6431H154.517ZM194.037 40.0779C190.703 40.0779 188.051 39.1503 186.08 37.2951C184.137 35.4399 183.108 32.744 182.992 29.2075C182.992 28.9756 182.992 28.6712 182.992 28.2944C182.992 27.8886 182.992 27.5697 182.992 27.3378C183.108 25.1058 183.616 23.1926 184.514 21.5983C185.413 19.975 186.674 18.743 188.297 17.9023C189.92 17.0327 191.819 16.5979 193.993 16.5979C196.428 16.5979 198.457 17.1052 200.081 18.1197C201.733 19.1053 202.965 20.4677 203.777 22.207C204.617 23.9173 205.038 25.8884 205.038 28.1205V29.1206C205.038 29.4104 204.922 29.6568 204.69 29.8597C204.487 30.0627 204.24 30.1641 203.95 30.1641H189.732C189.732 30.1931 189.732 30.2511 189.732 30.338C189.732 30.396 189.732 30.454 189.732 30.512C189.761 31.4396 189.935 32.2947 190.254 33.0774C190.602 33.831 191.08 34.4398 191.689 34.9036C192.326 35.3674 193.08 35.5993 193.95 35.5993C194.674 35.5993 195.269 35.4978 195.732 35.2949C196.196 35.092 196.573 34.8456 196.863 34.5557C197.182 34.2659 197.414 34.0195 197.559 33.8166C197.82 33.5267 198.023 33.3527 198.167 33.2948C198.341 33.2078 198.602 33.1643 198.95 33.1643H203.472C203.762 33.1643 203.994 33.2513 204.168 33.4252C204.371 33.5702 204.458 33.7876 204.429 34.0774C204.4 34.5412 204.153 35.121 203.69 35.8167C203.255 36.4834 202.603 37.1501 201.733 37.8168C200.863 38.4546 199.776 38.9908 198.472 39.4257C197.196 39.8605 195.718 40.0779 194.037 40.0779ZM189.732 26.2073H198.254V26.1203C198.254 25.0768 198.08 24.1782 197.733 23.4245C197.414 22.6418 196.935 22.0331 196.298 21.5983C195.66 21.1634 194.892 20.946 193.993 20.946C193.095 20.946 192.326 21.1634 191.689 21.5983C191.051 22.0331 190.558 22.6418 190.21 23.4245C189.891 24.1782 189.732 25.0768 189.732 26.1203V26.2073ZM218.298 40.0779C216.5 40.0779 214.95 39.875 213.645 39.4691C212.37 39.0343 211.326 38.5125 210.514 37.9038C209.732 37.2951 209.138 36.6863 208.732 36.0776C208.355 35.4399 208.152 34.9036 208.123 34.4688C208.094 34.1499 208.195 33.889 208.427 33.6861C208.659 33.4832 208.891 33.3817 209.123 33.3817H213.341C213.428 33.3817 213.515 33.3962 213.602 33.4252C213.689 33.4542 213.776 33.5267 213.863 33.6426C214.239 33.9035 214.631 34.2079 215.037 34.5557C215.442 34.8746 215.906 35.15 216.428 35.3819C216.979 35.6138 217.66 35.7297 218.472 35.7297C219.428 35.7297 220.24 35.5413 220.907 35.1645C221.573 34.7586 221.907 34.1934 221.907 33.4687C221.907 32.9469 221.747 32.5121 221.428 32.1643C221.138 31.8164 220.573 31.4975 219.733 31.2077C218.892 30.9178 217.645 30.5989 215.993 30.2511C214.428 29.9032 213.094 29.4394 211.993 28.8597C210.891 28.2799 210.065 27.5552 209.514 26.6856C208.964 25.787 208.688 24.7144 208.688 23.468C208.688 22.3374 209.036 21.2504 209.732 20.2069C210.457 19.1633 211.515 18.3082 212.906 17.6414C214.297 16.9457 216.037 16.5979 218.124 16.5979C219.718 16.5979 221.109 16.8008 222.298 17.2066C223.515 17.5835 224.53 18.0763 225.342 18.685C226.153 19.2648 226.762 19.8735 227.168 20.5112C227.603 21.12 227.835 21.6562 227.864 22.12C227.893 22.4099 227.806 22.6563 227.603 22.8592C227.4 23.0621 227.168 23.1636 226.907 23.1636H223.037C222.892 23.1636 222.762 23.1491 222.646 23.1201C222.53 23.0621 222.428 22.9897 222.341 22.9027C221.994 22.6708 221.631 22.4099 221.254 22.12C220.907 21.8012 220.486 21.5258 219.993 21.2939C219.501 21.062 218.863 20.946 218.08 20.946C217.124 20.946 216.384 21.1634 215.863 21.5983C215.37 22.0041 215.124 22.5259 215.124 23.1636C215.124 23.5694 215.254 23.9463 215.515 24.2941C215.776 24.642 216.312 24.9608 217.124 25.2507C217.935 25.5406 219.167 25.845 220.82 26.1638C222.791 26.5117 224.356 27.0334 225.516 27.7291C226.675 28.4249 227.501 29.2365 227.994 30.1641C228.516 31.0627 228.777 32.0338 228.777 33.0774C228.777 34.4398 228.371 35.6573 227.559 36.7298C226.748 37.7734 225.559 38.5995 223.994 39.2083C222.457 39.788 220.559 40.0779 218.298 40.0779ZM243.736 39.6431C241.939 39.6431 240.402 39.3532 239.127 38.7734C237.852 38.1647 236.88 37.2371 236.214 35.9906C235.576 34.7442 235.257 33.1788 235.257 31.2946V22.1635H231.866C231.547 22.1635 231.286 22.0621 231.083 21.8592C230.88 21.6562 230.779 21.3953 230.779 21.0765V18.1197C230.779 17.8009 230.88 17.54 231.083 17.3371C231.286 17.1342 231.547 17.0327 231.866 17.0327H235.257V9.85827C235.257 9.5394 235.359 9.27851 235.561 9.0756C235.793 8.87269 236.054 8.77123 236.344 8.77123H240.605C240.924 8.77123 241.185 8.87269 241.388 9.0756C241.591 9.27851 241.692 9.5394 241.692 9.85827V17.0327H247.128C247.417 17.0327 247.664 17.1342 247.867 17.3371C248.07 17.54 248.171 17.8009 248.171 18.1197V21.0765C248.171 21.3953 248.07 21.6562 247.867 21.8592C247.664 22.0621 247.417 22.1635 247.128 22.1635H241.692V30.7728C241.692 31.8744 241.881 32.744 242.258 33.3817C242.663 33.9905 243.359 34.2948 244.345 34.2948H247.519C247.809 34.2948 248.055 34.3963 248.258 34.5992C248.461 34.8021 248.562 35.0485 248.562 35.3384V38.556C248.562 38.8749 248.461 39.1358 248.258 39.3387C248.055 39.5416 247.809 39.6431 247.519 39.6431H243.736Z" fill="#282828"/>
<circle cx="27.9578" cy="24.9355" r="24.9355" fill="#282828"/>
<circle cx="27.9578" cy="24.9355" r="24.9355" fill="#282828"/>
<circle cx="27.9578" cy="24.9355" r="24.9355" fill="#282828"/>
<circle cx="24.9355" cy="27.4545" r="24.3058" fill="black"/>
<circle cx="24.9355" cy="27.4545" r="24.3058" fill="black"/>
<circle cx="24.9355" cy="27.4545" r="24.3058" fill="white"/>
<circle cx="24.9355" cy="27.4545" r="24.3058" stroke="#1A1A1A" stroke-width="1.25937"/>
<rect x="17.5946" y="19.0552" width="3.94067" height="20.6305" rx="1.97033" fill="black"/>
<rect x="23.2739" y="22.5322" width="3.94067" height="17.1535" rx="1.97033" fill="black"/>
<rect x="28.953" y="25.314" width="3.94067" height="14.3718" rx="1.97033" fill="black"/>
<rect x="34.6322" y="28.3271" width="3.94067" height="11.3584" rx="1.97033" fill="black"/>
<path d="M40.3327 22.726C40.6954 22.5222 40.8243 22.0629 40.6205 21.7002C40.4167 21.3374 39.9574 21.2086 39.5947 21.4124L40.3327 22.726ZM19.9127 9.32002L19.7839 18.0182L27.3811 13.7806L19.9127 9.32002ZM39.5947 21.4124C36.3441 23.2385 33.3415 22.8633 30.6735 21.4104C27.9649 19.9354 25.6151 17.3489 23.8327 14.8096L22.5994 15.6753C24.4403 18.2977 26.9505 21.0986 29.9529 22.7336C32.9959 24.3907 36.5555 24.848 40.3327 22.726L39.5947 21.4124Z" fill="#1A1A1A"/>
</svg>
