<svg width="71" height="70" viewBox="0 0 71 70" fill="none" xmlns="http://www.w3.org/2000/svg">
<circle cx="35.5" cy="35" r="35" fill="black"/>
<circle cx="35.5" cy="35" r="35" fill="black"/>
<circle cx="35.5" cy="35" r="35" fill="#FFC700" fill-opacity="0.7"/>
<mask id="mask0_102_1148" style="mask-type:alpha" maskUnits="userSpaceOnUse" x="23" y="22" width="25" height="24">
<rect x="23.5" y="22" width="24" height="24" fill="#D9D9D9"/>
</mask>
<g mask="url(#mask0_102_1148)">
<path d="M29.5 43C28.4 43 27.4583 42.6083 26.675 41.825C25.8917 41.0417 25.5 40.1 25.5 39C25.5 37.9 25.8917 36.9583 26.675 36.175C27.4583 35.3917 28.4 35 29.5 35C30.6 35 31.5417 35.3917 32.325 36.175C33.1083 36.9583 33.5 37.9 33.5 39C33.5 40.1 33.1083 41.0417 32.325 41.825C31.5417 42.6083 30.6 43 29.5 43ZM41.5 43C40.4 43 39.4583 42.6083 38.675 41.825C37.8917 41.0417 37.5 40.1 37.5 39C37.5 37.9 37.8917 36.9583 38.675 36.175C39.4583 35.3917 40.4 35 41.5 35C42.6 35 43.5417 35.3917 44.325 36.175C45.1083 36.9583 45.5 37.9 45.5 39C45.5 40.1 45.1083 41.0417 44.325 41.825C43.5417 42.6083 42.6 43 41.5 43ZM29.5 41C30.05 41 30.5208 40.8042 30.9125 40.4125C31.3042 40.0208 31.5 39.55 31.5 39C31.5 38.45 31.3042 37.9792 30.9125 37.5875C30.5208 37.1958 30.05 37 29.5 37C28.95 37 28.4792 37.1958 28.0875 37.5875C27.6958 37.9792 27.5 38.45 27.5 39C27.5 39.55 27.6958 40.0208 28.0875 40.4125C28.4792 40.8042 28.95 41 29.5 41ZM41.5 41C42.05 41 42.5208 40.8042 42.9125 40.4125C43.3042 40.0208 43.5 39.55 43.5 39C43.5 38.45 43.3042 37.9792 42.9125 37.5875C42.5208 37.1958 42.05 37 41.5 37C40.95 37 40.4792 37.1958 40.0875 37.5875C39.6958 37.9792 39.5 38.45 39.5 39C39.5 39.55 39.6958 40.0208 40.0875 40.4125C40.4792 40.8042 40.95 41 41.5 41ZM35.5 33C34.4 33 33.4583 32.6083 32.675 31.825C31.8917 31.0417 31.5 30.1 31.5 29C31.5 27.9 31.8917 26.9583 32.675 26.175C33.4583 25.3917 34.4 25 35.5 25C36.6 25 37.5417 25.3917 38.325 26.175C39.1083 26.9583 39.5 27.9 39.5 29C39.5 30.1 39.1083 31.0417 38.325 31.825C37.5417 32.6083 36.6 33 35.5 33ZM35.5 31C36.05 31 36.5208 30.8042 36.9125 30.4125C37.3042 30.0208 37.5 29.55 37.5 29C37.5 28.45 37.3042 27.9792 36.9125 27.5875C36.5208 27.1958 36.05 27 35.5 27C34.95 27 34.4792 27.1958 34.0875 27.5875C33.6958 27.9792 33.5 28.45 33.5 29C33.5 29.55 33.6958 30.0208 34.0875 30.4125C34.4792 30.8042 34.95 31 35.5 31Z" fill="black"/>
<path d="M29.5 43C28.4 43 27.4583 42.6083 26.675 41.825C25.8917 41.0417 25.5 40.1 25.5 39C25.5 37.9 25.8917 36.9583 26.675 36.175C27.4583 35.3917 28.4 35 29.5 35C30.6 35 31.5417 35.3917 32.325 36.175C33.1083 36.9583 33.5 37.9 33.5 39C33.5 40.1 33.1083 41.0417 32.325 41.825C31.5417 42.6083 30.6 43 29.5 43ZM41.5 43C40.4 43 39.4583 42.6083 38.675 41.825C37.8917 41.0417 37.5 40.1 37.5 39C37.5 37.9 37.8917 36.9583 38.675 36.175C39.4583 35.3917 40.4 35 41.5 35C42.6 35 43.5417 35.3917 44.325 36.175C45.1083 36.9583 45.5 37.9 45.5 39C45.5 40.1 45.1083 41.0417 44.325 41.825C43.5417 42.6083 42.6 43 41.5 43ZM29.5 41C30.05 41 30.5208 40.8042 30.9125 40.4125C31.3042 40.0208 31.5 39.55 31.5 39C31.5 38.45 31.3042 37.9792 30.9125 37.5875C30.5208 37.1958 30.05 37 29.5 37C28.95 37 28.4792 37.1958 28.0875 37.5875C27.6958 37.9792 27.5 38.45 27.5 39C27.5 39.55 27.6958 40.0208 28.0875 40.4125C28.4792 40.8042 28.95 41 29.5 41ZM41.5 41C42.05 41 42.5208 40.8042 42.9125 40.4125C43.3042 40.0208 43.5 39.55 43.5 39C43.5 38.45 43.3042 37.9792 42.9125 37.5875C42.5208 37.1958 42.05 37 41.5 37C40.95 37 40.4792 37.1958 40.0875 37.5875C39.6958 37.9792 39.5 38.45 39.5 39C39.5 39.55 39.6958 40.0208 40.0875 40.4125C40.4792 40.8042 40.95 41 41.5 41ZM35.5 33C34.4 33 33.4583 32.6083 32.675 31.825C31.8917 31.0417 31.5 30.1 31.5 29C31.5 27.9 31.8917 26.9583 32.675 26.175C33.4583 25.3917 34.4 25 35.5 25C36.6 25 37.5417 25.3917 38.325 26.175C39.1083 26.9583 39.5 27.9 39.5 29C39.5 30.1 39.1083 31.0417 38.325 31.825C37.5417 32.6083 36.6 33 35.5 33ZM35.5 31C36.05 31 36.5208 30.8042 36.9125 30.4125C37.3042 30.0208 37.5 29.55 37.5 29C37.5 28.45 37.3042 27.9792 36.9125 27.5875C36.5208 27.1958 36.05 27 35.5 27C34.95 27 34.4792 27.1958 34.0875 27.5875C33.6958 27.9792 33.5 28.45 33.5 29C33.5 29.55 33.6958 30.0208 34.0875 30.4125C34.4792 30.8042 34.95 31 35.5 31Z" fill="black"/>
<path d="M29.5 43C28.4 43 27.4583 42.6083 26.675 41.825C25.8917 41.0417 25.5 40.1 25.5 39C25.5 37.9 25.8917 36.9583 26.675 36.175C27.4583 35.3917 28.4 35 29.5 35C30.6 35 31.5417 35.3917 32.325 36.175C33.1083 36.9583 33.5 37.9 33.5 39C33.5 40.1 33.1083 41.0417 32.325 41.825C31.5417 42.6083 30.6 43 29.5 43ZM41.5 43C40.4 43 39.4583 42.6083 38.675 41.825C37.8917 41.0417 37.5 40.1 37.5 39C37.5 37.9 37.8917 36.9583 38.675 36.175C39.4583 35.3917 40.4 35 41.5 35C42.6 35 43.5417 35.3917 44.325 36.175C45.1083 36.9583 45.5 37.9 45.5 39C45.5 40.1 45.1083 41.0417 44.325 41.825C43.5417 42.6083 42.6 43 41.5 43ZM29.5 41C30.05 41 30.5208 40.8042 30.9125 40.4125C31.3042 40.0208 31.5 39.55 31.5 39C31.5 38.45 31.3042 37.9792 30.9125 37.5875C30.5208 37.1958 30.05 37 29.5 37C28.95 37 28.4792 37.1958 28.0875 37.5875C27.6958 37.9792 27.5 38.45 27.5 39C27.5 39.55 27.6958 40.0208 28.0875 40.4125C28.4792 40.8042 28.95 41 29.5 41ZM41.5 41C42.05 41 42.5208 40.8042 42.9125 40.4125C43.3042 40.0208 43.5 39.55 43.5 39C43.5 38.45 43.3042 37.9792 42.9125 37.5875C42.5208 37.1958 42.05 37 41.5 37C40.95 37 40.4792 37.1958 40.0875 37.5875C39.6958 37.9792 39.5 38.45 39.5 39C39.5 39.55 39.6958 40.0208 40.0875 40.4125C40.4792 40.8042 40.95 41 41.5 41ZM35.5 33C34.4 33 33.4583 32.6083 32.675 31.825C31.8917 31.0417 31.5 30.1 31.5 29C31.5 27.9 31.8917 26.9583 32.675 26.175C33.4583 25.3917 34.4 25 35.5 25C36.6 25 37.5417 25.3917 38.325 26.175C39.1083 26.9583 39.5 27.9 39.5 29C39.5 30.1 39.1083 31.0417 38.325 31.825C37.5417 32.6083 36.6 33 35.5 33ZM35.5 31C36.05 31 36.5208 30.8042 36.9125 30.4125C37.3042 30.0208 37.5 29.55 37.5 29C37.5 28.45 37.3042 27.9792 36.9125 27.5875C36.5208 27.1958 36.05 27 35.5 27C34.95 27 34.4792 27.1958 34.0875 27.5875C33.6958 27.9792 33.5 28.45 33.5 29C33.5 29.55 33.6958 30.0208 34.0875 30.4125C34.4792 30.8042 34.95 31 35.5 31Z" fill="white"/>
</g>
</svg>
