<svg width="249" height="142" viewBox="0 0 249 142" fill="none" xmlns="http://www.w3.org/2000/svg">
<path d="M5.57469 129.932C5.16355 129.932 4.82716 129.801 4.56553 129.54C4.30389 129.278 4.17307 128.942 4.17307 128.531V92.0884C4.17307 91.6773 4.30389 91.3409 4.56553 91.0793C4.82716 90.8176 5.16355 90.6868 5.57469 90.6868H30.972C31.3832 90.6868 31.7195 90.8176 31.9812 91.0793C32.2428 91.3409 32.3736 91.6773 32.3736 92.0884V96.5736C32.3736 96.9474 32.2428 97.2651 31.9812 97.5267C31.7195 97.7884 31.3832 97.9192 30.972 97.9192H12.807V106.721H29.7386C30.1497 106.721 30.4861 106.852 30.7478 107.114C31.0094 107.375 31.1402 107.712 31.1402 108.123V112.272C31.1402 112.646 31.0094 112.963 30.7478 113.225C30.4861 113.486 30.1497 113.617 29.7386 113.617H12.807V122.7H31.4205C31.8317 122.7 32.1681 122.831 32.4297 123.092C32.6913 123.354 32.8221 123.69 32.8221 124.101V128.531C32.8221 128.942 32.6913 129.278 32.4297 129.54C32.1681 129.801 31.8317 129.932 31.4205 129.932H5.57469ZM59.3381 140.584C58.9644 140.584 58.6467 140.454 58.385 140.192C58.1234 139.93 57.9926 139.594 57.9926 139.183V126.624C57.0955 127.82 55.9369 128.773 54.5166 129.484C53.1336 130.156 51.4891 130.493 49.5829 130.493C47.6767 130.493 45.9947 130.175 44.537 129.54C43.0794 128.904 41.8459 128.007 40.8368 126.849C39.8276 125.69 39.0614 124.307 38.5381 122.7C38.0148 121.093 37.7158 119.336 37.6411 117.43C37.6037 116.682 37.585 115.991 37.585 115.355C37.585 114.72 37.6037 114.047 37.6411 113.337C37.7158 111.319 38.0148 109.506 38.5381 107.899C39.0988 106.292 39.865 104.927 40.8368 103.806C41.8459 102.647 43.0794 101.769 44.537 101.171C45.9947 100.536 47.6767 100.218 49.5829 100.218C51.7133 100.218 53.4887 100.61 54.909 101.395C56.3667 102.143 57.5254 103.115 58.385 104.311V102.18C58.385 101.769 58.5158 101.433 58.7775 101.171C59.0391 100.909 59.3755 100.778 59.7866 100.778H65.1128C65.5239 100.778 65.8603 100.909 66.122 101.171C66.3836 101.433 66.5144 101.769 66.5144 102.18V139.183C66.5144 139.594 66.3836 139.93 66.122 140.192C65.8603 140.454 65.5239 140.584 65.1128 140.584H59.3381ZM52.1058 123.765C53.4513 123.765 54.5352 123.466 55.3575 122.868C56.2172 122.27 56.8526 121.522 57.2637 120.625C57.7122 119.691 57.9552 118.7 57.9926 117.654C58.0299 116.944 58.0486 116.234 58.0486 115.523C58.0486 114.813 58.0299 114.122 57.9926 113.449C57.9552 112.328 57.7309 111.281 57.3198 110.309C56.946 109.338 56.3293 108.534 55.4697 107.899C54.6474 107.263 53.5261 106.946 52.1058 106.946C50.7228 106.946 49.6016 107.263 48.7419 107.899C47.9196 108.497 47.3216 109.3 46.9478 110.309C46.6114 111.319 46.4059 112.421 46.3311 113.617C46.2564 114.776 46.2564 115.935 46.3311 117.093C46.4059 118.289 46.6114 119.392 46.9478 120.401C47.3216 121.41 47.9196 122.233 48.7419 122.868C49.6016 123.466 50.7228 123.765 52.1058 123.765ZM84.2909 130.493C82.123 130.493 80.1981 130.007 78.5162 129.035C76.8716 128.026 75.5821 126.587 74.6477 124.718C73.7507 122.812 73.3022 120.513 73.3022 117.822V102.18C73.3022 101.769 73.433 101.433 73.6946 101.171C73.9563 100.909 74.274 100.778 74.6477 100.778H80.5906C81.0017 100.778 81.3381 100.909 81.5998 101.171C81.8614 101.433 81.9922 101.769 81.9922 102.18V117.486C81.9922 121.672 83.8237 123.765 87.4866 123.765C89.2432 123.765 90.6262 123.223 91.6353 122.139C92.6819 121.018 93.2052 119.467 93.2052 117.486V102.18C93.2052 101.769 93.336 101.433 93.5976 101.171C93.8592 100.909 94.1956 100.778 94.6068 100.778H100.55C100.923 100.778 101.241 100.909 101.503 101.171C101.764 101.433 101.895 101.769 101.895 102.18V128.531C101.895 128.942 101.764 129.278 101.503 129.54C101.241 129.801 100.923 129.932 100.55 129.932H95.0553C94.6441 129.932 94.3078 129.801 94.0461 129.54C93.7845 129.278 93.6537 128.942 93.6537 128.531V126.344C92.6819 127.69 91.4298 128.717 89.8973 129.428C88.3649 130.138 86.4961 130.493 84.2909 130.493ZM110.297 129.932C109.923 129.932 109.606 129.801 109.344 129.54C109.082 129.278 108.951 128.942 108.951 128.531V102.18C108.951 101.769 109.082 101.433 109.344 101.171C109.606 100.909 109.923 100.778 110.297 100.778H115.903C116.315 100.778 116.651 100.909 116.913 101.171C117.174 101.433 117.305 101.769 117.305 102.18V128.531C117.305 128.942 117.174 129.278 116.913 129.54C116.651 129.801 116.315 129.932 115.903 129.932H110.297ZM110.129 96.2933C109.755 96.2933 109.437 96.1625 109.176 95.9008C108.914 95.6392 108.783 95.3028 108.783 94.8917V90.4065C108.783 89.9954 108.914 89.659 109.176 89.3973C109.437 89.0983 109.755 88.9488 110.129 88.9488H116.016C116.427 88.9488 116.763 89.0983 117.025 89.3973C117.324 89.659 117.473 89.9954 117.473 90.4065V94.8917C117.473 95.3028 117.324 95.6392 117.025 95.9008C116.763 96.1625 116.427 96.2933 116.016 96.2933H110.129ZM126.355 129.932C125.944 129.932 125.607 129.801 125.346 129.54C125.084 129.278 124.953 128.942 124.953 128.531V92.0884C124.953 91.6773 125.084 91.3409 125.346 91.0793C125.607 90.8176 125.944 90.6868 126.355 90.6868H131.457C132.017 90.6868 132.428 90.8176 132.69 91.0793C132.952 91.3409 133.12 91.5465 133.195 91.696L148.164 115.075V92.0884C148.164 91.6773 148.295 91.3409 148.556 91.0793C148.818 90.8176 149.136 90.6868 149.509 90.6868H155.228C155.639 90.6868 155.976 90.8176 156.237 91.0793C156.499 91.3409 156.63 91.6773 156.63 92.0884V128.531C156.63 128.904 156.499 129.241 156.237 129.54C155.976 129.801 155.639 129.932 155.228 129.932H150.07C149.509 129.932 149.098 129.801 148.837 129.54C148.612 129.241 148.444 129.035 148.332 128.923L133.419 106.273V128.531C133.419 128.942 133.288 129.278 133.026 129.54C132.765 129.801 132.428 129.932 132.017 129.932H126.355ZM177.311 130.493C173.013 130.493 169.593 129.297 167.052 126.905C164.547 124.513 163.22 121.037 163.071 116.477C163.071 116.178 163.071 115.785 163.071 115.299C163.071 114.776 163.071 114.365 163.071 114.066C163.22 111.188 163.875 108.721 165.033 106.665C166.192 104.572 167.818 102.984 169.911 101.9C172.004 100.778 174.452 100.218 177.255 100.218C180.395 100.218 183.011 100.872 185.104 102.18C187.235 103.451 188.823 105.208 189.87 107.45C190.954 109.655 191.496 112.197 191.496 115.075V116.364C191.496 116.738 191.346 117.056 191.047 117.318C190.786 117.579 190.468 117.71 190.094 117.71H171.761C171.761 117.747 171.761 117.822 171.761 117.934C171.761 118.009 171.761 118.084 171.761 118.159C171.798 119.355 172.023 120.457 172.434 121.466C172.882 122.438 173.499 123.223 174.284 123.821C175.106 124.419 176.078 124.718 177.199 124.718C178.134 124.718 178.9 124.587 179.498 124.326C180.096 124.064 180.582 123.746 180.956 123.373C181.367 122.999 181.666 122.681 181.853 122.419C182.189 122.046 182.451 121.821 182.638 121.747C182.862 121.635 183.198 121.578 183.647 121.578H189.477C189.851 121.578 190.15 121.691 190.375 121.915C190.636 122.102 190.748 122.382 190.711 122.756C190.674 123.354 190.356 124.101 189.758 124.998C189.197 125.858 188.356 126.718 187.235 127.577C186.114 128.4 184.712 129.091 183.03 129.652C181.385 130.212 179.479 130.493 177.311 130.493ZM171.761 112.608H182.75V112.496C182.75 111.15 182.525 109.992 182.077 109.02C181.666 108.011 181.049 107.226 180.227 106.665C179.405 106.105 178.414 105.824 177.255 105.824C176.097 105.824 175.106 106.105 174.284 106.665C173.462 107.226 172.826 108.011 172.378 109.02C171.967 109.992 171.761 111.15 171.761 112.496V112.608ZM208.593 130.493C206.276 130.493 204.276 130.231 202.594 129.708C200.95 129.147 199.604 128.474 198.558 127.69C197.549 126.905 196.782 126.12 196.259 125.335C195.773 124.513 195.512 123.821 195.474 123.26C195.437 122.849 195.568 122.513 195.867 122.251C196.166 121.99 196.465 121.859 196.764 121.859H202.202C202.314 121.859 202.426 121.877 202.538 121.915C202.65 121.952 202.763 122.046 202.875 122.195C203.361 122.532 203.865 122.924 204.388 123.373C204.912 123.784 205.51 124.139 206.183 124.438C206.893 124.737 207.771 124.886 208.818 124.886C210.051 124.886 211.098 124.643 211.957 124.157C212.817 123.634 213.247 122.905 213.247 121.971C213.247 121.298 213.041 120.738 212.63 120.289C212.256 119.84 211.527 119.429 210.443 119.056C209.36 118.682 207.752 118.271 205.622 117.822C203.604 117.374 201.884 116.776 200.464 116.028C199.044 115.281 197.978 114.346 197.268 113.225C196.558 112.066 196.203 110.683 196.203 109.076C196.203 107.618 196.652 106.217 197.549 104.871C198.483 103.526 199.847 102.423 201.641 101.563C203.435 100.666 205.678 100.218 208.369 100.218C210.425 100.218 212.219 100.479 213.751 101.003C215.321 101.489 216.629 102.124 217.676 102.909C218.722 103.656 219.507 104.441 220.031 105.264C220.591 106.049 220.89 106.74 220.928 107.338C220.965 107.712 220.853 108.03 220.591 108.291C220.33 108.553 220.031 108.684 219.694 108.684H214.704C214.518 108.684 214.349 108.665 214.2 108.628C214.05 108.553 213.919 108.459 213.807 108.347C213.359 108.048 212.892 107.712 212.406 107.338C211.957 106.927 211.415 106.572 210.78 106.273C210.144 105.974 209.322 105.824 208.313 105.824C207.08 105.824 206.126 106.105 205.454 106.665C204.818 107.189 204.501 107.861 204.501 108.684C204.501 109.207 204.669 109.693 205.005 110.141C205.342 110.59 206.033 111.001 207.08 111.375C208.126 111.748 209.715 112.141 211.845 112.552C214.387 113.001 216.405 113.673 217.9 114.57C219.395 115.467 220.46 116.514 221.096 117.71C221.769 118.869 222.105 120.121 222.105 121.466C222.105 123.223 221.582 124.793 220.535 126.176C219.489 127.521 217.956 128.587 215.938 129.371C213.957 130.119 211.509 130.493 208.593 130.493ZM241.393 129.932C239.076 129.932 237.095 129.558 235.451 128.811C233.806 128.026 232.554 126.83 231.694 125.223C230.872 123.616 230.461 121.597 230.461 119.168V107.394H226.088C225.677 107.394 225.34 107.263 225.079 107.002C224.817 106.74 224.686 106.404 224.686 105.992V102.18C224.686 101.769 224.817 101.433 225.079 101.171C225.34 100.909 225.677 100.778 226.088 100.778H230.461V91.5278C230.461 91.1167 230.592 90.7803 230.853 90.5186C231.152 90.257 231.489 90.1262 231.862 90.1262H237.357C237.768 90.1262 238.104 90.257 238.366 90.5186C238.628 90.7803 238.758 91.1167 238.758 91.5278V100.778H245.766C246.14 100.778 246.458 100.909 246.72 101.171C246.981 101.433 247.112 101.769 247.112 102.18V105.992C247.112 106.404 246.981 106.74 246.72 107.002C246.458 107.263 246.14 107.394 245.766 107.394H238.758V118.495C238.758 119.915 239.001 121.037 239.487 121.859C240.01 122.644 240.908 123.036 242.178 123.036H246.271C246.645 123.036 246.963 123.167 247.224 123.429C247.486 123.69 247.617 124.008 247.617 124.382V128.531C247.617 128.942 247.486 129.278 247.224 129.54C246.963 129.801 246.645 129.932 246.271 129.932H241.393Z" fill="black"/>
<circle cx="126.603" cy="43.2477" r="43.2477" fill="black"/>
<circle cx="121.361" cy="47.6165" r="42.1556" stroke="white" stroke-width="2.18423"/>
<rect x="108.629" y="33.0482" width="6.83463" height="35.7813" rx="3.41731" fill="white"/>
<rect x="118.479" y="39.0792" width="6.83463" height="29.7507" rx="3.41731" fill="white"/>
<rect x="128.329" y="43.9033" width="6.83463" height="24.9263" rx="3.41731" fill="white"/>
<rect x="138.178" y="49.1298" width="6.83463" height="19.6998" rx="3.41731" fill="white"/>
<path d="M148.065 39.4144C148.694 39.0609 148.918 38.2644 148.565 37.6352C148.211 37.0061 147.415 36.7826 146.785 37.136L148.065 39.4144ZM112.649 16.1633L112.426 31.2492L125.602 23.8997L112.649 16.1633ZM146.785 37.136C141.148 40.3033 135.94 39.6525 131.313 37.1326C126.615 34.5744 122.539 30.0884 119.448 25.6843L117.309 27.1857C120.502 31.734 124.855 36.5919 130.063 39.4276C135.341 42.3017 141.514 43.0947 148.065 39.4144L146.785 37.136Z" fill="white"/>
</svg>
