<svg width="683" height="1319" viewBox="0 0 683 1319" fill="none" xmlns="http://www.w3.org/2000/svg">
<path opacity="0.01" d="M310.92 77.8457C347.253 177.753 330.093 150.756 284.358 69.1409C236.609 -17.1012 231.863 -15.9642 256.281 59.9395C288.583 145.894 285.556 148.59 233.22 52.382C186.548 -32.7711 165.203 -69.7018 207.152 43.8389C236.699 125.934 236.759 136.905 179.58 34.8031C126.856 -64.1346 116.322 -75.2709 148.989 24.7778C186.836 124.772 187.68 137.74 120.418 15.4147C62.8809 -94.6354 55.2634 -101.198 95.3482 7.19888C133.114 107.276 127.366 105.497 69.2798 -1.3442C8.41539 -121.311 5.91159 -114.321 41.7078 -10.3801" stroke="#FDFEFF" stroke-opacity="0.3" stroke-width="2"/>
<path opacity="0.0204082" d="M311.118 77.2716C348.967 179.075 332.065 152.989 286.551 72.9401C238.983 -11.7597 234.723 -9.60034 260.583 68.3616C294.094 155.745 291.472 159.269 239.254 64.601C192.717 -19.1213 171.531 -55.2175 215.143 60.35C245.964 144.062 246.548 156.004 189.642 55.8538C136.939 -41.7133 126.825 -51.8031 161.348 50.8652C200.577 152.469 201.971 166.434 134.923 46.2062C77.3085 -62.5344 70.067 -68.2066 111.736 42.118C150.895 143.829 145.584 143.004 87.6254 37.867C26.5077 -81.033 24.5687 -72.9306 62.124 33.3708" stroke="#FDFEFF" stroke-opacity="0.3" stroke-width="2"/>
<path opacity="0.0408163" d="M311.269 76.5942C350.587 180.169 333.964 155.027 288.726 76.6399C241.396 -6.41513 237.628 -3.23633 264.897 76.6881C299.577 165.393 297.363 169.742 245.325 76.7277C198.981 -5.46237 177.98 -40.6803 223.201 76.7725C255.258 162 256.365 174.897 199.801 76.8199C147.184 -19.2583 137.502 -28.2895 173.838 76.8725C214.402 179.962 216.342 194.907 149.591 76.9216C91.9686 -30.3774 85.1117 -35.1529 128.314 76.9647C168.819 180.184 163.951 180.316 106.19 77.0095C44.8931 -40.679 43.5211 -31.4753 82.7895 77.0568" stroke="#FDFEFF" stroke-opacity="0.3" stroke-width="2"/>
<path opacity="0.0612245" d="M311.372 75.8129C352.111 181.032 335.786 156.863 290.879 80.2341C243.846 -1.07535 240.573 3.11866 269.218 84.9076C305.024 174.826 303.221 179.993 251.427 88.7461C205.331 8.18782 184.54 -26.1093 231.316 93.0852C264.569 179.723 266.197 193.559 210.044 97.6746C157.576 3.20176 148.339 -4.76021 186.444 102.766C228.292 207.215 230.777 223.121 164.402 107.522C106.842 1.79478 100.378 -2.07831 145.061 111.695C186.863 216.296 182.443 217.385 124.95 116.034C63.5484 -0.2998 62.7449 9.99358 103.678 120.623" stroke="#FDFEFF" stroke-opacity="0.3" stroke-width="2"/>
<path opacity="0.0816327" d="M311.426 74.9288C353.537 181.663 337.529 158.498 293.009 83.7188C246.328 4.25321 243.555 9.45698 273.541 93.0102C310.428 184.032 309.039 190.01 257.551 100.642C211.76 21.8127 191.204 -11.5221 239.477 109.268C273.886 197.21 276.033 211.969 220.359 118.392C168.103 25.6396 159.322 18.7562 199.149 128.516C242.231 234.196 245.256 251.044 179.339 137.97C121.912 33.9432 115.848 30.9769 161.956 146.267C205.003 252.123 201.038 254.165 143.882 154.893C82.4505 40.0553 82.2163 51.4255 124.764 164.018" stroke="#FDFEFF" stroke-opacity="0.3" stroke-width="2"/>
<path opacity="0.102041" d="M311.43 73.9415C354.861 182.061 339.191 159.926 295.11 87.088C248.84 9.5627 246.57 15.7695 277.859 100.984C315.783 192.998 314.808 199.781 263.69 112.398C218.258 35.3943 197.963 3.06216 247.673 125.3C283.196 214.44 285.859 230.103 230.732 138.947C178.752 48.0266 170.436 42.2297 211.937 154.088C256.199 260.87 259.763 278.639 194.382 168.228C137.157 66.0274 131.502 63.971 178.979 180.636C223.218 287.617 219.711 290.611 162.962 193.539C101.576 80.336 101.911 92.7687 146.021 207.185" stroke="#FDFEFF" stroke-opacity="0.3" stroke-width="2"/>
<path opacity="0.122449" d="M311.386 72.8509C356.083 182.223 340.769 161.145 297.181 90.3365C251.377 14.8453 249.612 22.0473 282.167 108.82C321.082 201.712 320.522 209.291 269.835 124C224.818 48.9147 204.808 17.6243 255.895 141.161C292.488 231.388 295.664 247.936 241.151 159.312C189.509 70.334 181.67 65.6304 224.792 179.45C270.181 287.204 274.277 305.871 209.514 198.258C152.56 98.0068 147.319 96.8627 196.108 214.761C241.485 322.736 238.441 326.677 182.167 231.921C120.9 120.492 121.804 133.971 167.423 250.072" stroke="#FDFEFF" stroke-opacity="0.3" stroke-width="2"/>
<path opacity="0.142857" d="M311.29 71.6585C357.2 182.149 342.261 162.154 299.219 93.4603C253.936 20.0946 252.679 28.2826 286.459 116.506C326.316 210.164 326.173 218.53 275.979 135.434C231.431 62.3576 211.73 32.1467 264.131 156.831C301.749 248.035 305.435 265.447 251.601 179.462C200.361 92.5348 193.007 88.9298 237.698 204.571C284.159 313.166 288.782 332.708 224.714 228.021C168.101 129.843 163.281 129.612 213.321 248.598C259.781 357.436 257.203 362.32 201.473 269.995C140.4 160.474 141.871 174.984 188.943 292.626" stroke="#FDFEFF" stroke-opacity="0.3" stroke-width="2"/>
<path opacity="0.163265" d="M311.145 70.3642C358.21 181.839 343.664 162.951 301.22 96.4543C256.513 25.3029 255.765 34.4666 290.729 124.033C331.48 218.343 331.753 227.483 282.112 146.684C238.088 75.7051 218.72 46.6103 272.372 172.289C310.969 264.36 315.159 282.614 262.069 199.372C211.293 114.601 204.433 112.098 250.639 229.419C298.114 338.722 303.259 359.116 239.964 257.483C183.76 161.495 179.367 162.177 230.596 282.107C278.083 391.674 275.974 397.493 220.856 307.712C160.05 200.232 162.087 215.754 210.554 334.795" stroke="#FDFEFF" stroke-opacity="0.3" stroke-width="2"/>
<path opacity="0.183673" d="M310.948 68.9687C359.111 181.291 344.976 163.532 303.181 99.3139C259.105 30.4629 258.866 40.5909 294.971 131.39C336.567 226.236 337.255 236.141 288.228 157.736C244.781 88.9403 225.77 60.9967 280.606 187.517C320.135 280.34 324.824 299.415 272.543 219.016C222.293 136.504 215.935 135.107 263.598 253.964C312.029 363.84 317.69 385.06 255.244 286.604C199.519 192.924 195.557 194.519 247.914 315.245C296.368 425.406 294.731 432.155 240.291 345.026C179.827 239.717 182.427 256.232 232.229 376.525" stroke="#FDFEFF" stroke-opacity="0.3" stroke-width="2"/>
<path opacity="0.204082" d="M310.701 67.4725C359.903 180.504 346.195 163.896 305.1 102.034C261.708 35.5671 261.979 46.6467 299.181 138.568C341.57 233.833 342.673 244.491 294.319 168.574C251.501 102.046 232.87 75.287 288.823 202.494C329.235 295.957 334.417 315.828 283.009 238.37C233.345 158.216 227.497 157.926 276.56 278.174C325.888 388.489 332.057 410.51 270.536 315.35C215.356 224.09 211.83 226.595 265.251 347.97C314.613 458.592 313.45 466.261 259.754 381.889C199.706 278.88 202.866 296.368 253.941 417.765" stroke="#FDFEFF" stroke-opacity="0.3" stroke-width="2"/>
<path opacity="0.22449" d="M310.402 65.8774C360.583 179.481 347.319 164.044 306.974 104.612C264.319 40.6093 265.098 52.6266 303.351 145.557C346.482 241.126 347.998 252.522 300.376 179.186C258.24 115.005 240.01 89.4638 297.012 217.201C338.258 311.19 343.928 331.833 293.454 257.409C244.437 179.712 239.105 180.528 289.507 302.02C339.671 412.639 346.341 435.433 285.82 343.684C231.253 254.956 228.168 258.368 282.586 380.243C332.797 491.19 332.109 499.769 279.222 418.258C219.662 317.673 223.377 336.112 275.664 458.466" stroke="#FDFEFF" stroke-opacity="0.3" stroke-width="2"/>
<path opacity="0.244898" d="M310.051 64.184C361.15 178.22 348.346 163.972 308.8 107.043C266.933 45.582 268.22 58.522 307.478 152.348C351.297 248.104 353.224 260.224 306.391 189.558C264.988 127.802 247.182 103.509 305.164 231.621C347.193 326.019 353.342 347.409 303.865 276.11C255.553 200.963 250.745 202.885 302.424 325.471C353.363 436.26 360.526 459.798 301.078 371.571C247.189 285.483 244.548 289.797 299.897 412.023C350.895 523.16 350.683 532.639 298.669 454.086C239.669 356.048 243.935 375.415 297.371 498.575" stroke="#FDFEFF" stroke-opacity="0.3" stroke-width="2"/>
<path opacity="0.265306" d="M309.649 62.3929C361.603 176.722 349.275 163.68 310.575 109.323C269.547 50.4777 271.341 64.3245 311.554 158.931C356.008 254.756 358.344 267.586 312.358 199.675C271.737 140.419 254.377 117.403 313.267 245.733C356.029 340.427 362.649 362.537 314.228 294.448C266.681 221.942 262.401 224.967 315.294 348.497C366.947 459.32 374.592 483.574 316.29 398.977C263.144 315.632 260.951 320.843 317.164 443.27C368.886 554.461 369.149 564.828 318.072 489.329C259.705 393.957 264.516 414.227 319.033 538.044" stroke="#FDFEFF" stroke-opacity="0.3" stroke-width="2"/>
<path opacity="0.285714" d="M309.196 60.5064C361.941 174.989 350.103 163.169 312.297 111.449C272.158 55.2908 274.455 70.027 315.575 165.298C360.61 261.076 363.352 274.6 318.267 209.526C278.479 152.841 261.585 131.131 321.311 259.522C364.752 354.394 371.837 377.197 324.53 312.402C277.805 242.624 274.059 246.748 328.101 371.071C380.403 481.793 388.523 506.733 331.437 425.867C279.099 345.367 277.356 351.468 334.363 473.947C386.747 585.055 387.485 596.297 337.407 523.943C279.742 431.353 285.093 452.503 340.626 576.823" stroke="#FDFEFF" stroke-opacity="0.3" stroke-width="2"/>
<path opacity="0.306122" d="M308.691 58.5256C362.162 173.022 350.829 162.437 313.963 113.417C274.761 60.0139 277.559 75.6213 319.535 171.44C365.096 267.053 368.24 281.254 324.112 219.096C285.204 165.052 268.797 144.673 329.286 272.968C373.354 367.903 380.894 391.371 334.758 329.947C288.912 262.983 285.704 268.2 340.829 393.165C393.717 503.649 402.301 529.245 346.5 452.208C295.034 374.651 293.742 381.633 351.475 504.015C404.455 614.905 405.668 627.008 356.649 557.887C299.757 468.191 305.641 490.193 362.121 614.866" stroke="#FDFEFF" stroke-opacity="0.3" stroke-width="2"/>
<path opacity="0.326531" d="M308.135 56.4513C362.268 170.821 351.453 161.485 315.57 115.224C277.353 64.6399 280.648 81.0992 323.429 177.348C369.46 272.68 373.002 287.541 329.885 228.374C291.903 177.036 276.004 158.012 337.182 286.054C381.822 380.936 389.808 405.04 344.899 347.062C299.988 282.992 297.322 289.296 353.462 414.749C406.872 524.861 415.909 551.08 361.46 477.966C310.929 403.445 310.09 411.301 368.477 533.436C421.99 643.973 423.675 656.921 375.774 591.116C319.725 504.423 326.134 527.251 383.492 652.124" stroke="#FDFEFF" stroke-opacity="0.3" stroke-width="2"/>
<path opacity="0.346939" d="M307.528 54.2863C362.255 168.389 351.972 160.313 317.116 116.866C279.93 69.1633 283.719 86.4542 327.252 183.016C373.697 277.95 377.633 293.452 335.577 237.348C298.569 188.777 283.196 171.132 344.988 298.765C390.147 393.478 398.568 418.188 354.941 363.725C311.019 302.628 308.898 310.01 365.985 435.797C419.85 545.403 429.329 572.214 376.299 503.11C326.764 431.717 326.379 440.436 385.349 562.174C439.328 672.222 441.484 686.001 394.76 623.592C339.621 540.007 346.547 563.632 404.713 688.551" stroke="#FDFEFF" stroke-opacity="0.3" stroke-width="2"/>
<path opacity="0.367347" d="M306.869 52.0317C362.125 165.728 352.385 158.922 318.6 118.342C282.489 73.5774 286.766 91.6784 330.999 188.435C377.8 282.855 382.125 298.978 341.183 246.005C305.193 200.26 290.365 184.016 352.695 311.083C398.317 405.511 407.163 430.797 364.871 379.915C321.991 321.865 320.418 330.316 378.381 456.284C432.636 565.249 442.546 592.619 390.998 527.609C342.518 459.429 342.588 469.001 402.069 590.194C456.449 699.619 459.072 714.21 413.581 655.272C359.419 574.897 366.854 599.291 425.757 724.104" stroke="#FDFEFF" stroke-opacity="0.3" stroke-width="2"/>
<path opacity="0.387755" d="M306.161 49.6889C361.877 162.841 352.692 157.311 320.017 119.647C285.026 77.8752 289.787 96.7641 334.664 193.597C381.764 287.387 386.473 304.113 346.694 254.334C311.766 211.471 297.5 196.646 360.293 322.993C406.321 417.02 415.582 442.851 374.676 395.612C332.891 340.678 331.866 350.188 390.634 476.182C445.213 584.374 455.541 612.268 405.538 551.431C358.174 486.547 358.697 496.961 418.616 617.46C473.331 726.127 476.418 741.513 432.215 686.118C379.097 609.05 387.031 634.183 446.599 758.737" stroke="#FDFEFF" stroke-opacity="0.3" stroke-width="2"/>
<path opacity="0.408163" d="M305.402 47.261C361.51 159.729 352.892 155.483 321.367 120.781C287.538 82.0518 292.775 101.705 338.242 198.495C385.585 291.542 390.671 308.849 352.103 262.325C318.279 222.396 304.593 209.008 367.771 334.479C414.151 427.991 423.814 454.335 384.344 410.796C343.703 359.044 343.229 369.602 402.73 495.468C457.566 602.754 468.3 631.139 419.903 574.548C373.71 513.039 374.687 524.28 434.971 643.938C489.953 751.716 493.5 767.878 450.639 716.092C398.628 642.425 407.052 668.265 467.211 792.408" stroke="#FDFEFF" stroke-opacity="0.3" stroke-width="2"/>
<path opacity="0.428571" d="M304.593 44.7494C361.025 156.397 352.984 153.44 322.646 121.741C290.021 86.1008 295.728 106.494 341.73 203.124C389.256 295.312 394.714 313.18 357.404 269.967C324.724 233.019 311.635 221.085 375.122 345.528C421.795 438.41 431.849 465.235 393.862 425.447C354.415 376.942 354.492 388.533 414.654 514.117C469.679 620.366 480.805 649.207 434.073 596.931C389.108 538.871 390.537 550.926 451.112 669.597C506.294 776.353 510.297 793.271 468.83 745.157C417.99 674.98 426.893 701.496 487.57 825.077" stroke="#FDFEFF" stroke-opacity="0.3" stroke-width="2"/>
<path opacity="0.44898" d="M303.735 42.1564C360.422 152.847 352.967 151.181 323.854 122.524C292.471 90.0163 298.642 111.125 345.121 207.475C392.774 298.693 398.596 317.099 362.588 277.25C331.094 243.328 318.616 232.861 382.334 356.124C429.243 448.262 439.677 475.535 403.218 439.547C365.014 394.346 365.641 406.956 426.389 532.105C481.537 637.187 493.042 666.449 448.03 618.55C404.348 564.01 406.227 576.864 467.019 694.403C522.334 800.007 526.788 817.66 486.765 773.276C437.157 706.674 446.528 733.834 507.649 856.7" stroke="#FDFEFF" stroke-opacity="0.3" stroke-width="2"/>
<path opacity="0.469388" d="M302.828 39.4842C359.7 149.082 352.841 148.71 324.988 123.128C294.885 93.7927 301.512 115.591 348.412 211.544C396.132 301.68 402.312 320.601 367.651 284.164C337.379 253.309 325.529 244.322 389.399 366.254C436.488 457.536 447.287 485.223 412.402 453.079C375.486 411.237 376.662 424.851 437.923 549.411C493.126 653.197 504.995 682.844 461.759 639.381C419.412 588.426 421.739 602.063 482.674 718.326C538.054 822.649 542.952 841.015 504.422 800.416C456.107 737.47 465.934 765.239 527.424 887.241" stroke="#FDFEFF" stroke-opacity="0.3" stroke-width="2"/>
<path opacity="0.489796" d="M301.873 36.7347C358.861 145.106 352.605 146.028 326.046 123.553C297.26 97.4241 304.334 119.885 351.597 215.324C399.327 304.268 405.856 323.681 372.584 290.699C343.571 262.948 332.363 255.453 396.308 375.904C443.518 466.219 454.67 494.286 421.4 466.023C385.817 427.591 387.541 442.192 449.239 566.011C504.43 668.375 516.649 698.37 475.24 659.395C434.281 612.087 437.052 626.491 498.055 741.336C553.433 844.251 558.77 863.307 521.778 826.54C474.815 767.327 485.087 795.672 546.87 916.66" stroke="#FDFEFF" stroke-opacity="0.3" stroke-width="2"/>
<path opacity="0.510204" d="M300.87 33.9114C357.904 140.923 352.259 143.138 327.026 123.797C299.592 100.906 307.105 124.002 354.673 218.81C402.354 306.453 409.225 326.334 377.381 296.847C349.663 272.235 339.11 266.239 403.051 385.062C450.326 474.3 461.816 502.713 430.201 478.366C395.994 443.39 398.264 458.959 460.324 581.886C515.435 682.703 527.989 713.01 488.458 678.569C448.935 634.966 452.148 650.118 513.144 763.405C568.451 864.785 574.221 884.509 538.814 851.62C493.258 796.211 503.962 825.096 565.964 944.923" stroke="#FDFEFF" stroke-opacity="0.3" stroke-width="2"/>
<path opacity="0.530612" d="M299.821 31.0157C356.831 136.538 351.804 140.042 327.927 123.858C301.878 104.233 309.82 127.935 357.636 221.996C405.21 308.231 412.413 328.557 382.037 302.6C355.647 281.155 345.761 276.666 409.621 393.717C456.902 481.767 468.717 510.492 438.795 490.09C406.006 458.612 408.818 475.131 471.164 597.015C526.128 696.162 539.001 726.743 501.396 696.878C463.357 657.032 467.007 672.914 527.922 784.504C583.092 884.227 589.287 904.593 555.506 875.621C511.414 824.083 522.537 853.474 584.681 971.993" stroke="#FDFEFF" stroke-opacity="0.3" stroke-width="2"/>
<path opacity="0.55102" d="M298.726 28.0514C355.643 131.955 351.239 136.744 328.747 123.736C304.114 107.401 312.476 131.68 360.48 224.878C407.889 309.601 415.417 330.345 386.545 307.951C361.514 289.699 352.308 286.722 416.008 401.857C463.237 488.613 475.362 517.614 447.171 501.181C415.839 473.239 419.19 490.687 481.746 611.379C536.495 708.735 549.671 739.553 514.037 714.3C477.53 678.26 481.612 694.852 542.372 804.609C597.336 902.552 603.948 923.536 571.835 898.515C529.26 850.911 540.787 880.772 602.998 997.838" stroke="#FDFEFF" stroke-opacity="0.3" stroke-width="2"/>
<path opacity="0.571429" d="M297.585 25.0202C354.339 127.178 350.565 133.246 329.485 123.43C306.298 110.403 315.069 135.23 363.203 227.453C410.389 310.558 418.231 331.696 390.898 312.891C367.258 297.854 358.742 296.393 422.205 409.472C469.324 494.827 481.745 524.068 455.317 511.624C425.48 487.252 429.366 505.608 492.055 624.96C546.523 720.406 559.987 751.423 526.366 730.812C491.434 698.621 495.944 715.903 556.474 823.693C611.166 919.736 618.187 941.312 587.78 920.273C546.774 876.662 558.692 906.955 620.892 1022.43" stroke="#FDFEFF" stroke-opacity="0.3" stroke-width="2"/>
<path opacity="0.591837" d="M296.401 21.9263C352.922 122.213 349.781 129.553 330.139 122.94C308.426 113.238 317.595 138.582 365.801 229.716C412.705 311.103 420.853 332.609 395.092 317.415C372.87 305.61 365.056 305.667 428.203 416.551C475.156 500.401 487.856 529.847 463.224 521.406C434.918 500.634 439.334 519.875 502.079 637.742C556.2 731.161 569.934 762.339 538.368 746.395C505.053 718.092 509.985 736.043 570.211 841.734C624.563 935.76 631.986 957.902 603.322 940.87C563.935 901.303 576.228 931.992 638.343 1045.72" stroke="#FDFEFF" stroke-opacity="0.3" stroke-width="2"/>
<path opacity="0.612245" d="M295.173 18.7707C351.393 117.064 348.889 125.667 330.708 122.264C310.496 115.899 320.052 141.728 368.269 231.662C414.835 311.232 423.278 333.079 399.12 321.515C378.344 312.957 371.24 314.531 433.995 423.085C480.723 505.328 493.688 534.942 470.881 530.515C444.141 513.366 449.082 533.469 511.806 649.707C565.512 740.985 579.5 772.286 550.028 761.028C518.37 736.647 523.718 755.244 583.566 858.707C637.513 950.602 645.327 973.282 618.441 960.278C580.72 924.803 593.375 955.85 655.327 1067.71" stroke="#FDFEFF" stroke-opacity="0.3" stroke-width="2"/>
<path opacity="0.632653" d="M293.903 15.5578C349.753 111.738 347.889 121.593 331.191 121.405C312.503 118.382 322.435 144.666 370.605 233.29C416.776 310.945 425.504 333.107 402.978 325.186C383.672 319.885 377.288 322.974 439.573 429.066C486.02 509.6 499.233 539.347 478.279 538.938C453.137 525.435 458.596 546.374 521.223 660.841C574.45 749.866 588.674 781.251 561.33 774.692C531.369 754.263 537.125 773.485 596.523 874.593C649.998 964.244 658.194 987.435 633.118 978.473C597.11 947.134 610.109 978.501 671.824 1088.35" stroke="#FDFEFF" stroke-opacity="0.3" stroke-width="2"/>
<path opacity="0.653061" d="M292.591 12.2901C348.003 106.24 346.781 117.334 331.586 120.361C314.446 120.685 324.741 147.391 372.805 234.596C418.524 310.241 427.526 332.691 406.66 328.422C388.848 326.385 383.19 330.985 444.93 434.485C491.039 513.213 504.484 543.055 485.408 546.665C461.895 536.823 467.864 558.573 530.317 671.128C583 757.793 597.444 789.224 572.261 787.372C544.032 770.919 550.19 790.741 609.065 889.371C662.003 976.669 670.57 1000.34 647.335 995.433C613.083 968.268 626.412 999.916 687.813 1107.61" stroke="#FDFEFF" stroke-opacity="0.3" stroke-width="2"/>
<path opacity="0.673469" d="M291.24 8.97031C346.145 100.575 345.567 112.894 331.893 119.132C316.322 122.802 326.966 149.898 374.866 235.578C420.077 309.121 429.342 331.83 410.161 331.22C393.865 332.448 388.94 338.553 450.059 439.334C495.773 516.16 509.434 546.062 492.259 553.685C470.403 547.516 476.876 570.051 539.079 680.557C591.153 764.754 605.798 796.193 582.807 799.05C556.344 786.593 562.897 806.991 621.177 903.023C673.513 987.861 682.441 1011.99 661.075 1011.14C628.62 988.178 642.262 1020.07 703.274 1125.49" stroke="#FDFEFF" stroke-opacity="0.3" stroke-width="2"/>
<path opacity="0.693878" d="M289.849 5.60248C344.181 94.7496 344.247 108.28 332.112 117.72C318.127 124.732 329.108 152.184 376.785 236.234C421.434 307.586 430.95 330.527 413.477 333.574C398.715 338.067 394.53 345.669 454.954 443.609C500.217 518.438 514.076 548.363 498.823 559.99C478.651 557.501 485.62 580.793 547.496 689.115C598.897 770.742 613.726 802.151 592.955 809.712C568.291 801.266 575.229 822.215 632.843 915.531C684.514 997.806 693.792 1022.36 674.32 1025.57C643.702 1006.84 657.64 1038.94 718.19 1141.95" stroke="#FDFEFF" stroke-opacity="0.3" stroke-width="2"/>
<path opacity="0.714286" d="M288.421 2.18938C342.114 88.7703 342.823 103.495 332.24 116.126C319.859 126.471 331.164 154.245 378.559 236.563C422.591 305.635 432.347 328.781 416.603 335.482C403.394 343.233 399.953 352.323 459.608 447.302C504.365 520.044 518.406 549.954 505.093 565.572C486.628 566.765 494.085 590.785 555.559 696.791C606.224 775.749 621.219 807.089 602.692 819.345C579.856 814.92 587.172 836.394 644.049 926.881C694.991 1006.49 704.608 1031.43 687.054 1038.7C658.31 1024.23 672.527 1056.49 732.54 1156.97" stroke="#FDFEFF" stroke-opacity="0.3" stroke-width="2"/>
<path opacity="0.734694" d="M286.957 -1.26626C339.943 82.6428 341.296 98.5433 332.279 114.35C321.515 128.014 333.131 156.077 380.186 236.562C423.546 303.271 433.53 326.592 419.534 336.939C407.894 347.938 405.201 358.506 464.014 450.407C508.21 520.973 522.416 550.833 511.059 570.421C494.324 575.296 502.259 600.015 563.256 703.575C613.124 779.767 628.265 810.999 612.006 827.935C591.026 827.536 598.711 849.509 654.781 937.056C704.932 1013.91 714.876 1039.21 699.261 1050.52C672.426 1040.33 686.905 1072.71 746.307 1170.54" stroke="#FDFEFF" stroke-opacity="0.3" stroke-width="2"/>
<path opacity="0.755102" d="M285.457 -4.76009C337.673 76.3747 339.667 93.4316 332.226 112.395C323.094 129.361 335.005 157.678 381.663 236.232C424.299 300.497 434.498 323.965 422.267 337.945C412.21 352.179 410.269 364.211 468.167 452.923C511.749 521.226 526.102 550.999 516.715 574.533C501.73 583.083 510.134 608.47 570.578 709.458C619.588 782.791 634.858 813.878 620.884 835.472C601.786 839.101 609.83 861.545 665.026 946.045C714.325 1020.04 724.583 1045.68 710.926 1061.02C686.032 1055.12 700.755 1087.59 759.474 1182.63" stroke="#FDFEFF" stroke-opacity="0.3" stroke-width="2"/>
<path opacity="0.77551" d="M283.923 -8.28926C335.306 69.9721 337.938 88.1647 332.081 110.26C324.592 130.509 336.784 159.046 382.987 235.572C424.847 297.314 435.25 320.901 424.799 338.496C416.336 355.948 415.149 369.429 472.062 454.843C514.976 520.8 529.459 550.45 522.053 577.901C508.836 590.116 517.697 616.141 577.516 714.433C625.608 784.818 640.987 815.72 629.317 841.948C612.124 849.598 620.517 872.487 674.77 953.837C723.157 1024.89 733.717 1050.83 722.034 1070.18C699.112 1068.57 714.06 1101.09 772.025 1193.24" stroke="#FDFEFF" stroke-opacity="0.3" stroke-width="2"/>
<path opacity="0.795918" d="M282.356 -11.8508C332.843 63.4416 336.11 82.7476 331.846 107.949C326.007 131.455 338.465 160.176 384.158 234.582C425.191 293.725 435.784 317.402 427.124 338.591C420.267 359.238 419.835 374.153 475.694 456.165C517.888 519.695 532.482 549.186 527.065 580.52C515.633 596.385 524.941 623.015 584.061 718.492C631.176 785.842 646.646 816.524 637.293 847.351C622.025 859.014 630.757 882.32 684.002 960.42C731.417 1028.44 742.266 1054.65 732.572 1077.99C711.649 1080.67 726.805 1113.2 783.943 1202.35" stroke="#FDFEFF" stroke-opacity="0.3" stroke-width="2"/>
<path opacity="0.816327" d="M280.759 -15.4404C330.287 56.7913 334.185 77.187 331.518 105.463C327.338 132.197 340.046 161.068 385.173 233.263C425.328 289.736 436.098 313.473 429.241 338.23C423.997 362.048 424.32 378.377 479.057 456.887C520.479 517.913 535.167 547.208 531.747 582.388C522.112 601.882 531.856 629.086 590.205 721.631C636.286 785.865 651.828 816.287 644.803 851.677C631.478 867.338 640.539 891.032 692.71 965.788C739.095 1030.69 750.221 1057.13 742.526 1084.44C723.628 1091.42 738.972 1123.91 795.216 1209.95" stroke="#FDFEFF" stroke-opacity="0.3" stroke-width="2"/>
<path opacity="0.836735" d="M279.132 -19.0554C327.641 50.0273 332.166 71.4878 331.098 102.804C328.581 132.734 341.525 161.719 386.029 231.614C425.258 285.347 436.192 309.116 431.146 337.412C427.522 364.371 428.6 382.094 482.147 457.007C522.746 515.454 537.511 544.518 536.09 583.5C528.265 606.6 538.433 634.344 595.939 723.843C640.929 784.883 656.524 815.009 651.836 854.918C640.471 874.558 649.849 898.611 700.883 969.932C746.182 1031.64 757.569 1058.29 751.884 1089.53C735.034 1100.78 750.548 1133.2 805.827 1216.02" stroke="#FDFEFF" stroke-opacity="0.3" stroke-width="2"/>
<path opacity="0.857143" d="M277.476 -22.6914C324.907 43.1581 330.053 65.6572 330.587 99.975C329.735 133.064 342.898 162.129 386.727 229.639C424.981 280.567 436.066 304.339 432.837 336.137C430.836 366.205 432.668 385.301 484.96 456.524C524.687 512.322 539.51 541.119 540.09 583.855C534.084 610.534 544.664 638.783 601.257 725.128C645.101 782.898 660.73 812.692 658.384 857.072C648.993 880.666 658.676 905.049 708.51 972.847C752.668 1031.28 764.303 1058.11 760.634 1093.23C745.852 1108.76 761.517 1141.06 815.764 1220.56" stroke="#FDFEFF" stroke-opacity="0.3" stroke-width="2"/>
<path opacity="0.877551" d="M275.795 -26.3452C322.089 36.1907 327.85 59.7009 329.984 96.9787C330.799 133.186 344.165 162.295 387.264 227.338C424.497 275.398 435.72 299.144 434.311 334.407C433.935 367.546 436.519 387.992 487.493 455.439C526.299 508.519 541.161 537.014 543.743 583.453C539.563 613.677 550.54 642.398 606.151 725.483C648.797 779.913 664.44 809.338 664.439 858.134C657.032 885.654 667.009 910.338 715.583 974.529C758.545 1029.63 770.414 1056.59 768.765 1095.56C756.069 1115.34 771.866 1147.49 825.015 1223.58" stroke="#FDFEFF" stroke-opacity="0.3" stroke-width="2"/>
<path opacity="0.897959" d="M274.087 -30.0135C319.189 29.1326 325.557 53.6253 329.289 93.8175C331.77 133.1 345.323 162.216 387.639 224.712C423.806 269.847 435.152 293.538 435.565 332.222C436.816 368.392 440.147 390.163 489.74 453.751C527.579 504.049 542.463 532.207 547.041 582.292C544.692 616.024 556.054 645.182 610.616 724.906C652.01 775.93 667.648 804.95 669.992 858.102C664.579 889.515 674.837 914.468 722.092 974.976C763.806 1026.67 775.895 1053.73 776.268 1096.51C765.673 1120.51 781.582 1152.47 833.568 1225.05" stroke="#FDFEFF" stroke-opacity="0.3" stroke-width="2"/>
<path opacity="0.918367" d="M272.357 -33.693C316.211 21.9912 323.178 47.4364 328.503 90.494C332.647 132.803 346.37 161.892 387.852 221.765C422.908 263.919 434.363 287.525 436.598 329.584C439.473 368.741 443.549 391.81 491.701 451.463C528.525 498.916 543.412 526.703 549.982 580.373C549.467 617.572 561.2 647.131 614.645 723.397C654.737 770.953 670.352 799.532 675.037 856.976C671.625 892.243 682.152 917.436 728.029 974.186C768.444 1022.4 780.737 1049.55 783.132 1096.07C774.651 1124.27 790.653 1155.99 841.413 1224.98" stroke="#FDFEFF" stroke-opacity="0.3" stroke-width="2"/>
<path opacity="0.938776" d="M270.604 -37.3792C313.157 14.7751 320.716 41.1419 327.627 87.0125C333.428 132.296 347.304 161.322 387.901 218.5C421.804 257.622 433.355 281.115 437.408 326.496C441.905 368.593 446.719 392.932 493.37 448.576C529.135 493.128 544.008 520.51 552.561 577.698C553.881 618.32 565.97 648.243 618.233 720.958C656.974 764.988 672.547 793.092 679.567 854.757C678.159 893.836 688.942 919.237 733.386 972.161C772.453 1016.85 784.935 1044.03 789.349 1094.24C782.992 1126.6 799.068 1158.06 848.539 1223.36" stroke="#FDFEFF" stroke-opacity="0.3" stroke-width="2"/>
<path opacity="0.959184" d="M268.832 -41.069C310.031 7.49197 318.171 34.7482 326.66 83.3757C334.112 131.579 348.124 160.507 387.787 214.919C420.495 250.961 432.127 274.313 437.994 322.961C444.106 367.947 449.653 393.526 494.747 445.093C529.41 486.689 544.249 513.633 554.775 574.271C557.927 618.264 570.358 648.516 621.375 717.592C658.719 758.041 674.229 785.636 683.577 851.448C684.175 894.289 695.201 919.869 738.157 968.901C775.828 1010.01 788.485 1037.19 794.911 1091.03C790.686 1127.52 806.816 1158.67 854.938 1220.21" stroke="#FDFEFF" stroke-opacity="0.3" stroke-width="2"/>
<path opacity="0.979592" d="M267.04 -44.7592C306.837 0.149129 315.548 28.2615 325.604 79.5868C334.697 130.651 348.829 159.445 387.509 211.026C418.982 243.944 430.681 267.126 438.354 318.982C446.074 366.801 452.348 393.589 495.83 441.018C529.346 479.606 544.135 506.079 556.621 570.093C561.602 617.405 574.359 647.949 624.068 713.3C659.968 750.12 675.398 777.172 687.061 847.05C689.664 893.603 700.919 919.33 742.335 964.41C778.564 1001.88 791.379 1029.04 799.81 1086.45C797.723 1127.01 813.887 1157.82 860.602 1215.52" stroke="#FDFEFF" stroke-opacity="0.3" stroke-width="2"/>
<path d="M265.232 -48.4453C303.576 -7.24412 312.849 21.6902 324.46 75.6508C335.183 129.514 349.416 158.14 387.067 206.826C417.266 236.58 429.018 259.563 438.488 314.565C447.806 365.159 454.799 393.124 496.615 436.355C528.946 471.89 543.665 497.86 558.095 565.171C564.899 615.744 577.967 646.542 626.307 708.09C660.72 741.236 676.05 767.712 690.015 841.571C694.62 891.779 706.09 917.621 745.915 958.696C780.658 992.485 793.617 1019.59 804.042 1080.49C804.095 1125.08 820.273 1155.5 865.523 1209.3" stroke="#FDFEFF" stroke-opacity="0.3" stroke-width="2"/>
</svg>
