<svg width="661" height="1191" viewBox="0 0 661 1191" fill="none" xmlns="http://www.w3.org/2000/svg">
<path opacity="0.01" d="M86.9201 919.135C123.253 819.227 106.093 846.225 60.3581 927.84C12.6085 1014.08 7.86267 1012.94 32.281 937.041C64.5829 851.086 61.5557 848.391 9.22007 944.598C-37.4522 1029.75 -58.7974 1066.68 -16.8483 953.142C12.699 871.047 12.7593 860.076 -44.4204 962.177C-97.1436 1061.12 -107.678 1072.25 -75.0114 972.203C-37.1645 872.209 -36.3196 859.24 -103.582 981.566C-161.119 1091.62 -168.737 1098.18 -128.652 989.782C-90.8862 889.704 -96.6344 891.484 -154.72 998.325C-215.585 1118.29 -218.088 1111.3 -182.292 1007.36" stroke="#FDFEFF" stroke-opacity="0.3" stroke-width="2"/>
<path opacity="0.0204082" d="M87.1182 919.709C124.967 817.906 108.065 843.991 62.5511 924.04C14.9826 1008.74 10.723 1006.58 36.5826 928.619C70.0938 841.236 67.4718 837.711 15.2535 932.379C-31.283 1016.1 -52.469 1052.2 -8.85705 936.63C21.9638 852.918 22.5478 840.977 -34.3584 941.127C-87.0607 1038.69 -97.1748 1048.78 -62.652 946.115C-23.4227 844.512 -22.0292 830.546 -89.0771 950.774C-146.692 1059.51 -153.933 1065.19 -112.264 954.862C-73.1046 853.152 -78.416 853.976 -136.375 959.113C-197.492 1078.01 -199.431 1069.91 -161.876 963.61" stroke="#FDFEFF" stroke-opacity="0.3" stroke-width="2"/>
<path opacity="0.0408163" d="M87.269 920.386C126.587 816.812 109.964 841.954 64.726 920.341C17.3963 1003.4 13.6281 1000.22 40.897 920.292C75.5766 831.587 73.3629 827.239 21.3253 920.253C-25.0191 1002.44 -46.0202 1037.66 -0.798788 920.208C31.2579 834.981 32.3647 822.084 -24.1991 920.161C-76.8165 1016.24 -86.4979 1025.27 -50.1616 920.108C-9.59792 817.019 -7.65752 802.074 -74.4095 920.059C-132.031 1027.36 -138.888 1032.13 -95.686 920.016C-55.1807 816.797 -60.0491 816.664 -117.81 919.971C-179.107 1037.66 -180.479 1028.46 -141.21 919.924" stroke="#FDFEFF" stroke-opacity="0.3" stroke-width="2"/>
<path opacity="0.0612245" d="M87.3716 921.168C128.111 815.949 111.786 840.117 66.8794 916.746C19.846 998.056 16.5735 993.862 45.2183 912.073C81.0237 822.155 79.2208 816.988 27.4271 908.234C-18.6689 988.793 -39.4597 1023.09 7.31578 903.895C40.5689 817.258 42.1971 803.421 -13.9557 899.306C-66.4243 993.779 -75.6613 1001.74 -37.5562 894.214C4.29217 789.765 6.7769 773.859 -59.5981 889.458C-117.158 995.186 -123.622 999.059 -78.939 885.286C-37.1374 780.684 -41.557 779.596 -99.0504 880.946C-160.452 997.28 -161.255 986.987 -120.322 876.357" stroke="#FDFEFF" stroke-opacity="0.3" stroke-width="2"/>
<path opacity="0.0816327" d="M87.4257 922.052C129.537 815.317 113.529 838.483 69.0086 913.262C22.3284 992.727 19.5555 987.523 49.541 903.97C86.4284 812.949 85.0385 806.97 33.5515 896.339C-12.2402 975.168 -32.7956 1008.5 15.4767 887.712C49.8856 799.77 52.0329 785.011 -3.6407 878.588C-55.8968 971.341 -64.6785 978.224 -24.8513 868.465C18.2306 762.784 21.2565 745.937 -44.6611 859.01C-102.088 963.037 -108.152 966.004 -62.0435 850.714C-18.9968 744.858 -22.9623 742.815 -80.1183 842.087C-141.549 956.925 -141.784 945.555 -99.2357 832.963" stroke="#FDFEFF" stroke-opacity="0.3" stroke-width="2"/>
<path opacity="0.102041" d="M87.4304 923.039C130.861 814.92 115.191 837.055 71.1103 909.892C24.84 987.418 22.5698 981.211 53.8592 895.996C91.7834 803.983 90.808 797.2 39.6901 884.582C-5.74175 961.586 -26.0367 993.918 23.6732 871.68C59.1957 782.541 61.8595 766.878 6.73245 858.034C-45.2478 948.954 -53.5635 954.751 -12.0632 842.893C32.1995 736.11 35.7626 718.342 -29.6176 828.752C-86.8426 930.953 -92.4982 933.009 -45.0209 816.344C-0.781707 709.363 -4.28855 706.369 -61.0378 803.442C-122.424 916.644 -122.089 904.212 -77.9786 789.795" stroke="#FDFEFF" stroke-opacity="0.3" stroke-width="2"/>
<path opacity="0.122449" d="M87.3855 924.13C132.083 814.757 116.769 835.835 73.1814 906.644C27.377 982.135 25.6122 974.933 58.167 888.161C97.0818 795.268 96.5219 787.689 45.8351 872.98C0.818159 948.066 -19.1919 979.356 31.8949 855.819C68.4875 765.592 71.6643 749.045 17.1507 837.669C-34.4907 926.647 -42.3305 931.35 0.792002 817.531C46.1813 709.776 50.2773 691.109 -14.4863 798.723C-71.4397 898.974 -76.6807 900.118 -27.8924 782.22C17.4851 674.244 14.4411 670.303 -41.8326 765.059C-103.1 876.489 -102.196 863.009 -56.5769 746.908" stroke="#FDFEFF" stroke-opacity="0.3" stroke-width="2"/>
<path opacity="0.142857" d="M87.2905 925.322C133.2 814.831 118.261 834.826 75.219 903.52C29.9361 976.886 28.6787 968.698 62.4589 880.475C102.316 786.816 102.173 778.451 51.9785 861.546C7.43111 934.623 -12.2697 964.834 40.1314 840.15C77.7492 748.945 81.435 731.533 27.6008 817.519C-23.6389 904.446 -30.9934 908.051 13.6983 792.41C60.1587 683.815 64.7824 664.272 0.713876 768.959C-55.8988 867.138 -60.719 867.369 -10.6794 748.382C35.7809 639.545 33.2033 634.661 -22.5266 726.985C-83.6001 836.507 -82.1285 821.997 -35.0571 704.354" stroke="#FDFEFF" stroke-opacity="0.3" stroke-width="2"/>
<path opacity="0.163265" d="M87.1447 926.616C134.21 815.142 119.664 834.03 77.2199 900.526C32.5133 971.678 31.7646 962.514 66.7288 872.948C107.48 778.638 107.753 769.497 58.1121 850.296C14.0882 921.275 -5.27953 950.37 48.3717 824.691C86.9687 732.621 91.1588 714.366 38.0694 797.609C-12.7066 882.38 -19.567 884.882 26.6391 767.561C74.1138 658.259 79.2593 637.865 15.9636 739.498C-40.2396 835.486 -44.6332 834.803 6.59634 714.873C54.0826 605.307 51.9744 599.487 -3.1441 689.268C-63.9497 796.749 -61.9125 781.226 -13.4464 662.186" stroke="#FDFEFF" stroke-opacity="0.3" stroke-width="2"/>
<path opacity="0.183673" d="M86.9482 928.012C135.111 815.69 120.976 833.449 79.1813 897.667C35.1054 966.518 34.8662 956.39 70.9714 865.59C112.567 770.745 113.255 760.839 64.2282 839.245C20.7813 908.04 1.76998 935.984 56.6057 809.464C96.1346 716.64 100.824 697.566 48.5434 777.964C-1.70716 860.477 -8.06537 861.874 39.5984 743.016C88.0293 633.14 93.6902 611.92 31.2441 710.376C-24.4814 804.057 -28.4433 802.462 23.9136 681.736C72.3677 571.574 70.7313 564.826 16.291 651.955C-44.1728 757.263 -41.5727 740.748 8.22876 620.455" stroke="#FDFEFF" stroke-opacity="0.3" stroke-width="2"/>
<path opacity="0.204082" d="M86.7006 929.508C135.903 816.476 122.195 833.084 81.1004 894.946C37.7084 961.413 37.9787 950.334 75.1807 858.413C117.57 763.147 118.673 752.49 70.3187 828.406C27.5013 894.935 8.86951 921.694 64.8226 794.487C105.235 701.024 110.417 681.153 59.0094 758.611C9.3452 838.764 3.49681 839.054 52.5598 718.806C101.888 608.491 108.057 586.471 46.5361 681.631C-8.64413 772.89 -12.1696 770.385 41.2505 649.011C90.6133 538.389 89.4504 530.72 35.7544 615.091C-24.2941 718.1 -21.1345 700.613 29.9413 579.215" stroke="#FDFEFF" stroke-opacity="0.3" stroke-width="2"/>
<path opacity="0.22449" d="M86.4017 931.103C136.583 817.5 123.319 832.937 82.9743 892.368C40.3189 956.371 41.0983 944.354 79.3514 851.424C122.482 755.854 123.998 744.458 76.3758 817.794C34.2398 881.975 16.0101 907.517 73.0121 779.779C114.258 685.791 119.928 665.148 69.4543 739.571C20.4367 817.269 15.1051 816.452 65.5071 694.961C115.671 584.341 122.341 561.548 61.8205 653.297C7.25252 742.024 4.16763 738.613 58.5856 616.738C108.797 505.791 108.109 497.211 55.2219 578.723C-4.33843 679.307 -0.623315 660.869 51.6642 538.515" stroke="#FDFEFF" stroke-opacity="0.3" stroke-width="2"/>
<path opacity="0.244898" d="M86.0513 932.797C137.15 818.76 124.346 833.009 84.8002 889.937C42.933 951.399 44.2204 938.458 83.4777 844.633C127.297 748.877 129.224 736.756 82.3914 807.423C40.988 869.178 23.1824 893.472 81.1635 765.36C123.193 670.961 129.342 649.571 79.8648 720.87C31.5532 796.018 26.7446 794.096 78.4238 671.51C129.363 560.721 136.526 537.182 77.0781 625.409C23.1886 711.497 20.5479 707.184 75.8972 584.958C126.895 473.821 126.683 464.342 74.6693 542.895C15.6695 640.932 19.9354 621.566 73.3706 498.405" stroke="#FDFEFF" stroke-opacity="0.3" stroke-width="2"/>
<path opacity="0.265306" d="M85.6494 934.588C137.603 820.258 125.275 833.3 86.5753 887.657C45.5471 946.503 47.3407 932.656 87.554 838.05C132.008 742.224 134.344 729.394 88.3578 797.305C47.7372 856.561 30.3772 879.577 89.2665 751.247C132.029 656.554 138.649 634.444 90.2276 702.532C42.6806 775.039 38.4008 772.014 91.2939 648.483C142.946 537.66 150.592 513.406 92.2898 598.004C39.1443 681.348 36.9508 676.138 93.1636 553.71C144.886 442.52 145.149 432.153 94.0723 507.652C35.7046 603.024 40.516 582.753 95.0334 458.937" stroke="#FDFEFF" stroke-opacity="0.3" stroke-width="2"/>
<path opacity="0.285714" d="M85.196 936.474C137.941 821.991 126.103 833.811 88.2971 885.531C48.1575 941.69 50.455 926.953 91.575 831.683C136.61 735.905 139.352 722.381 94.2673 787.455C54.4785 844.139 37.5852 865.85 97.3107 737.459C140.752 642.586 147.837 619.784 100.53 684.579C53.805 754.356 50.059 750.233 104.101 625.909C156.403 515.188 164.523 490.248 107.437 571.114C55.0995 651.613 53.3557 645.513 110.363 523.033C162.747 411.925 163.485 400.683 113.407 473.037C55.7422 565.627 61.0929 544.478 116.626 420.157" stroke="#FDFEFF" stroke-opacity="0.3" stroke-width="2"/>
<path opacity="0.306122" d="M84.6912 938.455C138.162 823.959 126.829 834.543 89.9629 883.563C50.7606 936.967 53.559 921.359 95.5352 825.541C141.096 729.927 144.24 715.726 100.112 777.884C61.2035 831.928 44.7973 852.308 105.286 724.013C149.354 629.077 156.894 605.61 110.758 667.034C64.9123 733.997 61.7044 728.781 116.829 603.816C169.717 493.331 178.301 467.736 122.5 544.773C71.0344 622.33 69.7424 615.347 127.475 492.965C180.455 382.075 181.668 369.972 132.649 439.094C75.7573 528.79 81.6407 506.787 138.121 382.115" stroke="#FDFEFF" stroke-opacity="0.3" stroke-width="2"/>
<path opacity="0.326531" d="M84.135 940.529C138.268 826.16 127.453 835.495 91.5701 881.757C53.3526 932.341 56.6483 915.881 99.4294 819.632C145.46 724.3 149.002 709.44 105.885 768.606C67.9033 819.945 52.004 838.969 113.182 710.926C157.822 616.044 165.808 591.94 120.899 649.919C75.9884 713.988 73.3225 707.685 129.462 582.232C182.872 472.119 191.909 445.9 137.46 519.015C86.929 593.535 86.0902 585.679 144.477 463.544C197.99 353.008 199.675 340.059 151.774 405.864C95.7251 492.557 102.134 469.729 159.492 344.857" stroke="#FDFEFF" stroke-opacity="0.3" stroke-width="2"/>
<path opacity="0.346939" d="M83.5277 942.694C138.255 828.591 127.972 836.667 93.1165 880.114C55.93 927.817 59.7189 910.526 103.252 813.964C149.697 719.03 153.633 703.529 111.577 759.633C74.5693 808.204 59.1961 825.849 120.988 698.216C166.147 603.503 174.568 578.793 130.941 633.256C87.0194 694.353 84.8985 686.97 141.985 561.183C195.85 451.577 205.329 424.766 152.299 493.87C102.764 565.264 102.379 556.544 161.349 434.806C215.328 324.758 217.484 310.98 170.76 373.389C115.621 456.974 122.547 433.348 180.713 308.429" stroke="#FDFEFF" stroke-opacity="0.3" stroke-width="2"/>
<path opacity="0.367347" d="M82.8695 944.949C138.125 831.252 128.385 838.059 94.5996 878.638C58.4892 923.403 62.7664 905.302 106.999 808.546C153.8 714.126 158.125 698.002 117.183 750.975C81.193 796.72 66.3645 812.965 128.695 685.897C174.317 591.469 183.163 566.183 140.871 617.065C97.9915 675.116 96.4179 666.664 154.381 540.697C208.636 431.731 218.546 404.362 166.998 469.371C118.518 537.551 118.588 527.979 178.069 406.786C232.449 297.362 235.072 282.771 189.581 341.708C135.419 422.084 142.854 397.689 201.757 272.876" stroke="#FDFEFF" stroke-opacity="0.3" stroke-width="2"/>
<path opacity="0.387755" d="M82.1606 947.292C137.877 834.14 128.692 839.669 96.017 877.333C61.0264 919.105 65.7865 900.216 110.664 803.384C157.764 709.593 162.473 692.868 122.694 742.646C87.7657 785.509 73.4999 800.335 136.293 673.988C182.321 579.96 191.582 554.129 150.676 601.369C108.891 656.303 107.866 646.793 166.634 520.798C221.213 412.607 231.541 384.712 181.538 445.549C134.174 510.433 134.697 500.02 194.616 379.521C249.331 270.853 252.418 255.467 208.215 310.862C155.097 387.931 163.031 362.798 222.599 238.243" stroke="#FDFEFF" stroke-opacity="0.3" stroke-width="2"/>
<path opacity="0.408163" d="M81.4016 949.719C137.51 837.251 128.892 841.497 97.3666 876.199C63.5381 914.929 68.7753 895.275 114.242 798.485C161.585 705.439 166.671 688.132 128.103 734.655C94.2789 774.585 80.593 787.973 143.771 662.501C190.151 568.989 199.814 542.645 160.344 586.185C119.703 637.936 119.229 627.379 178.73 501.513C233.566 394.227 244.3 365.842 195.903 422.432C149.71 483.942 150.687 472.7 210.971 353.042C265.953 245.265 269.5 229.103 226.639 280.888C174.628 354.556 183.052 328.715 243.211 204.572" stroke="#FDFEFF" stroke-opacity="0.3" stroke-width="2"/>
<path opacity="0.428571" d="M80.5927 952.231C137.025 840.584 128.984 843.541 98.6462 875.24C66.0208 910.88 71.7284 890.486 117.73 793.857C165.256 701.668 170.714 683.801 133.404 727.013C100.724 763.961 87.6349 775.896 151.122 651.453C197.795 558.57 207.849 531.746 169.862 571.533C130.415 620.039 130.492 608.448 190.654 482.864C245.679 376.615 256.805 347.773 210.073 400.05C165.108 458.11 166.537 446.055 227.112 327.384C282.294 220.627 286.297 203.71 244.83 251.823C193.99 322 202.893 295.484 263.57 171.904" stroke="#FDFEFF" stroke-opacity="0.3" stroke-width="2"/>
<path opacity="0.44898" d="M79.7346 954.824C136.422 844.134 128.967 845.799 99.8539 874.457C68.471 906.964 74.642 885.855 121.121 789.505C168.774 698.287 174.596 679.882 138.588 719.731C107.094 753.653 94.6164 764.119 158.334 640.857C205.243 548.718 215.677 521.445 179.218 557.433C141.014 602.634 141.641 590.024 202.389 464.875C257.537 359.793 269.042 330.531 224.03 378.43C180.348 432.971 182.227 420.116 243.019 302.578C298.334 196.973 302.788 179.321 262.765 223.704C213.157 290.306 222.528 263.147 283.649 140.28" stroke="#FDFEFF" stroke-opacity="0.3" stroke-width="2"/>
<path opacity="0.469388" d="M78.8278 957.496C135.7 847.899 128.841 848.271 100.988 873.852C70.8853 903.188 77.5119 881.39 124.412 785.436C172.132 695.3 178.312 676.379 143.651 712.817C113.379 743.672 101.529 752.658 165.399 630.727C212.488 539.444 223.287 511.757 188.402 543.902C151.486 585.744 152.662 572.13 213.923 447.57C269.126 343.783 280.995 314.136 237.759 357.6C195.412 408.555 197.739 394.917 258.674 278.655C314.054 174.331 318.952 155.965 280.422 196.565C232.107 259.51 241.934 231.741 303.424 109.739" stroke="#FDFEFF" stroke-opacity="0.3" stroke-width="2"/>
<path opacity="0.489796" d="M77.8727 960.246C134.861 851.875 128.605 850.953 102.045 873.428C73.26 899.556 80.3341 877.096 127.597 781.657C175.327 692.713 181.856 673.3 148.584 706.282C119.571 734.032 108.363 741.528 172.307 621.077C219.518 530.762 230.67 502.694 197.4 530.957C161.817 569.39 163.541 554.789 225.239 430.97C280.43 328.605 292.649 298.61 251.24 337.586C210.281 384.893 213.052 370.49 274.055 255.645C329.432 152.73 334.77 133.674 297.778 170.44C250.815 229.653 261.087 201.309 322.87 80.3201" stroke="#FDFEFF" stroke-opacity="0.3" stroke-width="2"/>
<path opacity="0.510204" d="M76.8701 963.069C133.904 856.057 128.259 853.843 103.026 873.184C75.592 896.074 83.1047 872.979 130.673 778.171C178.354 690.528 185.225 670.646 153.381 700.133C125.663 724.746 115.11 730.741 179.051 611.918C226.326 522.681 237.816 494.267 206.201 518.614C171.994 553.591 174.264 538.021 236.324 415.095C291.435 314.277 303.989 283.971 264.458 318.412C224.935 362.015 228.148 346.862 289.144 233.576C344.451 132.195 350.221 112.472 314.814 145.361C269.258 200.77 279.962 171.884 341.964 52.0572" stroke="#FDFEFF" stroke-opacity="0.3" stroke-width="2"/>
<path opacity="0.530612" d="M75.8209 965.965C132.831 860.443 127.804 856.938 103.927 873.123C77.8779 892.747 85.8199 869.046 133.636 774.985C181.21 688.749 188.413 668.424 158.037 694.38C131.647 715.826 121.761 720.314 185.621 603.263C232.902 515.213 244.717 486.488 214.795 506.891C182.006 538.369 184.818 521.85 247.164 399.966C302.128 300.819 315.001 270.238 277.396 300.103C239.357 339.948 243.007 324.066 303.922 212.477C359.092 112.754 365.287 92.3874 331.506 121.36C287.414 172.897 298.537 143.506 360.681 24.9872" stroke="#FDFEFF" stroke-opacity="0.3" stroke-width="2"/>
<path opacity="0.55102" d="M74.7257 968.929C131.643 865.026 127.239 860.236 104.747 873.245C80.1143 889.58 88.4758 865.301 136.48 772.102C183.889 687.38 191.417 666.635 162.545 689.029C137.514 707.282 128.308 710.258 192.008 595.123C239.237 508.367 251.362 479.367 223.171 495.8C191.839 523.742 195.19 506.293 257.746 385.601C312.495 288.245 325.671 257.428 290.037 282.681C253.53 318.721 257.612 302.128 318.372 192.372C373.336 94.4287 379.948 73.4448 347.835 98.4655C305.26 146.069 316.787 116.209 378.998 -0.857694" stroke="#FDFEFF" stroke-opacity="0.3" stroke-width="2"/>
<path opacity="0.571429" d="M73.5852 971.96C130.339 869.803 126.565 863.734 105.484 873.551C82.2982 886.577 91.0688 861.751 139.203 769.528C186.389 686.422 194.231 665.284 166.898 684.089C143.258 699.127 134.742 700.588 198.205 587.509C245.324 502.154 257.745 472.913 231.317 485.357C201.48 509.729 205.366 491.373 268.055 372.02C322.523 276.575 335.987 245.558 302.366 266.169C267.434 298.359 271.944 281.077 332.474 173.288C387.165 77.2441 394.187 55.6681 363.78 76.7071C322.774 120.319 334.692 90.0257 396.892 -25.4448" stroke="#FDFEFF" stroke-opacity="0.3" stroke-width="2"/>
<path opacity="0.591837" d="M72.4007 975.054C128.922 874.767 125.781 867.427 106.139 874.041C84.4264 883.742 93.5954 858.399 141.801 767.265C188.705 685.878 196.853 664.372 171.092 679.566C148.87 691.37 141.056 691.313 204.203 580.429C251.156 496.579 263.856 467.134 239.224 475.574C210.918 496.347 215.334 477.106 278.079 359.238C332.2 265.82 345.934 234.642 314.368 250.586C281.053 278.888 285.985 260.937 346.211 155.247C400.563 61.2201 407.986 39.0785 379.322 56.1105C339.935 95.6777 352.228 64.9889 414.343 -48.7445" stroke="#FDFEFF" stroke-opacity="0.3" stroke-width="2"/>
<path opacity="0.612245" d="M71.1729 978.21C127.393 879.916 124.889 871.314 106.708 874.716C86.4958 881.082 96.0518 855.252 144.269 765.319C190.835 685.749 199.278 663.901 175.12 675.466C154.344 684.023 147.24 682.45 209.995 573.895C256.723 491.653 269.688 462.039 246.881 466.466C220.141 483.614 225.082 463.511 287.806 347.274C341.512 255.996 355.5 224.695 326.028 235.953C294.37 260.334 299.718 241.736 359.566 138.273C413.513 46.3782 421.327 23.6982 394.441 36.7029C356.72 72.1775 369.375 41.1307 431.327 -70.7267" stroke="#FDFEFF" stroke-opacity="0.3" stroke-width="2"/>
<path opacity="0.632653" d="M69.9028 981.423C125.753 885.242 123.889 875.388 107.191 875.576C88.5034 878.598 98.4347 852.314 146.605 763.691C192.776 686.036 201.504 663.874 178.978 671.795C159.672 677.095 153.288 674.006 215.573 567.915C262.02 487.38 275.233 457.634 254.279 458.042C229.137 471.546 234.596 450.606 297.223 336.14C350.45 247.114 364.674 215.729 337.33 222.288C307.369 242.717 313.125 223.496 372.523 122.387C425.998 32.736 434.194 9.54548 409.118 18.5072C373.11 49.8463 386.109 18.4796 447.824 -91.3651" stroke="#FDFEFF" stroke-opacity="0.3" stroke-width="2"/>
<path opacity="0.653061" d="M68.5914 984.69C124.003 890.741 122.781 879.647 107.586 876.62C90.4463 876.295 100.741 849.59 148.805 762.384C194.524 686.739 203.526 664.29 182.66 668.558C164.848 670.595 159.19 665.996 220.93 562.496C267.039 483.767 280.484 453.925 261.408 450.315C237.895 460.158 243.864 438.407 306.317 325.852C359 239.188 373.444 207.756 348.261 209.609C320.032 226.061 326.19 206.24 385.065 107.609C438.003 20.3114 446.57 -3.3613 423.335 1.54706C389.083 28.7127 402.412 -2.93562 463.813 -110.633" stroke="#FDFEFF" stroke-opacity="0.3" stroke-width="2"/>
<path opacity="0.673469" d="M67.2399 988.01C122.145 896.406 121.567 884.086 107.893 877.848C92.3216 874.178 102.966 847.083 150.866 761.403C196.077 687.859 205.342 665.15 186.161 665.761C169.865 664.532 164.94 658.427 226.059 557.646C271.773 480.82 285.434 450.919 268.259 443.295C246.403 449.464 252.876 426.93 315.079 316.424C367.153 232.226 381.798 200.787 358.807 197.931C332.344 210.387 338.897 189.99 397.177 93.9578C449.513 9.11977 458.441 -15.0061 437.075 -14.1568C404.62 8.80245 418.262 -23.0887 479.274 -128.508" stroke="#FDFEFF" stroke-opacity="0.3" stroke-width="2"/>
<path opacity="0.693878" d="M65.8495 991.378C120.181 902.231 120.247 888.701 108.112 879.26C94.1267 872.248 105.108 844.797 152.785 760.746C197.434 689.395 206.95 666.454 189.477 663.406C174.715 658.914 170.53 651.311 230.954 553.372C276.217 478.542 290.076 448.618 274.823 436.99C254.651 439.479 261.62 416.188 323.496 307.866C374.897 226.238 389.726 194.83 368.955 187.269C344.291 195.714 351.229 174.766 408.843 81.4494C460.514 -0.825131 469.792 -25.3745 450.32 -28.5851C419.702 -9.85997 433.64 -41.9549 494.19 -144.967" stroke="#FDFEFF" stroke-opacity="0.3" stroke-width="2"/>
<path opacity="0.714286" d="M64.4213 994.791C118.114 908.21 118.823 893.486 108.24 880.854C95.8588 870.51 107.164 842.736 154.559 760.418C198.591 691.345 208.347 668.2 192.603 661.498C179.394 653.748 175.953 644.657 235.608 549.679C280.365 476.937 294.406 447.026 281.093 431.409C262.628 430.215 270.085 406.195 331.559 300.189C382.224 221.231 397.219 189.892 378.692 177.636C355.856 182.06 363.172 160.587 420.049 70.0997C470.991 -9.51081 480.608 -34.4538 463.054 -41.72C434.31 -27.2516 448.527 -59.5111 508.54 -159.99" stroke="#FDFEFF" stroke-opacity="0.3" stroke-width="2"/>
<path opacity="0.734694" d="M62.9566 998.247C115.943 914.338 117.296 898.437 108.279 882.63C97.5153 868.966 109.131 840.904 156.186 760.419C199.546 693.709 209.53 670.388 195.534 660.041C183.894 649.042 181.201 638.474 240.014 546.573C284.21 476.007 298.416 446.147 287.059 426.56C270.324 421.685 278.259 396.966 339.256 293.406C389.124 217.214 404.265 185.982 388.006 169.046C367.026 169.444 374.711 147.471 430.781 59.9245C480.932 -16.9248 490.876 -42.2308 475.261 -53.5435C448.426 -43.3493 462.904 -75.7339 522.307 -173.557" stroke="#FDFEFF" stroke-opacity="0.3" stroke-width="2"/>
<path opacity="0.755102" d="M61.4566 1001.74C113.673 920.606 115.667 903.549 108.226 884.586C99.0938 867.619 111.005 839.302 157.663 760.748C200.299 696.484 210.498 673.015 198.267 659.035C188.21 644.802 186.269 632.77 244.167 544.058C287.749 475.755 302.102 445.982 292.715 422.448C277.73 413.898 286.134 388.51 346.578 287.523C395.588 214.189 410.858 183.103 396.884 161.508C377.786 157.88 385.83 135.435 441.026 50.9351C490.325 -23.0593 500.583 -48.6973 486.926 -64.0425C462.032 -58.1348 476.755 -90.6048 535.474 -185.652" stroke="#FDFEFF" stroke-opacity="0.3" stroke-width="2"/>
<path opacity="0.77551" d="M59.9227 1005.27C111.306 927.008 113.938 908.816 108.081 886.72C100.592 866.471 112.784 837.935 158.987 761.408C200.847 699.666 211.25 676.08 200.799 658.484C192.336 641.033 191.149 627.551 248.062 542.137C290.976 476.181 305.459 446.531 298.053 419.08C284.836 406.865 293.697 380.84 353.516 282.548C401.608 212.163 416.987 181.26 405.317 155.033C388.123 147.383 396.517 124.493 450.77 43.1432C499.157 -27.9058 509.717 -53.8445 498.034 -73.2034C475.112 -71.5891 490.06 -104.105 548.025 -196.261" stroke="#FDFEFF" stroke-opacity="0.3" stroke-width="2"/>
<path opacity="0.795918" d="M58.3564 1008.83C108.843 933.539 112.11 914.233 107.846 889.032C102.007 865.526 114.465 836.804 160.158 762.398C201.191 703.255 211.784 679.579 203.124 658.389C196.267 637.742 195.835 622.828 251.694 540.816C293.888 477.285 308.482 447.795 303.065 416.46C291.633 400.596 300.941 373.965 360.061 278.489C407.176 211.138 422.646 180.457 413.293 149.629C398.025 137.967 406.757 114.661 460.002 36.56C507.417 -31.4569 518.266 -57.6647 508.572 -81.0133C487.649 -83.6944 502.805 -116.216 559.943 -205.369" stroke="#FDFEFF" stroke-opacity="0.3" stroke-width="2"/>
<path opacity="0.816327" d="M56.7589 1012.42C106.287 940.189 110.185 919.793 107.518 891.518C103.338 864.783 116.046 835.912 161.173 763.718C201.328 707.245 212.098 683.508 205.241 658.75C199.997 634.932 200.32 618.604 255.057 540.094C296.479 479.067 311.167 449.772 307.747 414.592C298.112 395.098 307.856 367.894 366.205 275.35C412.286 211.116 427.828 180.693 420.803 145.303C407.478 129.643 416.539 105.948 468.71 31.1923C515.095 -33.7097 526.221 -60.1545 518.526 -87.4643C499.628 -94.4374 514.972 -126.926 571.216 -212.965" stroke="#FDFEFF" stroke-opacity="0.3" stroke-width="2"/>
<path opacity="0.836735" d="M55.1317 1016.04C103.641 946.953 108.166 925.493 107.098 894.177C104.581 864.247 117.525 835.261 162.029 765.366C201.258 711.633 212.192 687.864 207.146 659.569C203.522 632.61 204.6 614.886 258.147 539.974C298.746 481.526 313.511 452.463 312.09 413.481C304.265 390.38 314.433 362.636 371.939 273.137C416.929 212.098 432.524 181.971 427.836 142.062C416.471 122.422 425.849 98.369 476.883 27.0489C522.182 -34.6588 533.569 -61.3084 527.884 -92.5459C511.034 -103.802 526.548 -136.217 581.827 -219.039" stroke="#FDFEFF" stroke-opacity="0.3" stroke-width="2"/>
<path opacity="0.857143" d="M53.4763 1019.67C100.907 953.822 106.053 931.323 106.587 897.005C105.735 863.916 118.898 834.852 162.727 767.342C200.981 716.414 212.066 692.642 208.837 660.843C206.836 630.776 208.668 611.68 260.96 540.457C300.687 484.659 315.51 455.862 316.09 413.125C310.084 386.447 320.664 358.197 377.257 271.852C421.101 214.082 436.73 184.288 434.384 139.909C424.993 116.314 434.676 91.931 484.51 24.1338C528.668 -34.3044 540.303 -61.1261 536.634 -96.2532C521.852 -111.779 537.517 -144.081 591.764 -223.584" stroke="#FDFEFF" stroke-opacity="0.3" stroke-width="2"/>
<path opacity="0.877551" d="M51.7945 1023.33C98.0891 960.79 103.849 937.28 105.984 900.002C106.799 863.794 120.165 834.686 163.264 769.643C200.497 721.582 211.72 697.837 210.31 662.574C209.935 629.434 212.519 608.989 263.493 541.542C302.299 488.461 317.161 459.967 319.742 413.528C315.563 383.304 326.54 354.583 382.151 271.497C424.797 217.067 440.44 187.642 440.439 138.847C433.032 111.326 443.009 86.6428 491.583 22.4512C534.545 -32.6462 546.414 -59.6074 544.765 -98.5811C532.069 -118.358 547.866 -150.507 601.015 -226.595" stroke="#FDFEFF" stroke-opacity="0.3" stroke-width="2"/>
<path opacity="0.897959" d="M50.0874 1026.99C95.1893 967.848 101.557 943.355 105.289 903.163C107.77 863.881 121.323 834.765 163.639 772.268C199.806 727.133 211.152 703.443 211.565 664.759C212.816 628.588 216.147 606.818 265.74 543.229C303.579 492.932 318.463 464.773 323.041 414.689C320.692 380.957 332.054 351.799 386.616 272.074C428.01 221.05 443.648 192.03 445.992 138.879C440.579 107.466 450.837 82.5121 498.092 22.0043C539.806 -29.6851 551.895 -56.7528 552.268 -99.5256C541.673 -123.529 557.582 -155.487 609.568 -228.066" stroke="#FDFEFF" stroke-opacity="0.3" stroke-width="2"/>
<path opacity="0.918367" d="M48.3568 1030.67C92.2111 974.989 99.1783 949.544 104.503 906.486C108.647 864.178 122.37 835.089 163.852 775.215C198.908 733.061 210.363 709.455 212.598 667.397C215.473 628.239 219.549 605.17 267.701 545.518C304.525 498.064 319.412 470.277 325.982 416.608C325.467 379.408 337.2 349.85 390.645 273.583C430.737 226.028 446.352 197.448 451.037 140.005C447.625 104.738 458.152 79.5445 504.029 22.7944C544.444 -25.424 556.737 -52.5652 559.132 -99.0849C550.651 -127.285 566.653 -159.013 617.413 -227.995" stroke="#FDFEFF" stroke-opacity="0.3" stroke-width="2"/>
<path opacity="0.938776" d="M46.6044 1034.36C89.1574 982.205 96.7156 955.839 103.627 909.968C109.428 864.685 123.304 835.658 163.902 778.481C197.804 739.359 209.355 715.865 213.408 670.485C217.905 628.387 222.719 604.048 269.37 548.404C305.135 503.853 320.008 476.471 328.561 419.282C329.881 378.661 341.97 348.737 394.233 276.022C432.974 231.993 448.547 203.888 455.567 142.223C454.159 103.145 464.942 77.7431 509.386 24.8198C548.453 -19.8688 560.935 -47.0504 565.349 -97.2604C558.992 -129.623 575.068 -161.082 624.539 -226.383" stroke="#FDFEFF" stroke-opacity="0.3" stroke-width="2"/>
<path opacity="0.959184" d="M44.8316 1038.05C86.0315 989.489 94.1713 962.232 102.66 913.605C110.112 865.402 124.124 836.474 163.787 782.061C196.495 746.02 208.127 722.668 213.994 674.019C220.106 629.034 225.653 603.455 270.747 551.887C305.409 510.292 320.249 483.348 330.775 422.71C333.927 378.716 346.358 348.464 397.375 279.389C434.719 238.94 450.229 211.345 459.577 145.533C460.175 102.691 471.201 77.1114 514.157 28.0794C551.828 -13.0249 564.485 -40.2139 570.911 -94.0528C566.686 -130.539 582.816 -161.69 630.938 -223.23" stroke="#FDFEFF" stroke-opacity="0.3" stroke-width="2"/>
<path opacity="0.979592" d="M43.0404 1041.74C82.8367 996.831 91.5483 968.719 101.604 917.394C110.697 866.329 124.829 837.535 163.509 785.954C194.982 753.037 206.681 729.855 214.354 677.998C222.074 630.179 228.348 603.391 271.83 555.963C305.346 517.374 320.135 490.901 332.621 426.888C337.602 379.575 350.359 349.032 400.068 283.68C435.968 246.86 451.398 219.809 463.061 149.93C465.664 103.377 476.919 77.6509 518.335 32.5701C554.564 -4.89984 567.379 -32.063 575.81 -89.4653C573.723 -130.03 589.887 -160.836 636.602 -218.54" stroke="#FDFEFF" stroke-opacity="0.3" stroke-width="2"/>
<path d="M41.232 1045.43C79.5761 1004.22 88.8488 975.29 100.46 921.33C111.183 867.467 125.416 838.841 163.066 790.155C193.266 760.401 205.018 737.417 214.488 682.415C223.806 631.821 230.799 603.857 272.615 560.625C304.946 525.09 319.665 499.121 334.095 431.81C340.899 381.236 353.967 350.438 402.307 288.89C436.72 255.745 452.05 229.269 466.015 155.409C470.62 105.202 482.09 79.3599 521.915 38.285C556.658 4.495 569.617 -22.6093 580.042 -83.5051C580.095 -128.099 596.273 -158.522 641.523 -212.32" stroke="#FDFEFF" stroke-opacity="0.3" stroke-width="2"/>
</svg>
