<svg width="665" height="644" viewBox="0 0 665 644" fill="none" xmlns="http://www.w3.org/2000/svg">
<path d="M332.035 644C515.412 644 664.069 558.173 664.069 452.299C664.069 346.426 515.412 260.598 332.035 260.598C148.657 260.598 0 346.426 0 452.299C0 558.173 148.657 644 332.035 644Z" fill="#F0F0F0"/>
<path d="M522.72 518.816C500.947 506.246 500.947 485.868 522.72 473.298C544.493 460.727 579.795 460.727 601.568 473.298C623.341 485.868 623.341 506.246 601.568 518.816C579.795 531.387 544.493 531.387 522.72 518.816Z" fill="#E0E0E0"/>
<path d="M79.8766 520.564L22.6045 487.502C19.3773 485.642 19.3773 482.612 22.6045 480.752L355.738 288.417C357.549 287.5 359.55 287.021 361.58 287.021C363.609 287.021 365.61 287.5 367.421 288.417L424.707 321.478C427.934 323.338 427.934 326.368 424.707 328.228L91.5734 520.564C89.7604 521.481 87.757 521.959 85.725 521.959C83.693 521.959 81.6896 521.481 79.8766 520.564Z" fill="#E0E0E0"/>
<path d="M285.74 461.629L334.98 433.162C340.053 430.231 342.59 426.398 342.59 422.55C342.59 418.703 342.59 415.701 342.59 415.701L291.518 386.896C290.092 385.974 288.904 384.727 288.051 383.257C287.199 381.787 286.706 380.137 286.614 378.441V317.716L200.649 367.406V428.103C200.748 429.798 201.244 431.445 202.096 432.914C202.947 434.383 204.132 435.631 205.554 436.558L249.015 461.587C259.133 467.491 275.594 467.491 285.74 461.629Z" fill="black"/>
<path d="M285.74 461.629L334.98 433.162C340.053 430.231 342.59 426.398 342.59 422.55C342.59 418.703 342.59 415.701 342.59 415.701L291.518 386.896C290.092 385.974 288.904 384.727 288.051 383.257C287.199 381.787 286.706 380.137 286.614 378.441V317.716L200.649 367.406V428.103C200.748 429.798 201.244 431.445 202.096 432.914C202.947 434.383 204.132 435.631 205.554 436.558L249.015 461.587C259.133 467.491 275.594 467.491 285.74 461.629Z" fill="black"/>
<path d="M285.74 461.629L334.98 433.162C340.053 430.231 342.59 426.398 342.59 422.55C342.59 418.703 342.59 415.701 342.59 415.701L291.518 386.896C290.092 385.974 288.904 384.727 288.051 383.257C287.199 381.787 286.706 380.137 286.614 378.441V317.716L200.649 367.406V428.103C200.748 429.798 201.244 431.445 202.096 432.914C202.947 434.383 204.132 435.631 205.554 436.558L249.015 461.587C259.133 467.491 275.594 467.491 285.74 461.629Z" fill="#FFC700"/>
<g opacity="0.6">
<path d="M285.74 461.629L334.98 433.162C340.053 430.231 342.59 426.398 342.59 422.55C342.59 418.703 342.59 415.701 342.59 415.701L291.518 386.896C290.092 385.974 288.904 384.727 288.051 383.257C287.199 381.787 286.706 380.137 286.614 378.441V317.716L200.649 367.406V428.103C200.748 429.798 201.244 431.445 202.096 432.914C202.947 434.383 204.132 435.631 205.554 436.558L249.015 461.587C259.133 467.491 275.594 467.491 285.74 461.629Z" fill="black"/>
</g>
<path opacity="0.3" d="M221.268 438.855V445.676L205.512 436.586C204.091 435.66 202.907 434.411 202.058 432.942C201.208 431.473 200.716 429.825 200.622 428.131V367.406L216.998 357.95C217.336 362.107 217.702 366.405 218.055 370.633L206.541 377.256V424.678C206.632 426.375 207.124 428.025 207.977 429.495C208.829 430.965 210.018 432.212 211.445 433.133L221.268 438.855Z" fill="black"/>
<path d="M206.541 424.692C206.638 426.388 207.132 428.036 207.984 429.505C208.836 430.974 210.022 432.222 211.445 433.148L248.96 454.766C259.106 460.614 275.566 460.628 285.727 454.766L335.051 426.299C345.212 420.436 345.212 410.938 335.051 405.075L297.508 383.457C296.088 382.529 294.906 381.28 294.057 379.812C293.207 378.343 292.715 376.696 292.618 375.002V327.566L206.654 377.257L206.541 424.692Z" fill="black"/>
<path d="M206.541 424.692C206.638 426.388 207.132 428.036 207.984 429.505C208.836 430.974 210.022 432.222 211.445 433.148L248.96 454.766C259.106 460.614 275.566 460.628 285.727 454.766L335.051 426.299C345.212 420.436 345.212 410.938 335.051 405.075L297.508 383.457C296.088 382.529 294.906 381.28 294.057 379.812C293.207 378.343 292.715 376.696 292.618 375.002V327.566L206.654 377.257L206.541 424.692Z" fill="black"/>
<path d="M206.541 424.692C206.638 426.388 207.132 428.036 207.984 429.505C208.836 430.974 210.022 432.222 211.445 433.148L248.96 454.766C259.106 460.614 275.566 460.628 285.727 454.766L335.051 426.299C345.212 420.436 345.212 410.938 335.051 405.075L297.508 383.457C296.088 382.529 294.906 381.28 294.057 379.812C293.207 378.343 292.715 376.696 292.618 375.002V327.566L206.654 377.257L206.541 424.692Z" fill="#FFC700"/>
<path opacity="0.3" d="M206.541 424.692C206.638 426.388 207.132 428.036 207.984 429.505C208.836 430.974 210.022 432.222 211.445 433.148L248.96 454.766C259.106 460.614 275.566 460.628 285.727 454.766L335.051 426.299C345.212 420.436 345.212 410.938 335.051 405.075L297.508 383.457C296.088 382.529 294.906 381.28 294.057 379.812C293.207 378.343 292.715 376.696 292.618 375.002V327.566L206.654 377.257L206.541 424.692Z" fill="black"/>
<path opacity="0.5" d="M307.443 389.249L297.452 383.486C296.032 382.557 294.849 381.309 294 379.84C293.151 378.371 292.658 376.724 292.562 375.03V327.566L206.597 377.257V424.692C206.694 426.388 207.188 428.036 208.04 429.505C208.892 430.974 210.078 432.222 211.501 433.148L221.366 438.785L307.443 389.249Z" fill="black"/>
<path d="M342.604 415.715V422.564C342.604 426.412 340.053 430.231 334.994 433.176L285.67 461.629C280.272 464.51 274.244 466.006 268.125 465.983V459.163C274.244 459.186 280.272 457.689 285.67 454.808L334.994 426.327C340.053 423.41 342.604 419.563 342.604 415.715Z" fill="black"/>
<path d="M342.604 415.715V422.564C342.604 426.412 340.053 430.231 334.994 433.176L285.67 461.629C280.272 464.51 274.244 466.006 268.125 465.983V459.163C274.244 459.186 280.272 457.689 285.67 454.808L334.994 426.327C340.053 423.41 342.604 419.563 342.604 415.715Z" fill="black"/>
<path d="M342.604 415.715V422.564C342.604 426.412 340.053 430.231 334.994 433.176L285.67 461.629C280.272 464.51 274.244 466.006 268.125 465.983V459.163C274.244 459.186 280.272 457.689 285.67 454.808L334.994 426.327C340.053 423.41 342.604 419.563 342.604 415.715Z" fill="#FFC700"/>
<path opacity="0.5" d="M342.604 415.715V422.564C342.604 426.412 340.053 430.231 334.994 433.176L285.67 461.629C280.272 464.51 274.244 466.006 268.125 465.983V459.163C274.244 459.186 280.272 457.689 285.67 454.808L334.994 426.327C340.053 423.41 342.604 419.563 342.604 415.715Z" fill="black"/>
<path d="M68.4339 483.641C70.2923 484.539 72.3356 484.987 74.3991 484.951C76.4626 484.914 78.4886 484.393 80.3139 483.43L412.898 291.419C414.681 290.256 416.166 288.689 417.231 286.845C418.296 285.002 418.912 282.933 419.028 280.807V11.7523C418.965 9.68402 418.413 7.66007 417.419 5.84537C416.425 4.03067 415.016 2.47656 413.307 1.30971C411.451 0.411104 409.409 -0.0368138 407.347 0.00236595C405.285 0.0415457 403.261 0.566717 401.441 1.53519L68.8567 193.603C67.0796 194.773 65.6043 196.347 64.5512 198.196C63.4981 200.045 62.897 202.117 62.7969 204.242V473.255C62.8597 475.306 63.4024 477.314 64.3813 479.118C65.3602 480.922 66.7482 482.471 68.4339 483.641Z" fill="black"/>
<path d="M68.4339 483.641C70.2923 484.539 72.3356 484.987 74.3991 484.951C76.4626 484.914 78.4886 484.393 80.3139 483.43L412.898 291.419C414.681 290.256 416.166 288.689 417.231 286.845C418.296 285.002 418.912 282.933 419.028 280.807V11.7523C418.965 9.68402 418.413 7.66007 417.419 5.84537C416.425 4.03067 415.016 2.47656 413.307 1.30971C411.451 0.411104 409.409 -0.0368138 407.347 0.00236595C405.285 0.0415457 403.261 0.566717 401.441 1.53519L68.8567 193.603C67.0796 194.773 65.6043 196.347 64.5512 198.196C63.4981 200.045 62.897 202.117 62.7969 204.242V473.255C62.8597 475.306 63.4024 477.314 64.3813 479.118C65.3602 480.922 66.7482 482.471 68.4339 483.641Z" fill="black"/>
<path d="M68.4339 483.641C70.2923 484.539 72.3356 484.987 74.3991 484.951C76.4626 484.914 78.4886 484.393 80.3139 483.43L412.898 291.419C414.681 290.256 416.166 288.689 417.231 286.845C418.296 285.002 418.912 282.933 419.028 280.807V11.7523C418.965 9.68402 418.413 7.66007 417.419 5.84537C416.425 4.03067 415.016 2.47656 413.307 1.30971C411.451 0.411104 409.409 -0.0368138 407.347 0.00236595C405.285 0.0415457 403.261 0.566717 401.441 1.53519L68.8567 193.603C67.0796 194.773 65.6043 196.347 64.5512 198.196C63.4981 200.045 62.897 202.117 62.7969 204.242V473.255C62.8597 475.306 63.4024 477.314 64.3813 479.118C65.3602 480.922 66.7482 482.471 68.4339 483.641Z" fill="#FFC700"/>
<path d="M80.3554 483.416L412.94 291.405C414.725 290.245 416.211 288.678 417.277 286.834C418.342 284.99 418.956 282.92 419.07 280.793V11.7526C419.07 7.84901 416.322 6.25655 412.94 8.21542L80.3554 200.226C78.5713 201.389 77.0864 202.955 76.0212 204.799C74.9561 206.643 74.3407 208.712 74.2251 210.838V479.879C74.2251 483.783 76.9731 485.375 80.3554 483.416Z" fill="black"/>
<path d="M80.3554 483.416L412.94 291.405C414.725 290.245 416.211 288.678 417.277 286.834C418.342 284.99 418.956 282.92 419.07 280.793V11.7526C419.07 7.84901 416.322 6.25655 412.94 8.21542L80.3554 200.226C78.5713 201.389 77.0864 202.955 76.0212 204.799C74.9561 206.643 74.3407 208.712 74.2251 210.838V479.879C74.2251 483.783 76.9731 485.375 80.3554 483.416Z" fill="black"/>
<path d="M80.3554 483.416L412.94 291.405C414.725 290.245 416.211 288.678 417.277 286.834C418.342 284.99 418.956 282.92 419.07 280.793V11.7526C419.07 7.84901 416.322 6.25655 412.94 8.21542L80.3554 200.226C78.5713 201.389 77.0864 202.955 76.0212 204.799C74.9561 206.643 74.3407 208.712 74.2251 210.838V479.879C74.2251 483.783 76.9731 485.375 80.3554 483.416Z" fill="#FFC700"/>
<path opacity="0.5" d="M80.3554 483.416L412.94 291.405C414.725 290.245 416.211 288.678 417.277 286.834C418.342 284.99 418.956 282.92 419.07 280.793V11.7526C419.07 7.84901 416.322 6.25655 412.94 8.21542L80.3554 200.226C78.5713 201.389 77.0864 202.955 76.0212 204.799C74.9561 206.643 74.3407 208.712 74.2251 210.838V479.879C74.2251 483.783 76.9731 485.375 80.3554 483.416Z" fill="black"/>
<path d="M79.4543 490.406C77.7102 491.167 75.8219 491.541 73.9193 491.503C72.0168 491.464 70.1453 491.013 68.4339 490.181C66.7444 489.007 65.3542 487.454 64.3751 485.645C63.396 483.836 62.8554 481.822 62.7969 479.766V455.273L74.2823 461.925V486.418C74.2118 489.983 76.4807 491.604 79.4543 490.406Z" fill="black"/>
<path d="M79.4543 490.406C77.7102 491.167 75.8219 491.541 73.9193 491.503C72.0168 491.464 70.1453 491.013 68.4339 490.181C66.7444 489.007 65.3542 487.454 64.3751 485.645C63.396 483.836 62.8554 481.822 62.7969 479.766V455.273L74.2823 461.925V486.418C74.2118 489.983 76.4807 491.604 79.4543 490.406Z" fill="black"/>
<path d="M79.4543 490.406C77.7102 491.167 75.8219 491.541 73.9193 491.503C72.0168 491.464 70.1453 491.013 68.4339 490.181C66.7444 489.007 65.3542 487.454 64.3751 485.645C63.396 483.836 62.8554 481.822 62.7969 479.766V455.273L74.2823 461.925V486.418C74.2118 489.983 76.4807 491.604 79.4543 490.406Z" fill="#FFC700"/>
<path opacity="0.5" d="M79.4543 490.406C77.7102 491.167 75.8219 491.541 73.9193 491.503C72.0168 491.464 70.1453 491.013 68.4339 490.181C66.7444 489.007 65.3542 487.454 64.3751 485.645C63.396 483.836 62.8554 481.822 62.7969 479.766V455.273L74.2823 461.925V486.418C74.2118 489.983 76.4807 491.604 79.4543 490.406Z" fill="black"/>
<path d="M74.2124 461.925V486.417C74.2124 490.321 77.0309 491.899 80.3427 489.955L412.927 297.944C414.703 296.786 416.182 295.228 417.247 293.395C418.312 291.562 418.932 289.504 419.057 287.388V262.783L74.2124 461.925Z" fill="black"/>
<path d="M74.2124 461.925V486.417C74.2124 490.321 77.0309 491.899 80.3427 489.955L412.927 297.944C414.703 296.786 416.182 295.228 417.247 293.395C418.312 291.562 418.932 289.504 419.057 287.388V262.783L74.2124 461.925Z" fill="black"/>
<path d="M74.2124 461.925V486.417C74.2124 490.321 77.0309 491.899 80.3427 489.955L412.927 297.944C414.703 296.786 416.182 295.228 417.247 293.395C418.312 291.562 418.932 289.504 419.057 287.388V262.783L74.2124 461.925Z" fill="#FFC700"/>
<path opacity="0.3" d="M74.2251 461.868V486.417C74.2251 490.321 77.0436 491.899 80.3554 489.955L412.94 297.944C414.713 296.784 416.19 295.226 417.252 293.393C418.314 291.56 418.932 289.503 419.056 287.388V262.783L74.2251 461.868Z" fill="black"/>
<path d="M85.7119 431.132V214.657C85.7775 213.381 86.1436 212.139 86.7804 211.033C87.4171 209.926 88.3065 208.985 89.376 208.287L403.837 26.6761C405.866 25.5065 407.515 26.4507 407.515 28.79V245.378C407.447 246.655 407.078 247.897 406.439 249.004C405.8 250.111 404.908 251.051 403.837 251.748L89.3901 433.317C87.3607 434.486 85.7119 433.528 85.7119 431.132Z" fill="black"/>
<path d="M85.7119 431.132V214.657C85.7775 213.381 86.1436 212.139 86.7804 211.033C87.4171 209.926 88.3065 208.985 89.376 208.287L403.837 26.6761C405.866 25.5065 407.515 26.4507 407.515 28.79V245.378C407.447 246.655 407.078 247.897 406.439 249.004C405.8 250.111 404.908 251.051 403.837 251.748L89.3901 433.317C87.3607 434.486 85.7119 433.528 85.7119 431.132Z" fill="black"/>
<path d="M85.7119 431.132V214.657C85.7775 213.381 86.1436 212.139 86.7804 211.033C87.4171 209.926 88.3065 208.985 89.376 208.287L403.837 26.6761C405.866 25.5065 407.515 26.4507 407.515 28.79V245.378C407.447 246.655 407.078 247.897 406.439 249.004C405.8 250.111 404.908 251.051 403.837 251.748L89.3901 433.317C87.3607 434.486 85.7119 433.528 85.7119 431.132Z" fill="#FFC700"/>
<path d="M85.7119 431.132V214.657C85.7775 213.381 86.1436 212.139 86.7804 211.033C87.4171 209.926 88.3065 208.985 89.376 208.287L403.837 26.6761C405.866 25.5065 407.515 26.4507 407.515 28.79V245.378C407.447 246.655 407.078 247.897 406.439 249.004C405.8 250.111 404.908 251.051 403.837 251.748L89.3901 433.317C87.3607 434.486 85.7119 433.528 85.7119 431.132Z" fill="#263238"/>
<path d="M246.635 370.154C244.961 371.243 243.567 372.711 242.568 374.44C241.569 376.169 240.992 378.109 240.885 380.103C240.885 383.767 243.464 385.261 246.635 383.429C248.31 382.339 249.705 380.868 250.704 379.137C251.703 377.405 252.279 375.462 252.384 373.466C252.384 369.802 249.805 368.322 246.635 370.154Z" fill="black"/>
<path d="M246.635 370.154C244.961 371.243 243.567 372.711 242.568 374.44C241.569 376.169 240.992 378.109 240.885 380.103C240.885 383.767 243.464 385.261 246.635 383.429C248.31 382.339 249.705 380.868 250.704 379.137C251.703 377.405 252.279 375.462 252.384 373.466C252.384 369.802 249.805 368.322 246.635 370.154Z" fill="black"/>
<path d="M246.635 370.154C244.961 371.243 243.567 372.711 242.568 374.44C241.569 376.169 240.992 378.109 240.885 380.103C240.885 383.767 243.464 385.261 246.635 383.429C248.31 382.339 249.705 380.868 250.704 379.137C251.703 377.405 252.279 375.462 252.384 373.466C252.384 369.802 249.805 368.322 246.635 370.154Z" fill="#FFC700"/>
<path opacity="0.7" d="M76.0298 204.778C74.9376 206.614 74.3133 208.69 74.2118 210.824V461.925L62.7969 455.273V204.242C62.8708 202.102 63.4918 200.015 64.6007 198.183L76.0298 204.778Z" fill="black"/>
<path opacity="0.3" d="M419.001 10.7376C418.564 7.58083 416.013 6.5098 412.927 8.215L80.3425 200.226C78.5393 201.354 77.0509 202.92 76.0161 204.778L64.5166 198.14C65.5583 196.283 67.051 194.717 68.8571 193.588L401.441 1.5915C403.264 0.62289 405.29 0.0976941 407.354 0.0585177C409.418 0.0193414 411.463 0.467289 413.321 1.36602C414.884 2.43051 416.199 3.81806 417.179 5.43485C418.159 7.05164 418.78 8.85997 419.001 10.7376Z" fill="black"/>
<path d="M436.939 43.8555C436.445 43.6076 435.893 43.4989 435.342 43.5411C434.79 43.5833 434.261 43.7748 433.811 44.0951L119.998 225.382C118.759 226.201 117.731 227.3 116.997 228.59C116.263 229.88 115.842 231.325 115.77 232.808V447.959C115.726 448.686 115.87 449.411 116.189 450.065C116.507 450.719 116.989 451.28 117.588 451.694C118.278 452.074 121.971 454.216 123.07 454.808C123.459 455.006 123.893 455.098 124.329 455.073C124.765 455.048 125.186 454.908 125.55 454.667L439.293 273.381C440.531 272.562 441.559 271.463 442.293 270.172C443.028 268.882 443.448 267.437 443.52 265.954V49.6898C443.583 49.1433 443.493 48.5901 443.259 48.0922C443.025 47.5943 442.657 47.1716 442.196 46.8713C441.491 46.4062 437.728 44.3205 436.939 43.8555Z" fill="black"/>
<path d="M436.939 43.8555C436.445 43.6076 435.893 43.4989 435.342 43.5411C434.79 43.5833 434.261 43.7748 433.811 44.0951L119.998 225.382C118.759 226.201 117.731 227.3 116.997 228.59C116.263 229.88 115.842 231.325 115.77 232.808V447.959C115.726 448.686 115.87 449.411 116.189 450.065C116.507 450.719 116.989 451.28 117.588 451.694C118.278 452.074 121.971 454.216 123.07 454.808C123.459 455.006 123.893 455.098 124.329 455.073C124.765 455.048 125.186 454.908 125.55 454.667L439.293 273.381C440.531 272.562 441.559 271.463 442.293 270.172C443.028 268.882 443.448 267.437 443.52 265.954V49.6898C443.583 49.1433 443.493 48.5901 443.259 48.0922C443.025 47.5943 442.657 47.1716 442.196 46.8713C441.491 46.4062 437.728 44.3205 436.939 43.8555Z" fill="black"/>
<path d="M436.939 43.8555C436.445 43.6076 435.893 43.4989 435.342 43.5411C434.79 43.5833 434.261 43.7748 433.811 44.0951L119.998 225.382C118.759 226.201 117.731 227.3 116.997 228.59C116.263 229.88 115.842 231.325 115.77 232.808V447.959C115.726 448.686 115.87 449.411 116.189 450.065C116.507 450.719 116.989 451.28 117.588 451.694C118.278 452.074 121.971 454.216 123.07 454.808C123.459 455.006 123.893 455.098 124.329 455.073C124.765 455.048 125.186 454.908 125.55 454.667L439.293 273.381C440.531 272.562 441.559 271.463 442.293 270.172C443.028 268.882 443.448 267.437 443.52 265.954V49.6898C443.583 49.1433 443.493 48.5901 443.259 48.0922C443.025 47.5943 442.657 47.1716 442.196 46.8713C441.491 46.4062 437.728 44.3205 436.939 43.8555Z" fill="#FFC700"/>
<path d="M125.481 228.426L439.308 47.2095C441.676 45.8002 443.536 46.9558 443.536 49.6897V265.954C443.464 267.437 443.043 268.882 442.309 270.172C441.574 271.462 440.546 272.562 439.308 273.381L125.481 454.667C123.114 456.077 121.253 453.808 121.253 451.074V235.852C121.328 234.37 121.749 232.926 122.483 231.636C123.218 230.346 124.244 229.246 125.481 228.426Z" fill="#FAFAFA"/>
<path d="M441.225 48.0264C442.056 48.0264 442.183 49.0693 442.183 49.6894V265.954C442.107 267.195 441.743 268.402 441.119 269.479C440.495 270.555 439.629 271.471 438.589 272.154L124.805 453.441C124.594 453.577 124.351 453.655 124.1 453.666C123.311 453.666 122.691 452.454 122.691 451.073V235.852C122.759 234.611 123.112 233.402 123.723 232.319C124.334 231.236 125.186 230.309 126.214 229.609L440.013 48.421C440.376 48.1868 440.793 48.0508 441.225 48.0264ZM441.225 46.6172C440.546 46.6461 439.885 46.85 439.308 47.2091L125.481 228.425C124.244 229.246 123.218 230.345 122.483 231.635C121.749 232.925 121.328 234.37 121.253 235.852V451.073C121.253 453.244 122.465 455.076 124.072 455.076C124.57 455.066 125.056 454.925 125.481 454.667L439.294 273.38C440.532 272.561 441.56 271.462 442.295 270.172C443.029 268.882 443.45 267.436 443.522 265.954V49.6894C443.522 47.7446 442.564 46.6172 441.154 46.6172H441.225Z" fill="#E0E0E0"/>
<path d="M117.504 451.693C117.969 451.933 121.309 453.835 122.774 454.681C122.248 454.244 121.831 453.691 121.557 453.064C121.283 452.438 121.159 451.756 121.196 451.073V249.902L115.7 246.689V447.959C115.654 448.684 115.796 449.408 116.112 450.062C116.428 450.717 116.907 451.278 117.504 451.693Z" fill="#F0F0F0"/>
<path d="M443.592 49.6471C443.592 46.9414 441.662 45.8422 439.364 47.2091L125.481 228.425C124.244 229.246 123.218 230.346 122.483 231.635C121.749 232.925 121.328 234.37 121.253 235.852V249.945L443.592 63.7397V49.6471Z" fill="black"/>
<path d="M443.592 49.6471C443.592 46.9414 441.662 45.8422 439.364 47.2091L125.481 228.425C124.244 229.246 123.218 230.346 122.483 231.635C121.749 232.925 121.328 234.37 121.253 235.852V249.945L443.592 63.7397V49.6471Z" fill="black"/>
<path d="M443.592 49.6471C443.592 46.9414 441.662 45.8422 439.364 47.2091L125.481 228.425C124.244 229.246 123.218 230.346 122.483 231.635C121.749 232.925 121.328 234.37 121.253 235.852V249.945L443.592 63.7397V49.6471Z" fill="#FFC700"/>
<g opacity="0.4">
<path d="M439.307 47.2095L125.48 228.411C124.221 229.206 123.183 230.306 122.465 231.61L117.011 228.44C117.728 227.181 118.757 226.128 119.998 225.382L433.811 44.0951C434.26 43.7726 434.789 43.5786 435.34 43.5339C435.891 43.4892 436.444 43.5955 436.94 43.8414C437.701 44.3205 441.266 46.3358 442.182 46.829C441.708 46.6533 441.199 46.5961 440.698 46.6624C440.196 46.7287 439.719 46.9165 439.307 47.2095Z" fill="white"/>
</g>
<path opacity="0.15" d="M115.7 246.703V232.738C115.758 231.216 116.21 229.735 117.011 228.439L122.479 231.596C121.689 232.869 121.247 234.327 121.196 235.824V249.917L115.7 246.703Z" fill="black"/>
<path d="M377.412 211.88L189.46 320.393C188.546 320.986 187.785 321.786 187.239 322.729C186.693 323.672 186.377 324.73 186.317 325.818V379.708C186.377 380.796 186.693 381.854 187.239 382.797C187.785 383.74 188.546 384.541 189.46 385.134L194.942 388.29C195.916 388.783 196.993 389.04 198.085 389.04C199.177 389.04 200.253 388.783 201.227 388.29L389.151 279.778C390.066 279.182 390.827 278.378 391.373 277.433C391.919 276.488 392.234 275.428 392.294 274.338V220.434C392.234 219.346 391.919 218.288 391.373 217.345C390.826 216.402 390.065 215.601 389.151 215.008L383.655 211.852C382.685 211.367 381.615 211.117 380.53 211.122C379.446 211.127 378.378 211.386 377.412 211.88Z" fill="black"/>
<path d="M377.412 211.88L189.46 320.393C188.546 320.986 187.785 321.786 187.239 322.729C186.693 323.672 186.377 324.73 186.317 325.818V379.708C186.377 380.796 186.693 381.854 187.239 382.797C187.785 383.74 188.546 384.541 189.46 385.134L194.942 388.29C195.916 388.783 196.993 389.04 198.085 389.04C199.177 389.04 200.253 388.783 201.227 388.29L389.151 279.778C390.066 279.182 390.827 278.378 391.373 277.433C391.919 276.488 392.234 275.428 392.294 274.338V220.434C392.234 219.346 391.919 218.288 391.373 217.345C390.826 216.402 390.065 215.601 389.151 215.008L383.655 211.852C382.685 211.367 381.615 211.117 380.53 211.122C379.446 211.127 378.378 211.386 377.412 211.88Z" fill="black"/>
<path d="M377.412 211.88L189.46 320.393C188.546 320.986 187.785 321.786 187.239 322.729C186.693 323.672 186.377 324.73 186.317 325.818V379.708C186.377 380.796 186.693 381.854 187.239 382.797C187.785 383.74 188.546 384.541 189.46 385.134L194.942 388.29C195.916 388.783 196.993 389.04 198.085 389.04C199.177 389.04 200.253 388.783 201.227 388.29L389.151 279.778C390.066 279.182 390.827 278.378 391.373 277.433C391.919 276.488 392.234 275.428 392.294 274.338V220.434C392.234 219.346 391.919 218.288 391.373 217.345C390.826 216.402 390.065 215.601 389.151 215.008L383.655 211.852C382.685 211.367 381.615 211.117 380.53 211.122C379.446 211.127 378.378 211.386 377.412 211.88Z" fill="#FFC700"/>
<path opacity="0.5" d="M392.295 219.955C392.069 218.335 390.759 217.743 389.18 218.659L201.228 327.171C200.301 327.747 199.539 328.553 199.015 329.511L187.248 322.718C187.775 321.776 188.531 320.981 189.446 320.407L377.413 211.894C378.384 211.4 379.459 211.143 380.549 211.143C381.638 211.143 382.713 211.4 383.684 211.894L389.18 215.051C390.018 215.6 390.729 216.322 391.266 217.167C391.803 218.013 392.154 218.963 392.295 219.955Z" fill="white"/>
<path d="M200.692 388.559C199.772 388.921 198.785 389.086 197.797 389.042C196.809 388.999 195.841 388.747 194.956 388.305L189.46 385.148C188.548 384.553 187.788 383.753 187.242 382.81C186.696 381.868 186.379 380.81 186.317 379.723V325.833C186.36 324.733 186.68 323.661 187.247 322.718L199.015 329.511C198.443 330.442 198.122 331.505 198.085 332.597V386.501C198.085 388.291 199.212 389.122 200.692 388.559Z" fill="#263238"/>
<path d="M201.229 327.172L389.181 218.659C390.914 217.659 392.324 218.462 392.324 220.463V274.367C392.264 275.457 391.948 276.517 391.402 277.462C390.856 278.407 390.095 279.211 389.181 279.807L201.257 388.319C199.524 389.32 198.114 388.503 198.114 386.501V332.612C198.171 331.524 198.482 330.465 199.023 329.52C199.564 328.576 200.32 327.771 201.229 327.172Z" fill="black"/>
<path d="M201.229 327.172L389.181 218.659C390.914 217.659 392.324 218.462 392.324 220.463V274.367C392.264 275.457 391.948 276.517 391.402 277.462C390.856 278.407 390.095 279.211 389.181 279.807L201.257 388.319C199.524 389.32 198.114 388.503 198.114 386.501V332.612C198.171 331.524 198.482 330.465 199.023 329.52C199.564 328.576 200.32 327.771 201.229 327.172Z" fill="black"/>
<path d="M201.229 327.172L389.181 218.659C390.914 217.659 392.324 218.462 392.324 220.463V274.367C392.264 275.457 391.948 276.517 391.402 277.462C390.856 278.407 390.095 279.211 389.181 279.807L201.257 388.319C199.524 389.32 198.114 388.503 198.114 386.501V332.612C198.171 331.524 198.482 330.465 199.023 329.52C199.564 328.576 200.32 327.771 201.229 327.172Z" fill="#FFC700"/>
<path d="M327.582 240.658L189.475 320.407C188.56 320.981 187.804 321.776 187.276 322.719L199.044 329.511C199.567 328.554 200.329 327.748 201.256 327.172L339.363 247.436L327.582 240.658Z" fill="#455A64"/>
<path d="M339.335 247.436L201.228 327.171C200.314 327.767 199.553 328.57 199.007 329.516C198.461 330.461 198.145 331.521 198.085 332.611V386.487C198.085 388.488 199.495 389.305 201.228 388.305L339.335 308.569V247.436Z" fill="#37474F"/>
<path d="M233.077 320.605L304.343 279.469C307.289 277.764 309.684 278.976 309.684 282.175C309.553 283.971 308.999 285.712 308.069 287.254C307.138 288.797 305.857 290.098 304.329 291.053L233.077 332.203C230.132 333.908 227.722 332.696 227.722 329.497C227.855 327.699 228.409 325.957 229.339 324.413C230.27 322.868 231.55 321.564 233.077 320.605Z" fill="black"/>
<path d="M233.077 320.605L304.343 279.469C307.289 277.764 309.684 278.976 309.684 282.175C309.553 283.971 308.999 285.712 308.069 287.254C307.138 288.797 305.857 290.098 304.329 291.053L233.077 332.203C230.132 333.908 227.722 332.696 227.722 329.497C227.855 327.699 228.409 325.957 229.339 324.413C230.27 322.868 231.55 321.564 233.077 320.605Z" fill="black"/>
<path d="M233.077 320.605L304.343 279.469C307.289 277.764 309.684 278.976 309.684 282.175C309.553 283.971 308.999 285.712 308.069 287.254C307.138 288.797 305.857 290.098 304.329 291.053L233.077 332.203C230.132 333.908 227.722 332.696 227.722 329.497C227.855 327.699 228.409 325.957 229.339 324.413C230.27 322.868 231.55 321.564 233.077 320.605Z" fill="#FFC700"/>
<path d="M247.677 334.232C247.69 334.217 247.706 334.205 247.724 334.197C247.743 334.189 247.762 334.185 247.782 334.185C247.802 334.185 247.822 334.189 247.84 334.197C247.859 334.205 247.875 334.217 247.888 334.232C247.951 334.328 247.981 334.442 247.973 334.556V342.575C247.974 343.35 247.908 344.123 247.775 344.886C247.659 345.584 247.46 346.265 247.184 346.916C246.931 347.512 246.599 348.071 246.197 348.579C245.801 349.049 245.323 349.445 244.788 349.748C244.368 350.021 243.879 350.168 243.379 350.171C243.187 350.156 243.001 350.102 242.831 350.012C242.662 349.922 242.512 349.799 242.392 349.65C242.083 349.235 241.88 348.751 241.8 348.24C241.665 347.558 241.604 346.864 241.617 346.169V338.136C241.617 337.995 241.645 337.856 241.702 337.727C241.736 337.611 241.811 337.511 241.913 337.445L242.801 336.924C242.829 336.897 242.867 336.882 242.906 336.882C242.946 336.882 242.983 336.897 243.012 336.924C243.077 337.019 243.107 337.133 243.097 337.248V345.168C243.086 345.604 243.128 346.039 243.224 346.465C243.262 346.737 243.38 346.991 243.562 347.197C243.625 347.273 243.705 347.333 243.796 347.372C243.886 347.411 243.985 347.428 244.083 347.423C244.324 347.407 244.557 347.329 244.76 347.197C245.01 347.048 245.238 346.863 245.436 346.648C245.656 346.394 245.837 346.109 245.972 345.802C246.131 345.441 246.249 345.063 246.324 344.675C246.406 344.21 246.444 343.738 246.437 343.266V335.331C246.441 335.19 246.475 335.051 246.535 334.923C246.57 334.807 246.645 334.707 246.747 334.641L247.677 334.232Z" fill="#FAFAFA"/>
<path d="M253.201 341.814C253.209 341.711 253.184 341.607 253.131 341.518C253.097 341.481 253.056 341.453 253.009 341.436C252.962 341.419 252.912 341.413 252.863 341.419C252.69 341.396 252.515 341.396 252.342 341.419L251.524 341.574C251.261 341.64 250.985 341.64 250.721 341.574C250.514 341.508 250.336 341.374 250.214 341.194C250.076 340.965 249.985 340.711 249.946 340.447C249.809 339.692 249.809 338.919 249.946 338.164C250.052 337.731 250.203 337.311 250.397 336.91C250.59 336.509 250.826 336.131 251.102 335.782C251.368 335.45 251.693 335.168 252.06 334.951C252.356 334.77 252.688 334.655 253.032 334.613C253.282 334.587 253.534 334.641 253.751 334.768C253.958 334.894 254.12 335.081 254.216 335.303C254.33 335.566 254.392 335.848 254.399 336.135C254.414 336.276 254.384 336.419 254.315 336.543C254.28 336.66 254.205 336.76 254.103 336.825L253.258 337.319C253.219 337.341 253.175 337.352 253.131 337.352C253.086 337.352 253.043 337.341 253.004 337.319L252.821 337.178C252.748 337.12 252.66 337.086 252.567 337.079C252.386 337.099 252.212 337.162 252.06 337.262C251.839 337.396 251.643 337.567 251.482 337.769C251.312 337.991 251.222 338.265 251.228 338.545C251.209 338.652 251.209 338.762 251.228 338.869C251.255 338.908 251.291 338.942 251.332 338.966C251.374 338.991 251.42 339.005 251.468 339.01C251.622 339.035 251.779 339.035 251.933 339.01L252.722 338.869C253.385 338.742 253.836 338.869 254.132 339.235C254.443 339.757 254.585 340.362 254.54 340.968C254.537 341.387 254.48 341.804 254.371 342.209C254.26 342.648 254.099 343.074 253.892 343.477C253.685 343.894 253.424 344.283 253.117 344.633C252.825 344.975 252.477 345.266 252.088 345.492C251.778 345.69 251.426 345.811 251.059 345.845C250.794 345.854 250.533 345.78 250.312 345.633C250.095 345.484 249.928 345.273 249.833 345.027C249.719 344.76 249.662 344.472 249.664 344.182C249.651 344.035 249.68 343.889 249.749 343.759C249.783 343.643 249.858 343.543 249.96 343.477L250.806 342.984C250.918 342.984 251.003 342.913 251.059 342.984L251.243 343.181C251.28 343.223 251.325 343.257 251.376 343.281C251.427 343.306 251.482 343.319 251.538 343.322C251.737 343.323 251.93 343.259 252.088 343.139C252.343 342.994 252.571 342.809 252.765 342.589C252.86 342.473 252.941 342.345 253.004 342.209C253.104 342.097 253.172 341.961 253.201 341.814Z" fill="#FAFAFA"/>
<path d="M256.076 337.994C256.073 337.262 256.134 336.531 256.259 335.81C256.377 335.131 256.561 334.466 256.808 333.823C257.016 333.247 257.3 332.702 257.654 332.202C257.949 331.773 258.334 331.413 258.781 331.145C259.108 330.926 259.507 330.84 259.895 330.906C260.239 330.986 260.541 331.192 260.74 331.484C261.005 331.866 261.192 332.297 261.29 332.752C261.425 333.344 261.491 333.949 261.487 334.556V335.43C261.492 335.577 261.458 335.722 261.389 335.852C261.354 335.969 261.279 336.068 261.177 336.134L257.513 338.262C257.504 338.51 257.538 338.758 257.612 338.995C257.666 339.155 257.764 339.296 257.894 339.404C258.009 339.495 258.155 339.541 258.302 339.53C258.473 339.51 258.636 339.453 258.781 339.361C258.995 339.246 259.185 339.093 259.345 338.91C259.489 338.748 259.612 338.568 259.712 338.375C259.772 338.264 259.838 338.155 259.909 338.051C259.969 337.979 260.041 337.917 260.12 337.868L260.994 337.36C261.024 337.336 261.061 337.323 261.1 337.323C261.138 337.323 261.175 337.336 261.205 337.36C261.242 337.405 261.269 337.457 261.284 337.513C261.298 337.569 261.3 337.627 261.29 337.684C261.274 337.959 261.217 338.23 261.121 338.488C260.999 338.879 260.839 339.256 260.642 339.615C260.421 340.028 260.157 340.415 259.852 340.771C259.549 341.134 259.187 341.443 258.781 341.687C258.448 341.905 258.05 341.999 257.654 341.954C257.307 341.871 257.005 341.66 256.808 341.363C256.531 340.935 256.344 340.456 256.259 339.953C256.131 339.308 256.069 338.652 256.076 337.994ZM258.781 333.499C258.565 333.616 258.377 333.779 258.232 333.978C258.075 334.175 257.947 334.394 257.851 334.626C257.753 334.859 257.672 335.099 257.612 335.345C257.562 335.568 257.529 335.794 257.513 336.021L259.993 334.612C259.979 334.418 259.951 334.225 259.909 334.034C259.887 333.864 259.819 333.703 259.712 333.569C259.669 333.508 259.615 333.457 259.552 333.418C259.489 333.379 259.418 333.354 259.345 333.344C259.145 333.327 258.945 333.382 258.781 333.499Z" fill="#FAFAFA"/>
<path d="M265.912 329.567C265.485 329.811 265.149 330.187 264.954 330.639C264.735 331.233 264.634 331.865 264.658 332.499V337.586C264.66 337.731 264.631 337.876 264.574 338.009C264.539 338.125 264.464 338.225 264.362 338.291L263.531 338.77C263.517 338.785 263.501 338.797 263.483 338.805C263.465 338.813 263.445 338.818 263.425 338.818C263.405 338.818 263.385 338.813 263.367 338.805C263.349 338.797 263.333 338.785 263.319 338.77C263.256 338.674 263.227 338.56 263.235 338.446V329.328C263.235 329.183 263.264 329.039 263.319 328.905C263.359 328.791 263.433 328.693 263.531 328.623L264.362 328.144C264.391 328.117 264.429 328.103 264.468 328.103C264.507 328.103 264.545 328.117 264.574 328.144C264.639 328.234 264.669 328.344 264.658 328.454V328.905C264.826 328.527 265.034 328.168 265.278 327.834C265.501 327.525 265.79 327.27 266.124 327.087L266.631 326.791C266.657 326.765 266.693 326.751 266.73 326.751C266.767 326.751 266.802 326.765 266.828 326.791C266.896 326.885 266.931 326.999 266.927 327.115V328.398C266.925 328.544 266.891 328.688 266.828 328.821C266.793 328.932 266.724 329.031 266.631 329.102L265.912 329.567Z" fill="#FAFAFA"/>
<path d="M276.426 328.891C276.439 328.876 276.455 328.864 276.473 328.855C276.491 328.847 276.511 328.843 276.531 328.843C276.551 328.843 276.571 328.847 276.589 328.855C276.607 328.864 276.624 328.876 276.637 328.891C276.7 328.987 276.73 329.1 276.722 329.215V330.624C276.721 330.769 276.692 330.913 276.637 331.047C276.589 331.152 276.516 331.243 276.426 331.315L271.606 334.133C271.577 334.16 271.539 334.175 271.5 334.175C271.461 334.175 271.423 334.16 271.395 334.133C271.331 334.043 271.302 333.933 271.31 333.823V321.14C271.311 320.995 271.339 320.851 271.395 320.717C271.434 320.607 271.508 320.513 271.606 320.449L272.494 319.928C272.522 319.901 272.56 319.886 272.599 319.886C272.639 319.886 272.676 319.901 272.705 319.928C272.768 320.018 272.798 320.128 272.79 320.238V330.962L276.426 328.891Z" fill="#FAFAFA"/>
<path d="M280.752 318.463C281.07 318.243 281.453 318.139 281.837 318.167C282.168 318.193 282.475 318.344 282.697 318.59C282.96 318.892 283.152 319.248 283.261 319.633C283.411 320.132 283.497 320.648 283.515 321.169C283.515 321.282 283.515 321.437 283.515 321.62V322.705C283.515 322.874 283.515 323.029 283.515 323.156C283.487 323.768 283.402 324.377 283.261 324.974C283.131 325.555 282.942 326.122 282.697 326.665C282.474 327.17 282.185 327.644 281.837 328.074C281.54 328.464 281.172 328.794 280.752 329.047C280.426 329.258 280.042 329.362 279.653 329.342C279.328 329.314 279.025 329.163 278.808 328.92C278.537 328.629 278.344 328.275 278.244 327.891C278.093 327.392 278.008 326.876 277.99 326.355C277.99 326.242 277.99 326.101 277.99 325.918V324.833C277.99 324.65 277.99 324.495 277.99 324.382C278.007 323.765 278.087 323.151 278.23 322.55C278.367 321.964 278.56 321.393 278.808 320.845C279.032 320.342 279.315 319.869 279.653 319.435C279.952 319.042 280.325 318.712 280.752 318.463ZM282.077 322.099C282.076 321.787 282.024 321.478 281.922 321.183C281.87 321.003 281.761 320.845 281.612 320.732C281.492 320.651 281.347 320.616 281.203 320.633C281.042 320.664 280.889 320.726 280.752 320.816C280.587 320.907 280.435 321.021 280.301 321.155C280.14 321.323 280.002 321.512 279.893 321.718C279.751 321.975 279.647 322.25 279.583 322.536C279.49 322.896 279.434 323.264 279.414 323.635C279.414 323.748 279.414 323.875 279.414 324.03V325.03C279.414 325.185 279.414 325.312 279.414 325.397C279.427 325.708 279.484 326.017 279.583 326.313C279.634 326.493 279.743 326.651 279.893 326.764C279.951 326.805 280.018 326.834 280.088 326.848C280.159 326.863 280.231 326.863 280.301 326.848C280.461 326.821 280.614 326.764 280.752 326.679C280.916 326.585 281.067 326.471 281.203 326.341C281.361 326.169 281.498 325.98 281.612 325.777C281.748 325.518 281.852 325.244 281.922 324.96C282.014 324.6 282.066 324.231 282.077 323.86C282.086 323.729 282.086 323.597 282.077 323.466V322.479C282.085 322.353 282.085 322.226 282.077 322.099Z" fill="#FAFAFA"/>
<path d="M287.826 326.706C288.006 326.596 288.168 326.458 288.305 326.298C288.475 326.099 288.622 325.881 288.742 325.65C288.882 325.366 288.991 325.069 289.066 324.762C289.153 324.416 289.196 324.061 289.193 323.705V322.986C289.193 323.127 289.052 323.296 288.954 323.493C288.857 323.699 288.744 323.897 288.615 324.085C288.468 324.283 288.308 324.472 288.136 324.649C287.959 324.834 287.755 324.991 287.53 325.114C287.385 325.213 287.222 325.281 287.05 325.315C286.878 325.349 286.701 325.348 286.53 325.311C286.216 325.213 285.947 325.009 285.769 324.734C285.539 324.369 285.372 323.969 285.275 323.55C285.155 323.018 285.089 322.475 285.078 321.929C285.078 321.746 285.078 321.52 285.078 321.253C285.078 320.985 285.078 320.759 285.078 320.562C285.096 319.943 285.162 319.325 285.275 318.716C285.391 318.116 285.556 317.527 285.769 316.954C285.968 316.457 286.223 315.984 286.53 315.545C286.79 315.157 287.131 314.83 287.53 314.587C287.718 314.474 287.922 314.393 288.136 314.347C288.295 314.318 288.457 314.318 288.615 314.347C288.74 314.383 288.856 314.445 288.954 314.531C289.044 314.599 289.124 314.68 289.193 314.77V314.319C289.194 314.174 289.223 314.031 289.278 313.896C289.317 313.786 289.391 313.692 289.489 313.629L290.321 313.135C290.349 313.109 290.387 313.094 290.426 313.094C290.465 313.094 290.503 313.109 290.532 313.135C290.6 313.229 290.635 313.343 290.631 313.46V322.62C290.669 323.992 290.414 325.356 289.884 326.622C289.468 327.618 288.748 328.456 287.826 329.018C287.512 329.213 287.153 329.324 286.783 329.342C286.491 329.359 286.2 329.286 285.952 329.13C285.714 328.952 285.521 328.72 285.388 328.454C285.251 328.133 285.174 327.789 285.163 327.439C285.15 327.293 285.179 327.146 285.247 327.017C285.282 326.9 285.357 326.8 285.459 326.735L286.206 326.312C286.223 326.294 286.243 326.279 286.266 326.269C286.289 326.259 286.314 326.254 286.339 326.254C286.365 326.254 286.389 326.259 286.412 326.269C286.435 326.279 286.456 326.294 286.473 326.312C286.543 326.385 286.604 326.465 286.657 326.551C286.742 326.703 286.884 326.814 287.051 326.862C287.22 326.988 287.474 326.847 287.826 326.706ZM286.501 319.872C286.501 320.247 286.501 320.614 286.501 320.971C286.461 321.534 286.621 322.093 286.952 322.549C287.078 322.657 287.238 322.717 287.403 322.717C287.569 322.717 287.729 322.657 287.854 322.549C288.263 322.283 288.583 321.9 288.77 321.45C289.027 320.862 289.17 320.231 289.193 319.59C289.193 319.378 289.193 319.125 289.193 318.829C289.193 318.533 289.193 318.279 289.193 318.096C289.222 317.591 289.072 317.092 288.77 316.687C288.646 316.572 288.482 316.508 288.312 316.508C288.143 316.508 287.979 316.572 287.854 316.687C287.453 316.952 287.14 317.329 286.952 317.772C286.663 318.434 286.51 319.149 286.501 319.872Z" fill="#FAFAFA"/>
<path d="M293.915 307.358C293.942 307.335 293.977 307.322 294.013 307.322C294.049 307.322 294.084 307.335 294.112 307.358C294.186 307.449 294.221 307.565 294.21 307.682V309.218C294.211 309.365 294.178 309.51 294.112 309.641C294.072 309.747 294.004 309.839 293.915 309.908L292.97 310.458C292.957 310.473 292.941 310.485 292.923 310.493C292.904 310.502 292.885 310.506 292.865 310.506C292.845 310.506 292.825 310.502 292.807 310.493C292.788 310.485 292.772 310.473 292.759 310.458C292.722 310.416 292.694 310.367 292.677 310.313C292.66 310.26 292.655 310.204 292.66 310.148V308.612C292.659 308.465 292.693 308.32 292.759 308.189C292.798 308.079 292.873 307.985 292.97 307.921L293.915 307.358ZM294.154 320.591C294.155 320.731 294.126 320.87 294.07 320.999C294.025 321.11 293.952 321.207 293.858 321.281L293.013 321.76C293.001 321.775 292.986 321.787 292.969 321.795C292.952 321.803 292.933 321.807 292.914 321.807C292.895 321.807 292.876 321.803 292.859 321.795C292.842 321.787 292.827 321.775 292.815 321.76C292.742 321.669 292.706 321.553 292.717 321.436V312.318C292.716 312.172 292.75 312.027 292.815 311.896C292.855 311.786 292.923 311.689 293.013 311.614L293.858 311.135C293.887 311.108 293.925 311.093 293.964 311.093C294.003 311.093 294.041 311.108 294.07 311.135C294.133 311.225 294.162 311.335 294.154 311.445V320.591Z" fill="#FAFAFA"/>
<path d="M301.566 316.292C301.565 316.437 301.536 316.581 301.481 316.715C301.442 316.825 301.368 316.919 301.27 316.983L300.424 317.476C300.398 317.502 300.363 317.516 300.326 317.516C300.289 317.516 300.253 317.502 300.227 317.476C300.153 317.385 300.118 317.268 300.128 317.152V312.191C300.172 311.606 300.065 311.019 299.818 310.486C299.621 310.134 299.311 310.077 298.874 310.331C298.438 310.624 298.115 311.056 297.958 311.557C297.723 312.222 297.608 312.923 297.62 313.628V318.603C297.619 318.748 297.59 318.892 297.535 319.026C297.501 319.142 297.426 319.242 297.324 319.308L296.492 319.787C296.479 319.802 296.463 319.814 296.445 319.822C296.427 319.83 296.407 319.835 296.387 319.835C296.367 319.835 296.347 319.83 296.329 319.822C296.311 319.814 296.294 319.802 296.281 319.787C296.216 319.697 296.186 319.587 296.197 319.477V310.359C296.195 310.214 296.223 310.07 296.281 309.936C296.316 309.82 296.391 309.72 296.492 309.654L297.324 309.175C297.337 309.16 297.353 309.148 297.372 309.14C297.39 309.132 297.41 309.128 297.43 309.128C297.45 309.128 297.469 309.132 297.488 309.14C297.506 309.148 297.522 309.16 297.535 309.175C297.598 309.271 297.628 309.385 297.62 309.499V309.936C297.805 309.507 298.032 309.096 298.296 308.71C298.528 308.354 298.842 308.06 299.212 307.851C299.533 307.616 299.932 307.515 300.326 307.569C300.482 307.608 300.627 307.68 300.754 307.779C300.88 307.879 300.984 308.004 301.058 308.146C301.263 308.528 301.397 308.943 301.453 309.373C301.528 309.933 301.566 310.498 301.566 311.064V316.292Z" fill="#FAFAFA"/>
<path d="M372.649 275.268L358.965 283.16L361.093 263.966C359.444 263.092 358.401 260.964 358.401 257.906C358.401 252.452 361.727 246.125 365.814 243.814C369.901 241.502 373.213 243.955 373.213 249.451C373.128 252.684 372.205 255.841 370.535 258.611L372.649 275.268Z" fill="#455A64"/>
<path d="M372.665 275.268L360.616 268.321L358.967 283.174L372.665 275.268Z" fill="#37474F"/>
<path d="M365.786 243.772C362.806 245.785 360.584 248.736 359.473 252.157L370.507 258.527C372.177 255.756 373.1 252.6 373.185 249.367C373.213 243.913 369.901 241.418 365.786 243.772Z" fill="#37474F"/>
<path d="M299.27 179.863C294.578 177.157 288.109 177.537 280.95 181.667C266.66 189.925 255.076 209.978 255.076 226.481C255.076 234.767 258.007 240.573 262.714 243.251L271.832 248.55C276.511 251.256 282.979 250.861 290.153 246.732C304.442 238.488 316.026 218.42 316.026 201.918C316.026 193.673 313.123 187.825 308.445 185.19" fill="black"/>
<path d="M299.27 179.863C294.578 177.157 288.109 177.537 280.95 181.667C266.66 189.925 255.076 209.978 255.076 226.481C255.076 234.767 258.007 240.573 262.714 243.251L271.832 248.55C276.511 251.256 282.979 250.861 290.153 246.732C304.442 238.488 316.026 218.42 316.026 201.918C316.026 193.673 313.123 187.825 308.445 185.19" fill="black"/>
<path d="M299.27 179.863C294.578 177.157 288.109 177.537 280.95 181.667C266.66 189.925 255.076 209.978 255.076 226.481C255.076 234.767 258.007 240.573 262.714 243.251L271.832 248.55C276.511 251.256 282.979 250.861 290.153 246.732C304.442 238.488 316.026 218.42 316.026 201.918C316.026 193.673 313.123 187.825 308.445 185.19" fill="#FFC700"/>
<path d="M290.138 186.979C275.848 195.237 264.264 215.305 264.264 231.794C264.264 248.282 275.848 254.99 290.138 246.732C304.427 238.473 316.026 218.42 316.011 201.917C315.997 185.415 304.413 178.735 290.138 186.979Z" fill="black"/>
<path d="M290.138 186.979C275.848 195.237 264.264 215.305 264.264 231.794C264.264 248.282 275.848 254.99 290.138 246.732C304.427 238.473 316.026 218.42 316.011 201.917C315.997 185.415 304.413 178.735 290.138 186.979Z" fill="black"/>
<path d="M290.138 186.979C275.848 195.237 264.264 215.305 264.264 231.794C264.264 248.282 275.848 254.99 290.138 246.732C304.427 238.473 316.026 218.42 316.011 201.917C315.997 185.415 304.413 178.735 290.138 186.979Z" fill="#FFC700"/>
<path d="M304.413 223.592V225.48C300.99 231.591 296.08 236.738 290.138 240.446C284.571 243.645 279.54 243.998 275.848 241.954V238.065C276.037 234.018 277.192 230.075 279.217 226.567C281.242 223.058 284.079 220.086 287.488 217.898L291.251 215.728C294.577 213.811 297.818 213.558 300.355 215.037C302.891 216.517 304.413 219.632 304.413 223.592Z" fill="black"/>
<path d="M304.413 223.592V225.48C300.99 231.591 296.08 236.738 290.138 240.446C284.571 243.645 279.54 243.998 275.848 241.954V238.065C276.037 234.018 277.192 230.075 279.217 226.567C281.242 223.058 284.079 220.086 287.488 217.898L291.251 215.728C294.577 213.811 297.818 213.558 300.355 215.037C302.891 216.517 304.413 219.632 304.413 223.592Z" fill="black"/>
<path d="M304.413 223.592V225.48C300.99 231.591 296.08 236.738 290.138 240.446C284.571 243.645 279.54 243.998 275.848 241.954V238.065C276.037 234.018 277.192 230.075 279.217 226.567C281.242 223.058 284.079 220.086 287.488 217.898L291.251 215.728C294.577 213.811 297.818 213.558 300.355 215.037C302.891 216.517 304.413 219.632 304.413 223.592Z" fill="#FFC700"/>
<path opacity="0.4" d="M299.269 179.862L308.43 185.189C303.751 182.469 297.282 182.849 290.109 186.979C280.752 192.39 272.55 202.861 268.012 214.079L258.838 208.766C263.39 197.492 271.521 187.077 280.935 181.666C288.122 177.551 294.591 177.156 299.269 179.862Z" fill="white"/>
<path opacity="0.2" d="M271.508 248.338L262.728 243.251C258.021 240.573 255.09 234.796 255.09 226.481L264.264 231.808C264.32 239.841 267.026 245.562 271.508 248.338Z" fill="black"/>
<path opacity="0.1" d="M258.866 208.766L268.04 214.079C265.689 219.695 264.427 225.706 264.32 231.793L255.146 226.466C255.259 220.384 256.521 214.379 258.866 208.766Z" fill="black"/>
<path d="M286.868 214.841C285.994 214.85 285.133 214.626 284.374 214.192C283.459 213.582 282.726 212.737 282.252 211.744C281.778 210.752 281.581 209.65 281.682 208.555C281.802 205.988 282.534 203.486 283.819 201.26C285.104 199.034 286.903 197.147 289.066 195.759C289.935 195.066 290.994 194.65 292.102 194.568C293.211 194.485 294.319 194.739 295.281 195.296C296.244 195.853 297.015 196.688 297.496 197.691C297.976 198.694 298.142 199.818 297.973 200.917C297.851 203.484 297.117 205.985 295.833 208.211C294.548 210.437 292.75 212.323 290.588 213.713C289.47 214.411 288.186 214.8 286.868 214.841Z" fill="white"/>
<path d="M300.355 215.023C297.818 213.543 294.577 213.797 291.251 215.713L287.488 217.884C284.077 220.073 281.239 223.047 279.214 226.558C277.189 230.07 276.034 234.015 275.848 238.064V241.968C279.54 244.011 284.571 243.659 290.138 240.46C296.08 236.752 300.99 231.604 304.413 225.494V223.605C304.413 219.631 302.948 216.517 300.355 215.023Z" fill="white"/>
<path d="M590.069 458.824C590.069 458.824 591.944 442.363 600.131 429.582C608.319 416.8 619.565 408.837 630.064 408.006C640.563 407.174 649.047 416.842 637.815 423.508C626.583 430.173 606.628 436.91 597.44 461.713L590.069 458.824Z" fill="black"/>
<path d="M590.069 458.824C590.069 458.824 591.944 442.363 600.131 429.582C608.319 416.8 619.565 408.837 630.064 408.006C640.563 407.174 649.047 416.842 637.815 423.508C626.583 430.173 606.628 436.91 597.44 461.713L590.069 458.824Z" fill="black"/>
<path d="M590.069 458.824C590.069 458.824 591.944 442.363 600.131 429.582C608.319 416.8 619.565 408.837 630.064 408.006C640.563 407.174 649.047 416.842 637.815 423.508C626.583 430.173 606.628 436.91 597.44 461.713L590.069 458.824Z" fill="#FFC700"/>
<path opacity="0.1" d="M590.069 458.824C590.069 458.824 591.944 442.363 600.131 429.582C608.319 416.8 619.565 408.837 630.064 408.006C640.563 407.174 649.047 416.842 637.815 423.508C626.583 430.173 606.628 436.91 597.44 461.713L590.069 458.824Z" fill="black"/>
<path d="M593.155 454.539H593.042C592.904 454.483 592.794 454.374 592.736 454.237C592.678 454.099 592.677 453.944 592.732 453.806C603.809 426.537 624.891 415.136 634.503 412.938C634.575 412.921 634.65 412.919 634.723 412.931C634.796 412.943 634.866 412.97 634.928 413.009C634.991 413.048 635.046 413.1 635.089 413.16C635.132 413.22 635.162 413.288 635.179 413.361C635.196 413.433 635.198 413.508 635.186 413.581C635.174 413.654 635.147 413.724 635.108 413.786C635.068 413.849 635.017 413.904 634.957 413.947C634.897 413.99 634.828 414.02 634.756 414.037C625.342 416.207 604.669 427.397 593.775 454.243C593.721 454.355 593.63 454.446 593.517 454.5C593.404 454.554 593.277 454.567 593.155 454.539Z" fill="white"/>
<path d="M649.215 454.864C648.271 457.006 645.932 458.133 643.761 459.007C641.591 459.881 639.223 460.825 638.04 462.855C635.672 466.941 639.562 472.719 637.025 476.679C636.428 477.477 635.676 478.145 634.813 478.644C633.951 479.143 632.997 479.462 632.008 479.582C630.387 479.878 628.739 479.878 627.104 480.019C626.321 480.009 625.54 479.948 624.765 479.836C622.487 479.328 620.106 479.58 617.986 480.555C614.731 482.387 613.758 486.488 611.757 489.659C610.535 491.525 608.923 493.106 607.033 494.293C605.144 495.48 603.02 496.245 600.807 496.536C599.398 496.719 596.579 496.987 595.17 496.155C595.06 496.101 594.956 496.035 594.86 495.958C594.649 495.732 594.395 495.436 594.282 495.281C594.275 495.249 594.275 495.215 594.282 495.183C593.705 493.055 594.649 490.856 594.691 488.658V488.263C594.592 485.713 594.522 483.176 594.466 480.639C594.343 475.942 594.296 471.244 594.325 466.547C594.325 463.503 593.986 460.177 595.283 457.316C596.692 454.159 600.244 454.089 601.582 451.003C602.118 449.763 602.4 448.452 602.921 447.198C603.727 445.374 605.018 443.807 606.653 442.666C608.288 441.526 610.204 440.856 612.194 440.729C618.381 440.419 623.919 445.422 630.106 444.957C631.698 444.83 633.262 444.337 634.841 444.055C639.844 443.111 645.636 444.534 648.454 448.776C649.073 449.65 649.466 450.662 649.599 451.725C649.731 452.787 649.6 453.865 649.215 454.864Z" fill="black"/>
<path d="M649.215 454.864C648.271 457.006 645.932 458.133 643.761 459.007C641.591 459.881 639.223 460.825 638.04 462.855C635.672 466.941 639.562 472.719 637.025 476.679C636.428 477.477 635.676 478.145 634.813 478.644C633.951 479.143 632.997 479.462 632.008 479.582C630.387 479.878 628.739 479.878 627.104 480.019C626.321 480.009 625.54 479.948 624.765 479.836C622.487 479.328 620.106 479.58 617.986 480.555C614.731 482.387 613.758 486.488 611.757 489.659C610.535 491.525 608.923 493.106 607.033 494.293C605.144 495.48 603.02 496.245 600.807 496.536C599.398 496.719 596.579 496.987 595.17 496.155C595.06 496.101 594.956 496.035 594.86 495.958C594.649 495.732 594.395 495.436 594.282 495.281C594.275 495.249 594.275 495.215 594.282 495.183C593.705 493.055 594.649 490.856 594.691 488.658V488.263C594.592 485.713 594.522 483.176 594.466 480.639C594.343 475.942 594.296 471.244 594.325 466.547C594.325 463.503 593.986 460.177 595.283 457.316C596.692 454.159 600.244 454.089 601.582 451.003C602.118 449.763 602.4 448.452 602.921 447.198C603.727 445.374 605.018 443.807 606.653 442.666C608.288 441.526 610.204 440.856 612.194 440.729C618.381 440.419 623.919 445.422 630.106 444.957C631.698 444.83 633.262 444.337 634.841 444.055C639.844 443.111 645.636 444.534 648.454 448.776C649.073 449.65 649.466 450.662 649.599 451.725C649.731 452.787 649.6 453.865 649.215 454.864Z" fill="black"/>
<path d="M649.215 454.864C648.271 457.006 645.932 458.133 643.761 459.007C641.591 459.881 639.223 460.825 638.04 462.855C635.672 466.941 639.562 472.719 637.025 476.679C636.428 477.477 635.676 478.145 634.813 478.644C633.951 479.143 632.997 479.462 632.008 479.582C630.387 479.878 628.739 479.878 627.104 480.019C626.321 480.009 625.54 479.948 624.765 479.836C622.487 479.328 620.106 479.58 617.986 480.555C614.731 482.387 613.758 486.488 611.757 489.659C610.535 491.525 608.923 493.106 607.033 494.293C605.144 495.48 603.02 496.245 600.807 496.536C599.398 496.719 596.579 496.987 595.17 496.155C595.06 496.101 594.956 496.035 594.86 495.958C594.649 495.732 594.395 495.436 594.282 495.281C594.275 495.249 594.275 495.215 594.282 495.183C593.705 493.055 594.649 490.856 594.691 488.658V488.263C594.592 485.713 594.522 483.176 594.466 480.639C594.343 475.942 594.296 471.244 594.325 466.547C594.325 463.503 593.986 460.177 595.283 457.316C596.692 454.159 600.244 454.089 601.582 451.003C602.118 449.763 602.4 448.452 602.921 447.198C603.727 445.374 605.018 443.807 606.653 442.666C608.288 441.526 610.204 440.856 612.194 440.729C618.381 440.419 623.919 445.422 630.106 444.957C631.698 444.83 633.262 444.337 634.841 444.055C639.844 443.111 645.636 444.534 648.454 448.776C649.073 449.65 649.466 450.662 649.599 451.725C649.731 452.787 649.6 453.865 649.215 454.864Z" fill="#FFC700"/>
<path d="M593.663 485.417C593.53 485.377 593.417 485.288 593.349 485.167C593.28 485.046 593.262 484.903 593.297 484.768C601.837 452.722 635.574 448.128 643.508 448.663C643.578 448.667 643.646 448.684 643.709 448.715C643.772 448.745 643.828 448.788 643.874 448.841C643.92 448.893 643.955 448.955 643.977 449.021C643.999 449.087 644.007 449.157 644.002 449.227C643.987 449.364 643.921 449.49 643.816 449.579C643.711 449.669 643.575 449.714 643.438 449.706C635.701 449.156 602.668 453.68 594.311 485.05C594.272 485.183 594.182 485.296 594.061 485.364C593.94 485.433 593.797 485.452 593.663 485.417Z" fill="white"/>
<path d="M631.191 469.181C631.084 469.166 630.985 469.117 630.909 469.04C627.79 466.337 624.112 464.356 620.139 463.237C616.166 462.119 611.995 461.892 607.924 462.572C607.787 462.584 607.65 462.545 607.54 462.462C607.43 462.378 607.356 462.256 607.332 462.121C607.311 461.983 607.346 461.842 607.427 461.729C607.509 461.616 607.631 461.539 607.769 461.515C612.015 460.808 616.365 461.049 620.507 462.221C624.648 463.393 628.48 465.467 631.726 468.293C631.776 468.342 631.816 468.4 631.843 468.464C631.87 468.528 631.884 468.597 631.884 468.667C631.884 468.736 631.87 468.805 631.843 468.869C631.816 468.933 631.776 468.992 631.726 469.04C631.662 469.116 631.577 469.171 631.481 469.196C631.385 469.221 631.284 469.216 631.191 469.181Z" fill="white"/>
<path d="M512.518 71.7715L516.999 73.4908V63.626C516.999 55.7906 523.242 53.9163 530.021 57.834C536.814 61.7517 542.31 71.2642 542.31 79.0996V80.5089C543.254 80.2203 544.252 80.1489 545.228 80.3002C546.204 80.4515 547.134 80.8216 547.947 81.3826C550.521 83.061 552.662 85.3229 554.198 87.9847C555.733 90.6464 556.619 93.6328 556.783 96.7012V97.3495L563.04 100.957C564.733 102.062 566.142 103.55 567.153 105.301C568.164 107.051 568.749 109.015 568.86 111.033C568.86 114.754 566.253 116.262 563.04 114.401L512.518 85.2158C510.824 84.1134 509.415 82.6258 508.406 80.8746C507.397 79.1233 506.816 77.1581 506.712 75.1396C506.712 71.4333 509.291 69.9254 512.518 71.7715Z" fill="#E6E6E6"/>
<path d="M572.537 63.9642L580.668 68.657C580.624 68.3017 580.6 67.9441 580.598 67.586V65.2325C580.598 61.0048 583.529 59.3418 587.165 61.4416C588.727 62.3982 590.064 63.6819 591.082 65.2043C591.674 59.9337 595.818 57.9749 600.835 60.8638C603.702 62.7293 606.089 65.244 607.803 68.2041C609.517 71.1643 610.509 74.4865 610.699 77.9017V81.4249C610.736 82.8326 610.451 84.2301 609.868 85.5117L616.632 89.4013C617.687 90.1004 618.562 91.0371 619.189 92.136C619.815 93.2349 620.175 94.4655 620.24 95.7288C620.24 98.0541 618.605 98.9983 616.59 97.8427L572.537 72.4761C571.471 71.7819 570.585 70.8454 569.951 69.7433C569.316 68.6411 568.952 67.4045 568.887 66.1345C568.887 63.7528 570.521 62.8086 572.537 63.9642Z" fill="#E6E6E6"/>
<path d="M541.055 277.848C535.136 287.853 529.443 296.548 525.441 300.72C517.845 304.243 500.004 309.683 493.028 310.585C491.802 310.741 490.562 310.451 489.533 309.767C486.785 307.963 484.657 307.667 481.768 306.667C479.499 305.892 478.541 304.807 478.118 305.258C477.681 305.769 477.462 306.432 477.506 307.103C477.551 307.775 477.857 308.402 478.357 308.851C479.441 309.881 480.643 310.78 481.937 311.529C478.843 312.296 475.615 312.354 472.495 311.698C466.449 310.105 463.602 313.009 467.689 319.576C469.099 321.915 474.905 325.678 486.573 324.663C490.736 324.439 494.882 323.968 498.989 323.254C510.178 320.858 522.622 318.547 530.274 316.208C533.121 315.088 535.668 313.322 537.715 311.05C550.582 296.379 554.852 285.923 560.489 276.424L560.01 260.922C550.878 260.612 546.002 269.477 541.055 277.848Z" fill="#FFA8A7"/>
<path d="M561.574 260.613C558.927 260.24 556.227 260.599 553.768 261.65C551.309 262.7 549.184 264.403 547.623 266.574C541.366 274.592 530.289 293.843 530.289 293.843C530.289 293.843 533.911 303.496 543.691 305.117L559.404 283.893C559.404 283.893 566.845 269.153 561.574 260.613Z" fill="#455A64"/>
<path d="M595.551 476.99H585.306V495.254H595.551V476.99Z" fill="#FFA8A7"/>
<path d="M560.039 476.018L549.808 476.384L549.286 457.049L560.039 456.683V476.018Z" fill="#FFA8A7"/>
<path d="M596.988 318.886C596.988 329.061 595.494 411.037 595.494 411.037C595.719 413.968 598.312 419.38 597.791 430.64C597.016 445.93 595.987 486.122 595.987 486.122C594.228 487.022 592.288 487.51 590.313 487.549C588.338 487.588 586.379 487.177 584.586 486.348C584.586 486.348 576.272 429.977 574.44 414.884C572.833 401.651 568.718 357.852 568.718 357.852L563.18 409.628C564.354 415.183 564.78 420.87 564.448 426.539C563.969 433.585 560.671 470.057 560.671 470.057C558.901 471.101 556.917 471.728 554.868 471.892C552.82 472.056 550.761 471.751 548.848 471.001C548.848 471.001 543.013 416.04 542.901 409.585C542.76 402.257 546.311 318.801 546.311 318.801L596.988 318.886Z" fill="#37474F"/>
<path d="M585.306 489.983V488.461C584.319 488.898 582.05 497.945 577.978 501.807C574.751 504.879 570.354 508.416 569.226 511.841C568.099 515.265 575.357 517.365 578.386 516.815C581.881 516.167 587.969 513.588 589.491 511.178C591.013 508.769 591.732 505.274 592.972 503.526C594.212 501.779 597.073 499.834 597.735 497.805C597.942 495.906 597.745 493.985 597.158 492.168C596.679 490.279 596.171 488.208 595.551 488.391V489.546C594.107 490.732 592.29 491.371 590.421 491.35C588.928 491.477 585.292 491.167 585.306 489.983Z" fill="#263238"/>
<path d="M549.694 473.086C549.158 473.086 548.721 473.889 547.552 475.214C545.812 477.043 543.778 478.568 541.534 479.724C537.701 481.725 530.26 484.797 526.864 486.389C524.75 487.376 524.849 490.025 527.033 491.533C529.217 493.041 534.474 494.126 540.787 492.66C544.226 491.857 548.707 488.545 551.554 488.729C554.401 488.912 559.685 488.855 561.785 487.319C563.885 485.783 563.039 482.598 562.447 479.85C561.799 476.835 561.038 472.142 560.038 472.353V473.41C558.812 475.355 552.456 476.144 549.75 474.721L549.694 473.086Z" fill="#263238"/>
<path d="M568.719 357.851C563.389 356.107 558.517 353.194 554.457 349.325C554.457 349.325 557.276 354.694 565.393 359.697L563.645 405.935L568.719 357.851Z" fill="#263238"/>
<path d="M591.266 262.106C591.266 262.106 599.721 264.051 599.115 279.328L597.354 303.637V340.137C589.828 348.677 556.485 348.057 545 339.46C545 339.46 546.297 296.267 547.072 279.638C547.621 267.828 550.341 261.881 561.953 260.584L576.229 261.205L591.266 262.106Z" fill="black"/>
<path d="M591.266 262.106C591.266 262.106 599.721 264.051 599.115 279.328L597.354 303.637V340.137C589.828 348.677 556.485 348.057 545 339.46C545 339.46 546.297 296.267 547.072 279.638C547.621 267.828 550.341 261.881 561.953 260.584L576.229 261.205L591.266 262.106Z" fill="black"/>
<path d="M591.266 262.106C591.266 262.106 599.721 264.051 599.115 279.328L597.354 303.637V340.137C589.828 348.677 556.485 348.057 545 339.46C545 339.46 546.297 296.267 547.072 279.638C547.621 267.828 550.341 261.881 561.953 260.584L576.229 261.205L591.266 262.106Z" fill="#FFC700"/>
<path d="M580.5 230.371C580.549 232.416 580.192 234.45 579.451 236.357C578.709 238.264 577.598 240.005 576.18 241.48C574.763 242.955 573.067 244.135 571.192 244.952C569.316 245.768 567.297 246.206 565.252 246.239C556.796 246.239 551.836 238.939 550.004 230.371C546.621 214.686 556.824 214.488 565.252 214.488C569.38 214.573 573.305 216.294 576.164 219.273C579.023 222.251 580.583 226.243 580.5 230.371Z" fill="#263238"/>
<path d="M588.28 236.782C588.28 236.782 585.94 248.225 584.996 250.114C584.402 251.25 583.393 252.114 582.178 252.524L582.347 244.477L588.28 236.782Z" fill="#263238"/>
<path d="M585.334 220.392C585.334 220.392 587.011 219.97 588.801 222.76C590.323 225.142 590.675 230.497 588.279 236.853L583.868 237.388L585.334 220.392Z" fill="#263238"/>
<path d="M586.955 222.718L592.367 222.817C592.404 222.467 592.368 222.113 592.262 221.778C592.156 221.443 591.981 221.133 591.75 220.868C591.518 220.603 591.234 220.39 590.916 220.24C590.598 220.09 590.252 220.008 589.9 219.998C589.161 220.009 588.451 220.292 587.907 220.794C587.364 221.296 587.024 221.981 586.955 222.718Z" fill="#263238"/>
<path d="M587.617 221.435L591.619 217.588C591.388 217.316 591.104 217.095 590.783 216.939C590.463 216.782 590.114 216.694 589.757 216.679C589.401 216.665 589.046 216.724 588.714 216.854C588.382 216.984 588.08 217.181 587.828 217.433C587.297 217.952 586.981 218.652 586.942 219.393C586.902 220.134 587.143 220.863 587.617 221.435Z" fill="#263238"/>
<path d="M582.543 237.318C583.431 237.867 584.685 236.106 585.784 234.908C586.883 233.71 590.294 232.611 592.069 236.501C593.845 240.39 590.815 244.237 588.278 245.506C583.727 247.76 582.289 244.477 582.289 244.477L581.909 262.6C575.511 272.465 560.995 272.155 566.224 262.121V256.611C564.073 256.968 561.889 257.082 559.713 256.949C556.161 256.385 553.935 253.468 552.85 249.466C551.13 243.039 550.468 237.853 551.934 225.212C553.54 211.374 569.014 211.218 577.3 216.757C585.587 222.295 582.543 237.318 582.543 237.318Z" fill="#FFA8A7"/>
<path d="M563.265 223.056C566.957 222.69 570.607 221.929 574.314 221.647C575.113 221.55 575.923 221.588 576.709 221.76C579.528 222.535 579.19 225.832 579.641 228.129C580.416 232.103 581.05 238.826 582.544 238.854C582.995 238.854 584.686 235.937 585.785 234.894C586.389 233.995 586.731 232.946 586.772 231.864C587.053 230.229 587.194 228.552 587.321 226.889C587.434 225.48 587.575 224.071 587.575 222.661C587.639 221.069 587.511 219.474 587.194 217.912C586.841 216.583 586.163 215.363 585.221 214.361L584.94 214.051C583.082 212.109 580.828 210.59 578.33 209.598C574.737 208.251 570.968 207.43 567.141 207.16C563.318 206.889 559.513 206.419 555.74 205.75C555.523 205.687 555.294 205.687 555.077 205.75C554.924 205.835 554.795 205.957 554.702 206.105C554.608 206.252 554.553 206.421 554.542 206.596C554.387 207.472 554.484 208.373 554.821 209.196C555.157 210.019 555.72 210.73 556.444 211.246C553.894 211.444 550.962 210.119 548.51 209.443C548.312 209.359 548.099 209.315 547.883 209.315C547.668 209.315 547.454 209.359 547.256 209.443C547.01 209.615 546.835 209.87 546.763 210.161C546.584 210.823 546.56 211.518 546.692 212.191C546.917 214.23 547.675 216.175 548.891 217.828C550.79 220.301 553.473 222.055 556.501 222.802C558.729 223.232 561.011 223.318 563.265 223.056Z" fill="#263238"/>
<path d="M566.238 256.61C566.238 256.61 574.158 254.947 576.92 253.411C578.566 252.511 579.902 251.136 580.754 249.465C580.338 251.143 579.595 252.724 578.569 254.115C576.554 256.821 566.238 258.794 566.238 258.794V256.61Z" fill="#F28F8F"/>
<path d="M568.141 235.246C568.125 235.681 568.283 236.105 568.578 236.424C568.874 236.743 569.284 236.933 569.719 236.951C570.064 236.98 570.41 236.903 570.711 236.732C571.012 236.56 571.254 236.302 571.406 235.99C571.557 235.679 571.611 235.329 571.561 234.986C571.51 234.644 571.357 234.324 571.122 234.07C570.886 233.816 570.58 233.639 570.242 233.562C569.904 233.485 569.551 233.511 569.229 233.639C568.907 233.766 568.63 233.987 568.436 234.274C568.242 234.561 568.139 234.9 568.141 235.246Z" fill="#263238"/>
<path d="M570.678 228.411L574.074 230.37C574.321 229.887 574.377 229.329 574.231 228.806C574.085 228.284 573.747 227.836 573.285 227.551C573.06 227.425 572.811 227.347 572.554 227.322C572.297 227.297 572.037 227.326 571.792 227.407C571.547 227.488 571.321 227.619 571.129 227.792C570.937 227.965 570.784 228.176 570.678 228.411Z" fill="#263238"/>
<path d="M566.943 246.676L563.321 248.085C563.394 248.333 563.517 248.564 563.683 248.763C563.849 248.962 564.054 249.124 564.285 249.241C564.516 249.357 564.769 249.425 565.027 249.439C565.286 249.454 565.545 249.415 565.787 249.325C566.28 249.113 566.674 248.721 566.889 248.229C567.103 247.737 567.123 247.182 566.943 246.676Z" fill="#F28F8F"/>
<path d="M553.569 229.862L556.67 227.382C556.531 227.166 556.348 226.981 556.133 226.84C555.918 226.699 555.675 226.604 555.421 226.563C555.167 226.522 554.908 226.535 554.659 226.601C554.41 226.666 554.178 226.784 553.978 226.945C553.564 227.297 553.293 227.788 553.218 228.326C553.142 228.864 553.267 229.411 553.569 229.862Z" fill="#263238"/>
<path d="M554.936 234.78C554.961 235.089 555.075 235.383 555.264 235.628C555.453 235.873 555.71 236.057 556.002 236.158C556.294 236.259 556.61 236.273 556.91 236.198C557.21 236.123 557.482 235.963 557.692 235.736C557.902 235.509 558.042 235.225 558.093 234.92C558.145 234.615 558.107 234.302 557.984 234.018C557.86 233.735 557.657 233.493 557.399 233.323C557.14 233.153 556.838 233.062 556.529 233.061C556.311 233.068 556.097 233.119 555.898 233.209C555.7 233.3 555.522 233.429 555.374 233.589C555.226 233.748 555.111 233.936 555.036 234.141C554.961 234.345 554.927 234.563 554.936 234.78Z" fill="#263238"/>
<path d="M563.434 233.456L563.251 243.476L557.558 242.179L563.434 233.456Z" fill="#F28F8F"/>
<path d="M428.23 317.378L437.066 312.276L440.561 308.034L431.739 313.136L428.23 317.378Z" fill="black"/>
<path d="M428.23 317.378L437.066 312.276L440.561 308.034L431.739 313.136L428.23 317.378Z" fill="black"/>
<path d="M428.23 317.378L437.066 312.276L440.561 308.034L431.739 313.136L428.23 317.378Z" fill="#FFC700"/>
<path opacity="0.4" d="M428.23 317.378L437.066 312.276L440.561 308.034L431.739 313.136L428.23 317.378Z" fill="black"/>
<path d="M452.258 331.245L461.094 326.143L468.464 319.618L459.642 324.706L452.258 331.245Z" fill="black"/>
<path d="M452.258 331.245L461.094 326.143L468.464 319.618L459.642 324.706L452.258 331.245Z" fill="black"/>
<path d="M452.258 331.245L461.094 326.143L468.464 319.618L459.642 324.706L452.258 331.245Z" fill="#FFC700"/>
<path opacity="0.4" d="M452.258 331.245L461.094 326.143L468.464 319.618L459.642 324.706L452.258 331.245Z" fill="black"/>
<path d="M527.314 348.847C529.404 351.647 530.668 354.976 530.964 358.458C528.884 355.652 527.621 352.326 527.314 348.847ZM547.847 349.114C544.874 328.892 534.008 308.894 521.072 301.411C514.857 297.817 509.107 297.691 504.499 300.382L496.184 305.174L495.719 305.456C495.349 305.659 494.991 305.885 494.648 306.132C493.965 306.602 493.324 307.13 492.731 307.71L492.45 307.978C492.196 308.232 491.928 308.528 491.689 308.81C491.449 309.092 491.083 309.528 490.801 309.909C490.202 310.696 489.661 311.525 489.18 312.389C488.926 312.826 488.687 313.291 488.461 313.798L415.842 271.887L407.021 276.975V282.612L407.767 283.034L408.472 283.443V284.571L407.063 285.402V288.671L417.731 311.22L428.272 317.322L431.781 313.094L441.082 318.66L446.423 327.806L452.314 331.203L459.684 324.664L468.732 329.892L471.776 342.449L486.982 351.242C487.733 354.438 488.674 357.586 489.8 360.67C489.899 360.98 490.026 361.304 490.152 361.657C495.198 374.904 503.216 386.248 512.264 391.477C513.348 392.12 514.484 392.671 515.66 393.125C516.282 393.373 516.917 393.584 517.562 393.76C518.126 393.91 518.69 394.037 519.254 394.14C521.033 394.465 522.857 394.465 524.637 394.14L525.37 393.957C525.72 393.886 526.064 393.787 526.398 393.661L527.188 393.351C527.467 393.25 527.736 393.123 527.991 392.97C528.251 392.858 528.506 392.731 528.752 392.59L529.118 392.364C529.185 392.343 529.247 392.309 529.302 392.266C531.317 391.11 536.277 388.235 537.63 387.474C544.338 383.585 548.679 373.748 548.679 359.839C548.667 356.248 548.39 352.664 547.847 349.114Z" fill="black"/>
<path d="M527.314 348.847C529.404 351.647 530.668 354.976 530.964 358.458C528.884 355.652 527.621 352.326 527.314 348.847ZM547.847 349.114C544.874 328.892 534.008 308.894 521.072 301.411C514.857 297.817 509.107 297.691 504.499 300.382L496.184 305.174L495.719 305.456C495.349 305.659 494.991 305.885 494.648 306.132C493.965 306.602 493.324 307.13 492.731 307.71L492.45 307.978C492.196 308.232 491.928 308.528 491.689 308.81C491.449 309.092 491.083 309.528 490.801 309.909C490.202 310.696 489.661 311.525 489.18 312.389C488.926 312.826 488.687 313.291 488.461 313.798L415.842 271.887L407.021 276.975V282.612L407.767 283.034L408.472 283.443V284.571L407.063 285.402V288.671L417.731 311.22L428.272 317.322L431.781 313.094L441.082 318.66L446.423 327.806L452.314 331.203L459.684 324.664L468.732 329.892L471.776 342.449L486.982 351.242C487.733 354.438 488.674 357.586 489.8 360.67C489.899 360.98 490.026 361.304 490.152 361.657C495.198 374.904 503.216 386.248 512.264 391.477C513.348 392.12 514.484 392.671 515.66 393.125C516.282 393.373 516.917 393.584 517.562 393.76C518.126 393.91 518.69 394.037 519.254 394.14C521.033 394.465 522.857 394.465 524.637 394.14L525.37 393.957C525.72 393.886 526.064 393.787 526.398 393.661L527.188 393.351C527.467 393.25 527.736 393.123 527.991 392.97C528.251 392.858 528.506 392.731 528.752 392.59L529.118 392.364C529.185 392.343 529.247 392.309 529.302 392.266C531.317 391.11 536.277 388.235 537.63 387.474C544.338 383.585 548.679 373.748 548.679 359.839C548.667 356.248 548.39 352.664 547.847 349.114Z" fill="black"/>
<path d="M527.314 348.847C529.404 351.647 530.668 354.976 530.964 358.458C528.884 355.652 527.621 352.326 527.314 348.847ZM547.847 349.114C544.874 328.892 534.008 308.894 521.072 301.411C514.857 297.817 509.107 297.691 504.499 300.382L496.184 305.174L495.719 305.456C495.349 305.659 494.991 305.885 494.648 306.132C493.965 306.602 493.324 307.13 492.731 307.71L492.45 307.978C492.196 308.232 491.928 308.528 491.689 308.81C491.449 309.092 491.083 309.528 490.801 309.909C490.202 310.696 489.661 311.525 489.18 312.389C488.926 312.826 488.687 313.291 488.461 313.798L415.842 271.887L407.021 276.975V282.612L407.767 283.034L408.472 283.443V284.571L407.063 285.402V288.671L417.731 311.22L428.272 317.322L431.781 313.094L441.082 318.66L446.423 327.806L452.314 331.203L459.684 324.664L468.732 329.892L471.776 342.449L486.982 351.242C487.733 354.438 488.674 357.586 489.8 360.67C489.899 360.98 490.026 361.304 490.152 361.657C495.198 374.904 503.216 386.248 512.264 391.477C513.348 392.12 514.484 392.671 515.66 393.125C516.282 393.373 516.917 393.584 517.562 393.76C518.126 393.91 518.69 394.037 519.254 394.14C521.033 394.465 522.857 394.465 524.637 394.14L525.37 393.957C525.72 393.886 526.064 393.787 526.398 393.661L527.188 393.351C527.467 393.25 527.736 393.123 527.991 392.97C528.251 392.858 528.506 392.731 528.752 392.59L529.118 392.364C529.185 392.343 529.247 392.309 529.302 392.266C531.317 391.11 536.277 388.235 537.63 387.474C544.338 383.585 548.679 373.748 548.679 359.839C548.667 356.248 548.39 352.664 547.847 349.114Z" fill="#FFC700"/>
<path d="M524.735 365.912C521.24 363.896 518.422 357.921 518.422 352.566C518.422 347.211 521.24 344.491 524.735 346.492C528.23 348.493 531.034 354.483 531.034 359.852C531.034 365.221 528.216 367.927 524.735 365.912ZM539.011 354.201C536.051 333.992 525.186 313.981 512.235 306.512C506.232 303.045 500.679 302.791 496.169 305.173L495.704 305.455C495.334 305.658 494.976 305.884 494.633 306.131C493.95 306.601 493.309 307.129 492.717 307.709L492.435 307.977C492.181 308.231 491.913 308.527 491.674 308.809C491.434 309.091 491.068 309.527 490.786 309.908C490.188 310.695 489.646 311.524 489.165 312.388C488.912 312.825 488.672 313.29 488.447 313.797C487.133 316.521 486.185 319.407 485.628 322.38L407.006 276.974V282.611L407.753 283.033L408.457 283.442V284.57L407.048 285.401V288.67L417.716 311.219L428.257 317.321L431.766 313.093L441.068 318.659L446.409 327.805L452.299 331.202L459.67 324.663L468.717 329.891L471.761 342.448L486.981 351.241C487.733 354.437 488.674 357.585 489.8 360.669C489.898 360.979 490.025 361.303 490.152 361.656C495.197 374.903 503.216 386.247 512.263 391.476C513.347 392.119 514.483 392.67 515.659 393.124C516.281 393.372 516.916 393.583 517.562 393.759C518.126 393.909 518.689 394.036 519.253 394.139C521.033 394.464 522.857 394.464 524.636 394.139L525.369 393.956C525.72 393.885 526.064 393.786 526.398 393.66L527.187 393.35C527.466 393.249 527.735 393.122 527.99 392.969C528.251 392.857 528.505 392.73 528.751 392.589L529.118 392.363C529.184 392.342 529.246 392.308 529.301 392.265C535.727 388.206 539.856 378.51 539.856 364.939C539.833 361.344 539.55 357.755 539.011 354.201Z" fill="black"/>
<path d="M524.735 365.912C521.24 363.896 518.422 357.921 518.422 352.566C518.422 347.211 521.24 344.491 524.735 346.492C528.23 348.493 531.034 354.483 531.034 359.852C531.034 365.221 528.216 367.927 524.735 365.912ZM539.011 354.201C536.051 333.992 525.186 313.981 512.235 306.512C506.232 303.045 500.679 302.791 496.169 305.173L495.704 305.455C495.334 305.658 494.976 305.884 494.633 306.131C493.95 306.601 493.309 307.129 492.717 307.709L492.435 307.977C492.181 308.231 491.913 308.527 491.674 308.809C491.434 309.091 491.068 309.527 490.786 309.908C490.188 310.695 489.646 311.524 489.165 312.388C488.912 312.825 488.672 313.29 488.447 313.797C487.133 316.521 486.185 319.407 485.628 322.38L407.006 276.974V282.611L407.753 283.033L408.457 283.442V284.57L407.048 285.401V288.67L417.716 311.219L428.257 317.321L431.766 313.093L441.068 318.659L446.409 327.805L452.299 331.202L459.67 324.663L468.717 329.891L471.761 342.448L486.981 351.241C487.733 354.437 488.674 357.585 489.8 360.669C489.898 360.979 490.025 361.303 490.152 361.656C495.197 374.903 503.216 386.247 512.263 391.476C513.347 392.119 514.483 392.67 515.659 393.124C516.281 393.372 516.916 393.583 517.562 393.759C518.126 393.909 518.689 394.036 519.253 394.139C521.033 394.464 522.857 394.464 524.636 394.139L525.369 393.956C525.72 393.885 526.064 393.786 526.398 393.66L527.187 393.35C527.466 393.249 527.735 393.122 527.99 392.969C528.251 392.857 528.505 392.73 528.751 392.589L529.118 392.363C529.184 392.342 529.246 392.308 529.301 392.265C535.727 388.206 539.856 378.51 539.856 364.939C539.833 361.344 539.55 357.755 539.011 354.201Z" fill="black"/>
<path d="M524.735 365.912C521.24 363.896 518.422 357.921 518.422 352.566C518.422 347.211 521.24 344.491 524.735 346.492C528.23 348.493 531.034 354.483 531.034 359.852C531.034 365.221 528.216 367.927 524.735 365.912ZM539.011 354.201C536.051 333.992 525.186 313.981 512.235 306.512C506.232 303.045 500.679 302.791 496.169 305.173L495.704 305.455C495.334 305.658 494.976 305.884 494.633 306.131C493.95 306.601 493.309 307.129 492.717 307.709L492.435 307.977C492.181 308.231 491.913 308.527 491.674 308.809C491.434 309.091 491.068 309.527 490.786 309.908C490.188 310.695 489.646 311.524 489.165 312.388C488.912 312.825 488.672 313.29 488.447 313.797C487.133 316.521 486.185 319.407 485.628 322.38L407.006 276.974V282.611L407.753 283.033L408.457 283.442V284.57L407.048 285.401V288.67L417.716 311.219L428.257 317.321L431.766 313.093L441.068 318.659L446.409 327.805L452.299 331.202L459.67 324.663L468.717 329.891L471.761 342.448L486.981 351.241C487.733 354.437 488.674 357.585 489.8 360.669C489.898 360.979 490.025 361.303 490.152 361.656C495.197 374.903 503.216 386.247 512.263 391.476C513.347 392.119 514.483 392.67 515.659 393.124C516.281 393.372 516.916 393.583 517.562 393.759C518.126 393.909 518.689 394.036 519.253 394.139C521.033 394.464 522.857 394.464 524.636 394.139L525.369 393.956C525.72 393.885 526.064 393.786 526.398 393.66L527.187 393.35C527.466 393.249 527.735 393.122 527.99 392.969C528.251 392.857 528.505 392.73 528.751 392.589L529.118 392.363C529.184 392.342 529.246 392.308 529.301 392.265C535.727 388.206 539.856 378.51 539.856 364.939C539.833 361.344 539.55 357.755 539.011 354.201Z" fill="#FFC700"/>
<path opacity="0.4" d="M531.035 359.838C531.035 365.207 528.216 367.927 524.735 365.912C521.254 363.897 518.422 357.936 518.422 352.566C518.422 347.197 521.24 344.477 524.735 346.493C525.742 347.105 526.618 347.91 527.314 348.86C527.617 352.34 528.881 355.667 530.964 358.471C531.016 358.925 531.039 359.382 531.035 359.838Z" fill="black"/>
<path opacity="0.4" d="M548.651 359.824C548.651 373.733 544.31 383.57 537.602 387.46C536.193 388.22 531.289 391.095 529.273 392.251C535.7 388.192 539.829 378.497 539.829 364.925C539.814 361.336 539.54 357.752 539.011 354.201C536.052 333.992 525.187 313.981 512.235 306.512C506.232 303.045 500.68 302.791 496.17 305.173L504.485 300.382C509.093 297.69 514.843 297.817 521.057 301.41C534.008 308.894 544.874 328.891 547.833 349.114C548.37 352.659 548.643 356.239 548.651 359.824Z" fill="white"/>
<path d="M539.829 364.898C539.829 378.469 535.7 388.165 529.273 392.223C531.289 391.068 536.249 388.193 537.602 387.432C544.31 383.542 548.651 373.706 548.651 359.796C548.651 359.289 548.651 358.768 548.651 358.246L539.829 363.348C539.815 363.897 539.829 364.405 539.829 364.898Z" fill="black"/>
<path d="M539.829 364.898C539.829 378.469 535.7 388.165 529.273 392.223C531.289 391.068 536.249 388.193 537.602 387.432C544.31 383.542 548.651 373.706 548.651 359.796C548.651 359.289 548.651 358.768 548.651 358.246L539.829 363.348C539.815 363.897 539.829 364.405 539.829 364.898Z" fill="black"/>
<path d="M539.829 364.898C539.829 378.469 535.7 388.165 529.273 392.223C531.289 391.068 536.249 388.193 537.602 387.432C544.31 383.542 548.651 373.706 548.651 359.796C548.651 359.289 548.651 358.768 548.651 358.246L539.829 363.348C539.815 363.897 539.829 364.405 539.829 364.898Z" fill="#FFC700"/>
<path opacity="0.1" d="M539.829 364.898C539.829 378.469 535.7 388.165 529.273 392.223C531.289 391.068 536.249 388.193 537.602 387.432C544.31 383.542 548.651 373.706 548.651 359.796C548.651 359.289 548.651 358.768 548.651 358.246L539.829 363.348C539.815 363.897 539.829 364.405 539.829 364.898Z" fill="black"/>
<path opacity="0.15" d="M485.967 328.144V331.005L407.021 285.429L408.472 284.584V283.4L485.967 328.144Z" fill="black"/>
<path opacity="0.15" d="M485.967 329.328V331.005L407.021 285.429L408.472 284.584V284.57L485.967 329.328Z" fill="black"/>
<path opacity="0.15" d="M520.298 387.446C517.306 387.368 514.388 386.497 511.842 384.923C498.976 377.496 488.505 355.399 488.505 335.67C488.505 324.156 491.986 315.559 498.06 312.05C502.287 309.598 507.29 309.908 512.547 312.938C525.399 320.365 535.87 342.533 535.87 362.262C535.87 373.762 532.389 382.372 526.315 385.867C524.483 386.913 522.407 387.458 520.298 387.446ZM504.162 311.839C502.284 311.829 500.436 312.315 498.807 313.248C493.268 316.447 489.956 324.832 489.956 335.655C489.956 354.934 500.103 376.524 512.589 383.683C517.366 386.501 521.89 386.755 525.653 384.585C531.191 381.386 534.503 373.015 534.503 362.192C534.503 342.899 524.356 321.323 511.884 314.15C509.554 312.732 506.89 311.954 504.162 311.895V311.839Z" fill="black"/>
<path opacity="0.4" d="M488.391 313.77C487.077 316.494 486.129 319.379 485.573 322.352L406.95 276.946L415.772 271.858L488.391 313.77Z" fill="white"/>
<path d="M590.576 318.181C594.691 310.387 599.398 292.884 601.737 284.048C605.063 271.506 599.68 263.614 593.564 263.29C589.745 263.882 577.16 309.64 577.16 309.64C575.751 310.754 556.627 320.464 550.483 322.902C549.384 323.317 548.171 323.317 547.072 322.902C544.127 321.831 542.112 322.028 539.223 321.746C536.954 321.52 535.812 320.717 535.517 321.196C535.248 321.791 535.213 322.465 535.419 323.084C535.626 323.703 536.058 324.222 536.63 324.536C537.874 325.261 539.198 325.838 540.576 326.256C538.106 327.005 535.532 327.352 532.952 327.284C527.033 327.157 524.905 329.722 529.499 335.74C532.318 339.488 536.982 340.672 547.397 337.079C550.384 336.036 554.443 334.021 558.234 332.654C566.041 329.835 568.098 329.497 574.046 327.482C582.712 324.55 588.744 321.647 590.576 318.181Z" fill="#FFA8A7"/>
<path d="M591.267 262.106C594.861 262.6 598.313 263.403 600.441 266.334C602.569 269.265 604.274 273.38 602.189 284.584C600.592 292.463 598.454 300.223 595.791 307.809C595.791 307.809 587.42 311.388 578.527 302.312L584.644 278.665C584.644 278.665 585.63 263.29 591.267 262.106Z" fill="#455A64"/>
</svg>
