<svg width="53" height="53" viewBox="0 0 53 53" fill="none" xmlns="http://www.w3.org/2000/svg">
<circle cx="27.9578" cy="24.9355" r="24.9355" fill="#282828"/>
<circle cx="27.9578" cy="24.9355" r="24.9355" fill="#282828"/>
<circle cx="27.9578" cy="24.9355" r="24.9355" fill="#282828"/>
<circle cx="24.9355" cy="27.4545" r="24.3058" fill="black"/>
<circle cx="24.9355" cy="27.4545" r="24.3058" fill="black"/>
<circle cx="24.9355" cy="27.4545" r="24.3058" fill="white"/>
<circle cx="24.9355" cy="27.4545" r="24.3058" stroke="#1A1A1A" stroke-width="1.25937"/>
<rect x="17.5946" y="19.0552" width="3.94067" height="20.6305" rx="1.97033" fill="black"/>
<rect x="23.2739" y="22.5322" width="3.94067" height="17.1535" rx="1.97033" fill="black"/>
<rect x="28.953" y="25.314" width="3.94067" height="14.3718" rx="1.97033" fill="black"/>
<rect x="34.6322" y="28.3271" width="3.94067" height="11.3584" rx="1.97033" fill="black"/>
<path d="M40.3327 22.726C40.6954 22.5222 40.8243 22.0629 40.6205 21.7002C40.4167 21.3374 39.9574 21.2086 39.5947 21.4124L40.3327 22.726ZM19.9127 9.32002L19.7839 18.0182L27.3811 13.7806L19.9127 9.32002ZM39.5947 21.4124C36.3441 23.2385 33.3415 22.8633 30.6735 21.4104C27.9649 19.9354 25.6151 17.3489 23.8327 14.8096L22.5994 15.6753C24.4403 18.2977 26.9505 21.0986 29.9529 22.7336C32.9959 24.3907 36.5555 24.848 40.3327 22.726L39.5947 21.4124Z" fill="#1A1A1A"/>
</svg>
