<svg width="251" height="53" viewBox="0 0 251 53" fill="none" xmlns="http://www.w3.org/2000/svg">
<path d="M60.8449 39.9761C60.526 39.9761 60.2651 39.8746 60.0622 39.6717C59.8593 39.4688 59.7579 39.2079 59.7579 38.889V10.6261C59.7579 10.3072 59.8593 10.0463 60.0622 9.84342C60.2651 9.64051 60.526 9.53905 60.8449 9.53905H80.542C80.8609 9.53905 81.1217 9.64051 81.3247 9.84342C81.5276 10.0463 81.629 10.3072 81.629 10.6261V14.1046C81.629 14.3945 81.5276 14.6409 81.3247 14.8438C81.1217 15.0467 80.8609 15.1482 80.542 15.1482H66.454V21.9747H79.5854C79.9043 21.9747 80.1651 22.0762 80.3681 22.2791C80.571 22.482 80.6724 22.7429 80.6724 23.0618V26.2794C80.6724 26.5693 80.571 26.8157 80.3681 27.0186C80.1651 27.2215 79.9043 27.323 79.5854 27.323H66.454V34.367H80.8898C81.2087 34.367 81.4696 34.4684 81.6725 34.6713C81.8754 34.8742 81.9769 35.1351 81.9769 35.454V38.889C81.9769 39.2079 81.8754 39.4688 81.6725 39.6717C81.4696 39.8746 81.2087 39.9761 80.8898 39.9761H60.8449ZM102.542 48.2376C102.252 48.2376 102.005 48.1361 101.802 47.9332C101.599 47.7303 101.498 47.4694 101.498 47.1505V37.4107C100.802 38.3383 99.9037 39.0775 98.8022 39.6282C97.7296 40.15 96.4542 40.4109 94.9758 40.4109C93.4974 40.4109 92.193 40.1645 91.0625 39.6717C89.9319 39.1789 88.9754 38.4832 88.1927 37.5846C87.41 36.686 86.8158 35.6134 86.4099 34.367C86.0041 33.1205 85.7722 31.7581 85.7142 30.2797C85.6853 29.7 85.6708 29.1637 85.6708 28.6709C85.6708 28.1781 85.6853 27.6563 85.7142 27.1056C85.7722 25.5402 86.0041 24.1343 86.4099 22.8879C86.8448 21.6414 87.439 20.5833 88.1927 19.7137C88.9754 18.8151 89.9319 18.1339 91.0625 17.6701C92.193 17.1773 93.4974 16.9309 94.9758 16.9309C96.6281 16.9309 98.005 17.2353 99.1065 17.844C100.237 18.4238 101.136 19.1774 101.802 20.105V18.4528C101.802 18.1339 101.904 17.873 102.107 17.6701C102.31 17.4672 102.571 17.3657 102.889 17.3657H107.02C107.339 17.3657 107.6 17.4672 107.803 17.6701C108.006 17.873 108.107 18.1339 108.107 18.4528V47.1505C108.107 47.4694 108.006 47.7303 107.803 47.9332C107.6 48.1361 107.339 48.2376 107.02 48.2376H102.542ZM96.9325 35.1931C97.976 35.1931 98.8167 34.9612 99.4544 34.4974C100.121 34.0336 100.614 33.4539 100.933 32.7582C101.281 32.0335 101.469 31.2653 101.498 30.4536C101.527 29.9029 101.541 29.3521 101.541 28.8013C101.541 28.2506 101.527 27.7143 101.498 27.1925C101.469 26.3229 101.295 25.5112 100.976 24.7576C100.686 24.0039 100.208 23.3807 99.5413 22.8879C98.9036 22.3951 98.034 22.1487 96.9325 22.1487C95.8599 22.1487 94.9903 22.3951 94.3236 22.8879C93.6858 23.3517 93.222 23.9749 92.9322 24.7576C92.6713 25.5402 92.5118 26.3954 92.4539 27.323C92.3959 28.2216 92.3959 29.1202 92.4539 30.0188C92.5118 30.9464 92.6713 31.8016 92.9322 32.5842C93.222 33.3669 93.6858 34.0046 94.3236 34.4974C94.9903 34.9612 95.8599 35.1931 96.9325 35.1931ZM121.894 40.4109C120.213 40.4109 118.72 40.034 117.415 39.2804C116.14 38.4977 115.14 37.3817 114.415 35.9323C113.719 34.4539 113.372 32.6712 113.372 30.5841V18.4528C113.372 18.1339 113.473 17.873 113.676 17.6701C113.879 17.4672 114.125 17.3657 114.415 17.3657H119.024C119.343 17.3657 119.604 17.4672 119.807 17.6701C120.01 17.873 120.111 18.1339 120.111 18.4528V30.3232C120.111 33.5698 121.532 35.1931 124.372 35.1931C125.735 35.1931 126.807 34.7728 127.59 33.9322C128.402 33.0625 128.807 31.8595 128.807 30.3232V18.4528C128.807 18.1339 128.909 17.873 129.112 17.6701C129.315 17.4672 129.576 17.3657 129.894 17.3657H134.503C134.793 17.3657 135.04 17.4672 135.243 17.6701C135.446 17.873 135.547 18.1339 135.547 18.4528V38.889C135.547 39.2079 135.446 39.4688 135.243 39.6717C135.04 39.8746 134.793 39.9761 134.503 39.9761H130.242C129.923 39.9761 129.663 39.8746 129.46 39.6717C129.257 39.4688 129.155 39.2079 129.155 38.889V37.1933C128.402 38.2368 127.431 39.034 126.242 39.5847C125.054 40.1355 123.604 40.4109 121.894 40.4109ZM142.063 39.9761C141.773 39.9761 141.527 39.8746 141.324 39.6717C141.121 39.4688 141.02 39.2079 141.02 38.889V18.4528C141.02 18.1339 141.121 17.873 141.324 17.6701C141.527 17.4672 141.773 17.3657 142.063 17.3657H146.411C146.73 17.3657 146.991 17.4672 147.194 17.6701C147.397 17.873 147.498 18.1339 147.498 18.4528V38.889C147.498 39.2079 147.397 39.4688 147.194 39.6717C146.991 39.8746 146.73 39.9761 146.411 39.9761H142.063ZM141.933 13.8872C141.643 13.8872 141.396 13.7857 141.194 13.5828C140.991 13.3799 140.889 13.119 140.889 12.8002V9.32165C140.889 9.00278 140.991 8.74189 141.194 8.53898C141.396 8.30708 141.643 8.19113 141.933 8.19113H146.498C146.817 8.19113 147.078 8.30708 147.281 8.53898C147.513 8.74189 147.629 9.00278 147.629 9.32165V12.8002C147.629 13.119 147.513 13.3799 147.281 13.5828C147.078 13.7857 146.817 13.8872 146.498 13.8872H141.933ZM154.517 39.9761C154.198 39.9761 153.937 39.8746 153.734 39.6717C153.531 39.4688 153.43 39.2079 153.43 38.889V10.6261C153.43 10.3072 153.531 10.0463 153.734 9.84342C153.937 9.64051 154.198 9.53905 154.517 9.53905H158.474C158.908 9.53905 159.227 9.64051 159.43 9.84342C159.633 10.0463 159.764 10.2058 159.822 10.3217L171.431 28.4535V10.6261C171.431 10.3072 171.533 10.0463 171.736 9.84342C171.938 9.64051 172.185 9.53905 172.475 9.53905H176.91C177.229 9.53905 177.49 9.64051 177.692 9.84342C177.895 10.0463 177.997 10.3072 177.997 10.6261V38.889C177.997 39.1789 177.895 39.4398 177.692 39.6717C177.49 39.8746 177.229 39.9761 176.91 39.9761H172.91C172.475 39.9761 172.156 39.8746 171.953 39.6717C171.779 39.4398 171.649 39.2804 171.562 39.1934L159.996 21.6269V38.889C159.996 39.2079 159.894 39.4688 159.691 39.6717C159.488 39.8746 159.227 39.9761 158.908 39.9761H154.517ZM194.037 40.4109C190.703 40.4109 188.051 39.4833 186.08 37.6281C184.137 35.7729 183.108 33.077 182.992 29.5405C182.992 29.3086 182.992 29.0043 182.992 28.6274C182.992 28.2216 182.992 27.9027 182.992 27.6708C183.108 25.4388 183.616 23.5256 184.514 21.9313C185.413 20.308 186.674 19.076 188.297 18.2353C189.92 17.3657 191.819 16.9309 193.993 16.9309C196.428 16.9309 198.457 17.4382 200.081 18.4528C201.733 19.4383 202.965 20.8008 203.777 22.54C204.617 24.2503 205.038 26.2214 205.038 28.4535V29.4536C205.038 29.7434 204.922 29.9898 204.69 30.1927C204.487 30.3957 204.24 30.4971 203.951 30.4971H189.732C189.732 30.5261 189.732 30.5841 189.732 30.671C189.732 30.729 189.732 30.787 189.732 30.845C189.761 31.7726 189.935 32.6277 190.254 33.4104C190.602 34.1641 191.08 34.7728 191.689 35.2366C192.326 35.7004 193.08 35.9323 193.95 35.9323C194.674 35.9323 195.269 35.8308 195.733 35.6279C196.196 35.425 196.573 35.1786 196.863 34.8887C197.182 34.5989 197.414 34.3525 197.559 34.1496C197.82 33.8597 198.023 33.6858 198.167 33.6278C198.341 33.5408 198.602 33.4973 198.95 33.4973H203.472C203.762 33.4973 203.994 33.5843 204.168 33.7582C204.371 33.9032 204.458 34.1206 204.429 34.4104C204.4 34.8742 204.153 35.454 203.69 36.1497C203.255 36.8164 202.603 37.4831 201.733 38.1499C200.863 38.7876 199.776 39.3239 198.472 39.7587C197.196 40.1935 195.718 40.4109 194.037 40.4109ZM189.732 26.5403H198.254V26.4533C198.254 25.4098 198.081 24.5112 197.733 23.7575C197.414 22.9748 196.936 22.3661 196.298 21.9313C195.66 21.4965 194.892 21.279 193.993 21.279C193.095 21.279 192.326 21.4965 191.689 21.9313C191.051 22.3661 190.558 22.9748 190.21 23.7575C189.892 24.5112 189.732 25.4098 189.732 26.4533V26.5403ZM218.298 40.4109C216.5 40.4109 214.95 40.208 213.645 39.8021C212.37 39.3673 211.326 38.8456 210.515 38.2368C209.732 37.6281 209.138 37.0193 208.732 36.4106C208.355 35.7729 208.152 35.2366 208.123 34.8018C208.094 34.4829 208.196 34.222 208.427 34.0191C208.659 33.8162 208.891 33.7147 209.123 33.7147H213.341C213.428 33.7147 213.515 33.7292 213.602 33.7582C213.689 33.7872 213.776 33.8597 213.863 33.9756C214.239 34.2365 214.631 34.5409 215.037 34.8887C215.442 35.2076 215.906 35.483 216.428 35.7149C216.979 35.9468 217.66 36.0627 218.472 36.0627C219.428 36.0627 220.24 35.8743 220.907 35.4975C221.573 35.0917 221.907 34.5264 221.907 33.8017C221.907 33.2799 221.747 32.8451 221.428 32.4973C221.138 32.1494 220.573 31.8305 219.733 31.5407C218.892 31.2508 217.645 30.9319 215.993 30.5841C214.428 30.2362 213.094 29.7724 211.993 29.1927C210.891 28.6129 210.065 27.8882 209.514 27.0186C208.964 26.12 208.688 25.0474 208.688 23.801C208.688 22.6705 209.036 21.5834 209.732 20.5399C210.457 19.4963 211.515 18.6412 212.906 17.9745C214.297 17.2788 216.037 16.9309 218.124 16.9309C219.718 16.9309 221.11 17.1338 222.298 17.5396C223.515 17.9165 224.53 18.4093 225.342 19.018C226.153 19.5978 226.762 20.2065 227.168 20.8442C227.603 21.453 227.835 21.9892 227.864 22.453C227.893 22.7429 227.806 22.9893 227.603 23.1922C227.4 23.3951 227.168 23.4966 226.907 23.4966H223.037C222.892 23.4966 222.762 23.4821 222.646 23.4531C222.53 23.3951 222.428 23.3227 222.341 23.2357C221.994 23.0038 221.631 22.7429 221.254 22.453C220.907 22.1342 220.486 21.8588 219.993 21.6269C219.501 21.395 218.863 21.279 218.08 21.279C217.124 21.279 216.385 21.4965 215.863 21.9313C215.37 22.3371 215.124 22.8589 215.124 23.4966C215.124 23.9024 215.254 24.2793 215.515 24.6271C215.776 24.975 216.312 25.2938 217.124 25.5837C217.935 25.8736 219.167 26.178 220.82 26.4968C222.791 26.8447 224.356 27.3665 225.516 28.0622C226.675 28.7579 227.501 29.5695 227.994 30.4971C228.516 31.3957 228.777 32.3668 228.777 33.4104C228.777 34.7728 228.371 35.9903 227.559 37.0628C226.748 38.1064 225.559 38.9325 223.994 39.5413C222.457 40.121 220.559 40.4109 218.298 40.4109ZM243.736 39.9761C241.939 39.9761 240.402 39.6862 239.127 39.1064C237.852 38.4977 236.88 37.5701 236.214 36.3236C235.576 35.0772 235.257 33.5118 235.257 31.6276V22.4965H231.866C231.547 22.4965 231.286 22.3951 231.083 22.1922C230.88 21.9892 230.779 21.7284 230.779 21.4095V18.4528C230.779 18.1339 230.88 17.873 231.083 17.6701C231.286 17.4672 231.547 17.3657 231.866 17.3657H235.257V10.1913C235.257 9.87241 235.359 9.61152 235.562 9.40861C235.793 9.2057 236.054 9.10424 236.344 9.10424H240.605C240.924 9.10424 241.185 9.2057 241.388 9.40861C241.591 9.61152 241.692 9.87241 241.692 10.1913V17.3657H247.128C247.417 17.3657 247.664 17.4672 247.867 17.6701C248.07 17.873 248.171 18.1339 248.171 18.4528V21.4095C248.171 21.7284 248.07 21.9892 247.867 22.1922C247.664 22.3951 247.417 22.4965 247.128 22.4965H241.692V31.1059C241.692 32.2074 241.881 33.077 242.258 33.7147C242.663 34.3235 243.359 34.6279 244.345 34.6279H247.519C247.809 34.6279 248.055 34.7293 248.258 34.9322C248.461 35.1351 248.562 35.3815 248.562 35.6714V38.889C248.562 39.2079 248.461 39.4688 248.258 39.6717C248.055 39.8746 247.809 39.9761 247.519 39.9761H243.736Z" fill="white"/>
<circle cx="27.9579" cy="25.2685" r="24.9355" fill="white"/>
<circle cx="24.9355" cy="27.7875" r="24.3058" stroke="#1A1A1A" stroke-width="1.25937"/>
<rect x="17.5945" y="19.3882" width="3.94067" height="20.6305" rx="1.97033" fill="black"/>
<rect x="23.2738" y="22.8652" width="3.94067" height="17.1535" rx="1.97033" fill="black"/>
<rect x="28.953" y="25.647" width="3.94067" height="14.3718" rx="1.97033" fill="black"/>
<rect x="34.6321" y="28.6602" width="3.94067" height="11.3584" rx="1.97033" fill="black"/>
<path d="M40.3326 23.059C40.6953 22.8552 40.8242 22.3959 40.6204 22.0332C40.4166 21.6704 39.9573 21.5416 39.5946 21.7454L40.3326 23.059ZM19.9126 9.65303L19.7838 18.3512L27.381 14.1136L19.9126 9.65303ZM39.5946 21.7454C36.344 23.5715 33.3414 23.1963 30.6734 21.7434C27.9648 20.2684 25.6151 17.6819 23.8326 15.1426L22.5993 16.0083C24.4402 18.6307 26.9504 21.4316 29.9528 23.0666C32.9958 24.7237 36.5554 25.181 40.3326 23.059L39.5946 21.7454Z" fill="#1A1A1A"/>
</svg>
