<svg width="599" height="537" viewBox="0 0 599 537" fill="none" xmlns="http://www.w3.org/2000/svg">
<path d="M87.9959 149.639C65.065 181.68 47.6524 217.338 37.9331 254.86C30.3889 283.98 -4.69733 451.47 234.779 490.185C493.843 532.07 547.821 418.67 563.593 319.067C591.333 143.983 508.683 42.702 390.523 15.8933C337.937 3.97416 282.008 8.27449 233.399 30.0744C176.538 55.5781 125.046 97.8979 87.9959 149.639Z" fill="#455A64"/>
<path d="M426.006 121.326C438.938 122.829 451.633 125.931 463.801 130.56C482.705 138.017 494.016 154.858 516.561 159.817C516.561 159.817 544.812 194.618 516.561 247.601L477.063 241.573C471.277 240.668 465.371 240.875 459.663 242.182C451.882 243.997 437.863 245.812 418.362 242.642L426.006 121.326Z" fill="#FFA8A7"/>
<path d="M286.294 264.169L316.248 281.619V402.339L286.158 384.665L286.294 264.169Z" fill="black"/>
<path d="M286.294 264.169L316.248 281.619V402.339L286.158 384.665L286.294 264.169Z" fill="black"/>
<path d="M286.294 264.169L316.248 281.619V402.339L286.158 384.665L286.294 264.169Z" fill="#FFC700"/>
<path opacity="0.2" d="M286.294 264.169L316.248 281.619V402.339L286.158 384.665L286.294 264.169Z" fill="black"/>
<path d="M293.515 283.719L304.701 246.433C312.78 235.086 318.037 221.128 318.037 208.774C318.037 188.428 303.757 180.188 286.145 190.355C268.534 200.521 254.241 225.267 254.241 245.613C254.241 255.618 257.696 262.69 263.301 266.095L263.811 266.393L293.515 283.719Z" fill="black"/>
<path d="M293.515 283.719L304.701 246.433C312.78 235.086 318.037 221.128 318.037 208.774C318.037 188.428 303.757 180.188 286.145 190.355C268.534 200.521 254.241 225.267 254.241 245.613C254.241 255.618 257.696 262.69 263.301 266.095L263.811 266.393L293.515 283.719Z" fill="black"/>
<path d="M293.515 283.719L304.701 246.433C312.78 235.086 318.037 221.128 318.037 208.774C318.037 188.428 303.757 180.188 286.145 190.355C268.534 200.521 254.241 225.267 254.241 245.613C254.241 255.618 257.696 262.69 263.301 266.095L263.811 266.393L293.515 283.719Z" fill="#FFC700"/>
<path d="M286.294 69.8708L316.248 87.3207V208.053L286.158 190.367L286.294 69.8708Z" fill="black"/>
<path d="M286.294 69.8708L316.248 87.3207V208.053L286.158 190.367L286.294 69.8708Z" fill="black"/>
<path d="M286.294 69.8708L316.248 87.3207V208.053L286.158 190.367L286.294 69.8708Z" fill="#FFC700"/>
<path opacity="0.2" d="M286.294 69.8708L316.248 87.3207V208.053L286.158 190.367L286.294 69.8708Z" fill="black"/>
<path d="M414.199 78.6702L413.739 78.3967L414.186 78.6702H414.199Z" fill="#FFA8A7"/>
<path d="M411.961 77.3654L384.556 61.407C359.698 45.983 324.898 47.5862 286.294 69.8709C286.245 69.8924 286.198 69.9218 286.158 69.9579L316.248 87.3581C353.546 65.7943 387.34 63.5696 411.961 77.3654Z" fill="black"/>
<path d="M411.961 77.3654L384.556 61.407C359.698 45.983 324.898 47.5862 286.294 69.8709C286.245 69.8924 286.198 69.9218 286.158 69.9579L316.248 87.3581C353.546 65.7943 387.34 63.5696 411.961 77.3654Z" fill="black"/>
<path d="M411.961 77.3654L384.556 61.407C359.698 45.983 324.898 47.5862 286.294 69.8709C286.245 69.8924 286.198 69.9218 286.158 69.9579L316.248 87.3581C353.546 65.7943 387.34 63.5696 411.961 77.3654Z" fill="#FFC700"/>
<path d="M414.186 78.6704L413.739 78.397L411.961 77.3654C387.34 63.5695 353.546 65.7943 316.26 87.3083V208.028C298.661 218.195 284.393 242.903 284.393 263.212C284.393 283.52 298.661 291.798 316.26 281.606V402.339C391.578 358.838 452.653 253.07 452.653 166.081C452.653 123.463 437.987 93.2741 414.186 78.6704Z" fill="black"/>
<path d="M414.186 78.6704L413.739 78.397L411.961 77.3654C387.34 63.5695 353.546 65.7943 316.26 87.3083V208.028C298.661 218.195 284.393 242.903 284.393 263.212C284.393 283.52 298.661 291.798 316.26 281.606V402.339C391.578 358.838 452.653 253.07 452.653 166.081C452.653 123.463 437.987 93.2741 414.186 78.6704Z" fill="black"/>
<path d="M414.186 78.6704L413.739 78.397L411.961 77.3654C387.34 63.5695 353.546 65.7943 316.26 87.3083V208.028C298.661 218.195 284.393 242.903 284.393 263.212C284.393 283.52 298.661 291.798 316.26 281.606V402.339C391.578 358.838 452.653 253.07 452.653 166.081C452.653 123.463 437.987 93.2741 414.186 78.6704Z" fill="#FFC700"/>
<path opacity="0.3" d="M414.186 78.6704L413.739 78.397L411.961 77.3654C387.34 63.5695 353.546 65.7943 316.26 87.3083V208.028C298.661 218.195 284.393 242.903 284.393 263.212C284.393 283.52 298.661 291.798 316.26 281.606V402.339C391.578 358.838 452.653 253.07 452.653 166.081C452.653 123.463 437.987 93.2741 414.186 78.6704Z" fill="white"/>
<path d="M421.904 132.039C416.483 120.743 407.833 111.309 397.047 104.932C375.098 92.2674 346.512 94.4673 316.26 111.147V124.072C317.18 123.501 318.112 122.954 319.057 122.407C335.562 112.874 351.372 108.064 365.478 108.064C374.54 107.922 383.478 110.187 391.379 114.627C409.339 124.992 419.68 146.631 420.773 175.875C420.848 177.615 420.885 179.38 420.885 181.17C420.885 248.521 374.178 330.476 316.211 365.661V378.575L319.007 377.009C381.35 340.966 432.108 253.157 432.108 181.17C432.108 161.992 428.591 145.375 421.904 132.039Z" fill="white"/>
<path d="M405.97 196.258C405.97 168.231 396.226 147.165 378.527 136.948C361.512 127.13 339.489 128.683 316.247 141.286V154.224C317.167 153.653 318.099 153.068 319.043 152.534C331.472 145.375 343.267 141.758 353.844 141.758C360.543 141.657 367.149 143.339 372.984 146.63C387.078 154.771 394.834 172.395 394.834 196.258C394.834 246.967 359.847 308.576 316.297 335.46V348.398C317.216 347.901 318.149 347.379 319.093 346.832C366.969 319.153 405.97 251.603 405.97 196.258Z" fill="white"/>
<path d="M379.832 211.347C379.832 191.374 372.81 176.323 360.046 168.965C347.977 161.992 332.516 162.925 316.247 171.451V184.364C317.167 183.78 318.099 183.208 319.043 182.674C327.309 177.901 335.201 175.478 342.124 175.478C346.438 175.411 350.693 176.491 354.453 178.61C363.6 183.892 368.646 195.513 368.646 211.31C368.646 245.377 345.38 286.714 316.247 305.221V318.122C317.167 317.637 318.099 317.152 319.043 316.605C352.564 297.291 379.832 250.05 379.832 211.347Z" fill="white"/>
<path d="M338.814 257.922C351.272 236.343 351.271 213.019 338.811 205.825C326.352 198.631 306.151 210.293 293.693 231.871C281.234 253.45 281.235 276.775 293.695 283.968C306.155 291.162 326.355 279.501 338.814 257.922Z" fill="white"/>
<path d="M327.673 251.117C333.978 240.197 333.976 228.393 327.669 224.751C321.362 221.11 311.138 227.01 304.833 237.93C298.528 248.851 298.53 260.655 304.837 264.297C311.144 267.938 321.368 262.037 327.673 251.117Z" fill="black"/>
<path d="M327.673 251.117C333.978 240.197 333.976 228.393 327.669 224.751C321.362 221.11 311.138 227.01 304.833 237.93C298.528 248.851 298.53 260.655 304.837 264.297C311.144 267.938 321.368 262.037 327.673 251.117Z" fill="black"/>
<path d="M327.673 251.117C333.978 240.197 333.976 228.393 327.669 224.751C321.362 221.11 311.138 227.01 304.833 237.93C298.528 248.851 298.53 260.655 304.837 264.297C311.144 267.938 321.368 262.037 327.673 251.117Z" fill="#FFC700"/>
<path opacity="0.3" d="M327.673 251.117C333.978 240.197 333.976 228.393 327.669 224.751C321.362 221.11 311.138 227.01 304.833 237.93C298.528 248.851 298.53 260.655 304.837 264.297C311.144 267.938 321.368 262.037 327.673 251.117Z" fill="white"/>
<path d="M458.804 152.522L444.076 148.445C440.562 147.474 436.888 147.229 433.276 147.724C422.898 149.166 400.961 152.199 395.816 152.82C389.104 153.64 385.736 162.502 390.397 169.798C395.058 177.093 405.97 186.887 439.552 184.451C439.552 184.451 456.045 227.305 497.11 203.604C509.24 196.631 500.751 166.193 458.804 152.522Z" fill="#FFA8A7"/>
<path d="M468.598 158.152C468.337 158.152 468.078 158.097 467.84 157.99C464.807 156.648 461.626 155.417 458.22 154.261L449.93 151.962C449.688 151.903 449.46 151.795 449.26 151.646C449.06 151.497 448.892 151.309 448.766 151.094C448.64 150.879 448.558 150.641 448.526 150.393C448.493 150.146 448.511 149.894 448.577 149.654C448.644 149.414 448.758 149.189 448.913 148.993C449.068 148.798 449.261 148.636 449.479 148.516C449.698 148.396 449.939 148.322 450.187 148.297C450.435 148.271 450.686 148.297 450.925 148.37L459.301 150.694C462.717 151.797 466.073 153.075 469.356 154.522C469.746 154.696 470.065 154.999 470.258 155.379C470.452 155.76 470.509 156.195 470.421 156.613C470.332 157.03 470.102 157.405 469.771 157.674C469.439 157.942 469.025 158.089 468.598 158.089V158.152Z" fill="#F28F8F"/>
<path d="M473.72 212.664C460.52 212.664 451.348 205.207 445.432 197.899C445.125 197.512 444.983 197.02 445.036 196.529C445.09 196.038 445.335 195.588 445.718 195.276C445.909 195.123 446.128 195.008 446.363 194.94C446.598 194.871 446.845 194.849 447.088 194.876C447.332 194.902 447.568 194.977 447.783 195.094C447.997 195.212 448.187 195.371 448.34 195.562C455.3 204.262 467.505 213.161 486.186 206.661C486.654 206.496 487.168 206.524 487.616 206.739C488.063 206.953 488.407 207.336 488.572 207.804C488.737 208.273 488.709 208.787 488.494 209.234C488.28 209.682 487.897 210.026 487.428 210.191C483.03 211.781 478.396 212.617 473.72 212.664Z" fill="#F28F8F"/>
<path d="M517.952 164.229C521.594 176.82 529.872 213.77 511.39 241.287C510.386 242.78 508.976 243.955 507.327 244.675C505.679 245.395 503.859 245.63 502.081 245.352L496.401 244.494C496.403 245.74 496.831 246.947 497.613 247.917C498.395 248.886 499.485 249.56 500.701 249.826L559.166 262.64V152.87L505.723 156.3L509.14 157.791C510.105 158.219 511.108 158.556 512.136 158.798C513.502 159.101 514.763 159.764 515.786 160.72C516.809 161.675 517.557 162.887 517.952 164.229Z" fill="black"/>
<path d="M517.952 164.229C521.594 176.82 529.872 213.77 511.39 241.287C510.386 242.78 508.976 243.955 507.327 244.675C505.679 245.395 503.859 245.63 502.081 245.352L496.401 244.494C496.403 245.74 496.831 246.947 497.613 247.917C498.395 248.886 499.485 249.56 500.701 249.826L559.166 262.64V152.87L505.723 156.3L509.14 157.791C510.105 158.219 511.108 158.556 512.136 158.798C513.502 159.101 514.763 159.764 515.786 160.72C516.809 161.675 517.557 162.887 517.952 164.229Z" fill="black"/>
<path d="M517.952 164.229C521.594 176.82 529.872 213.77 511.39 241.287C510.386 242.78 508.976 243.955 507.327 244.675C505.679 245.395 503.859 245.63 502.081 245.352L496.401 244.494C496.403 245.74 496.831 246.947 497.613 247.917C498.395 248.886 499.485 249.56 500.701 249.826L559.166 262.64V152.87L505.723 156.3L509.14 157.791C510.105 158.219 511.108 158.556 512.136 158.798C513.502 159.101 514.763 159.764 515.786 160.72C516.809 161.675 517.557 162.887 517.952 164.229Z" fill="#FFC700"/>
<path d="M540.287 161.222C545.134 175.912 553.325 211.943 534.147 249.813C533.172 251.722 531.591 253.252 529.652 254.165C527.713 255.079 525.526 255.323 523.434 254.859L519.432 253.989C519.347 254.765 519.417 255.55 519.638 256.299C519.858 257.047 520.224 257.745 520.715 258.351C521.206 258.958 521.812 259.461 522.498 259.832C523.185 260.204 523.938 260.435 524.714 260.515L589.729 267.251C589.729 267.251 599 252.61 599 205.02C599 157.431 585.577 148.507 585.577 148.507L532.209 150.371C531.028 150.41 529.909 150.906 529.088 151.755C528.267 152.604 527.808 153.739 527.809 154.92L530.68 154.734C532.774 154.596 534.855 155.159 536.594 156.333C538.333 157.508 539.633 159.228 540.287 161.222Z" fill="#263238"/>
<path d="M564.138 249.018C564.14 250.557 563.686 252.063 562.833 253.344C561.979 254.625 560.765 255.624 559.344 256.215C557.922 256.806 556.357 256.962 554.847 256.663C553.337 256.364 551.95 255.624 550.86 254.536C549.771 253.449 549.029 252.062 548.728 250.553C548.426 249.043 548.58 247.478 549.168 246.056C549.757 244.633 550.754 243.418 552.034 242.562C553.314 241.707 554.818 241.25 556.358 241.25C558.419 241.25 560.396 242.068 561.855 243.524C563.314 244.981 564.135 246.957 564.138 249.018Z" fill="white"/>
<path d="M462.919 154.548C462.766 154.565 462.612 154.565 462.459 154.548C461.98 154.422 461.57 154.113 461.317 153.688C461.063 153.262 460.987 152.754 461.104 152.273C461.697 149.888 461.368 147.368 460.185 145.214C459.956 144.783 459.906 144.28 460.044 143.812C460.182 143.345 460.498 142.95 460.924 142.712C461.35 142.475 461.852 142.414 462.323 142.542C462.793 142.671 463.195 142.978 463.441 143.399C465.076 146.39 465.52 149.889 464.684 153.193C464.576 153.58 464.346 153.921 464.027 154.165C463.709 154.409 463.32 154.544 462.919 154.548Z" fill="#F28F8F"/>
<path d="M471.072 241.586C470.658 241.582 470.258 241.441 469.933 241.185C469.608 240.929 469.378 240.572 469.278 240.171C469.178 239.769 469.215 239.346 469.382 238.968C469.55 238.589 469.838 238.277 470.202 238.081C472.646 236.736 474.734 234.828 476.295 232.515C477.855 230.203 478.843 227.552 479.176 224.782C479.201 224.537 479.274 224.3 479.391 224.083C479.508 223.867 479.667 223.676 479.858 223.52C480.049 223.365 480.268 223.249 480.504 223.179C480.74 223.108 480.988 223.085 481.232 223.111C481.477 223.136 481.715 223.209 481.931 223.326C482.148 223.443 482.339 223.602 482.494 223.793C482.65 223.984 482.766 224.203 482.836 224.439C482.906 224.675 482.929 224.923 482.904 225.167C482.515 228.54 481.319 231.77 479.418 234.582C477.516 237.395 474.964 239.707 471.979 241.325C471.704 241.488 471.392 241.578 471.072 241.586Z" fill="#F28F8F"/>
<path d="M405.523 165.211C405.076 165.211 404.616 165.211 404.168 165.211C399.495 164.876 395.468 162.527 393.654 159.084C393.509 158.793 393.485 158.458 393.585 158.149C393.685 157.84 393.902 157.583 394.189 157.432C394.476 157.281 394.811 157.248 395.122 157.341C395.433 157.434 395.696 157.644 395.854 157.928C397.544 161.147 401.347 162.514 404.355 162.738C407.984 162.999 411.65 161.992 415.193 161.023C416.249 160.737 417.256 160.377 417.542 159.78C417.684 159.272 417.684 158.735 417.542 158.226C417.195 156.602 416.595 155.041 415.764 153.603C415.674 153.462 415.614 153.303 415.587 153.138C415.56 152.973 415.566 152.803 415.606 152.641C415.646 152.478 415.718 152.325 415.819 152.191C415.919 152.056 416.046 151.944 416.191 151.86C416.336 151.776 416.497 151.723 416.663 151.702C416.83 151.682 416.998 151.696 417.159 151.743C417.32 151.789 417.47 151.868 417.6 151.974C417.73 152.08 417.837 152.212 417.914 152.36C418.873 153.993 419.565 155.767 419.965 157.617C420.248 158.619 420.208 159.684 419.853 160.663C419.058 162.502 416.982 163.074 415.864 163.372C412.514 164.444 409.037 165.063 405.523 165.211Z" fill="#F28F8F"/>
<path d="M136.23 285C136.23 285 106.265 297.18 100.448 306.638C94.6316 316.096 86.6524 349.132 82.7746 371.889C78.8969 394.646 63.6842 412.829 63.6842 412.829L87.1744 435.598L143.302 324.411L136.23 285Z" fill="#FFA8A7"/>
<path d="M161.449 332.738C161.449 245.737 222.523 139.969 297.854 96.481L267.764 79.0808C192.521 122.693 131.508 228.337 131.508 315.338C131.508 360.665 148.1 391.936 174.648 405.347L201.221 420.907C176.624 406.589 161.449 376.089 161.449 332.738Z" fill="black"/>
<path d="M161.449 332.738C161.449 245.737 222.523 139.969 297.854 96.481L267.764 79.0808C192.521 122.693 131.508 228.337 131.508 315.338C131.508 360.665 148.1 391.936 174.648 405.347L201.221 420.907C176.624 406.589 161.449 376.089 161.449 332.738Z" fill="black"/>
<path d="M161.449 332.738C161.449 245.737 222.523 139.969 297.854 96.481L267.764 79.0808C192.521 122.693 131.508 228.337 131.508 315.338C131.508 360.665 148.1 391.936 174.648 405.347L201.221 420.907C176.624 406.589 161.449 376.089 161.449 332.738Z" fill="#FFC700"/>
<path opacity="0.3" d="M161.449 332.738C161.449 245.737 222.523 139.969 297.854 96.481L267.764 79.0808C192.521 122.693 131.508 228.337 131.508 315.338C131.508 360.665 148.1 391.936 174.648 405.347L201.221 420.907C176.624 406.589 161.449 376.089 161.449 332.738Z" fill="white"/>
<path d="M161.448 332.738C161.448 376.077 176.611 406.577 201.145 420.895C225.679 435.213 260.057 433.324 297.853 411.499V290.779C280.266 300.946 265.998 292.705 265.998 272.397C265.998 252.088 280.266 227.368 297.853 217.213V96.4934C222.535 139.981 161.448 245.737 161.448 332.738Z" fill="black"/>
<path d="M161.448 332.738C161.448 376.077 176.611 406.577 201.145 420.895C225.679 435.213 260.057 433.324 297.853 411.499V290.779C280.266 300.946 265.998 292.705 265.998 272.397C265.998 252.088 280.266 227.368 297.853 217.213V96.4934C222.535 139.981 161.448 245.737 161.448 332.738Z" fill="black"/>
<path d="M161.448 332.738C161.448 376.077 176.611 406.577 201.145 420.895C225.679 435.213 260.057 433.324 297.853 411.499V290.779C280.266 300.946 265.998 292.705 265.998 272.397C265.998 252.088 280.266 227.368 297.853 217.213V96.4934C222.535 139.981 161.448 245.737 161.448 332.738Z" fill="#FFC700"/>
<path d="M297.865 133.17V120.207C296.937 120.713 296.005 121.235 295.069 121.773C232.727 157.817 181.968 245.625 181.968 317.612C181.968 353.656 194.396 380.775 217.066 393.85C226.662 399.306 237.536 402.112 248.573 401.978C249.878 401.978 251.196 401.978 252.525 401.866C266.707 401.108 282.044 396.373 297.828 387.685V374.822C296.908 375.393 295.976 375.94 295.032 376.487C293.292 377.49 291.552 378.443 289.812 379.346C264.159 392.744 240.47 394.496 222.697 384.205C203.668 373.218 193.191 349.591 193.191 317.662C193.191 250.311 239.898 168.356 297.865 133.17Z" fill="white"/>
<path d="M295.069 346.298C274.4 358.242 255.297 360.33 241.178 352.189C227.059 344.048 219.329 326.437 219.329 302.574C219.329 251.864 254.316 190.255 297.866 163.372V150.446C296.934 150.956 296.001 151.465 295.069 152.012C247.206 179.679 208.143 247.229 208.143 302.574C208.143 330.6 217.887 351.667 235.586 361.883C243.105 366.166 251.628 368.371 260.281 368.272C271.964 368.272 284.716 364.68 297.866 357.546V344.607C296.921 345.167 296.014 345.763 295.069 346.298Z" fill="white"/>
<path d="M295.07 316.121C281.398 324.025 268.808 325.467 259.66 320.185C250.513 314.903 245.467 303.282 245.467 287.485C245.467 253.418 268.721 212.08 297.866 193.574V180.66C296.934 181.145 296.014 181.642 295.07 182.189C261.512 201.541 234.281 248.77 234.281 287.485C234.281 307.446 241.303 322.509 254.067 329.867C259.509 332.98 265.683 334.585 271.952 334.515C280.043 334.515 288.83 332.03 297.866 327.331V314.43C296.921 315.015 296.014 315.574 295.07 316.121Z" fill="white"/>
<path opacity="0.5" d="M161.448 332.738C161.448 376.077 176.611 406.577 201.145 420.895C225.679 435.213 260.057 433.324 297.853 411.499V290.779C280.266 300.946 265.998 292.705 265.998 272.397C265.998 252.088 280.266 227.368 297.853 217.213V96.4934C222.535 139.981 161.448 245.737 161.448 332.738Z" fill="white"/>
<path d="M187.126 382.826C200.711 379.507 211.71 362.567 211.71 362.567C211.71 362.567 223.629 314.406 241.85 315.102C242.73 315.141 243.592 315.36 244.385 315.745C245.178 316.129 245.884 316.671 246.459 317.338C247.035 318.004 247.469 318.782 247.734 319.622C248 320.462 248.091 321.347 248.002 322.224C247.219 330.116 238.879 361.598 234.442 376.736C229.048 395.168 196.746 423.368 196.746 423.368C196.746 423.368 173.554 386.182 187.126 382.826Z" fill="#FFA8A7"/>
<path d="M179.408 360.33C192.856 356.465 203.16 339.089 203.16 339.089C203.16 339.089 213.103 290.493 231.348 290.456C232.227 290.459 233.097 290.642 233.903 290.993C234.71 291.344 235.437 291.855 236.039 292.496C236.642 293.137 237.107 293.893 237.407 294.72C237.708 295.547 237.837 296.426 237.786 297.304C237.326 305.234 230.329 337.014 226.438 352.326C221.79 370.969 190.669 400.45 190.669 400.45C190.669 400.45 165.973 364.208 179.408 360.33Z" fill="#FFA8A7"/>
<path d="M206.602 390.656C206.211 390.655 205.828 390.542 205.5 390.328C205.172 390.115 204.913 389.811 204.754 389.453C204.595 389.096 204.543 388.7 204.604 388.313C204.665 387.927 204.837 387.566 205.098 387.275C213.413 378.003 221.753 362.778 224.475 351.841C226.289 344.583 229.235 331.955 231.733 319.986C231.784 319.722 231.887 319.471 232.036 319.248C232.185 319.024 232.378 318.833 232.601 318.684C232.825 318.535 233.076 318.433 233.34 318.382C233.604 318.331 233.876 318.334 234.138 318.389C234.401 318.444 234.651 318.551 234.872 318.704C235.093 318.856 235.282 319.051 235.427 319.277C235.572 319.504 235.671 319.756 235.717 320.021C235.764 320.286 235.757 320.557 235.698 320.819C233.523 331.197 230.59 344.061 228.415 352.823C225.494 364.506 216.955 380.166 208.106 389.985C207.918 390.197 207.686 390.367 207.427 390.483C207.168 390.599 206.886 390.658 206.602 390.656Z" fill="#F28F8F"/>
<path d="M168.993 341.04C182.429 337.163 192.732 319.787 192.732 319.787C192.732 319.787 202.675 271.191 220.92 271.154C221.801 271.162 222.671 271.35 223.477 271.706C224.282 272.062 225.007 272.579 225.606 273.224C226.205 273.87 226.666 274.631 226.961 275.461C227.256 276.291 227.379 277.173 227.321 278.052C226.861 285.969 219.802 317.761 215.986 333.074C211.338 351.717 180.204 381.197 180.204 381.197C180.204 381.197 155.558 344.906 168.993 341.04Z" fill="#FFA8A7"/>
<path d="M126.238 331.035C126.238 331.035 136.044 342.706 149.479 338.841C162.915 334.975 173.218 317.588 173.218 317.588C173.218 317.588 183.161 268.991 201.406 268.954C202.287 268.958 203.158 269.141 203.965 269.492C204.773 269.844 205.5 270.356 206.102 270.998C206.705 271.641 207.17 272.399 207.47 273.227C207.769 274.055 207.897 274.936 207.844 275.815C207.385 283.732 200.325 315.524 196.51 330.837C191.861 349.48 160.727 378.961 160.727 378.961L117.649 352.947L126.238 331.035Z" fill="#FFA8A7"/>
<path d="M196.746 423.368C196.746 423.368 170.111 452.19 115.959 471.529L87.1869 435.486L117.65 348.895L166.557 355.11C166.557 355.11 211.163 378.973 196.746 423.368Z" fill="#FFA8A7"/>
<path d="M174.188 366.979C173.688 366.984 173.205 366.802 172.833 366.47C172.433 366.112 172.191 365.61 172.161 365.074C172.131 364.538 172.314 364.012 172.672 363.611C185.001 349.79 192.557 338.294 194.546 330.339C198.747 313.474 205.396 283.11 205.831 275.653C205.889 275.137 206.142 274.663 206.538 274.328C206.935 273.994 207.445 273.824 207.963 273.854C208.481 273.885 208.968 274.113 209.323 274.491C209.678 274.87 209.874 275.37 209.871 275.889C209.386 284.204 202.19 316.369 198.474 331.284C195.764 342.134 184.591 356.29 175.692 366.271C175.506 366.489 175.276 366.665 175.016 366.787C174.757 366.91 174.474 366.975 174.188 366.979Z" fill="#F28F8F"/>
<path d="M191.277 377.481C190.758 377.484 190.258 377.283 189.885 376.922C189.69 376.741 189.534 376.523 189.424 376.28C189.314 376.038 189.254 375.777 189.246 375.511C189.237 375.245 189.282 374.98 189.377 374.732C189.472 374.483 189.615 374.256 189.798 374.063C198.722 364.58 210.927 344.831 214.034 332.576C216.594 322.298 220.671 304.351 223.181 291.35C223.231 291.088 223.332 290.839 223.478 290.616C223.624 290.393 223.813 290.201 224.034 290.051C224.254 289.901 224.502 289.796 224.763 289.741C225.024 289.687 225.293 289.685 225.555 289.735C225.817 289.784 226.067 289.885 226.29 290.032C226.513 290.178 226.705 290.367 226.855 290.587C227.005 290.807 227.11 291.055 227.164 291.316C227.218 291.577 227.221 291.847 227.171 292.109C224.685 305.184 220.534 323.18 217.961 333.558C214.668 346.77 202.028 366.979 192.743 376.835C192.556 377.037 192.329 377.198 192.077 377.309C191.825 377.42 191.552 377.479 191.277 377.481Z" fill="#F28F8F"/>
<path d="M45.5627 427.52L65.0758 408.876C65.0758 408.876 118.196 424.661 121.005 474.289L103.754 486.606L45.5627 427.52Z" fill="black"/>
<path d="M45.5627 427.52L65.0758 408.876C65.0758 408.876 118.196 424.661 121.005 474.289L103.754 486.606L45.5627 427.52Z" fill="black"/>
<path d="M45.5627 427.52L65.0758 408.876C65.0758 408.876 118.196 424.661 121.005 474.289L103.754 486.606L45.5627 427.52Z" fill="#FFC700"/>
<path opacity="0.3" d="M45.5627 427.52L65.0758 408.876C65.0758 408.876 118.196 424.661 121.005 474.289L103.754 486.606L45.5627 427.52Z" fill="white"/>
<path d="M45.6997 419.105C56.9726 422.038 103.99 437.661 109.447 494.473C109.521 495.268 109.421 496.07 109.155 496.823C108.889 497.577 108.463 498.263 107.905 498.835L71.8621 536.295C71.8621 536.295 -11.2113 510.73 1.27956 448.611L41.3497 419.913C41.9698 419.465 42.6817 419.16 43.4339 419.02C44.1862 418.881 44.96 418.91 45.6997 419.105Z" fill="#263238"/>
<path d="M97.5147 491.117C97.5147 492.523 97.0978 493.898 96.3166 495.067C95.5354 496.236 94.4251 497.147 93.1261 497.685C91.827 498.223 90.3976 498.364 89.0186 498.09C87.6395 497.815 86.3728 497.138 85.3785 496.144C84.3843 495.15 83.7072 493.883 83.4329 492.504C83.1586 491.125 83.2994 489.696 83.8375 488.396C84.3755 487.097 85.2867 485.987 86.4558 485.206C87.6249 484.425 88.9994 484.008 90.4055 484.008C91.3391 484.008 92.2636 484.192 93.1261 484.549C93.9886 484.906 94.7723 485.43 95.4325 486.09C96.0926 486.75 96.6163 487.534 96.9736 488.396C97.3308 489.259 97.5147 490.183 97.5147 491.117Z" fill="white"/>
<path d="M140.32 340.928C140.123 340.929 139.926 340.904 139.736 340.854C135.162 339.439 131.042 336.845 127.789 333.332C124.536 329.819 122.265 325.512 121.205 320.844C121.089 320.318 121.187 319.768 121.478 319.315C121.768 318.861 122.226 318.542 122.752 318.426C123.278 318.311 123.828 318.409 124.281 318.699C124.734 318.99 125.054 319.448 125.169 319.974C126.095 323.926 128.032 327.57 130.791 330.549C133.549 333.527 137.034 335.738 140.904 336.964C141.369 337.105 141.767 337.408 142.028 337.818C142.288 338.228 142.392 338.718 142.321 339.198C142.25 339.678 142.009 340.117 141.642 340.435C141.275 340.753 140.805 340.928 140.32 340.928Z" fill="#F28F8F"/>
<path d="M182.007 100.284C186.194 100.284 189.588 96.8895 189.588 92.7024C189.588 88.5152 186.194 85.1208 182.007 85.1208C177.819 85.1208 174.425 88.5152 174.425 92.7024C174.425 96.8895 177.819 100.284 182.007 100.284Z" fill="#FAFAFA"/>
<path d="M405.972 430.949C410.159 430.949 413.553 427.555 413.553 423.368C413.553 419.181 410.159 415.786 405.972 415.786C401.785 415.786 398.39 419.181 398.39 423.368C398.39 427.555 401.785 430.949 405.972 430.949Z" fill="#FAFAFA"/>
<path d="M88.7162 261.136C88.7088 262.207 88.3844 263.251 87.784 264.138C87.1835 265.024 86.3339 265.713 85.3424 266.117C84.3509 266.521 83.2619 266.622 82.2129 266.408C81.1638 266.194 80.2018 265.673 79.4482 264.913C78.6945 264.152 78.1831 263.185 77.9784 262.135C77.7738 261.084 77.885 259.996 78.2981 259.008C78.7112 258.02 79.4077 257.177 80.2997 256.584C81.1916 255.992 82.239 255.677 83.3097 255.68C84.0234 255.681 84.7298 255.824 85.3883 256.099C86.0467 256.375 86.6443 256.777 87.1466 257.284C87.649 257.791 88.0463 258.393 88.3156 259.054C88.585 259.715 88.7211 260.422 88.7162 261.136Z" fill="#FAFAFA"/>
<path d="M440.772 68.6899C443.758 68.6899 446.179 66.2694 446.179 63.2834C446.179 60.2975 443.758 57.877 440.772 57.877C437.786 57.877 435.366 60.2975 435.366 63.2834C435.366 66.2694 437.786 68.6899 440.772 68.6899Z" fill="#FAFAFA"/>
<path d="M148.125 162.85C148.113 163.584 147.884 164.299 147.467 164.904C147.05 165.509 146.463 165.977 145.781 166.25C145.099 166.522 144.351 166.588 143.632 166.437C142.913 166.286 142.254 165.926 141.739 165.402C141.224 164.878 140.875 164.214 140.736 163.492C140.597 162.771 140.674 162.024 140.958 161.347C141.242 160.669 141.72 160.09 142.332 159.683C142.944 159.276 143.662 159.059 144.397 159.059C145.39 159.078 146.337 159.486 147.034 160.194C147.73 160.903 148.122 161.856 148.125 162.85Z" fill="#FAFAFA"/>
<path d="M383.624 410.231C383.612 410.963 383.384 411.675 382.97 412.278C382.556 412.882 381.973 413.35 381.294 413.625C380.615 413.899 379.871 413.968 379.153 413.822C378.436 413.676 377.777 413.322 377.26 412.805C376.742 412.287 376.388 411.628 376.242 410.911C376.096 410.193 376.165 409.449 376.44 408.77C376.714 408.091 377.182 407.509 377.786 407.094C378.389 406.68 379.102 406.452 379.834 406.44C380.334 406.432 380.83 406.524 381.294 406.711C381.758 406.899 382.179 407.178 382.533 407.532C382.886 407.885 383.165 408.306 383.353 408.77C383.54 409.234 383.633 409.731 383.624 410.231Z" fill="#FAFAFA"/>
<path d="M206.267 96.493C206.279 97.2453 206.068 97.9842 205.659 98.6157C205.25 99.2472 204.662 99.7428 203.97 100.039C203.279 100.336 202.515 100.42 201.776 100.281C201.036 100.141 200.355 99.7853 199.819 99.2577C199.282 98.7301 198.915 98.0549 198.764 97.3179C198.612 96.5809 198.684 95.8155 198.969 95.1193C199.254 94.423 199.739 93.8272 200.364 93.4079C200.989 92.9885 201.724 92.7645 202.476 92.7644C202.971 92.7562 203.463 92.8465 203.922 93.0302C204.382 93.2139 204.8 93.4872 205.153 93.8343C205.506 94.1814 205.786 94.5952 205.977 95.0517C206.169 95.5081 206.267 95.9981 206.267 96.493Z" fill="#FAFAFA"/>
<path d="M438.696 388.667C438.696 389.416 438.474 390.149 438.057 390.773C437.641 391.396 437.049 391.882 436.356 392.169C435.663 392.456 434.901 392.531 434.166 392.385C433.43 392.238 432.755 391.877 432.225 391.347C431.695 390.817 431.334 390.142 431.187 389.406C431.041 388.671 431.116 387.909 431.403 387.216C431.69 386.523 432.176 385.931 432.799 385.515C433.423 385.098 434.156 384.876 434.905 384.876C435.91 384.879 436.872 385.28 437.582 385.99C438.292 386.7 438.693 387.662 438.696 388.667Z" fill="#FAFAFA"/>
<path d="M121.44 261.136C121.452 261.891 121.239 262.632 120.827 263.265C120.416 263.898 119.824 264.393 119.129 264.688C118.434 264.982 117.667 265.063 116.926 264.918C116.184 264.774 115.503 264.412 114.97 263.878C114.436 263.344 114.073 262.663 113.929 261.922C113.785 261.181 113.865 260.414 114.16 259.718C114.454 259.023 114.95 258.432 115.583 258.02C116.215 257.608 116.957 257.395 117.712 257.407C118.701 257.407 119.649 257.8 120.348 258.499C121.047 259.199 121.44 260.147 121.44 261.136Z" fill="#FAFAFA"/>
<path d="M470.178 101.564C470.166 102.299 469.937 103.013 469.52 103.618C469.103 104.223 468.516 104.691 467.834 104.964C467.152 105.237 466.404 105.302 465.685 105.151C464.966 105 464.307 104.64 463.792 104.116C463.277 103.593 462.928 102.928 462.789 102.207C462.65 101.485 462.727 100.739 463.011 100.061C463.295 99.3832 463.773 98.8045 464.385 98.3975C464.996 97.9905 465.715 97.7733 466.45 97.7732C467.443 97.7927 468.39 98.2002 469.086 98.9087C469.783 99.6172 470.175 100.57 470.178 101.564Z" fill="#FAFAFA"/>
<path d="M104.55 213.086L113.884 218.195L104.55 223.29L99.4419 232.637L94.3337 223.29L84.9998 218.195L94.3337 213.086L99.4419 203.752L104.55 213.086Z" fill="black"/>
<path d="M104.55 213.086L113.884 218.195L104.55 223.29L99.4419 232.637L94.3337 223.29L84.9998 218.195L94.3337 213.086L99.4419 203.752L104.55 213.086Z" fill="black"/>
<path d="M104.55 213.086L113.884 218.195L104.55 223.29L99.4419 232.637L94.3337 223.29L84.9998 218.195L94.3337 213.086L99.4419 203.752L104.55 213.086Z" fill="#FFC700"/>
<path d="M354.169 439.463L363.503 444.571L354.169 449.679L349.06 459.013L343.952 449.679L334.618 444.571L343.952 439.463L349.06 430.129L354.169 439.463Z" fill="black"/>
<path d="M354.169 439.463L363.503 444.571L354.169 449.679L349.06 459.013L343.952 449.679L334.618 444.571L343.952 439.463L349.06 430.129L354.169 439.463Z" fill="black"/>
<path d="M354.169 439.463L363.503 444.571L354.169 449.679L349.06 459.013L343.952 449.679L334.618 444.571L343.952 439.463L349.06 430.129L354.169 439.463Z" fill="#FFC700"/>
<path d="M384.941 10.039L394.275 15.1472L384.941 20.2554L379.833 29.5894L374.725 20.2554L365.391 15.1472L374.725 10.039L379.833 0.705078L384.941 10.039Z" fill="black"/>
<path d="M384.941 10.039L394.275 15.1472L384.941 20.2554L379.833 29.5894L374.725 20.2554L365.391 15.1472L374.725 10.039L379.833 0.705078L384.941 10.039Z" fill="black"/>
<path d="M384.941 10.039L394.275 15.1472L384.941 20.2554L379.833 29.5894L374.725 20.2554L365.391 15.1472L374.725 10.039L379.833 0.705078L384.941 10.039Z" fill="#FFC700"/>
<path d="M409.377 34.2501L414.038 36.798L409.377 39.3583L406.817 44.0191L404.269 39.3583L399.595 36.798L404.269 34.2501L406.817 29.5894L409.377 34.2501Z" fill="black"/>
<path d="M409.377 34.2501L414.038 36.798L409.377 39.3583L406.817 44.0191L404.269 39.3583L399.595 36.798L404.269 34.2501L406.817 29.5894L409.377 34.2501Z" fill="black"/>
<path d="M409.377 34.2501L414.038 36.798L409.377 39.3583L406.817 44.0191L404.269 39.3583L399.595 36.798L404.269 34.2501L406.817 29.5894L409.377 34.2501Z" fill="#FFC700"/>
<path d="M287.837 30.8321L294.138 34.2748L287.837 37.7176L284.382 44.0189L280.939 37.7176L274.638 34.2748L280.939 30.8321L284.382 24.5183L287.837 30.8321Z" fill="black"/>
<path d="M287.837 30.8321L294.138 34.2748L287.837 37.7176L284.382 44.0189L280.939 37.7176L274.638 34.2748L280.939 30.8321L284.382 24.5183L287.837 30.8321Z" fill="black"/>
<path d="M287.837 30.8321L294.138 34.2748L287.837 37.7176L284.382 44.0189L280.939 37.7176L274.638 34.2748L280.939 30.8321L284.382 24.5183L287.837 30.8321Z" fill="#FFC700"/>
<path d="M286.942 442.024L291.602 444.571L286.942 447.132L284.381 451.792L281.833 447.132L277.16 444.571L281.833 442.024L284.381 437.35L286.942 442.024Z" fill="black"/>
<path d="M286.942 442.024L291.602 444.571L286.942 447.132L284.381 451.792L281.833 447.132L277.16 444.571L281.833 442.024L284.381 437.35L286.942 442.024Z" fill="black"/>
<path d="M286.942 442.024L291.602 444.571L286.942 447.132L284.381 451.792L281.833 447.132L277.16 444.571L281.833 442.024L284.381 437.35L286.942 442.024Z" fill="#FFC700"/>
<path d="M483.576 270.42L488.249 272.968L483.576 275.516L481.028 280.189L478.468 275.516L473.807 272.968L478.468 270.42L481.028 265.747L483.576 270.42Z" fill="black"/>
<path d="M483.576 270.42L488.249 272.968L483.576 275.516L481.028 280.189L478.468 275.516L473.807 272.968L478.468 270.42L481.028 265.747L483.576 270.42Z" fill="black"/>
<path d="M483.576 270.42L488.249 272.968L483.576 275.516L481.028 280.189L478.468 275.516L473.807 272.968L478.468 270.42L481.028 265.747L483.576 270.42Z" fill="#FFC700"/>
<path d="M507.637 315.015L434.32 272.969L383.748 283.819L399.943 332.937L473.259 374.983L457.065 325.853L507.637 315.015Z" fill="black"/>
<path d="M507.637 315.015L434.32 272.969L383.748 283.819L399.943 332.937L473.259 374.983L457.065 325.853L507.637 315.015Z" fill="black"/>
<path d="M507.637 315.015L434.32 272.969L383.748 283.819L399.943 332.937L473.259 374.983L457.065 325.853L507.637 315.015Z" fill="#FFC700"/>
<path opacity="0.3" d="M507.637 315.015L434.32 272.969L383.748 283.819L399.943 332.937L473.259 374.983L457.065 325.853L507.637 315.015Z" fill="black"/>
<path d="M411.364 333.347C411.102 333.347 410.846 333.264 410.634 333.11C410.422 332.956 410.264 332.739 410.183 332.49L397.332 293.526L414.347 289.872C414.507 289.837 414.672 289.834 414.833 289.864C414.994 289.893 415.147 289.954 415.285 290.043C415.422 290.132 415.541 290.247 415.634 290.382C415.726 290.517 415.792 290.669 415.826 290.829C415.892 291.15 415.828 291.484 415.649 291.759C415.47 292.034 415.189 292.227 414.869 292.295L400.563 295.365L412.507 331.719C412.609 332.032 412.583 332.373 412.433 332.667C412.284 332.96 412.025 333.183 411.712 333.285C411.599 333.32 411.482 333.341 411.364 333.347Z" fill="black"/>
<path d="M411.364 333.347C411.102 333.347 410.846 333.264 410.634 333.11C410.422 332.956 410.264 332.739 410.183 332.49L397.332 293.526L414.347 289.872C414.507 289.837 414.672 289.834 414.833 289.864C414.994 289.893 415.147 289.954 415.285 290.043C415.422 290.132 415.541 290.247 415.634 290.382C415.726 290.517 415.792 290.669 415.826 290.829C415.892 291.15 415.828 291.484 415.649 291.759C415.47 292.034 415.189 292.227 414.869 292.295L400.563 295.365L412.507 331.719C412.609 332.032 412.583 332.373 412.433 332.667C412.284 332.96 412.025 333.183 411.712 333.285C411.599 333.32 411.482 333.341 411.364 333.347Z" fill="black"/>
<path d="M411.364 333.347C411.102 333.347 410.846 333.264 410.634 333.11C410.422 332.956 410.264 332.739 410.183 332.49L397.332 293.526L414.347 289.872C414.507 289.837 414.672 289.834 414.833 289.864C414.994 289.893 415.147 289.954 415.285 290.043C415.422 290.132 415.541 290.247 415.634 290.382C415.726 290.517 415.792 290.669 415.826 290.829C415.892 291.15 415.828 291.484 415.649 291.759C415.47 292.034 415.189 292.227 414.869 292.295L400.563 295.365L412.507 331.719C412.609 332.032 412.583 332.373 412.433 332.667C412.284 332.96 412.025 333.183 411.712 333.285C411.599 333.32 411.482 333.341 411.364 333.347Z" fill="#FFC700"/>
<path d="M424.724 290.157C424.395 290.192 424.065 290.094 423.807 289.886C423.55 289.677 423.386 289.375 423.351 289.045C423.316 288.715 423.414 288.385 423.623 288.128C423.831 287.87 424.134 287.706 424.463 287.671L440.509 284.266C440.672 284.228 440.841 284.222 441.007 284.249C441.172 284.276 441.331 284.335 441.473 284.424C441.616 284.512 441.74 284.627 441.837 284.763C441.935 284.9 442.006 285.054 442.044 285.217C442.082 285.38 442.088 285.549 442.061 285.715C442.034 285.88 441.975 286.039 441.886 286.181C441.798 286.324 441.683 286.448 441.546 286.545C441.41 286.643 441.256 286.713 441.093 286.752L424.936 290.132L424.724 290.157Z" fill="black"/>
<path d="M424.724 290.157C424.395 290.192 424.065 290.094 423.807 289.886C423.55 289.677 423.386 289.375 423.351 289.045C423.316 288.715 423.414 288.385 423.623 288.128C423.831 287.87 424.134 287.706 424.463 287.671L440.509 284.266C440.672 284.228 440.841 284.222 441.007 284.249C441.172 284.276 441.331 284.335 441.473 284.424C441.616 284.512 441.74 284.627 441.837 284.763C441.935 284.9 442.006 285.054 442.044 285.217C442.082 285.38 442.088 285.549 442.061 285.715C442.034 285.88 441.975 286.039 441.886 286.181C441.798 286.324 441.683 286.448 441.546 286.545C441.41 286.643 441.256 286.713 441.093 286.752L424.936 290.132L424.724 290.157Z" fill="black"/>
<path d="M424.724 290.157C424.395 290.192 424.065 290.094 423.807 289.886C423.55 289.677 423.386 289.375 423.351 289.045C423.316 288.715 423.414 288.385 423.623 288.128C423.831 287.87 424.134 287.706 424.463 287.671L440.509 284.266C440.672 284.228 440.841 284.222 441.007 284.249C441.172 284.276 441.331 284.335 441.473 284.424C441.616 284.512 441.74 284.627 441.837 284.763C441.935 284.9 442.006 285.054 442.044 285.217C442.082 285.38 442.088 285.549 442.061 285.715C442.034 285.88 441.975 286.039 441.886 286.181C441.798 286.324 441.683 286.448 441.546 286.545C441.41 286.643 441.256 286.713 441.093 286.752L424.936 290.132L424.724 290.157Z" fill="#FFC700"/>
<path d="M413.116 299.877C412.786 299.911 412.456 299.814 412.199 299.605C411.941 299.396 411.777 299.094 411.742 298.764C411.708 298.435 411.806 298.105 412.014 297.847C412.223 297.59 412.525 297.426 412.855 297.391L442.013 291.177C442.324 291.133 442.639 291.209 442.897 291.388C443.154 291.568 443.334 291.839 443.4 292.146C443.466 292.453 443.414 292.773 443.253 293.043C443.093 293.313 442.836 293.512 442.535 293.6L413.377 299.815C413.293 299.848 413.205 299.869 413.116 299.877Z" fill="black"/>
<path d="M413.116 299.877C412.786 299.911 412.456 299.814 412.199 299.605C411.941 299.396 411.777 299.094 411.742 298.764C411.708 298.435 411.806 298.105 412.014 297.847C412.223 297.59 412.525 297.426 412.855 297.391L442.013 291.177C442.324 291.133 442.639 291.209 442.897 291.388C443.154 291.568 443.334 291.839 443.4 292.146C443.466 292.453 443.414 292.773 443.253 293.043C443.093 293.313 442.836 293.512 442.535 293.6L413.377 299.815C413.293 299.848 413.205 299.869 413.116 299.877Z" fill="black"/>
<path d="M413.116 299.877C412.786 299.911 412.456 299.814 412.199 299.605C411.941 299.396 411.777 299.094 411.742 298.764C411.708 298.435 411.806 298.105 412.014 297.847C412.223 297.59 412.525 297.426 412.855 297.391L442.013 291.177C442.324 291.133 442.639 291.209 442.897 291.388C443.154 291.568 443.334 291.839 443.4 292.146C443.466 292.453 443.414 292.773 443.253 293.043C443.093 293.313 442.836 293.512 442.535 293.6L413.377 299.815C413.293 299.848 413.205 299.869 413.116 299.877Z" fill="#FFC700"/>
<path d="M420.822 338.605C420.56 338.604 420.305 338.521 420.093 338.367C419.881 338.213 419.723 337.996 419.642 337.747L414.881 323.28C414.829 323.125 414.807 322.961 414.818 322.798C414.829 322.634 414.872 322.475 414.945 322.328C415.018 322.181 415.119 322.05 415.242 321.943C415.366 321.835 415.509 321.753 415.664 321.701C415.82 321.649 415.985 321.628 416.149 321.64C416.313 321.652 416.473 321.696 416.62 321.77C416.766 321.844 416.897 321.946 417.004 322.071C417.111 322.196 417.192 322.341 417.243 322.497L422.003 336.976C422.106 337.288 422.081 337.627 421.934 337.921C421.787 338.214 421.531 338.437 421.22 338.542C421.091 338.581 420.957 338.602 420.822 338.605Z" fill="black"/>
<path d="M420.822 338.605C420.56 338.604 420.305 338.521 420.093 338.367C419.881 338.213 419.723 337.996 419.642 337.747L414.881 323.28C414.829 323.125 414.807 322.961 414.818 322.798C414.829 322.634 414.872 322.475 414.945 322.328C415.018 322.181 415.119 322.05 415.242 321.943C415.366 321.835 415.509 321.753 415.664 321.701C415.82 321.649 415.985 321.628 416.149 321.64C416.313 321.652 416.473 321.696 416.62 321.77C416.766 321.844 416.897 321.946 417.004 322.071C417.111 322.196 417.192 322.341 417.243 322.497L422.003 336.976C422.106 337.288 422.081 337.627 421.934 337.921C421.787 338.214 421.531 338.437 421.22 338.542C421.091 338.581 420.957 338.602 420.822 338.605Z" fill="black"/>
<path d="M420.822 338.605C420.56 338.604 420.305 338.521 420.093 338.367C419.881 338.213 419.723 337.996 419.642 337.747L414.881 323.28C414.829 323.125 414.807 322.961 414.818 322.798C414.829 322.634 414.872 322.475 414.945 322.328C415.018 322.181 415.119 322.05 415.242 321.943C415.366 321.835 415.509 321.753 415.664 321.701C415.82 321.649 415.985 321.628 416.149 321.64C416.313 321.652 416.473 321.696 416.62 321.77C416.766 321.844 416.897 321.946 417.004 322.071C417.111 322.196 417.192 322.341 417.243 322.497L422.003 336.976C422.106 337.288 422.081 337.627 421.934 337.921C421.787 338.214 421.531 338.437 421.22 338.542C421.091 338.581 420.957 338.602 420.822 338.605Z" fill="#FFC700"/>
<path d="M460.57 310.889C460.28 310.895 459.998 310.801 459.771 310.621C459.545 310.442 459.387 310.189 459.327 309.907C459.26 309.587 459.322 309.254 459.498 308.98C459.675 308.706 459.953 308.512 460.271 308.44L472.812 305.743C473.141 305.674 473.485 305.739 473.767 305.923C474.049 306.107 474.246 306.395 474.316 306.725C474.385 307.055 474.32 307.398 474.136 307.68C473.952 307.962 473.663 308.16 473.334 308.229L460.793 310.914C460.718 310.914 460.643 310.906 460.57 310.889Z" fill="black"/>
<path d="M460.57 310.889C460.28 310.895 459.998 310.801 459.771 310.621C459.545 310.442 459.387 310.189 459.327 309.907C459.26 309.587 459.322 309.254 459.498 308.98C459.675 308.706 459.953 308.512 460.271 308.44L472.812 305.743C473.141 305.674 473.485 305.739 473.767 305.923C474.049 306.107 474.246 306.395 474.316 306.725C474.385 307.055 474.32 307.398 474.136 307.68C473.952 307.962 473.663 308.16 473.334 308.229L460.793 310.914C460.718 310.914 460.643 310.906 460.57 310.889Z" fill="black"/>
<path d="M460.57 310.889C460.28 310.895 459.998 310.801 459.771 310.621C459.545 310.442 459.387 310.189 459.327 309.907C459.26 309.587 459.322 309.254 459.498 308.98C459.675 308.706 459.953 308.512 460.271 308.44L472.812 305.743C473.141 305.674 473.485 305.739 473.767 305.923C474.049 306.107 474.246 306.395 474.316 306.725C474.385 307.055 474.32 307.398 474.136 307.68C473.952 307.962 473.663 308.16 473.334 308.229L460.793 310.914C460.718 310.914 460.643 310.906 460.57 310.889Z" fill="#FFC700"/>
<path d="M438.048 349.43C437.786 349.43 437.531 349.347 437.319 349.193C437.107 349.039 436.949 348.822 436.867 348.572L426.278 316.419C426.226 316.264 426.204 316.1 426.215 315.937C426.226 315.774 426.269 315.614 426.342 315.467C426.414 315.321 426.515 315.19 426.639 315.082C426.762 314.975 426.906 314.893 427.061 314.841C427.217 314.789 427.382 314.768 427.546 314.779C427.71 314.791 427.87 314.835 428.016 314.909C428.163 314.983 428.294 315.085 428.401 315.21C428.508 315.335 428.589 315.48 428.64 315.636L439.229 347.789C439.281 347.945 439.302 348.11 439.29 348.274C439.279 348.438 439.235 348.598 439.161 348.745C439.087 348.891 438.984 349.022 438.86 349.129C438.735 349.236 438.59 349.317 438.433 349.368C438.309 349.407 438.179 349.427 438.048 349.43Z" fill="black"/>
<path d="M438.048 349.43C437.786 349.43 437.531 349.347 437.319 349.193C437.107 349.039 436.949 348.822 436.867 348.572L426.278 316.419C426.226 316.264 426.204 316.1 426.215 315.937C426.226 315.774 426.269 315.614 426.342 315.467C426.414 315.321 426.515 315.19 426.639 315.082C426.762 314.975 426.906 314.893 427.061 314.841C427.217 314.789 427.382 314.768 427.546 314.779C427.71 314.791 427.87 314.835 428.016 314.909C428.163 314.983 428.294 315.085 428.401 315.21C428.508 315.335 428.589 315.48 428.64 315.636L439.229 347.789C439.281 347.945 439.302 348.11 439.29 348.274C439.279 348.438 439.235 348.598 439.161 348.745C439.087 348.891 438.984 349.022 438.86 349.129C438.735 349.236 438.59 349.317 438.433 349.368C438.309 349.407 438.179 349.427 438.048 349.43Z" fill="black"/>
<path d="M438.048 349.43C437.786 349.43 437.531 349.347 437.319 349.193C437.107 349.039 436.949 348.822 436.867 348.572L426.278 316.419C426.226 316.264 426.204 316.1 426.215 315.937C426.226 315.774 426.269 315.614 426.342 315.467C426.414 315.321 426.515 315.19 426.639 315.082C426.762 314.975 426.906 314.893 427.061 314.841C427.217 314.789 427.382 314.768 427.546 314.779C427.71 314.791 427.87 314.835 428.016 314.909C428.163 314.983 428.294 315.085 428.401 315.21C428.508 315.335 428.589 315.48 428.64 315.636L439.229 347.789C439.281 347.945 439.302 348.11 439.29 348.274C439.279 348.438 439.235 348.598 439.161 348.745C439.087 348.891 438.984 349.022 438.86 349.129C438.735 349.236 438.59 349.317 438.433 349.368C438.309 349.407 438.179 349.427 438.048 349.43Z" fill="#FFC700"/>
<path d="M455.299 320.658C454.97 320.692 454.64 320.594 454.382 320.386C454.125 320.177 453.961 319.875 453.926 319.545C453.891 319.216 453.989 318.886 454.198 318.628C454.406 318.371 454.709 318.206 455.038 318.172L486.582 311.411C486.746 311.363 486.918 311.349 487.088 311.37C487.257 311.392 487.421 311.448 487.567 311.535C487.714 311.623 487.841 311.74 487.941 311.878C488.041 312.017 488.111 312.175 488.147 312.342C488.183 312.509 488.184 312.681 488.15 312.849C488.116 313.016 488.048 313.175 487.951 313.315C487.853 313.455 487.727 313.574 487.582 313.663C487.436 313.752 487.273 313.811 487.104 313.834L455.56 320.595L455.299 320.658Z" fill="black"/>
<path d="M455.299 320.658C454.97 320.692 454.64 320.594 454.382 320.386C454.125 320.177 453.961 319.875 453.926 319.545C453.891 319.216 453.989 318.886 454.198 318.628C454.406 318.371 454.709 318.206 455.038 318.172L486.582 311.411C486.746 311.363 486.918 311.349 487.088 311.37C487.257 311.392 487.421 311.448 487.567 311.535C487.714 311.623 487.841 311.74 487.941 311.878C488.041 312.017 488.111 312.175 488.147 312.342C488.183 312.509 488.184 312.681 488.15 312.849C488.116 313.016 488.048 313.175 487.951 313.315C487.853 313.455 487.727 313.574 487.582 313.663C487.436 313.752 487.273 313.811 487.104 313.834L455.56 320.595L455.299 320.658Z" fill="black"/>
<path d="M455.299 320.658C454.97 320.692 454.64 320.594 454.382 320.386C454.125 320.177 453.961 319.875 453.926 319.545C453.891 319.216 453.989 318.886 454.198 318.628C454.406 318.371 454.709 318.206 455.038 318.172L486.582 311.411C486.746 311.363 486.918 311.349 487.088 311.37C487.257 311.392 487.421 311.448 487.567 311.535C487.714 311.623 487.841 311.74 487.941 311.878C488.041 312.017 488.111 312.175 488.147 312.342C488.183 312.509 488.184 312.681 488.15 312.849C488.116 313.016 488.048 313.175 487.951 313.315C487.853 313.455 487.727 313.574 487.582 313.663C487.436 313.752 487.273 313.811 487.104 313.834L455.56 320.595L455.299 320.658Z" fill="#FFC700"/>
<path d="M447.842 354.588C447.58 354.587 447.325 354.504 447.113 354.35C446.901 354.196 446.743 353.979 446.662 353.73L441.392 337.709C441.303 337.4 441.339 337.069 441.489 336.785C441.64 336.501 441.896 336.287 442.201 336.187C442.507 336.087 442.84 336.11 443.129 336.25C443.418 336.39 443.642 336.637 443.753 336.939L449.023 352.922C449.125 353.235 449.098 353.576 448.949 353.87C448.8 354.163 448.541 354.386 448.227 354.488C448.104 354.54 447.975 354.573 447.842 354.588Z" fill="black"/>
<path d="M447.842 354.588C447.58 354.587 447.325 354.504 447.113 354.35C446.901 354.196 446.743 353.979 446.662 353.73L441.392 337.709C441.303 337.4 441.339 337.069 441.489 336.785C441.64 336.501 441.896 336.287 442.201 336.187C442.507 336.087 442.84 336.11 443.129 336.25C443.418 336.39 443.642 336.637 443.753 336.939L449.023 352.922C449.125 353.235 449.098 353.576 448.949 353.87C448.8 354.163 448.541 354.386 448.227 354.488C448.104 354.54 447.975 354.573 447.842 354.588Z" fill="black"/>
<path d="M447.842 354.588C447.58 354.587 447.325 354.504 447.113 354.35C446.901 354.196 446.743 353.979 446.662 353.73L441.392 337.709C441.303 337.4 441.339 337.069 441.489 336.785C441.64 336.501 441.896 336.287 442.201 336.187C442.507 336.087 442.84 336.11 443.129 336.25C443.418 336.39 443.642 336.637 443.753 336.939L449.023 352.922C449.125 353.235 449.098 353.576 448.949 353.87C448.8 354.163 448.541 354.386 448.227 354.488C448.104 354.54 447.975 354.573 447.842 354.588Z" fill="#FFC700"/>
<path d="M414.608 307.234C413.844 307.236 413.093 307.035 412.433 306.65L314.246 249.988C313.275 249.397 312.575 248.45 312.294 247.349C312.013 246.248 312.173 245.081 312.741 244.097C313.31 243.113 314.24 242.39 315.334 242.084C316.429 241.777 317.599 241.911 318.596 242.456L416.783 299.118C417.611 299.598 418.259 300.337 418.625 301.221C418.991 302.105 419.055 303.086 418.807 304.01C418.559 304.935 418.014 305.752 417.254 306.335C416.495 306.918 415.565 307.234 414.608 307.234Z" fill="#263238"/>
</svg>
