<svg width="678" height="506" viewBox="0 0 678 506" fill="none" xmlns="http://www.w3.org/2000/svg">
<path d="M678 443.954H0V444.293H678V443.954Z" fill="#EBEBEB"/>
<path d="M610.064 465.772H565.154V466.111H610.064V465.772Z" fill="#EBEBEB"/>
<path d="M449.134 469.461H437.351V469.8H449.134V469.461Z" fill="#EBEBEB"/>
<path d="M563.798 453.188H537.776V453.527H563.798V453.188Z" fill="#EBEBEB"/>
<path d="M129.702 455.467H71.1359V455.806H129.702V455.467Z" fill="#EBEBEB"/>
<path d="M150.367 455.467H141.783V455.806H150.367V455.467Z" fill="#EBEBEB"/>
<path d="M305.303 461.189H178.273V461.528H305.303V461.189Z" fill="#EBEBEB"/>
<path d="M321.372 383.477H59.542C57.4908 383.473 55.5249 382.656 54.0758 381.204C52.6267 379.753 51.8128 377.785 51.8128 375.734V7.67496C51.8306 5.63557 52.6524 3.68558 54.0996 2.24854C55.5468 0.811509 57.5025 0.00349358 59.542 0H321.372C323.426 0 325.395 0.815753 326.847 2.2678C328.299 3.71985 329.115 5.68925 329.115 7.74276V375.734C329.115 377.788 328.299 379.757 326.847 381.209C325.395 382.661 323.426 383.477 321.372 383.477ZM59.542 0.271201C57.5807 0.274793 55.701 1.05641 54.3155 2.4445C52.9299 3.83258 52.1518 5.71371 52.1518 7.67496V375.734C52.1518 377.695 52.9299 379.576 54.3155 380.964C55.701 382.353 57.5807 383.134 59.542 383.138H321.372C323.335 383.134 325.216 382.353 326.603 380.965C327.991 379.578 328.772 377.697 328.776 375.734V7.67496C328.772 5.71246 327.991 3.83137 326.603 2.44367C325.216 1.05597 323.335 0.274786 321.372 0.271201H59.542Z" fill="#EBEBEB"/>
<path d="M614.688 383.477H352.845C350.792 383.473 348.825 382.656 347.374 381.205C345.922 379.754 345.106 377.786 345.102 375.734V7.67496C345.123 5.63433 345.948 3.68436 347.397 2.2477C348.847 0.811035 350.804 0.00345548 352.845 0H614.688C616.725 0.0070573 618.678 0.81665 620.122 2.2533C621.566 3.68996 622.386 5.63791 622.404 7.67496V375.734C622.404 377.783 621.592 379.748 620.146 381.199C618.7 382.651 616.737 383.47 614.688 383.477ZM352.845 0.271201C350.882 0.274786 349.001 1.05597 347.613 2.44367C346.226 3.83137 345.445 5.71246 345.441 7.67496V375.734C345.445 377.697 346.226 379.578 347.613 380.965C349.001 382.353 350.882 383.134 352.845 383.138H614.688C616.651 383.134 618.532 382.353 619.92 380.965C621.307 379.578 622.088 377.697 622.092 375.734V7.67496C622.088 5.71246 621.307 3.83137 619.92 2.44367C618.532 1.05597 616.651 0.274786 614.688 0.271201H352.845Z" fill="#EBEBEB"/>
<path d="M599.162 442.232V375.354H568.299V313.344H563.947V348.899H552.068V339.068H530.711V305.032H526.752V263.43H523.579V304.273H516.066V364.777H501.815V304.273H476.105V355.434H449.107V293.425H444.754V328.965H432.876V319.134H411.519V285.099H407.559V243.51H404.386V284.353H396.874V344.844H382.636V284.353H356.913V342.878H339.569V308.842H335.61V267.24H332.45V308.083H324.925V368.588H310.687V308.083H284.963V368.588H272.298V375.354H250.128V313.344H245.775V348.899H233.896V339.068H212.539V305.032H208.58V263.43H205.407V304.273H198.518V300.869H172.795V304.273H158.543V300.869H151.031V260.026H147.872V301.628H143.912V335.65H122.542V345.481H110.677V309.941H106.324V371.951H75.4613V442.232H599.162Z" fill="#EBEBEB"/>
<path d="M201.409 131.074C220.637 123.109 229.768 101.066 221.803 81.838C213.839 62.6103 191.796 53.4796 172.568 61.444C153.34 69.4084 144.21 91.4519 152.174 110.68C160.138 129.907 182.182 139.038 201.409 131.074Z" fill="#FAFAFA"/>
<path d="M167.452 95.8418C167.45 94.821 167.21 93.8147 166.751 92.9029C166.292 91.9912 165.627 91.199 164.808 90.5895C163.989 89.98 163.039 89.5699 162.034 89.3918C161.029 89.2136 159.996 89.2725 159.018 89.5635C159.311 87.5927 159.175 85.5819 158.619 83.6686C158.063 81.7552 157.101 79.9843 155.798 78.4768C154.496 76.9693 152.883 75.7608 151.07 74.9338C149.257 74.1067 147.288 73.6807 145.295 73.6848C144.44 73.6833 143.586 73.7651 142.746 73.9288C141.382 71.6834 139.326 69.9416 136.887 68.9658C134.448 67.9899 131.758 67.8328 129.222 68.5181C126.686 69.2034 124.441 70.6939 122.825 72.7654C121.21 74.8368 120.311 77.3771 120.263 80.0037H120.06C117.097 80.0037 114.255 81.1809 112.159 83.2763C110.064 85.3718 108.887 88.2138 108.887 91.1772C108.887 94.1405 110.064 96.9825 112.159 99.078C114.255 101.173 117.097 102.351 120.06 102.351H161.079C162.779 102.308 164.396 101.605 165.586 100.389C166.776 99.1741 167.446 97.5427 167.452 95.8418Z" fill="#F0F0F0"/>
<path d="M580.07 186.599C580.068 185.578 579.828 184.572 579.369 183.66C578.91 182.748 578.244 181.956 577.426 181.347C576.607 180.737 575.657 180.327 574.652 180.149C573.647 179.971 572.614 180.03 571.635 180.321C571.928 178.35 571.792 176.339 571.236 174.426C570.681 172.512 569.719 170.742 568.416 169.234C567.113 167.727 565.5 166.518 563.688 165.691C561.875 164.864 559.905 164.438 557.913 164.442C557.053 164.443 556.196 164.52 555.35 164.673C553.973 162.439 551.909 160.712 549.468 159.751C547.026 158.791 544.339 158.648 541.809 159.345C539.28 160.042 537.045 161.541 535.44 163.617C533.835 165.692 532.946 168.232 532.908 170.856H532.705C529.741 170.856 526.899 172.033 524.804 174.129C522.708 176.224 521.531 179.066 521.531 182.029C521.531 184.993 522.708 187.835 524.804 189.93C526.899 192.026 529.741 193.203 532.705 193.203H573.724C575.436 193.153 577.06 192.433 578.247 191.198C579.434 189.963 580.088 188.312 580.07 186.599Z" fill="#F0F0F0"/>
<path d="M386.067 87.1227C386.06 85.5048 386.434 83.908 387.158 82.4608C387.881 81.0136 388.934 79.7566 390.232 78.7909C391.531 77.8252 393.037 77.1779 394.631 76.901C396.225 76.6241 397.862 76.7254 399.41 77.1968C399.258 76.1414 399.181 75.0765 399.18 74.0102C399.175 70.7855 399.883 67.5996 401.252 64.6798C402.621 61.76 404.617 59.1784 407.099 57.119C409.58 55.0597 412.486 53.5735 415.608 52.7664C418.73 51.9592 421.992 51.8512 425.16 52.4498C427.32 48.8886 430.58 46.1273 434.447 44.5833C438.315 43.0392 442.581 42.7965 446.599 43.8918C450.617 44.987 454.169 47.3607 456.718 50.654C459.267 53.9472 460.675 57.9809 460.728 62.1452H461.04C465.728 62.1452 470.224 64.0074 473.539 67.3222C476.853 70.637 478.716 75.1328 478.716 79.8207C478.716 84.5085 476.853 89.0043 473.539 92.3191C470.224 95.6339 465.728 97.4961 461.04 97.4961H396.142C393.442 97.4219 390.877 96.2959 388.995 94.3581C387.113 92.4203 386.062 89.824 386.067 87.1227Z" fill="#F0F0F0"/>
<path d="M194.559 199.969C194.557 198.024 195.01 196.106 195.882 194.367C196.754 192.629 198.021 191.118 199.581 189.957C201.142 188.796 202.952 188.017 204.868 187.681C206.784 187.345 208.752 187.462 210.614 188.023C210.423 186.757 210.328 185.479 210.329 184.199C210.329 177.193 213.112 170.474 218.066 165.521C223.02 160.567 229.738 157.784 236.744 157.784C238.372 157.788 239.997 157.938 241.598 158.231C244.186 153.926 248.109 150.584 252.77 148.713C257.431 146.843 262.576 146.545 267.422 147.867C272.267 149.189 276.549 152.057 279.615 156.035C282.681 160.013 284.364 164.884 284.407 169.906H284.76C287.598 169.835 290.422 170.332 293.065 171.369C295.708 172.405 298.117 173.96 300.15 175.942C302.183 177.925 303.798 180.293 304.901 182.91C306.004 185.526 306.573 188.336 306.573 191.175C306.573 194.015 306.004 196.825 304.901 199.441C303.798 202.057 302.183 204.426 300.15 206.408C298.117 208.39 295.708 209.945 293.065 210.982C290.422 212.019 287.598 212.516 284.76 212.444H206.654C203.411 212.349 200.332 210.992 198.074 208.662C195.815 206.333 194.554 203.214 194.559 199.969Z" fill="#F0F0F0"/>
<path d="M249.64 115.463C249.64 114.385 249.211 113.35 248.448 112.587C247.685 111.824 246.65 111.395 245.572 111.395C245.176 111.391 244.782 111.451 244.405 111.572C244.464 111.154 244.496 110.733 244.5 110.311C244.5 108.023 243.592 105.83 241.974 104.212C240.357 102.595 238.163 101.686 235.876 101.686C235.344 101.688 234.813 101.738 234.29 101.836C233.44 100.438 232.158 99.3546 230.639 98.7491C229.119 98.1436 227.444 98.0488 225.865 98.479C224.287 98.9091 222.891 99.8409 221.889 101.134C220.887 102.427 220.332 104.01 220.309 105.646H220.187C218.346 105.646 216.58 106.377 215.278 107.679C213.976 108.981 213.244 110.747 213.244 112.589C213.244 114.43 213.976 116.196 215.278 117.498C216.58 118.8 218.346 119.531 220.187 119.531H245.694C246.751 119.5 247.755 119.057 248.491 118.298C249.228 117.538 249.64 116.522 249.64 115.463Z" fill="#F0F0F0"/>
<path d="M101.32 239.13C101.32 238.052 101.749 237.017 102.512 236.254C103.275 235.491 104.31 235.062 105.388 235.062C105.787 235.061 106.184 235.116 106.568 235.225C106.502 234.813 106.47 234.395 106.473 233.978C106.473 232.845 106.696 231.724 107.13 230.677C107.563 229.631 108.198 228.68 108.999 227.879C109.8 227.079 110.751 226.443 111.797 226.01C112.843 225.577 113.965 225.353 115.097 225.353C115.63 225.355 116.161 225.405 116.684 225.503C117.534 224.105 118.815 223.022 120.335 222.416C121.855 221.811 123.53 221.716 125.108 222.146C126.687 222.576 128.082 223.508 129.084 224.801C130.087 226.094 130.641 227.677 130.664 229.313H130.786C132.628 229.313 134.394 230.044 135.696 231.346C136.998 232.648 137.729 234.414 137.729 236.256C137.729 238.097 136.998 239.863 135.696 241.165C134.394 242.467 132.628 243.198 130.786 243.198H105.28C104.22 243.17 103.213 242.729 102.473 241.969C101.734 241.209 101.32 240.191 101.32 239.13Z" fill="#F0F0F0"/>
<path d="M483.021 252.419C483.021 251.34 483.449 250.306 484.212 249.543C484.975 248.78 486.01 248.351 487.089 248.351C487.488 248.35 487.885 248.405 488.268 248.514C488.202 248.101 488.17 247.684 488.174 247.266C488.174 244.979 489.082 242.786 490.7 241.168C492.317 239.551 494.51 238.642 496.798 238.642C497.33 238.644 497.861 238.694 498.384 238.791C499.234 237.394 500.516 236.31 502.035 235.705C503.555 235.099 505.23 235.005 506.809 235.435C508.387 235.865 509.782 236.797 510.785 238.09C511.787 239.382 512.341 240.966 512.365 242.602H512.487C514.328 242.602 516.094 243.333 517.396 244.635C518.698 245.937 519.429 247.703 519.429 249.545C519.429 251.386 518.698 253.152 517.396 254.454C516.094 255.756 514.328 256.487 512.487 256.487H486.98C485.92 256.459 484.913 256.018 484.174 255.258C483.434 254.498 483.02 253.48 483.021 252.419Z" fill="#F0F0F0"/>
<path d="M339 505.191C484.204 505.191 601.915 498.319 601.915 489.841C601.915 481.364 484.204 474.491 339 474.491C193.796 474.491 76.0851 481.364 76.0851 489.841C76.0851 498.319 193.796 505.191 339 505.191Z" fill="#F5F5F5"/>
<path d="M527.213 89.5367L469.244 177.799L466.695 181.69L461.65 184.023L282.224 267.403L299.947 328.138L304.002 342.024L289.953 353.631L168.903 471.264H68.7356L249.843 320.857L238.873 261.138L235.89 244.88L249.911 238.425L441.134 150.38L503.415 73.3325L486.709 70.0238L539.227 48.2329L536.529 105.036L527.213 89.5367Z" fill="#263238"/>
<path opacity="0.6" d="M527.213 89.5367L469.244 177.799L466.695 181.69L461.65 184.023L282.224 267.403L299.947 328.138L304.002 342.024L289.953 353.631L168.903 471.264H68.7356L249.843 320.857L238.873 261.138L235.89 244.88L249.911 238.425L441.134 150.38L503.415 73.3325L486.709 70.0238L539.227 48.2329L536.529 105.036L527.213 89.5367Z" fill="#FAFAFA"/>
<path d="M496.907 465.773H400.902C399.958 465.773 399.193 466.538 399.193 467.481V489.367C399.193 490.311 399.958 491.076 400.902 491.076H496.907C497.85 491.076 498.615 490.311 498.615 489.367V467.481C498.615 466.538 497.85 465.773 496.907 465.773Z" fill="black"/>
<path d="M496.907 465.773H400.902C399.958 465.773 399.193 466.538 399.193 467.481V489.367C399.193 490.311 399.958 491.076 400.902 491.076H496.907C497.85 491.076 498.615 490.311 498.615 489.367V467.481C498.615 466.538 497.85 465.773 496.907 465.773Z" fill="black"/>
<path d="M496.907 465.773H400.902C399.958 465.773 399.193 466.538 399.193 467.481V489.367C399.193 490.311 399.958 491.076 400.902 491.076H496.907C497.85 491.076 498.615 490.311 498.615 489.367V467.481C498.615 466.538 497.85 465.773 496.907 465.773Z" fill="#FFC700"/>
<path opacity="0.2" d="M407.573 467.237H403.641V489.842H407.573V467.237Z" fill="black"/>
<path opacity="0.2" d="M416.509 467.129H413.648V489.733H416.509V467.129Z" fill="black"/>
<path opacity="0.2" d="M424.74 467.237H423.303V489.842H424.74V467.237Z" fill="black"/>
<path opacity="0.2" d="M435.832 467.129H435.114V489.733H435.832V467.129Z" fill="black"/>
<path opacity="0.2" d="M490.235 489.733H494.167V467.129H490.235V489.733Z" fill="black"/>
<path opacity="0.2" d="M481.299 489.842H484.16V467.237H481.299V489.842Z" fill="black"/>
<path opacity="0.2" d="M473.081 489.733H474.505V467.129H473.081V489.733Z" fill="black"/>
<path opacity="0.2" d="M461.976 489.842H462.695V467.237H461.976V489.842Z" fill="black"/>
<path opacity="0.2" d="M448.728 489.842H449.08V467.237H448.728V489.842Z" fill="black"/>
<path opacity="0.2" d="M495.957 469.624H402.054C401.738 469.624 401.434 469.498 401.21 469.274C400.986 469.051 400.861 468.747 400.861 468.431C400.864 468.115 400.991 467.814 401.214 467.591C401.437 467.368 401.739 467.241 402.054 467.237H495.957C496.273 467.237 496.577 467.363 496.801 467.587C497.025 467.811 497.15 468.114 497.15 468.431C497.152 468.588 497.122 468.744 497.063 468.889C497.004 469.035 496.916 469.167 496.805 469.278C496.694 469.39 496.561 469.477 496.416 469.537C496.27 469.596 496.114 469.626 495.957 469.624Z" fill="white"/>
<path d="M499.619 440.538H403.614C402.67 440.538 401.905 441.303 401.905 442.246V464.132C401.905 465.076 402.67 465.841 403.614 465.841H499.619C500.562 465.841 501.327 465.076 501.327 464.132V442.246C501.327 441.303 500.562 440.538 499.619 440.538Z" fill="black"/>
<path d="M499.619 440.538H403.614C402.67 440.538 401.905 441.303 401.905 442.246V464.132C401.905 465.076 402.67 465.841 403.614 465.841H499.619C500.562 465.841 501.327 465.076 501.327 464.132V442.246C501.327 441.303 500.562 440.538 499.619 440.538Z" fill="black"/>
<path d="M499.619 440.538H403.614C402.67 440.538 401.905 441.303 401.905 442.246V464.132C401.905 465.076 402.67 465.841 403.614 465.841H499.619C500.562 465.841 501.327 465.076 501.327 464.132V442.246C501.327 441.303 500.562 440.538 499.619 440.538Z" fill="#FFC700"/>
<path opacity="0.2" d="M410.285 442.002H406.353V464.607H410.285V442.002Z" fill="black"/>
<path opacity="0.2" d="M419.235 441.894H416.374V464.498H419.235V441.894Z" fill="black"/>
<path opacity="0.2" d="M427.452 442.002H426.028V464.607H427.452V442.002Z" fill="black"/>
<path opacity="0.2" d="M438.544 441.894H437.826V464.498H438.544V441.894Z" fill="black"/>
<path opacity="0.2" d="M492.96 464.485H496.893V441.88H492.96V464.485Z" fill="black"/>
<path opacity="0.2" d="M484.011 464.593H486.872V441.988H484.011V464.593Z" fill="black"/>
<path opacity="0.2" d="M475.78 464.485H477.217V441.88H475.78V464.485Z" fill="black"/>
<path opacity="0.2" d="M464.688 464.593H465.407V441.988H464.688V464.593Z" fill="black"/>
<path opacity="0.2" d="M451.44 464.593H451.792V441.988H451.44V464.593Z" fill="black"/>
<path opacity="0.2" d="M498.669 444.389H404.766C404.451 444.385 404.149 444.258 403.926 444.035C403.703 443.812 403.576 443.511 403.573 443.195C403.573 442.879 403.699 442.575 403.922 442.352C404.146 442.128 404.45 442.002 404.766 442.002H498.669C498.826 442 498.982 442.03 499.128 442.089C499.274 442.149 499.406 442.236 499.517 442.347C499.628 442.459 499.716 442.591 499.775 442.737C499.835 442.882 499.864 443.038 499.862 443.195C499.862 443.512 499.737 443.815 499.513 444.039C499.289 444.263 498.986 444.389 498.669 444.389Z" fill="white"/>
<path d="M499.619 415.302H403.614C402.67 415.302 401.905 416.067 401.905 417.011V438.897C401.905 439.841 402.67 440.605 403.614 440.605H499.619C500.562 440.605 501.327 439.841 501.327 438.897V417.011C501.327 416.067 500.562 415.302 499.619 415.302Z" fill="black"/>
<path d="M499.619 415.302H403.614C402.67 415.302 401.905 416.067 401.905 417.011V438.897C401.905 439.841 402.67 440.605 403.614 440.605H499.619C500.562 440.605 501.327 439.841 501.327 438.897V417.011C501.327 416.067 500.562 415.302 499.619 415.302Z" fill="black"/>
<path d="M499.619 415.302H403.614C402.67 415.302 401.905 416.067 401.905 417.011V438.897C401.905 439.841 402.67 440.605 403.614 440.605H499.619C500.562 440.605 501.327 439.841 501.327 438.897V417.011C501.327 416.067 500.562 415.302 499.619 415.302Z" fill="#FFC700"/>
<path opacity="0.2" d="M410.285 416.753H406.353V439.358H410.285V416.753Z" fill="black"/>
<path opacity="0.2" d="M419.235 416.645H416.374V439.249H419.235V416.645Z" fill="black"/>
<path opacity="0.2" d="M427.452 416.753H426.028V439.358H427.452V416.753Z" fill="black"/>
<path opacity="0.2" d="M438.544 416.645H437.826V439.249H438.544V416.645Z" fill="black"/>
<path opacity="0.2" d="M492.96 439.249H496.893V416.645H492.96V439.249Z" fill="black"/>
<path opacity="0.2" d="M484.011 439.358H486.872V416.753H484.011V439.358Z" fill="black"/>
<path opacity="0.2" d="M475.78 439.249H477.217V416.645H475.78V439.249Z" fill="black"/>
<path opacity="0.2" d="M464.688 439.358H465.407V416.753H464.688V439.358Z" fill="black"/>
<path opacity="0.2" d="M451.44 439.358H451.792V416.753H451.44V439.358Z" fill="black"/>
<path opacity="0.2" d="M498.669 419.14H404.766C404.45 419.14 404.146 419.014 403.922 418.79C403.699 418.567 403.573 418.263 403.573 417.947C403.576 417.631 403.703 417.33 403.926 417.107C404.149 416.884 404.451 416.757 404.766 416.753H498.669C498.986 416.753 499.289 416.879 499.513 417.103C499.737 417.327 499.862 417.63 499.862 417.947C499.864 418.104 499.835 418.26 499.775 418.406C499.716 418.551 499.628 418.683 499.517 418.795C499.406 418.906 499.274 418.994 499.128 419.053C498.982 419.112 498.826 419.142 498.669 419.14Z" fill="white"/>
<path d="M496.907 390.054H400.902C399.958 390.054 399.193 390.819 399.193 391.762V413.648C399.193 414.592 399.958 415.357 400.902 415.357H496.907C497.85 415.357 498.615 414.592 498.615 413.648V391.762C498.615 390.819 497.85 390.054 496.907 390.054Z" fill="black"/>
<path d="M496.907 390.054H400.902C399.958 390.054 399.193 390.819 399.193 391.762V413.648C399.193 414.592 399.958 415.357 400.902 415.357H496.907C497.85 415.357 498.615 414.592 498.615 413.648V391.762C498.615 390.819 497.85 390.054 496.907 390.054Z" fill="black"/>
<path d="M496.907 390.054H400.902C399.958 390.054 399.193 390.819 399.193 391.762V413.648C399.193 414.592 399.958 415.357 400.902 415.357H496.907C497.85 415.357 498.615 414.592 498.615 413.648V391.762C498.615 390.819 497.85 390.054 496.907 390.054Z" fill="#FFC700"/>
<path opacity="0.2" d="M407.573 391.518H403.641V414.123H407.573V391.518Z" fill="black"/>
<path opacity="0.2" d="M416.509 391.41H413.648V414.014H416.509V391.41Z" fill="black"/>
<path opacity="0.2" d="M424.74 391.518H423.303V414.123H424.74V391.518Z" fill="black"/>
<path opacity="0.2" d="M435.832 391.41H435.114V414.014H435.832V391.41Z" fill="black"/>
<path opacity="0.2" d="M490.235 414.001H494.167V391.396H490.235V414.001Z" fill="black"/>
<path opacity="0.2" d="M481.299 414.109H484.16V391.505H481.299V414.109Z" fill="black"/>
<path opacity="0.2" d="M473.081 414.001H474.505V391.396H473.081V414.001Z" fill="black"/>
<path opacity="0.2" d="M461.976 414.109H462.695V391.505H461.976V414.109Z" fill="black"/>
<path opacity="0.2" d="M448.728 414.109H449.08V391.505H448.728V414.109Z" fill="black"/>
<path opacity="0.2" d="M495.957 393.905H402.054C401.739 393.901 401.437 393.774 401.214 393.551C400.991 393.328 400.864 393.027 400.861 392.711C400.861 392.395 400.986 392.091 401.21 391.868C401.434 391.644 401.738 391.518 402.054 391.518H495.957C496.114 391.516 496.27 391.546 496.416 391.605C496.561 391.665 496.694 391.752 496.805 391.864C496.916 391.975 497.004 392.107 497.063 392.253C497.122 392.398 497.152 392.554 497.15 392.711C497.15 393.028 497.025 393.331 496.801 393.555C496.577 393.779 496.273 393.905 495.957 393.905Z" fill="white"/>
<path d="M492.838 364.819H396.834C395.89 364.819 395.125 365.584 395.125 366.527V388.413C395.125 389.357 395.89 390.122 396.834 390.122H492.838C493.782 390.122 494.547 389.357 494.547 388.413V366.527C494.547 365.584 493.782 364.819 492.838 364.819Z" fill="black"/>
<path d="M492.838 364.819H396.834C395.89 364.819 395.125 365.584 395.125 366.527V388.413C395.125 389.357 395.89 390.122 396.834 390.122H492.838C493.782 390.122 494.547 389.357 494.547 388.413V366.527C494.547 365.584 493.782 364.819 492.838 364.819Z" fill="black"/>
<path d="M492.838 364.819H396.834C395.89 364.819 395.125 365.584 395.125 366.527V388.413C395.125 389.357 395.89 390.122 396.834 390.122H492.838C493.782 390.122 494.547 389.357 494.547 388.413V366.527C494.547 365.584 493.782 364.819 492.838 364.819Z" fill="#FFC700"/>
<path opacity="0.2" d="M403.505 366.27H399.573V388.874H403.505V366.27Z" fill="black"/>
<path opacity="0.2" d="M412.441 366.161H409.58V388.765H412.441V366.161Z" fill="black"/>
<path opacity="0.2" d="M420.659 366.27H419.235V388.874H420.659V366.27Z" fill="black"/>
<path opacity="0.2" d="M431.764 366.161H431.045V388.765H431.764V366.161Z" fill="black"/>
<path opacity="0.2" d="M486.167 388.765H490.099V366.161H486.167V388.765Z" fill="black"/>
<path opacity="0.2" d="M477.217 388.874H480.078V366.269H477.217V388.874Z" fill="black"/>
<path opacity="0.2" d="M469.013 388.765H470.437V366.161H469.013V388.765Z" fill="black"/>
<path opacity="0.2" d="M457.921 388.874H458.64V366.269H457.921V388.874Z" fill="black"/>
<path opacity="0.2" d="M444.66 388.874H445.012V366.269H444.66V388.874Z" fill="black"/>
<path opacity="0.2" d="M491.889 368.656H397.986C397.829 368.658 397.673 368.628 397.527 368.569C397.382 368.51 397.25 368.422 397.138 368.311C397.027 368.199 396.939 368.067 396.88 367.922C396.821 367.776 396.791 367.62 396.793 367.463C396.793 367.146 396.919 366.843 397.142 366.619C397.366 366.395 397.67 366.27 397.986 366.27H491.889C492.206 366.27 492.509 366.395 492.733 366.619C492.957 366.843 493.083 367.146 493.083 367.463C493.084 367.62 493.055 367.776 492.995 367.922C492.936 368.067 492.848 368.199 492.737 368.311C492.626 368.422 492.494 368.51 492.348 368.569C492.202 368.628 492.046 368.658 491.889 368.656Z" fill="white"/>
<path d="M496.907 339.57H400.902C399.958 339.57 399.193 340.335 399.193 341.278V363.164C399.193 364.108 399.958 364.873 400.902 364.873H496.907C497.85 364.873 498.615 364.108 498.615 363.164V341.278C498.615 340.335 497.85 339.57 496.907 339.57Z" fill="black"/>
<path d="M496.907 339.57H400.902C399.958 339.57 399.193 340.335 399.193 341.278V363.164C399.193 364.108 399.958 364.873 400.902 364.873H496.907C497.85 364.873 498.615 364.108 498.615 363.164V341.278C498.615 340.335 497.85 339.57 496.907 339.57Z" fill="black"/>
<path d="M496.907 339.57H400.902C399.958 339.57 399.193 340.335 399.193 341.278V363.164C399.193 364.108 399.958 364.873 400.902 364.873H496.907C497.85 364.873 498.615 364.108 498.615 363.164V341.278C498.615 340.335 497.85 339.57 496.907 339.57Z" fill="#FFC700"/>
<path opacity="0.2" d="M407.573 341.034H403.641V363.639H407.573V341.034Z" fill="black"/>
<path opacity="0.2" d="M416.509 340.926H413.648V363.53H416.509V340.926Z" fill="black"/>
<path opacity="0.2" d="M424.74 341.034H423.303V363.639H424.74V341.034Z" fill="black"/>
<path opacity="0.2" d="M435.832 340.926H435.114V363.53H435.832V340.926Z" fill="black"/>
<path opacity="0.2" d="M490.235 363.517H494.167V340.912H490.235V363.517Z" fill="black"/>
<path opacity="0.2" d="M481.299 363.625H484.16V341.021H481.299V363.625Z" fill="black"/>
<path opacity="0.2" d="M473.081 363.517H474.505V340.912H473.081V363.517Z" fill="black"/>
<path opacity="0.2" d="M461.976 363.625H462.695V341.021H461.976V363.625Z" fill="black"/>
<path opacity="0.2" d="M448.728 363.625H449.08V341.021H448.728V363.625Z" fill="black"/>
<path opacity="0.2" d="M495.957 343.421H402.054C401.738 343.421 401.434 343.295 401.21 343.071C400.986 342.848 400.861 342.544 400.861 342.228C400.861 341.911 400.986 341.608 401.21 341.384C401.434 341.16 401.738 341.034 402.054 341.034H495.957C496.114 341.032 496.27 341.062 496.416 341.121C496.561 341.181 496.694 341.269 496.805 341.38C496.916 341.491 497.004 341.623 497.063 341.769C497.122 341.914 497.152 342.07 497.15 342.228C497.152 342.385 497.122 342.541 497.063 342.686C497.004 342.832 496.916 342.964 496.805 343.075C496.694 343.187 496.561 343.274 496.416 343.334C496.27 343.393 496.114 343.423 495.957 343.421Z" fill="white"/>
<path d="M496.907 314.335H400.902C399.958 314.335 399.193 315.1 399.193 316.043V337.929C399.193 338.873 399.958 339.638 400.902 339.638H496.907C497.85 339.638 498.615 338.873 498.615 337.929V316.043C498.615 315.1 497.85 314.335 496.907 314.335Z" fill="black"/>
<path d="M496.907 314.335H400.902C399.958 314.335 399.193 315.1 399.193 316.043V337.929C399.193 338.873 399.958 339.638 400.902 339.638H496.907C497.85 339.638 498.615 338.873 498.615 337.929V316.043C498.615 315.1 497.85 314.335 496.907 314.335Z" fill="black"/>
<path d="M496.907 314.335H400.902C399.958 314.335 399.193 315.1 399.193 316.043V337.929C399.193 338.873 399.958 339.638 400.902 339.638H496.907C497.85 339.638 498.615 338.873 498.615 337.929V316.043C498.615 315.1 497.85 314.335 496.907 314.335Z" fill="#FFC700"/>
<path opacity="0.2" d="M407.573 315.786H403.641V338.39H407.573V315.786Z" fill="black"/>
<path opacity="0.2" d="M416.509 315.677H413.648V338.282H416.509V315.677Z" fill="black"/>
<path opacity="0.2" d="M424.74 315.786H423.303V338.39H424.74V315.786Z" fill="black"/>
<path opacity="0.2" d="M435.832 315.677H435.114V338.282H435.832V315.677Z" fill="black"/>
<path opacity="0.2" d="M490.235 338.282H494.167V315.677H490.235V338.282Z" fill="black"/>
<path opacity="0.2" d="M481.299 338.39H484.16V315.786H481.299V338.39Z" fill="black"/>
<path opacity="0.2" d="M473.081 338.282H474.505V315.677H473.081V338.282Z" fill="black"/>
<path opacity="0.2" d="M461.976 338.39H462.695V315.786H461.976V338.39Z" fill="black"/>
<path opacity="0.2" d="M448.728 338.39H449.08V315.786H448.728V338.39Z" fill="black"/>
<path opacity="0.2" d="M495.957 318.186H402.054C401.736 318.182 401.433 318.053 401.209 317.828C400.986 317.602 400.861 317.297 400.861 316.979C400.864 316.664 400.991 316.362 401.214 316.139C401.437 315.916 401.739 315.789 402.054 315.786H495.957C496.273 315.786 496.577 315.911 496.801 316.135C497.025 316.359 497.15 316.662 497.15 316.979C497.152 317.137 497.123 317.293 497.063 317.44C497.004 317.586 496.917 317.719 496.806 317.831C496.695 317.944 496.562 318.033 496.417 318.094C496.271 318.154 496.115 318.186 495.957 318.186Z" fill="white"/>
<path d="M500.974 289.086H404.97C404.026 289.086 403.261 289.851 403.261 290.795V312.68C403.261 313.624 404.026 314.389 404.97 314.389H500.974C501.918 314.389 502.683 313.624 502.683 312.68V290.795C502.683 289.851 501.918 289.086 500.974 289.086Z" fill="black"/>
<path d="M500.974 289.086H404.97C404.026 289.086 403.261 289.851 403.261 290.795V312.68C403.261 313.624 404.026 314.389 404.97 314.389H500.974C501.918 314.389 502.683 313.624 502.683 312.68V290.795C502.683 289.851 501.918 289.086 500.974 289.086Z" fill="black"/>
<path d="M500.974 289.086H404.97C404.026 289.086 403.261 289.851 403.261 290.795V312.68C403.261 313.624 404.026 314.389 404.97 314.389H500.974C501.918 314.389 502.683 313.624 502.683 312.68V290.795C502.683 289.851 501.918 289.086 500.974 289.086Z" fill="#FFC700"/>
<path opacity="0.2" d="M411.641 290.55H407.709V313.155H411.641V290.55Z" fill="black"/>
<path opacity="0.2" d="M420.591 290.442H417.73V313.046H420.591V290.442Z" fill="black"/>
<path opacity="0.2" d="M428.822 290.55H427.384V313.155H428.822V290.55Z" fill="black"/>
<path opacity="0.2" d="M439.9 290.442H439.181V313.046H439.9V290.442Z" fill="black"/>
<path opacity="0.2" d="M494.316 313.033H498.249V290.428H494.316V313.033Z" fill="black"/>
<path opacity="0.2" d="M485.367 313.155H488.228V290.55H485.367V313.155Z" fill="black"/>
<path opacity="0.2" d="M477.149 313.033H478.573V290.428H477.149V313.033Z" fill="black"/>
<path opacity="0.2" d="M466.044 313.155H466.762V290.55H466.044V313.155Z" fill="black"/>
<path opacity="0.2" d="M452.809 313.155H453.162V290.55H452.809V313.155Z" fill="black"/>
<path opacity="0.2" d="M500.025 292.896H406.136C405.978 292.898 405.821 292.869 405.675 292.81C405.529 292.75 405.395 292.663 405.283 292.552C405.171 292.441 405.082 292.309 405.021 292.163C404.96 292.017 404.929 291.861 404.929 291.703C404.929 291.545 404.96 291.389 405.021 291.243C405.082 291.098 405.171 290.965 405.283 290.855C405.395 290.744 405.529 290.656 405.675 290.597C405.821 290.538 405.978 290.508 406.136 290.51H500.025C500.183 290.508 500.34 290.538 500.486 290.597C500.632 290.656 500.765 290.744 500.878 290.855C500.99 290.965 501.079 291.098 501.14 291.243C501.201 291.389 501.232 291.545 501.232 291.703C501.232 291.861 501.201 292.017 501.14 292.163C501.079 292.309 500.99 292.441 500.878 292.552C500.765 292.663 500.632 292.75 500.486 292.81C500.34 292.869 500.183 292.898 500.025 292.896Z" fill="white"/>
<path d="M494.194 263.851H398.19C397.246 263.851 396.481 264.616 396.481 265.559V287.445C396.481 288.389 397.246 289.154 398.19 289.154H494.194C495.138 289.154 495.903 288.389 495.903 287.445V265.559C495.903 264.616 495.138 263.851 494.194 263.851Z" fill="black"/>
<path d="M494.194 263.851H398.19C397.246 263.851 396.481 264.616 396.481 265.559V287.445C396.481 288.389 397.246 289.154 398.19 289.154H494.194C495.138 289.154 495.903 288.389 495.903 287.445V265.559C495.903 264.616 495.138 263.851 494.194 263.851Z" fill="black"/>
<path d="M494.194 263.851H398.19C397.246 263.851 396.481 264.616 396.481 265.559V287.445C396.481 288.389 397.246 289.154 398.19 289.154H494.194C495.138 289.154 495.903 288.389 495.903 287.445V265.559C495.903 264.616 495.138 263.851 494.194 263.851Z" fill="#FFC700"/>
<path opacity="0.2" d="M404.861 265.315H400.929V287.92H404.861V265.315Z" fill="black"/>
<path opacity="0.2" d="M413.797 265.193H410.936V287.798H413.797V265.193Z" fill="black"/>
<path opacity="0.2" d="M422.015 265.315H420.591V287.92H422.015V265.315Z" fill="black"/>
<path opacity="0.2" d="M433.12 265.193H432.401V287.798H433.12V265.193Z" fill="black"/>
<path opacity="0.2" d="M487.523 287.798H491.455V265.193H487.523V287.798Z" fill="black"/>
<path opacity="0.2" d="M478.573 287.906H481.434V265.302H478.573V287.906Z" fill="black"/>
<path opacity="0.2" d="M470.369 287.798H471.793V265.193H470.369V287.798Z" fill="black"/>
<path opacity="0.2" d="M459.264 287.906H459.982V265.302H459.264V287.906Z" fill="black"/>
<path opacity="0.2" d="M446.016 287.906H446.368V265.302H446.016V287.906Z" fill="black"/>
<path opacity="0.2" d="M493.245 267.702H399.342C399.027 267.698 398.725 267.571 398.502 267.348C398.279 267.125 398.153 266.824 398.149 266.509C398.149 266.192 398.275 265.889 398.498 265.665C398.722 265.441 399.026 265.315 399.342 265.315H493.245C493.402 265.313 493.558 265.343 493.704 265.402C493.85 265.462 493.982 265.55 494.093 265.661C494.204 265.772 494.292 265.904 494.351 266.05C494.411 266.195 494.44 266.351 494.439 266.509C494.439 266.825 494.313 267.129 494.089 267.352C493.865 267.576 493.562 267.702 493.245 267.702Z" fill="white"/>
<path d="M491.482 238.602H395.477C394.534 238.602 393.769 239.367 393.769 240.311V262.196C393.769 263.14 394.534 263.905 395.477 263.905H491.482C492.426 263.905 493.191 263.14 493.191 262.196V240.311C493.191 239.367 492.426 238.602 491.482 238.602Z" fill="black"/>
<path d="M491.482 238.602H395.477C394.534 238.602 393.769 239.367 393.769 240.311V262.196C393.769 263.14 394.534 263.905 395.477 263.905H491.482C492.426 263.905 493.191 263.14 493.191 262.196V240.311C493.191 239.367 492.426 238.602 491.482 238.602Z" fill="black"/>
<path d="M491.482 238.602H395.477C394.534 238.602 393.769 239.367 393.769 240.311V262.196C393.769 263.14 394.534 263.905 395.477 263.905H491.482C492.426 263.905 493.191 263.14 493.191 262.196V240.311C493.191 239.367 492.426 238.602 491.482 238.602Z" fill="#FFC700"/>
<path opacity="0.2" d="M402.149 240.067H398.217V262.671H402.149V240.067Z" fill="black"/>
<path opacity="0.2" d="M411.085 239.958H408.224V262.563H411.085V239.958Z" fill="black"/>
<path opacity="0.2" d="M419.316 240.067H417.879V262.671H419.316V240.067Z" fill="black"/>
<path opacity="0.2" d="M430.408 239.958H429.689V262.563H430.408V239.958Z" fill="black"/>
<path opacity="0.2" d="M484.811 262.549H488.743V239.945H484.811V262.549Z" fill="black"/>
<path opacity="0.2" d="M475.861 262.671H478.722V240.067H475.861V262.671Z" fill="black"/>
<path opacity="0.2" d="M467.644 262.549H469.068V239.945H467.644V262.549Z" fill="black"/>
<path opacity="0.2" d="M456.565 262.671H457.284V240.067H456.565V262.671Z" fill="black"/>
<path opacity="0.2" d="M443.304 262.671H443.656V240.067H443.304V262.671Z" fill="black"/>
<path opacity="0.2" d="M490.533 242.453H396.63C396.473 242.455 396.317 242.425 396.171 242.366C396.026 242.307 395.894 242.219 395.782 242.108C395.671 241.996 395.583 241.864 395.524 241.719C395.465 241.573 395.435 241.417 395.437 241.26C395.435 241.103 395.465 240.947 395.524 240.801C395.583 240.655 395.671 240.523 395.782 240.412C395.894 240.301 396.026 240.213 396.171 240.154C396.317 240.094 396.473 240.065 396.63 240.066H490.533C490.69 240.065 490.846 240.094 490.992 240.154C491.138 240.213 491.27 240.301 491.381 240.412C491.492 240.523 491.58 240.655 491.639 240.801C491.699 240.947 491.728 241.103 491.727 241.26C491.728 241.417 491.699 241.573 491.639 241.719C491.58 241.864 491.492 241.996 491.381 242.108C491.27 242.219 491.138 242.307 490.992 242.366C490.846 242.425 490.69 242.455 490.533 242.453Z" fill="white"/>
<path d="M374.799 465.773H278.794C277.85 465.773 277.085 466.538 277.085 467.481V489.367C277.085 490.311 277.85 491.076 278.794 491.076H374.799C375.742 491.076 376.507 490.311 376.507 489.367V467.481C376.507 466.538 375.742 465.773 374.799 465.773Z" fill="black"/>
<path d="M374.799 465.773H278.794C277.85 465.773 277.085 466.538 277.085 467.481V489.367C277.085 490.311 277.85 491.076 278.794 491.076H374.799C375.742 491.076 376.507 490.311 376.507 489.367V467.481C376.507 466.538 375.742 465.773 374.799 465.773Z" fill="black"/>
<path d="M374.799 465.773H278.794C277.85 465.773 277.085 466.538 277.085 467.481V489.367C277.085 490.311 277.85 491.076 278.794 491.076H374.799C375.742 491.076 376.507 490.311 376.507 489.367V467.481C376.507 466.538 375.742 465.773 374.799 465.773Z" fill="#FFC700"/>
<path opacity="0.2" d="M285.452 467.237H281.519V489.842H285.452V467.237Z" fill="black"/>
<path opacity="0.2" d="M294.401 467.129H291.54V489.733H294.401V467.129Z" fill="black"/>
<path opacity="0.2" d="M302.619 467.237H301.195V489.842H302.619V467.237Z" fill="black"/>
<path opacity="0.2" d="M313.711 467.129H312.992V489.733H313.711V467.129Z" fill="black"/>
<path opacity="0.2" d="M368.127 489.733H372.059V467.129H368.127V489.733Z" fill="black"/>
<path opacity="0.2" d="M359.178 489.842H362.039V467.237H359.178V489.842Z" fill="black"/>
<path opacity="0.2" d="M350.96 489.733H352.384V467.129H350.96V489.733Z" fill="black"/>
<path opacity="0.2" d="M339.868 489.842H340.587V467.237H339.868V489.842Z" fill="black"/>
<path opacity="0.2" d="M326.62 489.842H326.973V467.237H326.62V489.842Z" fill="black"/>
<path opacity="0.2" d="M373.849 469.624H279.946C279.789 469.626 279.633 469.596 279.487 469.537C279.342 469.477 279.21 469.39 279.098 469.278C278.987 469.167 278.899 469.035 278.84 468.889C278.781 468.744 278.751 468.588 278.753 468.431C278.753 468.114 278.879 467.811 279.102 467.587C279.326 467.363 279.63 467.237 279.946 467.237H373.849C374.165 467.241 374.466 467.368 374.689 467.591C374.912 467.814 375.039 468.115 375.043 468.431C375.043 468.747 374.917 469.051 374.693 469.274C374.469 469.498 374.166 469.624 373.849 469.624Z" fill="white"/>
<path d="M370.717 440.538H274.712C273.769 440.538 273.004 441.303 273.004 442.246V464.132C273.004 465.076 273.769 465.841 274.712 465.841H370.717C371.661 465.841 372.426 465.076 372.426 464.132V442.246C372.426 441.303 371.661 440.538 370.717 440.538Z" fill="black"/>
<path d="M370.717 440.538H274.712C273.769 440.538 273.004 441.303 273.004 442.246V464.132C273.004 465.076 273.769 465.841 274.712 465.841H370.717C371.661 465.841 372.426 465.076 372.426 464.132V442.246C372.426 441.303 371.661 440.538 370.717 440.538Z" fill="black"/>
<path d="M370.717 440.538H274.712C273.769 440.538 273.004 441.303 273.004 442.246V464.132C273.004 465.076 273.769 465.841 274.712 465.841H370.717C371.661 465.841 372.426 465.076 372.426 464.132V442.246C372.426 441.303 371.661 440.538 370.717 440.538Z" fill="#FFC700"/>
<path opacity="0.2" d="M281.384 442.002H277.452V464.607H281.384V442.002Z" fill="black"/>
<path opacity="0.2" d="M290.333 441.894H287.472V464.498H290.333V441.894Z" fill="black"/>
<path opacity="0.2" d="M298.551 442.002H297.127V464.607H298.551V442.002Z" fill="black"/>
<path opacity="0.2" d="M309.643 441.894H308.924V464.498H309.643V441.894Z" fill="black"/>
<path opacity="0.2" d="M364.059 464.485H367.992V441.88H364.059V464.485Z" fill="black"/>
<path opacity="0.2" d="M355.109 464.593H357.971V441.988H355.109V464.593Z" fill="black"/>
<path opacity="0.2" d="M346.892 464.485H348.316V441.88H346.892V464.485Z" fill="black"/>
<path opacity="0.2" d="M335.786 464.593H336.505V441.988H335.786V464.593Z" fill="black"/>
<path opacity="0.2" d="M322.538 464.593H322.891V441.988H322.538V464.593Z" fill="black"/>
<path opacity="0.2" d="M369.768 444.389H275.865C275.549 444.385 275.248 444.258 275.025 444.035C274.802 443.812 274.675 443.511 274.671 443.195C274.671 442.879 274.797 442.575 275.021 442.352C275.245 442.128 275.548 442.002 275.865 442.002H369.768C369.925 442 370.081 442.03 370.226 442.089C370.372 442.149 370.504 442.236 370.616 442.347C370.727 442.459 370.814 442.591 370.874 442.737C370.933 442.882 370.963 443.038 370.961 443.195C370.961 443.512 370.835 443.815 370.611 444.039C370.388 444.263 370.084 444.389 369.768 444.389Z" fill="white"/>
<path d="M374.799 415.302H278.794C277.85 415.302 277.085 416.067 277.085 417.011V438.897C277.085 439.841 277.85 440.605 278.794 440.605H374.799C375.742 440.605 376.507 439.841 376.507 438.897V417.011C376.507 416.067 375.742 415.302 374.799 415.302Z" fill="black"/>
<path d="M374.799 415.302H278.794C277.85 415.302 277.085 416.067 277.085 417.011V438.897C277.085 439.841 277.85 440.605 278.794 440.605H374.799C375.742 440.605 376.507 439.841 376.507 438.897V417.011C376.507 416.067 375.742 415.302 374.799 415.302Z" fill="black"/>
<path d="M374.799 415.302H278.794C277.85 415.302 277.085 416.067 277.085 417.011V438.897C277.085 439.841 277.85 440.605 278.794 440.605H374.799C375.742 440.605 376.507 439.841 376.507 438.897V417.011C376.507 416.067 375.742 415.302 374.799 415.302Z" fill="#FFC700"/>
<path opacity="0.2" d="M285.452 416.753H281.519V439.358H285.452V416.753Z" fill="black"/>
<path opacity="0.2" d="M294.401 416.645H291.54V439.249H294.401V416.645Z" fill="black"/>
<path opacity="0.2" d="M302.619 416.753H301.195V439.358H302.619V416.753Z" fill="black"/>
<path opacity="0.2" d="M313.711 416.645H312.992V439.249H313.711V416.645Z" fill="black"/>
<path opacity="0.2" d="M368.127 439.249H372.059V416.645H368.127V439.249Z" fill="black"/>
<path opacity="0.2" d="M359.178 439.358H362.039V416.753H359.178V439.358Z" fill="black"/>
<path opacity="0.2" d="M350.96 439.249H352.384V416.645H350.96V439.249Z" fill="black"/>
<path opacity="0.2" d="M339.868 439.358H340.587V416.753H339.868V439.358Z" fill="black"/>
<path opacity="0.2" d="M326.62 439.358H326.973V416.753H326.62V439.358Z" fill="black"/>
<path opacity="0.2" d="M373.849 419.14H279.946C279.789 419.142 279.633 419.112 279.487 419.053C279.342 418.994 279.21 418.906 279.098 418.795C278.987 418.683 278.899 418.551 278.84 418.406C278.781 418.26 278.751 418.104 278.753 417.947C278.753 417.63 278.879 417.327 279.102 417.103C279.326 416.879 279.63 416.753 279.946 416.753H373.849C374.165 416.757 374.466 416.884 374.689 417.107C374.912 417.33 375.039 417.631 375.043 417.947C375.043 418.263 374.917 418.567 374.693 418.79C374.469 419.014 374.166 419.14 373.849 419.14Z" fill="white"/>
<path d="M372.073 390.054H276.068C275.124 390.054 274.359 390.819 274.359 391.762V413.648C274.359 414.592 275.124 415.357 276.068 415.357H372.073C373.016 415.357 373.781 414.592 373.781 413.648V391.762C373.781 390.819 373.016 390.054 372.073 390.054Z" fill="black"/>
<path d="M372.073 390.054H276.068C275.124 390.054 274.359 390.819 274.359 391.762V413.648C274.359 414.592 275.124 415.357 276.068 415.357H372.073C373.016 415.357 373.781 414.592 373.781 413.648V391.762C373.781 390.819 373.016 390.054 372.073 390.054Z" fill="black"/>
<path d="M372.073 390.054H276.068C275.124 390.054 274.359 390.819 274.359 391.762V413.648C274.359 414.592 275.124 415.357 276.068 415.357H372.073C373.016 415.357 373.781 414.592 373.781 413.648V391.762C373.781 390.819 373.016 390.054 372.073 390.054Z" fill="#FFC700"/>
<path opacity="0.2" d="M282.74 391.518H278.807V414.123H282.74V391.518Z" fill="black"/>
<path opacity="0.2" d="M291.689 391.41H288.828V414.014H291.689V391.41Z" fill="black"/>
<path opacity="0.2" d="M299.907 391.518H298.483V414.123H299.907V391.518Z" fill="black"/>
<path opacity="0.2" d="M310.999 391.41H310.28V414.014H310.999V391.41Z" fill="black"/>
<path opacity="0.2" d="M365.415 414.001H369.347V391.396H365.415V414.001Z" fill="black"/>
<path opacity="0.2" d="M356.465 414.109H359.327V391.505H356.465V414.109Z" fill="black"/>
<path opacity="0.2" d="M348.235 414.001H349.672V391.396H348.235V414.001Z" fill="black"/>
<path opacity="0.2" d="M337.143 414.109H337.861V391.505H337.143V414.109Z" fill="black"/>
<path opacity="0.2" d="M323.908 414.109H324.26V391.505H323.908V414.109Z" fill="black"/>
<path opacity="0.2" d="M371.124 393.905H277.234C276.917 393.905 276.612 393.779 276.386 393.556C276.16 393.333 276.031 393.029 276.027 392.711C276.027 392.554 276.059 392.397 276.12 392.252C276.18 392.106 276.269 391.974 276.382 391.863C276.494 391.752 276.627 391.664 276.773 391.605C276.92 391.546 277.076 391.516 277.234 391.518H371.124C371.282 391.516 371.438 391.546 371.585 391.605C371.731 391.664 371.864 391.752 371.976 391.863C372.088 391.974 372.178 392.106 372.238 392.252C372.299 392.397 372.331 392.554 372.331 392.711C372.327 393.029 372.198 393.333 371.972 393.556C371.746 393.779 371.441 393.905 371.124 393.905Z" fill="white"/>
<path d="M372.073 364.819H276.068C275.124 364.819 274.359 365.584 274.359 366.527V388.413C274.359 389.357 275.124 390.122 276.068 390.122H372.073C373.016 390.122 373.781 389.357 373.781 388.413V366.527C373.781 365.584 373.016 364.819 372.073 364.819Z" fill="black"/>
<path d="M372.073 364.819H276.068C275.124 364.819 274.359 365.584 274.359 366.527V388.413C274.359 389.357 275.124 390.122 276.068 390.122H372.073C373.016 390.122 373.781 389.357 373.781 388.413V366.527C373.781 365.584 373.016 364.819 372.073 364.819Z" fill="black"/>
<path d="M372.073 364.819H276.068C275.124 364.819 274.359 365.584 274.359 366.527V388.413C274.359 389.357 275.124 390.122 276.068 390.122H372.073C373.016 390.122 373.781 389.357 373.781 388.413V366.527C373.781 365.584 373.016 364.819 372.073 364.819Z" fill="#FFC700"/>
<path opacity="0.2" d="M282.74 366.27H278.807V388.874H282.74V366.27Z" fill="black"/>
<path opacity="0.2" d="M291.689 366.161H288.828V388.765H291.689V366.161Z" fill="black"/>
<path opacity="0.2" d="M299.907 366.27H298.483V388.874H299.907V366.27Z" fill="black"/>
<path opacity="0.2" d="M310.999 366.161H310.28V388.765H310.999V366.161Z" fill="black"/>
<path opacity="0.2" d="M365.415 388.765H369.347V366.161H365.415V388.765Z" fill="black"/>
<path opacity="0.2" d="M356.465 388.874H359.327V366.269H356.465V388.874Z" fill="black"/>
<path opacity="0.2" d="M348.235 388.765H349.672V366.161H348.235V388.765Z" fill="black"/>
<path opacity="0.2" d="M337.143 388.874H337.861V366.269H337.143V388.874Z" fill="black"/>
<path opacity="0.2" d="M323.908 388.874H324.26V366.269H323.908V388.874Z" fill="black"/>
<path opacity="0.2" d="M371.124 368.656H277.234C277.076 368.658 276.92 368.628 276.773 368.569C276.627 368.51 276.494 368.422 276.382 368.311C276.269 368.2 276.18 368.068 276.12 367.923C276.059 367.777 276.027 367.621 276.027 367.463C276.031 367.145 276.16 366.842 276.386 366.618C276.612 366.395 276.917 366.27 277.234 366.27H371.124C371.441 366.27 371.746 366.395 371.972 366.618C372.198 366.842 372.327 367.145 372.331 367.463C372.331 367.621 372.299 367.777 372.238 367.923C372.178 368.068 372.088 368.2 371.976 368.311C371.864 368.422 371.731 368.51 371.585 368.569C371.438 368.628 371.282 368.658 371.124 368.656Z" fill="white"/>
<path d="M372.073 339.57H276.068C275.124 339.57 274.359 340.335 274.359 341.278V363.164C274.359 364.108 275.124 364.873 276.068 364.873H372.073C373.016 364.873 373.781 364.108 373.781 363.164V341.278C373.781 340.335 373.016 339.57 372.073 339.57Z" fill="black"/>
<path d="M372.073 339.57H276.068C275.124 339.57 274.359 340.335 274.359 341.278V363.164C274.359 364.108 275.124 364.873 276.068 364.873H372.073C373.016 364.873 373.781 364.108 373.781 363.164V341.278C373.781 340.335 373.016 339.57 372.073 339.57Z" fill="black"/>
<path d="M372.073 339.57H276.068C275.124 339.57 274.359 340.335 274.359 341.278V363.164C274.359 364.108 275.124 364.873 276.068 364.873H372.073C373.016 364.873 373.781 364.108 373.781 363.164V341.278C373.781 340.335 373.016 339.57 372.073 339.57Z" fill="#FFC700"/>
<path opacity="0.2" d="M282.74 341.034H278.807V363.639H282.74V341.034Z" fill="black"/>
<path opacity="0.2" d="M291.689 340.926H288.828V363.53H291.689V340.926Z" fill="black"/>
<path opacity="0.2" d="M299.907 341.034H298.483V363.639H299.907V341.034Z" fill="black"/>
<path opacity="0.2" d="M310.999 340.926H310.28V363.53H310.999V340.926Z" fill="black"/>
<path opacity="0.2" d="M365.415 363.517H369.347V340.912H365.415V363.517Z" fill="black"/>
<path opacity="0.2" d="M356.465 363.625H359.327V341.021H356.465V363.625Z" fill="black"/>
<path opacity="0.2" d="M348.235 363.517H349.672V340.912H348.235V363.517Z" fill="black"/>
<path opacity="0.2" d="M337.143 363.625H337.861V341.021H337.143V363.625Z" fill="black"/>
<path opacity="0.2" d="M323.908 363.625H324.26V341.021H323.908V363.625Z" fill="black"/>
<path opacity="0.2" d="M371.124 343.421H277.234C277.076 343.423 276.92 343.393 276.773 343.334C276.627 343.275 276.494 343.187 276.382 343.076C276.269 342.965 276.18 342.833 276.12 342.687C276.059 342.542 276.027 342.385 276.027 342.228C276.027 342.07 276.059 341.913 276.12 341.768C276.18 341.622 276.269 341.49 276.382 341.379C276.494 341.268 276.627 341.18 276.773 341.121C276.92 341.062 277.076 341.032 277.234 341.034H371.124C371.282 341.032 371.438 341.062 371.585 341.121C371.731 341.18 371.864 341.268 371.976 341.379C372.088 341.49 372.178 341.622 372.238 341.768C372.299 341.913 372.331 342.07 372.331 342.228C372.331 342.385 372.299 342.542 372.238 342.687C372.178 342.833 372.088 342.965 371.976 343.076C371.864 343.187 371.731 343.275 371.585 343.334C371.438 343.393 371.282 343.423 371.124 343.421Z" fill="white"/>
<path d="M373.253 288.815H277.248C276.304 288.815 275.539 289.58 275.539 290.524V312.409C275.539 313.353 276.304 314.118 277.248 314.118H373.253C374.196 314.118 374.961 313.353 374.961 312.409V290.524C374.961 289.58 374.196 288.815 373.253 288.815Z" fill="black"/>
<path d="M373.253 288.815H277.248C276.304 288.815 275.539 289.58 275.539 290.524V312.409C275.539 313.353 276.304 314.118 277.248 314.118H373.253C374.196 314.118 374.961 313.353 374.961 312.409V290.524C374.961 289.58 374.196 288.815 373.253 288.815Z" fill="black"/>
<path d="M373.253 288.815H277.248C276.304 288.815 275.539 289.58 275.539 290.524V312.409C275.539 313.353 276.304 314.118 277.248 314.118H373.253C374.196 314.118 374.961 313.353 374.961 312.409V290.524C374.961 289.58 374.196 288.815 373.253 288.815Z" fill="#FFC700"/>
<path opacity="0.2" d="M283.919 290.279H279.987V312.884H283.919V290.279Z" fill="black"/>
<path opacity="0.2" d="M292.869 290.171H290.008V312.775H292.869V290.171Z" fill="black"/>
<path opacity="0.2" d="M301.086 290.279H299.663V312.884H301.086V290.279Z" fill="black"/>
<path opacity="0.2" d="M312.178 290.171H311.46V312.775H312.178V290.171Z" fill="black"/>
<path opacity="0.2" d="M366.595 312.762H370.527V290.157H366.595V312.762Z" fill="black"/>
<path opacity="0.2" d="M357.645 312.884H360.506V290.279H357.645V312.884Z" fill="black"/>
<path opacity="0.2" d="M349.428 312.762H350.852V290.157H349.428V312.762Z" fill="black"/>
<path opacity="0.2" d="M338.322 312.884H339.041V290.279H338.322V312.884Z" fill="black"/>
<path opacity="0.2" d="M325.088 312.884H325.44V290.279H325.088V312.884Z" fill="black"/>
<path opacity="0.2" d="M372.304 292.666H278.414C278.256 292.668 278.1 292.638 277.953 292.579C277.807 292.52 277.674 292.432 277.562 292.321C277.449 292.21 277.36 292.078 277.299 291.932C277.239 291.787 277.207 291.63 277.207 291.473C277.211 291.155 277.34 290.851 277.566 290.628C277.791 290.405 278.096 290.279 278.414 290.279H372.304C372.621 290.279 372.926 290.405 373.152 290.628C373.378 290.851 373.507 291.155 373.51 291.473C373.51 291.63 373.479 291.787 373.418 291.932C373.357 292.078 373.268 292.21 373.156 292.321C373.044 292.432 372.911 292.52 372.764 292.579C372.618 292.638 372.461 292.668 372.304 292.666Z" fill="white"/>
<path d="M374.799 314.335H278.794C277.85 314.335 277.085 315.1 277.085 316.043V337.929C277.085 338.873 277.85 339.638 278.794 339.638H374.799C375.742 339.638 376.507 338.873 376.507 337.929V316.043C376.507 315.1 375.742 314.335 374.799 314.335Z" fill="black"/>
<path d="M374.799 314.335H278.794C277.85 314.335 277.085 315.1 277.085 316.043V337.929C277.085 338.873 277.85 339.638 278.794 339.638H374.799C375.742 339.638 376.507 338.873 376.507 337.929V316.043C376.507 315.1 375.742 314.335 374.799 314.335Z" fill="black"/>
<path d="M374.799 314.335H278.794C277.85 314.335 277.085 315.1 277.085 316.043V337.929C277.085 338.873 277.85 339.638 278.794 339.638H374.799C375.742 339.638 376.507 338.873 376.507 337.929V316.043C376.507 315.1 375.742 314.335 374.799 314.335Z" fill="#FFC700"/>
<path opacity="0.2" d="M285.452 315.786H281.519V338.39H285.452V315.786Z" fill="black"/>
<path opacity="0.2" d="M294.401 315.677H291.54V338.282H294.401V315.677Z" fill="black"/>
<path opacity="0.2" d="M302.619 315.786H301.195V338.39H302.619V315.786Z" fill="black"/>
<path opacity="0.2" d="M313.711 315.677H312.992V338.282H313.711V315.677Z" fill="black"/>
<path opacity="0.2" d="M368.127 338.282H372.059V315.677H368.127V338.282Z" fill="black"/>
<path opacity="0.2" d="M359.178 338.39H362.039V315.786H359.178V338.39Z" fill="black"/>
<path opacity="0.2" d="M350.96 338.282H352.384V315.677H350.96V338.282Z" fill="black"/>
<path opacity="0.2" d="M339.868 338.39H340.587V315.786H339.868V338.39Z" fill="black"/>
<path opacity="0.2" d="M326.62 338.39H326.973V315.786H326.62V338.39Z" fill="black"/>
<path opacity="0.2" d="M373.849 318.186H279.946C279.788 318.186 279.632 318.154 279.486 318.094C279.341 318.033 279.209 317.944 279.098 317.831C278.987 317.719 278.899 317.586 278.84 317.44C278.781 317.293 278.751 317.137 278.753 316.979C278.753 316.662 278.879 316.359 279.102 316.135C279.326 315.911 279.63 315.786 279.946 315.786H373.849C374.165 315.789 374.466 315.916 374.689 316.139C374.912 316.362 375.039 316.664 375.043 316.979C375.043 317.297 374.917 317.602 374.694 317.828C374.47 318.053 374.167 318.182 373.849 318.186Z" fill="white"/>
<path d="M339.108 272.977L336.071 278.916L332.979 284.95L327.569 282.97L330.281 277.668L333.698 270.997L339.108 272.977Z" fill="#FFC2BC"/>
<path opacity="0.2" d="M339.108 272.977L336.071 278.916L330.281 277.668L333.698 270.997L339.108 272.977Z" fill="black"/>
<path d="M457.271 239.388C457.108 239.39 456.95 239.331 456.827 239.223C456.705 239.116 456.626 238.967 456.606 238.805C456.416 237.449 438.598 104.561 417.092 46.2534C417.049 46.1684 417.024 46.0751 417.019 45.9798C417.014 45.8845 417.029 45.7892 417.064 45.7002C417.098 45.6111 417.151 45.5304 417.219 45.4632C417.287 45.396 417.368 45.3439 417.457 45.3103C417.547 45.2767 417.642 45.2623 417.737 45.2681C417.833 45.2739 417.926 45.2998 418.01 45.344C418.095 45.3882 418.169 45.4498 418.228 45.5247C418.287 45.5997 418.33 45.6862 418.353 45.7788C439.927 104.195 457.772 237.3 457.949 238.656C457.972 238.836 457.924 239.017 457.815 239.162C457.706 239.306 457.545 239.402 457.365 239.429L457.271 239.388Z" fill="#263238"/>
<path d="M422.936 235.565L428.699 235.334L429.825 221.964L424.048 222.195L422.936 235.565Z" fill="#FFC2BC"/>
<path d="M429.242 232.283L422.95 232.08C422.835 232.08 422.723 232.117 422.631 232.185C422.538 232.254 422.469 232.35 422.435 232.459L421.079 237.531C421.046 237.653 421.042 237.781 421.065 237.906C421.089 238.03 421.141 238.148 421.216 238.25C421.292 238.351 421.39 238.435 421.502 238.493C421.615 238.552 421.739 238.585 421.865 238.588C424.143 238.588 427.439 238.588 430.3 238.67C433.635 238.778 435.724 238.67 439.683 238.738C442.043 238.805 442.802 236.446 441.812 236.202C437.337 235.076 434.408 235.28 430.612 232.771C430.208 232.487 429.734 232.318 429.242 232.283Z" fill="#263238"/>
<path opacity="0.2" d="M429.825 221.964L429.242 228.853L423.479 229.097L424.048 222.195L429.825 221.964Z" fill="black"/>
<path d="M420.59 187.128C422.055 189.935 422.163 219.36 422.163 226.832H432.13C433.418 219.089 439.791 177.514 430.774 171.575C420.848 165.025 395.681 167.276 395.681 167.276L393.864 163.602L390.23 156.279L369.401 164.076L364.859 165.758L362.988 166.463H362.825C362.825 166.463 362.825 166.666 362.825 167.019C362.893 167.832 363.083 169.473 363.422 171.521C363.815 173.977 364.367 176.405 365.076 178.789C367.001 185.067 370.418 190.993 376.358 189.013C376.615 188.932 376.873 188.823 377.131 188.715C377.619 188.498 378.148 188.294 378.69 188.091C383.451 186.557 388.375 185.588 393.362 185.203C405.946 184.01 419.479 184.959 420.59 187.128Z" fill="#263238"/>
<path d="M432.578 227.7L420.93 228.012L420.862 224.256L433.663 223.727L432.578 227.7Z" fill="black"/>
<path d="M432.578 227.7L420.93 228.012L420.862 224.256L433.663 223.727L432.578 227.7Z" fill="black"/>
<path d="M432.578 227.7L420.93 228.012L420.862 224.256L433.663 223.727L432.578 227.7Z" fill="#FFC700"/>
<path d="M333.983 282.048H326.959C326.845 282.049 326.735 282.088 326.646 282.159C326.557 282.231 326.495 282.331 326.471 282.442L325.278 287.554C325.249 287.678 325.249 287.807 325.277 287.931C325.305 288.055 325.361 288.171 325.441 288.27C325.521 288.369 325.622 288.449 325.737 288.504C325.852 288.558 325.977 288.586 326.105 288.584C328.369 288.584 330.024 288.408 332.885 288.408C334.634 288.408 339.909 288.598 342.377 288.598C344.845 288.598 345.089 286.198 344.139 285.981C339.719 285.018 336.383 283.676 334.973 282.401C334.84 282.279 334.683 282.186 334.514 282.125C334.344 282.064 334.163 282.038 333.983 282.048Z" fill="#263238"/>
<path d="M385.104 166.409L383.897 170.572C383.26 172.795 382.379 175.819 381.348 179.331L378.772 188.105C374.378 202.953 368.791 221.489 365.7 230.29C359.543 247.755 338.946 278.821 338.946 278.821L329.033 275.187C329.033 275.187 344.248 245.924 349.238 228.215C352.723 215.848 358.187 193.624 361.781 178.694L363.503 171.534C364.086 169.094 364.561 167.1 364.859 165.704C365.157 164.307 365.401 163.412 365.401 163.412L369.402 164.022L385.104 166.409Z" fill="#263238"/>
<path d="M340.017 279.472L328.355 275.187L329.671 271.716L342.105 275.485L340.017 279.472Z" fill="black"/>
<path d="M340.017 279.472L328.355 275.187L329.671 271.716L342.105 275.485L340.017 279.472Z" fill="black"/>
<path d="M340.017 279.472L328.355 275.187L329.671 271.716L342.105 275.485L340.017 279.472Z" fill="#FFC700"/>
<path opacity="0.2" d="M393.905 163.588L385.104 173.853L383.897 170.572L382.541 166.992L381.307 179.331L365.117 178.802L361.74 178.694L363.462 171.534C363.123 169.487 362.934 167.846 362.866 167.032L362.974 166.422L364.845 165.717C365.198 164.253 365.388 163.425 365.388 163.425L369.388 164.036L390.257 156.279L393.905 163.588Z" fill="black"/>
<path opacity="0.2" d="M393.416 185.216C387.85 185.59 382.369 186.773 377.144 188.729C376.887 188.837 376.629 188.945 376.371 189.027L377.551 183.223C377.551 183.223 387.708 182.749 393.416 185.216Z" fill="black"/>
<path d="M317.684 169.161L314.145 173.853L311.148 168.144C311.148 168.144 314.551 164.144 316.572 165.988L317.684 169.161Z" fill="#FFC2BC"/>
<path d="M308.734 175.995L307.853 170.151L311.148 168.076L314.145 173.853L308.734 175.995Z" fill="#FFC2BC"/>
<path d="M318.647 168.727L317.657 169.229L316.192 165.514L317.765 164.754L318.647 168.727Z" fill="white"/>
<path d="M358.12 134.868C357.604 135.772 357.076 136.64 356.533 137.472C355.168 139.696 353.74 141.883 352.248 144.035L351.014 145.811C349.767 147.601 348.451 149.35 347.041 151.1C346.336 151.967 345.617 152.849 344.817 153.717C344.015 154.625 343.159 155.486 342.255 156.293C338.786 159.246 334.97 161.764 330.891 163.792C326.96 165.824 322.88 167.555 318.687 168.972L316.924 165.012C318.687 163.941 320.518 162.843 322.267 161.703C324.016 160.564 325.793 159.439 327.488 158.246C329.183 157.052 330.851 155.846 332.424 154.584C333.97 153.373 335.438 152.064 336.817 150.666C339.42 147.64 341.766 144.401 343.827 140.984C346.092 137.472 348.953 131.316 351.191 127.803L358.12 134.868Z" fill="#263238"/>
<path opacity="0.2" d="M356.533 137.472C355.168 139.695 353.74 141.883 352.248 144.035C352.399 141.183 353.192 138.402 354.567 135.899C355.384 136.181 356.078 136.737 356.533 137.472Z" fill="black"/>
<path d="M434.286 120.264L430.354 123.925L430.91 127.315C432.347 129.214 435.656 126.868 436.429 126.271C436.552 126.181 436.684 126.104 436.822 126.041L438.91 125.2C439.279 125.046 439.586 124.773 439.78 124.423C439.975 124.074 440.046 123.669 439.981 123.274L439.575 120.779C439.538 120.545 439.453 120.321 439.327 120.12C439.2 119.92 439.034 119.747 438.839 119.613C438.644 119.478 438.423 119.385 438.19 119.338C437.958 119.292 437.718 119.293 437.486 119.342L435.141 119.817C434.818 119.879 434.521 120.035 434.286 120.264Z" fill="#FFC2BC"/>
<path d="M429.445 123.952L430.53 123.681L431.154 127.614L429.445 128.02V123.952Z" fill="white"/>
<path d="M430.354 128.048C426.046 128.959 421.677 129.549 417.282 129.81C412.754 130.162 408.199 129.952 403.722 129.187C402.53 128.959 401.353 128.66 400.196 128.292C399.057 127.939 398 127.559 396.942 127.166C394.84 126.393 392.874 125.566 390.826 124.658L388.426 123.573C386.609 122.732 384.819 121.864 383.002 120.956C381.646 120.305 380.385 119.6 379.083 118.895L382.568 110.609C386.297 112.481 390.704 115.016 394.447 116.874C397.96 118.762 401.63 120.341 405.417 121.593C407.316 122.095 409.245 122.471 411.194 122.718C413.2 123.003 415.262 123.179 417.309 123.342C419.357 123.505 421.472 123.6 423.56 123.627C425.649 123.654 427.791 123.722 429.852 123.749L430.354 128.048Z" fill="#263238"/>
<path opacity="0.2" d="M388.386 123.573C386.569 122.732 384.779 121.864 382.962 120.956L382.257 117.104C384.97 118.509 387.13 120.788 388.386 123.573Z" fill="black"/>
<path d="M352.398 127.058C354.639 132.571 356.426 138.258 357.74 144.062C358.717 148.13 362.174 152.198 362.771 155.927C363.341 160.04 364.156 164.115 365.212 168.131C369.348 165.907 381.863 163.154 390.257 158.639C390.61 124.847 381.538 111.667 381.538 111.667C379.235 112.253 376.97 112.982 374.758 113.85L373.294 114.46C369.255 116.366 365.317 118.48 361.496 120.793C360.751 121.24 360.005 121.701 359.286 122.149C355.598 124.563 352.398 127.058 352.398 127.058Z" fill="black"/>
<path d="M352.398 127.058C354.639 132.571 356.426 138.258 357.74 144.062C358.717 148.13 362.174 152.198 362.771 155.927C363.341 160.04 364.156 164.115 365.212 168.131C369.348 165.907 381.863 163.154 390.257 158.639C390.61 124.847 381.538 111.667 381.538 111.667C379.235 112.253 376.97 112.982 374.758 113.85L373.294 114.46C369.255 116.366 365.317 118.48 361.496 120.793C360.751 121.24 360.005 121.701 359.286 122.149C355.598 124.563 352.398 127.058 352.398 127.058Z" fill="black"/>
<path d="M352.398 127.058C354.639 132.571 356.426 138.258 357.74 144.062C358.717 148.13 362.174 152.198 362.771 155.927C363.341 160.04 364.156 164.115 365.212 168.131C369.348 165.907 381.863 163.154 390.257 158.639C390.61 124.847 381.538 111.667 381.538 111.667C379.235 112.253 376.97 112.982 374.758 113.85L373.294 114.46C369.255 116.366 365.317 118.48 361.496 120.793C360.751 121.24 360.005 121.701 359.286 122.149C355.598 124.563 352.398 127.058 352.398 127.058Z" fill="#FFC700"/>
<path opacity="0.7" d="M352.398 127.058C354.639 132.571 356.426 138.258 357.74 144.062C358.717 148.13 362.174 152.198 362.771 155.927C363.341 160.04 364.156 164.115 365.212 168.131C369.348 165.907 381.863 163.154 390.257 158.639C390.61 124.847 381.538 111.667 381.538 111.667C379.235 112.253 376.97 112.982 374.758 113.85L373.294 114.46C369.255 116.366 365.317 118.48 361.496 120.793C360.751 121.24 360.005 121.701 359.286 122.149C355.598 124.563 352.398 127.058 352.398 127.058Z" fill="white"/>
<path d="M374.622 126.42L375.137 123.288L372.981 123.152L371.666 124.603L374.622 126.42Z" fill="black"/>
<path d="M374.622 126.42L375.137 123.288L372.981 123.152L371.666 124.603L374.622 126.42Z" fill="black"/>
<path d="M374.622 126.42L375.137 123.288L372.981 123.152L371.666 124.603L374.622 126.42Z" fill="#FFC700"/>
<path d="M372.981 123.152C368.995 125.376 365.049 122.786 362.499 121.01L362.228 120.82C363.354 119.261 363.462 116.752 363.096 114.23C362.663 111.443 361.917 108.713 360.872 106.094L369.998 111.328C369.998 111.952 369.89 112.508 369.862 112.996C369.74 114.176 369.727 114.976 370.378 115.491C371.39 116.055 372.544 116.314 373.7 116.237C374.744 117.443 375.72 121.62 372.981 123.152Z" fill="#FFC2BC"/>
<path d="M359.34 122.19C359.34 122.19 370.826 134.177 379.233 140.699C379.233 140.699 378.609 119.505 374.812 113.877L382.623 110.609C382.623 110.609 390.135 127.207 391.206 154.923L394.596 161.907L385.104 171.562L382.053 164.402L380.006 176.28L360.425 178.016L362.825 164.456L351.259 127.844L359.34 122.19Z" fill="#263238"/>
<path d="M373.592 125.783C373.592 125.783 376.304 135.031 376.114 139.967L379.612 141.784L380.236 139.072C380.236 139.072 377.158 127.152 374.324 125.064L373.592 125.783Z" fill="black"/>
<path d="M373.592 125.783C373.592 125.783 376.304 135.031 376.114 139.967L379.612 141.784L380.236 139.072C380.236 139.072 377.158 127.152 374.324 125.064L373.592 125.783Z" fill="black"/>
<path d="M373.592 125.783C373.592 125.783 376.304 135.031 376.114 139.967L379.612 141.784L380.236 139.072C380.236 139.072 377.158 127.152 374.324 125.064L373.592 125.783Z" fill="#FFC700"/>
<path d="M359.747 121.2C359.747 121.2 374.094 136.943 379.165 140.699C379.165 140.699 377.687 119.383 374.392 114.026C374.392 114.026 376.656 112.467 381.484 117.172L379.07 121.647L383.355 124.603C383.355 124.603 381.891 140.577 379.07 148.157C379.275 146.556 379.366 144.943 379.341 143.33L362.513 134L363.259 128.847L356.9 128.576C356.9 128.576 357.605 122.488 359.747 121.2Z" fill="#263238"/>
<path opacity="0.2" d="M359.747 121.2C359.747 121.2 374.094 136.943 379.165 140.699C379.165 140.699 377.687 119.383 374.392 114.026C374.392 114.026 376.656 112.467 381.484 117.172L379.07 121.647L383.355 124.603C383.355 124.603 381.891 140.577 379.07 148.157C379.275 146.556 379.366 144.943 379.341 143.33L362.513 134L363.259 128.847L356.9 128.576C356.9 128.576 357.605 122.488 359.747 121.2Z" fill="white"/>
<path d="M418.163 47.2164C418.163 47.2164 410.027 46.2943 405.485 48.4368C400.942 50.5792 396.372 57.5626 388.996 58.2271C381.619 58.8915 380.141 56.4914 380.141 56.4914C380.141 56.4914 386.636 68.0174 399.125 67.8953C411.614 67.7733 418.109 65.7122 425.472 70.3497C425.499 70.3497 419.831 50.8098 418.163 47.2164Z" fill="black"/>
<path d="M418.163 47.2164C418.163 47.2164 410.027 46.2943 405.485 48.4368C400.942 50.5792 396.372 57.5626 388.996 58.2271C381.619 58.8915 380.141 56.4914 380.141 56.4914C380.141 56.4914 386.636 68.0174 399.125 67.8953C411.614 67.7733 418.109 65.7122 425.472 70.3497C425.499 70.3497 419.831 50.8098 418.163 47.2164Z" fill="black"/>
<path d="M418.163 47.2164C418.163 47.2164 410.027 46.2943 405.485 48.4368C400.942 50.5792 396.372 57.5626 388.996 58.2271C381.619 58.8915 380.141 56.4914 380.141 56.4914C380.141 56.4914 386.636 68.0174 399.125 67.8953C411.614 67.7733 418.109 65.7122 425.472 70.3497C425.499 70.3497 419.831 50.8098 418.163 47.2164Z" fill="#FFC700"/>
<path opacity="0.2" d="M370.378 115.464C369.619 117.823 367.734 121.159 363.273 121.078C363.016 121.099 362.757 121.099 362.5 121.078L362.229 120.888C363.354 119.328 363.463 116.82 363.096 114.298C365.102 113 367.539 112.546 369.876 113.036C369.741 114.148 369.727 114.948 370.378 115.464Z" fill="black"/>
<path d="M372.982 123.152C373.053 124.791 372.703 126.42 371.965 127.885C369.456 127.532 361.957 123.817 361.578 120.712C361.771 119.966 362.176 119.293 362.744 118.772C365.603 121.286 369.19 122.821 372.982 123.152Z" fill="white"/>
<path d="M372.982 123.152C374.377 123.515 375.678 124.176 376.792 125.091C377.497 122.176 374.582 115.165 373.836 114.786C372.62 114.668 371.394 114.874 370.283 115.382C370.283 115.382 374.378 119.206 372.982 123.152Z" fill="white"/>
<path d="M352.899 103.165C352.75 105.484 354.255 109.823 356.859 107.653C359.462 105.484 353.157 99.1782 352.899 103.165Z" fill="#263238"/>
<path d="M369.131 102.283C370.812 107.707 372.073 110.853 370.405 114.582C367.883 120.196 360.344 120.183 357.049 115.315C354.092 110.948 351.828 102.758 356.289 98.7036C357.275 97.8092 358.472 97.1793 359.768 96.8727C361.063 96.5661 362.415 96.5928 363.698 96.9503C364.98 97.3078 366.151 97.9844 367.101 98.9171C368.051 99.8497 368.749 101.008 369.131 102.283Z" fill="#FFC2BC"/>
<path d="M369.998 95.3814C369.456 91.8287 365.239 92.3304 362.771 94.2017V101.212C363.723 100.76 364.631 100.219 365.483 99.5986C365.483 99.5986 366.445 104.846 369.659 106.379C373.754 102.405 374.093 96.2764 369.998 95.3814Z" fill="#263238"/>
<path d="M372.9 105.958C372.978 107.383 372.49 108.781 371.544 109.85C370.256 111.206 368.601 110.324 368.127 108.575C367.652 106.826 367.842 104.412 369.483 103.666C369.859 103.51 370.268 103.449 370.673 103.488C371.079 103.528 371.468 103.668 371.807 103.895C372.145 104.122 372.422 104.429 372.613 104.789C372.804 105.149 372.902 105.551 372.9 105.958Z" fill="#FFC2BC"/>
<path d="M361.564 106.758C361.727 107.192 361.564 107.626 361.333 107.735C361.103 107.843 360.682 107.572 360.52 107.138C360.357 106.704 360.52 106.27 360.75 106.162C360.981 106.053 361.388 106.324 361.564 106.758Z" fill="#263238"/>
<path d="M356.628 108.561C356.804 108.995 356.696 109.429 356.411 109.538C356.126 109.646 355.76 109.375 355.598 108.941C355.435 108.507 355.53 108.073 355.815 107.965C356.099 107.856 356.452 108.128 356.628 108.561Z" fill="#263238"/>
<path d="M358.269 108.209C358.215 109.689 357.955 111.154 357.496 112.562C357.872 112.656 358.264 112.668 358.645 112.598C359.026 112.528 359.388 112.377 359.706 112.155L358.269 108.209Z" fill="#ED893E"/>
<path d="M362.676 112.969L362.12 113.213C362.086 113.226 362.048 113.224 362.015 113.209C361.982 113.194 361.956 113.166 361.944 113.132C361.931 113.097 361.933 113.06 361.948 113.027C361.963 112.994 361.991 112.968 362.025 112.955C362.571 112.769 363.065 112.458 363.467 112.045C363.87 111.633 364.17 111.132 364.344 110.582C364.347 110.564 364.354 110.547 364.364 110.532C364.374 110.517 364.387 110.504 364.402 110.493C364.417 110.483 364.434 110.476 364.452 110.473C364.47 110.47 364.489 110.47 364.507 110.474C364.524 110.477 364.541 110.484 364.556 110.494C364.571 110.504 364.583 110.517 364.592 110.533C364.601 110.548 364.607 110.566 364.609 110.584C364.61 110.602 364.608 110.62 364.601 110.637C364.457 111.136 364.211 111.601 363.88 112.002C363.549 112.403 363.139 112.732 362.676 112.969Z" fill="#263238"/>
<path d="M362.486 104.616C362.442 104.639 362.394 104.652 362.344 104.652C362.294 104.652 362.245 104.639 362.201 104.616C361.917 104.422 361.59 104.299 361.248 104.256C360.906 104.214 360.559 104.253 360.235 104.372C360.169 104.4 360.093 104.402 360.026 104.375C359.959 104.348 359.905 104.296 359.876 104.229C359.847 104.163 359.846 104.087 359.873 104.02C359.899 103.953 359.952 103.899 360.018 103.87C360.424 103.715 360.862 103.66 361.294 103.71C361.726 103.759 362.139 103.912 362.5 104.155C362.559 104.196 362.6 104.258 362.615 104.328C362.63 104.399 362.618 104.472 362.581 104.534C362.555 104.568 362.523 104.595 362.486 104.616Z" fill="#263238"/>
<path d="M353.916 107.653C353.864 107.673 353.806 107.673 353.754 107.653C353.718 107.65 353.683 107.639 353.652 107.622C353.62 107.605 353.592 107.583 353.569 107.555C353.547 107.527 353.53 107.495 353.519 107.461C353.509 107.426 353.506 107.39 353.509 107.355C353.548 106.919 353.692 106.499 353.928 106.131C354.164 105.762 354.486 105.456 354.865 105.239C354.897 105.223 354.932 105.213 354.968 105.211C355.004 105.208 355.04 105.213 355.074 105.224C355.108 105.235 355.14 105.253 355.167 105.277C355.194 105.3 355.216 105.329 355.232 105.361C355.265 105.424 355.273 105.498 355.253 105.567C355.232 105.635 355.186 105.693 355.123 105.728C354.829 105.904 354.583 106.149 354.406 106.442C354.229 106.735 354.126 107.067 354.106 107.409C354.103 107.464 354.083 107.517 354.049 107.561C354.015 107.604 353.969 107.637 353.916 107.653Z" fill="#263238"/>
<path d="M365.361 99.639C365.361 99.639 361.93 103.178 358.581 103.002C359.484 102.591 360.306 102.022 361.008 101.32C361.008 101.32 354.459 104.155 351.231 102.676C348.004 101.198 348.37 99.5984 348.37 99.5984C348.37 99.5984 348.736 100.534 351.869 100.439C351.869 100.439 349.157 98.6627 350.255 96.1541C350.412 96.4543 350.642 96.71 350.924 96.8973C351.206 97.0846 351.531 97.1975 351.869 97.2254C352.931 95.5889 354.358 94.2207 356.038 93.2279C357.718 92.2351 359.604 91.6447 361.551 91.5031C368.588 90.703 370.012 93.4828 370.324 95.5711C370.636 97.6593 365.361 99.639 365.361 99.639Z" fill="#263238"/>
<path d="M252.677 465.772H156.672C155.729 465.772 154.964 466.537 154.964 467.481V489.367C154.964 490.311 155.729 491.075 156.672 491.075H252.677C253.621 491.075 254.385 490.311 254.385 489.367V467.481C254.385 466.537 253.621 465.772 252.677 465.772Z" fill="black"/>
<path d="M252.677 465.772H156.672C155.729 465.772 154.964 466.537 154.964 467.481V489.367C154.964 490.311 155.729 491.075 156.672 491.075H252.677C253.621 491.075 254.385 490.311 254.385 489.367V467.481C254.385 466.537 253.621 465.772 252.677 465.772Z" fill="black"/>
<path d="M252.677 465.772H156.672C155.729 465.772 154.964 466.537 154.964 467.481V489.367C154.964 490.311 155.729 491.075 156.672 491.075H252.677C253.621 491.075 254.385 490.311 254.385 489.367V467.481C254.385 466.537 253.621 465.772 252.677 465.772Z" fill="#FFC700"/>
<path opacity="0.2" d="M163.344 467.237H159.411V489.841H163.344V467.237Z" fill="black"/>
<path opacity="0.2" d="M172.28 467.128H169.419V489.733H172.28V467.128Z" fill="black"/>
<path opacity="0.2" d="M180.497 467.237H179.073V489.841H180.497V467.237Z" fill="black"/>
<path opacity="0.2" d="M191.589 467.128H190.87V489.733H191.589V467.128Z" fill="black"/>
<path opacity="0.2" d="M246.006 489.733H249.938V467.128H246.006V489.733Z" fill="black"/>
<path opacity="0.2" d="M237.07 489.842H239.931V467.237H237.07V489.842Z" fill="black"/>
<path opacity="0.2" d="M228.838 489.733H230.262V467.128H228.838V489.733Z" fill="black"/>
<path opacity="0.2" d="M217.746 489.842H218.465V467.237H217.746V489.842Z" fill="black"/>
<path opacity="0.2" d="M204.498 489.842H204.851V467.237H204.498V489.842Z" fill="black"/>
<path opacity="0.2" d="M251.728 469.623H157.825C157.668 469.625 157.512 469.596 157.366 469.536C157.22 469.477 157.088 469.389 156.977 469.278C156.866 469.167 156.778 469.034 156.719 468.889C156.659 468.743 156.63 468.587 156.632 468.43C156.632 468.114 156.757 467.81 156.981 467.586C157.205 467.363 157.508 467.237 157.825 467.237H251.728C252.044 467.237 252.348 467.363 252.572 467.586C252.795 467.81 252.921 468.114 252.921 468.43C252.923 468.587 252.893 468.743 252.834 468.889C252.775 469.034 252.687 469.167 252.576 469.278C252.464 469.389 252.332 469.477 252.187 469.536C252.041 469.596 251.885 469.625 251.728 469.623Z" fill="white"/>
<path d="M254.033 440.537H158.028C157.085 440.537 156.32 441.302 156.32 442.246V464.132C156.32 465.075 157.085 465.84 158.028 465.84H254.033C254.977 465.84 255.742 465.075 255.742 464.132V442.246C255.742 441.302 254.977 440.537 254.033 440.537Z" fill="black"/>
<path d="M254.033 440.537H158.028C157.085 440.537 156.32 441.302 156.32 442.246V464.132C156.32 465.075 157.085 465.84 158.028 465.84H254.033C254.977 465.84 255.742 465.075 255.742 464.132V442.246C255.742 441.302 254.977 440.537 254.033 440.537Z" fill="black"/>
<path d="M254.033 440.537H158.028C157.085 440.537 156.32 441.302 156.32 442.246V464.132C156.32 465.075 157.085 465.84 158.028 465.84H254.033C254.977 465.84 255.742 465.075 255.742 464.132V442.246C255.742 441.302 254.977 440.537 254.033 440.537Z" fill="#FFC700"/>
<path opacity="0.2" d="M164.7 442.002H160.767V464.606H164.7V442.002Z" fill="black"/>
<path opacity="0.2" d="M173.636 441.893H170.775V464.498H173.636V441.893Z" fill="black"/>
<path opacity="0.2" d="M181.853 442.002H180.429V464.606H181.853V442.002Z" fill="black"/>
<path opacity="0.2" d="M192.959 441.893H192.24V464.498H192.959V441.893Z" fill="black"/>
<path opacity="0.2" d="M247.362 464.484H251.294V441.88H247.362V464.484Z" fill="black"/>
<path opacity="0.2" d="M238.412 464.593H241.273V441.988H238.412V464.593Z" fill="black"/>
<path opacity="0.2" d="M230.195 464.484H231.618V441.88H230.195V464.484Z" fill="black"/>
<path opacity="0.2" d="M219.102 464.593H219.821V441.988H219.102V464.593Z" fill="black"/>
<path opacity="0.2" d="M205.854 464.593H206.207V441.988H205.854V464.593Z" fill="black"/>
<path opacity="0.2" d="M253.084 444.388H159.181C158.864 444.388 158.561 444.263 158.337 444.039C158.113 443.815 157.988 443.512 157.988 443.195C157.986 443.038 158.015 442.882 158.075 442.736C158.134 442.591 158.222 442.458 158.333 442.347C158.444 442.236 158.577 442.148 158.722 442.089C158.868 442.03 159.024 442 159.181 442.002H253.084C253.241 442 253.397 442.03 253.543 442.089C253.688 442.148 253.821 442.236 253.932 442.347C254.043 442.458 254.131 442.591 254.19 442.736C254.249 442.882 254.279 443.038 254.277 443.195C254.277 443.512 254.151 443.815 253.928 444.039C253.704 444.263 253.4 444.388 253.084 444.388Z" fill="white"/>
<path d="M248.609 415.302H152.604C151.661 415.302 150.896 416.067 150.896 417.011V438.896C150.896 439.84 151.661 440.605 152.604 440.605H248.609C249.553 440.605 250.318 439.84 250.318 438.896V417.011C250.318 416.067 249.553 415.302 248.609 415.302Z" fill="black"/>
<path d="M248.609 415.302H152.604C151.661 415.302 150.896 416.067 150.896 417.011V438.896C150.896 439.84 151.661 440.605 152.604 440.605H248.609C249.553 440.605 250.318 439.84 250.318 438.896V417.011C250.318 416.067 249.553 415.302 248.609 415.302Z" fill="black"/>
<path d="M248.609 415.302H152.604C151.661 415.302 150.896 416.067 150.896 417.011V438.896C150.896 439.84 151.661 440.605 152.604 440.605H248.609C249.553 440.605 250.318 439.84 250.318 438.896V417.011C250.318 416.067 249.553 415.302 248.609 415.302Z" fill="#FFC700"/>
<path opacity="0.2" d="M159.262 416.753H155.33V439.358H159.262V416.753Z" fill="black"/>
<path opacity="0.2" d="M168.212 416.645H165.35V439.249H168.212V416.645Z" fill="black"/>
<path opacity="0.2" d="M176.429 416.753H175.005V439.358H176.429V416.753Z" fill="black"/>
<path opacity="0.2" d="M187.521 416.645H186.802V439.249H187.521V416.645Z" fill="black"/>
<path opacity="0.2" d="M241.924 439.249H245.856V416.645H241.924V439.249Z" fill="black"/>
<path opacity="0.2" d="M233.001 439.358H235.862V416.753H233.001V439.358Z" fill="black"/>
<path opacity="0.2" d="M224.77 439.249H226.194V416.645H224.77V439.249Z" fill="black"/>
<path opacity="0.2" d="M213.678 439.358H214.397V416.753H213.678V439.358Z" fill="black"/>
<path opacity="0.2" d="M200.43 439.358H200.783V416.753H200.43V439.358Z" fill="black"/>
<path opacity="0.2" d="M247.66 419.14H153.757C153.6 419.142 153.444 419.112 153.298 419.053C153.152 418.993 153.02 418.905 152.909 418.794C152.798 418.683 152.71 418.551 152.651 418.405C152.591 418.26 152.562 418.104 152.563 417.946C152.563 417.63 152.689 417.326 152.913 417.103C153.137 416.879 153.44 416.753 153.757 416.753H247.66C247.975 416.757 248.277 416.884 248.5 417.107C248.723 417.33 248.849 417.631 248.853 417.946C248.853 418.263 248.727 418.566 248.503 418.79C248.28 419.014 247.976 419.14 247.66 419.14Z" fill="white"/>
<path d="M194.532 398.569L191.806 405.281L189.745 410.353L184.565 408.508L186.423 403.952L189.352 396.711L194.532 398.569Z" fill="#E4897B"/>
<path d="M305.235 362.635L300.828 365.903L299.215 362.323L295.472 354.052L299.879 350.77L303.418 358.608L305.235 362.635Z" fill="#E4897B"/>
<path opacity="0.2" d="M189.352 396.711L194.532 398.569L191.806 405.281L186.423 403.952L189.352 396.711Z" fill="black"/>
<path opacity="0.2" d="M303.418 358.608L299.215 362.323L295.472 354.052L299.879 350.77L303.418 358.608Z" fill="black"/>
<path d="M233.408 212.729C233.558 213.15 233.897 213.407 234.168 213.312C234.439 213.217 234.547 212.797 234.398 212.377C234.249 211.956 233.91 211.699 233.639 211.794C233.368 211.889 233.232 212.309 233.408 212.729Z" fill="#263238"/>
<path d="M233.856 213.421C234.804 214.519 235.899 215.482 237.11 216.282C236.9 216.589 236.625 216.846 236.303 217.033C235.982 217.221 235.623 217.335 235.252 217.367L233.856 213.421Z" fill="#DE5753"/>
<path d="M231.062 210.953C231 210.971 230.934 210.971 230.872 210.953C230.828 210.905 230.803 210.842 230.803 210.777C230.803 210.711 230.828 210.648 230.872 210.6C231.099 210.257 231.404 209.972 231.763 209.769C232.121 209.567 232.522 209.452 232.933 209.434C233.003 209.438 233.069 209.468 233.117 209.518C233.165 209.569 233.191 209.636 233.191 209.706C233.191 209.741 233.184 209.775 233.17 209.807C233.157 209.84 233.136 209.869 233.111 209.893C233.086 209.917 233.056 209.935 233.023 209.948C232.99 209.96 232.955 209.965 232.92 209.963C232.594 209.977 232.275 210.069 231.992 210.232C231.709 210.395 231.469 210.624 231.293 210.899C231.26 210.923 231.223 210.94 231.183 210.95C231.143 210.959 231.102 210.96 231.062 210.953Z" fill="#263238"/>
<path d="M223.374 219.563C223.441 223.631 222.926 231.035 219.685 233.191C219.685 233.191 220.051 237.395 227.401 238.697C235.537 240.148 231.984 235.374 231.984 235.374C227.767 233.544 228.459 230.289 229.774 227.347L223.374 219.563Z" fill="#E4897B"/>
<path d="M219.17 216.757C221.285 221.774 222.275 224.893 225.801 226.547C231.089 229.123 236.649 224.54 236.012 218.994C235.496 213.99 232.106 206.627 226.357 206.356C225.092 206.291 223.831 206.551 222.695 207.111C221.559 207.67 220.584 208.511 219.864 209.553C219.144 210.595 218.702 211.804 218.581 213.065C218.459 214.325 218.662 215.596 219.17 216.757Z" fill="#E4897B"/>
<path d="M222.75 224.92C225.137 225.883 232.635 220.513 230.073 214.329C230.073 214.329 232.635 210.194 231.713 206.193C230.791 202.193 227.781 200.986 224.933 202.288C222.411 203.427 222.682 204.851 222.682 204.851C222.682 204.851 210.478 208.051 213.814 212.729C209.516 218.913 219.753 223.74 222.75 224.92Z" fill="#263238"/>
<path d="M228.065 215.74C228.603 216.983 229.531 218.016 230.71 218.682C232.283 219.536 233.191 218.343 232.866 216.757C232.54 215.17 231.415 213.163 229.788 212.96C228.16 212.756 227.442 214.248 228.065 215.74Z" fill="#E4897B"/>
<path d="M217.733 233.232C217.163 232.093 216.54 230.791 217.923 230.439C219.306 230.086 229.123 229.517 231.93 230.439C231.008 231.971 232.432 233.924 232.432 233.924L217.733 233.232Z" fill="black"/>
<path d="M217.733 233.232C217.163 232.093 216.54 230.791 217.923 230.439C219.306 230.086 229.123 229.517 231.93 230.439C231.008 231.971 232.432 233.924 232.432 233.924L217.733 233.232Z" fill="black"/>
<path d="M217.733 233.232C217.163 232.093 216.54 230.791 217.923 230.439C219.306 230.086 229.123 229.517 231.93 230.439C231.008 231.971 232.432 233.924 232.432 233.924L217.733 233.232Z" fill="#FFC700"/>
<path opacity="0.5" d="M217.733 233.232C217.163 232.093 216.54 230.791 217.923 230.439C219.306 230.086 229.123 229.517 231.93 230.439C231.008 231.971 232.432 233.924 232.432 233.924L217.733 233.232Z" fill="#FAFAFA"/>
<path d="M190.097 408.156H184.104C183.995 408.157 183.89 408.195 183.806 408.264C183.722 408.333 183.665 408.429 183.643 408.536L182.558 413.417C182.529 413.535 182.527 413.658 182.553 413.777C182.579 413.895 182.633 414.006 182.709 414.101C182.785 414.195 182.882 414.271 182.992 414.322C183.103 414.373 183.223 414.397 183.345 414.394C185.501 414.394 188.633 414.231 191.345 414.231C194.532 414.231 197.271 414.407 201 414.407C203.264 414.407 203.888 412.129 202.939 411.926C198.64 410.976 195.142 410.882 191.426 408.59C191.031 408.327 190.572 408.177 190.097 408.156Z" fill="#263238"/>
<path d="M228.879 281.709C228.879 281.709 227.171 293.222 225.096 306.456C224.187 312.124 223.211 318.104 222.248 323.637C221.177 329.834 220.133 335.447 219.265 339.407C215.482 356.628 195.4 404.088 195.4 404.088L185.569 401.959C185.569 401.959 199.617 365.035 202.749 340.939C205.176 322.457 209.936 281.696 209.936 281.696L228.879 281.709Z" fill="#263238"/>
<path d="M197.745 400.793L195.915 404.346L184.85 401.946L185.772 398.664L197.745 400.793Z" fill="black"/>
<path d="M197.745 400.793L195.915 404.346L184.85 401.946L185.772 398.664L197.745 400.793Z" fill="black"/>
<path d="M197.745 400.793L195.915 404.346L184.85 401.946L185.772 398.664L197.745 400.793Z" fill="#FFC700"/>
<path opacity="0.3" d="M197.745 400.793L195.915 404.346L184.85 401.946L185.772 398.664L197.745 400.793Z" fill="black"/>
<path opacity="0.2" d="M225.096 306.456C224.187 312.124 223.211 318.104 222.248 323.636C219.536 312.694 220.418 306.144 220.418 306.144L225.096 306.456Z" fill="black"/>
<path d="M212.811 243.28C210.166 245.775 207.387 248.419 204.864 251.063C202.316 253.652 199.899 256.368 197.623 259.199C196.652 260.603 195.778 262.071 195.006 263.593C194.166 265.234 193.311 266.902 192.498 268.61L187.521 278.889L183.616 277.533C184.457 273.722 185.528 270.007 186.694 266.278C187.304 264.42 187.955 262.562 188.674 260.705C189.432 258.707 190.362 256.778 191.454 254.942C193.657 251.58 196.133 248.405 198.857 245.45C201.491 242.492 204.299 239.694 207.265 237.07L212.811 243.28Z" fill="#DC897C"/>
<path d="M183.29 287.567L185.284 284.028L179.209 282.184C178.866 283.002 178.699 283.884 178.718 284.771C178.736 285.659 178.941 286.533 179.317 287.336L183.29 287.567Z" fill="#E4897B"/>
<path d="M187.507 278.834L183.616 277.573L179.209 282.184L185.284 284.028L187.507 278.834Z" fill="#E4897B"/>
<path d="M305.168 361.889L300.218 365.564C300.132 365.631 300.07 365.724 300.043 365.83C300.016 365.936 300.025 366.047 300.069 366.147L302.103 370.717C302.151 370.829 302.225 370.928 302.318 371.007C302.411 371.086 302.521 371.142 302.639 371.17C302.757 371.199 302.881 371.2 303 371.174C303.118 371.147 303.229 371.092 303.324 371.015C305.032 369.659 305.805 368.981 307.975 367.368C309.331 366.378 312.422 364.195 314.28 362.825C316.138 361.456 315.012 359.435 314.131 359.842C310.185 361.618 307.907 361.808 306.09 361.632C305.761 361.603 305.434 361.694 305.168 361.889Z" fill="#263238"/>
<path d="M210.451 233.747C205.176 233.422 197.393 244.826 197.393 244.826L205.068 255.308C208.436 253.343 211.239 250.54 213.204 247.172C216.851 241.015 215.834 234.086 210.451 233.747Z" fill="black"/>
<path d="M210.451 233.747C205.176 233.422 197.393 244.826 197.393 244.826L205.068 255.308C208.436 253.343 211.239 250.54 213.204 247.172C216.851 241.015 215.834 234.086 210.451 233.747Z" fill="black"/>
<path d="M210.451 233.747C205.176 233.422 197.393 244.826 197.393 244.826L205.068 255.308C208.436 253.343 211.239 250.54 213.204 247.172C216.851 241.015 215.834 234.086 210.451 233.747Z" fill="#FFC700"/>
<path opacity="0.6" d="M210.451 233.747C205.176 233.422 197.393 244.826 197.393 244.826L205.068 255.308C208.436 253.343 211.239 250.54 213.204 247.172C216.851 241.015 215.834 234.086 210.451 233.747Z" fill="#FAFAFA"/>
<path opacity="0.2" d="M211.943 244.27C208.485 246.127 206.18 250.697 204.729 254.833L205.068 255.308C208.436 253.343 211.239 250.54 213.204 247.172C213.421 246.819 213.624 246.439 213.814 246.073L211.943 244.27Z" fill="black"/>
<path d="M241.666 232.907C241.666 232.907 244.826 240.853 239.293 281.723H209.936C209.733 277.207 212.567 255.213 208.214 233.978C211.46 233.348 214.744 232.931 218.045 232.73C221.801 232.554 234.317 230.018 237.625 230.33C241.978 230.71 241.666 232.907 241.666 232.907Z" fill="black"/>
<path d="M241.666 232.907C241.666 232.907 244.826 240.853 239.293 281.723H209.936C209.733 277.207 212.567 255.213 208.214 233.978C211.46 233.348 214.744 232.931 218.045 232.73C221.801 232.554 234.317 230.018 237.625 230.33C241.978 230.71 241.666 232.907 241.666 232.907Z" fill="black"/>
<path d="M241.666 232.907C241.666 232.907 244.826 240.853 239.293 281.723H209.936C209.733 277.207 212.567 255.213 208.214 233.978C211.46 233.348 214.744 232.931 218.045 232.73C221.801 232.554 234.317 230.018 237.625 230.33C241.978 230.71 241.666 232.907 241.666 232.907Z" fill="#FFC700"/>
<path opacity="0.6" d="M242.358 250.928C242.005 258.155 241.124 268.108 239.293 281.709H209.936C209.733 277.193 212.567 255.199 208.214 233.964C211.46 233.334 214.744 232.918 218.045 232.717C221.801 232.54 234.317 230.005 237.625 230.317C241.978 230.71 241.693 232.907 241.693 232.907C241.693 232.907 242.358 234.574 242.534 240.31C242.602 242.927 242.588 246.385 242.358 250.928Z" fill="#FAFAFA"/>
<path d="M238.1 279.336L243.903 292.896C243.903 292.896 272.013 296.422 279.987 306.09C287.96 315.758 303.039 354.987 303.039 354.987L295.526 361.374C295.526 361.374 273.966 321.725 267.932 316.938C261.898 312.151 227.55 312.165 219.875 309.304C212.2 306.443 209.99 281.669 209.99 281.669L238.1 279.336Z" fill="#263238"/>
<path d="M293.927 360.628L302.985 353.686L304.151 355.923L295.472 362.771L293.927 360.628Z" fill="black"/>
<path d="M293.927 360.628L302.985 353.686L304.151 355.923L295.472 362.771L293.927 360.628Z" fill="black"/>
<path d="M293.927 360.628L302.985 353.686L304.151 355.923L295.472 362.771L293.927 360.628Z" fill="#FFC700"/>
<path opacity="0.3" d="M293.927 360.628L302.985 353.686L304.151 355.923L295.472 362.771L293.927 360.628Z" fill="black"/>
<path d="M231.876 208.146C231.876 208.146 231.537 200.091 227.279 199.82C223.021 199.549 219.672 203.4 219.672 203.4C219.259 202.886 218.737 202.471 218.144 202.184C217.55 201.898 216.9 201.748 216.241 201.746C213.827 201.61 209.624 205.719 209.624 205.719C209.624 205.719 214.872 202.491 217.082 203.969C217.082 203.969 211.129 205.624 209.624 209.393C208.978 211.309 207.913 213.055 206.505 214.506H209.624L207.576 217.99C207.576 217.99 211.888 222.153 215.143 221.462L214.099 223.442C214.099 223.442 220.485 225.774 223.089 225.055C225.692 224.337 223.224 211.373 223.224 211.373L231.876 208.146Z" fill="#263238"/>
<path opacity="0.2" d="M242.358 250.928C237.029 247.307 237.11 238.968 237.11 238.968L242.534 240.324C242.602 242.927 242.588 246.385 242.358 250.928Z" fill="black"/>
<path d="M193.203 292.096L156.984 286.008L147.614 313.887L153.608 324.776L193.149 329.983L201.163 299.608L193.203 292.096Z" fill="black"/>
<path d="M193.203 292.096L156.984 286.008L147.614 313.887L153.608 324.776L193.149 329.983L201.163 299.608L193.203 292.096Z" fill="black"/>
<path d="M193.203 292.096L156.984 286.008L147.614 313.887L153.608 324.776L193.149 329.983L201.163 299.608L193.203 292.096Z" fill="#FFC700"/>
<path opacity="0.4" d="M147.614 313.887L149.946 318.131L150.475 319.067L153.608 324.776L193.149 329.983L201.163 299.608L197.759 296.408L196.715 295.418L193.216 292.096L156.984 286.008L147.614 313.887Z" fill="black"/>
<path opacity="0.2" d="M201.162 299.608L165.31 294.035L156.984 286.008L193.216 292.096L201.162 299.608Z" fill="white"/>
<path opacity="0.1" d="M165.31 294.035L153.608 324.776L147.614 313.887L156.984 286.008L165.31 294.035Z" fill="white"/>
<path d="M149.946 318.131L150.475 319.067L161.31 290.279L197.759 296.408L196.715 295.418L160.659 289.642L149.946 318.131Z" fill="#263238"/>
<path d="M185.528 293.75L183.697 292.055L174.571 290.401L176.171 292.245L185.528 293.75Z" fill="#263238"/>
<path d="M189.053 294.428C189.053 294.428 189.474 284.855 189.216 284.217C188.958 283.58 176.117 281.506 175.154 281.302C174.192 281.099 169.961 290.428 169.961 290.428L170.693 291.553L173.12 291.879C173.12 291.879 176.198 283.838 176.51 283.634C180.029 284.009 183.524 284.579 186.979 285.343C187.25 285.56 186.192 292.869 186.192 292.869L187.019 294.062L189.053 294.428Z" fill="#263238"/>
<path d="M150.068 309.643L152.78 313.128L153.038 312.436L155.086 307.012L155.33 306.361L155.764 305.195C155.764 305.195 154.991 306.063 153.933 307.053C152.836 308.172 151.521 309.054 150.068 309.643Z" fill="black"/>
<path d="M150.068 309.643L152.78 313.128L153.038 312.436L155.086 307.012L155.33 306.361L155.764 305.195C155.764 305.195 154.991 306.063 153.933 307.053C152.836 308.172 151.521 309.054 150.068 309.643Z" fill="black"/>
<path d="M150.068 309.643L152.78 313.128L153.038 312.436L155.086 307.012L155.33 306.361L155.764 305.195C155.764 305.195 154.991 306.063 153.933 307.053C152.836 308.172 151.521 309.054 150.068 309.643Z" fill="#FFC700"/>
<path opacity="0.2" d="M150.95 309.9L152.97 312.436L155.018 307.012L155.262 306.361C154.138 307.878 152.657 309.094 150.95 309.9Z" fill="white"/>
<path opacity="0.2" d="M153.865 307.039H155.018L155.696 305.222C155.696 305.222 154.923 306.049 153.865 307.039Z" fill="black"/>
<path d="M149.079 302.822L148.577 307.731C150.604 306.805 152.86 306.503 155.059 306.863L155.316 306.185L156.889 301.968L157.065 301.534C154.337 301.265 151.585 301.709 149.079 302.822Z" fill="black"/>
<path d="M149.079 302.822L148.577 307.731C150.604 306.805 152.86 306.503 155.059 306.863L155.316 306.185L156.889 301.968L157.065 301.534C154.337 301.265 151.585 301.709 149.079 302.822Z" fill="black"/>
<path d="M149.079 302.822L148.577 307.731C150.604 306.805 152.86 306.503 155.059 306.863L155.316 306.185L156.889 301.968L157.065 301.534C154.337 301.265 151.585 301.709 149.079 302.822Z" fill="#FFC700"/>
<path d="M154.231 294.496C155.179 296.342 156.425 298.019 157.92 299.459L158.109 298.944L158.598 297.588L159.411 295.35L159.804 294.266L159.913 293.954C159.263 292.96 158.701 291.912 158.231 290.821L154.231 294.496Z" fill="black"/>
<path d="M154.231 294.496C155.179 296.342 156.425 298.019 157.92 299.459L158.109 298.944L158.598 297.588L159.411 295.35L159.804 294.266L159.913 293.954C159.263 292.96 158.701 291.912 158.231 290.821L154.231 294.496Z" fill="black"/>
<path d="M154.231 294.496C155.179 296.342 156.425 298.019 157.92 299.459L158.109 298.944L158.598 297.588L159.411 295.35L159.804 294.266L159.913 293.954C159.263 292.96 158.701 291.912 158.231 290.821L154.231 294.496Z" fill="#FFC700"/>
<path d="M162.53 288.177C163.025 288.952 163.408 289.791 163.669 290.672L164.239 290.767L165.025 290.889L166.286 291.12L167.493 291.323L167.913 291.391C167.892 289.508 167.189 287.697 165.934 286.292L162.53 288.177Z" fill="black"/>
<path d="M162.53 288.177C163.025 288.952 163.408 289.791 163.669 290.672L164.239 290.767L165.025 290.889L166.286 291.12L167.493 291.323L167.913 291.391C167.892 289.508 167.189 287.697 165.934 286.292L162.53 288.177Z" fill="black"/>
<path d="M162.53 288.177C163.025 288.952 163.408 289.791 163.669 290.672L164.239 290.767L165.025 290.889L166.286 291.12L167.493 291.323L167.913 291.391C167.892 289.508 167.189 287.697 165.934 286.292L162.53 288.177Z" fill="#FFC700"/>
<path opacity="0.2" d="M163.289 288.313C163.694 289.094 164.012 289.917 164.239 290.767L165.025 290.889C164.959 290.786 164.916 290.669 164.899 290.547C164.883 290.425 164.894 290.301 164.93 290.184C164.965 290.077 165.022 289.978 165.095 289.892C165.169 289.807 165.259 289.737 165.36 289.687C165.461 289.636 165.57 289.606 165.683 289.599C165.795 289.591 165.908 289.606 166.015 289.642C166.122 289.675 166.22 289.73 166.306 289.802C166.391 289.875 166.461 289.964 166.511 290.063C166.562 290.163 166.592 290.272 166.6 290.383C166.608 290.495 166.593 290.607 166.557 290.713C166.508 290.872 166.414 291.013 166.286 291.12L167.493 291.323C167.422 289.727 166.868 288.191 165.907 286.916L163.289 288.313Z" fill="white"/>
<path opacity="0.2" d="M149.404 303.012L149.092 306.985C151.094 306.312 153.209 306.04 155.316 306.185L156.889 301.968C154.346 301.659 151.766 302.019 149.404 303.012ZM153.757 302.686C153.92 302.63 154.093 302.612 154.264 302.633C154.435 302.654 154.599 302.714 154.744 302.809C154.888 302.903 155.008 303.03 155.096 303.178C155.183 303.327 155.235 303.494 155.248 303.666C155.261 303.837 155.234 304.01 155.17 304.17C155.106 304.33 155.005 304.473 154.877 304.588C154.749 304.703 154.595 304.787 154.429 304.833C154.263 304.88 154.089 304.888 153.919 304.856C153.757 304.913 153.583 304.931 153.412 304.91C153.241 304.889 153.077 304.828 152.933 304.734C152.789 304.639 152.668 304.513 152.581 304.364C152.493 304.216 152.441 304.049 152.428 303.877C152.415 303.705 152.442 303.532 152.506 303.373C152.571 303.213 152.671 303.07 152.799 302.955C152.928 302.84 153.081 302.756 153.247 302.709C153.413 302.663 153.587 302.655 153.757 302.686Z" fill="white"/>
<path opacity="0.2" d="M154.923 294.713C155.815 296.244 156.884 297.664 158.11 298.944L158.598 297.588C158.321 297.476 158.098 297.26 157.976 296.987C157.855 296.714 157.844 296.404 157.947 296.123C158.032 295.845 158.219 295.608 158.47 295.46C158.72 295.312 159.018 295.263 159.303 295.323L159.696 294.239C159.007 293.476 158.448 292.606 158.042 291.662L154.923 294.713Z" fill="white"/>
<path d="M276.258 207.278L278.346 203.793L282.956 208.16C282.414 208.861 281.731 209.442 280.951 209.865C280.171 210.287 279.311 210.543 278.427 210.614L276.258 207.278Z" fill="#E4897B"/>
<path d="M281.573 199.129L284.841 203.726L282.956 208.16L278.346 203.793L281.573 199.129Z" fill="#E4897B"/>
<path d="M240.174 231.008C243.927 230.238 247.638 229.279 251.294 228.133C254.816 227.089 258.195 225.613 261.355 223.74C261.644 223.559 261.92 223.36 262.182 223.143L263.118 222.276C263.769 221.652 264.474 220.92 265.084 220.269C266.372 218.831 267.701 217.353 268.976 215.835C271.593 212.824 274.142 209.692 276.773 206.641L280.204 208.919C278.319 212.594 276.231 216.092 274.02 219.577C272.895 221.299 271.742 223.035 270.468 224.73C269.83 225.571 269.112 226.425 268.434 227.279C268.081 227.7 267.634 228.133 267.24 228.567C266.755 229.048 266.244 229.5 265.708 229.923C262.108 232.506 258.146 234.544 253.951 235.971C249.941 237.422 245.812 238.525 241.612 239.266L240.174 231.008Z" fill="#DC897C"/>
<path d="M238.425 242.86C244.134 247.809 256.677 239.32 256.677 239.32L251.674 226.967C247.071 227.504 242.53 228.48 238.114 229.883C230.181 232.581 234.059 239.09 238.425 242.86Z" fill="black"/>
<path d="M238.425 242.86C244.134 247.809 256.677 239.32 256.677 239.32L251.674 226.967C247.071 227.504 242.53 228.48 238.114 229.883C230.181 232.581 234.059 239.09 238.425 242.86Z" fill="black"/>
<path d="M238.425 242.86C244.134 247.809 256.677 239.32 256.677 239.32L251.674 226.967C247.071 227.504 242.53 228.48 238.114 229.883C230.181 232.581 234.059 239.09 238.425 242.86Z" fill="#FFC700"/>
<path opacity="0.6" d="M238.425 242.86C244.134 247.809 256.677 239.32 256.677 239.32L251.674 226.967C247.071 227.504 242.53 228.48 238.114 229.883C230.181 232.581 234.059 239.09 238.425 242.86Z" fill="#FAFAFA"/>
</svg>
