<svg width="93" height="22" viewBox="0 0 93 22" fill="none" xmlns="http://www.w3.org/2000/svg">
<path d="M10.6286 0.371338L13.0148 7.7155H20.7369L14.4896 12.2544L16.8759 19.5986L10.6286 15.0597L4.38125 19.5986L6.76752 12.2544L0.5202 7.7155H8.24231L10.6286 0.371338Z" fill="black"/>
<path d="M10.6286 0.371338L13.0148 7.7155H20.7369L14.4896 12.2544L16.8759 19.5986L10.6286 15.0597L4.38125 19.5986L6.76752 12.2544L0.5202 7.7155H8.24231L10.6286 0.371338Z" fill="black"/>
<path d="M10.6286 0.371338L13.0148 7.7155H20.7369L14.4896 12.2544L16.8759 19.5986L10.6286 15.0597L4.38125 19.5986L6.76752 12.2544L0.5202 7.7155H8.24231L10.6286 0.371338Z" fill="#FFC700"/>
<path d="M29.2286 0.371338L31.6148 7.7155H39.3369L33.0896 12.2544L35.4759 19.5986L29.2286 15.0597L22.9813 19.5986L25.3675 12.2544L19.1202 7.7155H26.8423L29.2286 0.371338Z" fill="black"/>
<path d="M29.2286 0.371338L31.6148 7.7155H39.3369L33.0896 12.2544L35.4759 19.5986L29.2286 15.0597L22.9813 19.5986L25.3675 12.2544L19.1202 7.7155H26.8423L29.2286 0.371338Z" fill="black"/>
<path d="M29.2286 0.371338L31.6148 7.7155H39.3369L33.0896 12.2544L35.4759 19.5986L29.2286 15.0597L22.9813 19.5986L25.3675 12.2544L19.1202 7.7155H26.8423L29.2286 0.371338Z" fill="#FFC700"/>
<path d="M46.9429 0.371338L49.3291 7.7155H57.0512L50.8039 12.2544L53.1902 19.5986L46.9429 15.0597L40.6956 19.5986L43.0818 12.2544L36.8345 7.7155H44.5566L46.9429 0.371338Z" fill="black"/>
<path d="M46.9429 0.371338L49.3291 7.7155H57.0512L50.8039 12.2544L53.1902 19.5986L46.9429 15.0597L40.6956 19.5986L43.0818 12.2544L36.8345 7.7155H44.5566L46.9429 0.371338Z" fill="black"/>
<path d="M46.9429 0.371338L49.3291 7.7155H57.0512L50.8039 12.2544L53.1902 19.5986L46.9429 15.0597L40.6956 19.5986L43.0818 12.2544L36.8345 7.7155H44.5566L46.9429 0.371338Z" fill="#FFC700"/>
<path d="M64.6571 0.371338L67.0434 7.7155H74.7655L68.5182 12.2544L70.9045 19.5986L64.6571 15.0597L58.4098 19.5986L60.7961 12.2544L54.5488 7.7155H62.2709L64.6571 0.371338Z" fill="black"/>
<path d="M64.6571 0.371338L67.0434 7.7155H74.7655L68.5182 12.2544L70.9045 19.5986L64.6571 15.0597L58.4098 19.5986L60.7961 12.2544L54.5488 7.7155H62.2709L64.6571 0.371338Z" fill="black"/>
<path d="M64.6571 0.371338L67.0434 7.7155H74.7655L68.5182 12.2544L70.9045 19.5986L64.6571 15.0597L58.4098 19.5986L60.7961 12.2544L54.5488 7.7155H62.2709L64.6571 0.371338Z" fill="#FFC700"/>
<path d="M82.3714 0.371338L84.7577 7.7155H92.4798L86.2325 12.2544L88.6187 19.5986L82.3714 15.0597L76.1241 19.5986L78.5104 12.2544L72.2631 7.7155H79.9852L82.3714 0.371338Z" fill="black"/>
<path d="M82.3714 0.371338L84.7577 7.7155H92.4798L86.2325 12.2544L88.6187 19.5986L82.3714 15.0597L76.1241 19.5986L78.5104 12.2544L72.2631 7.7155H79.9852L82.3714 0.371338Z" fill="black"/>
<path d="M82.3714 0.371338L84.7577 7.7155H92.4798L86.2325 12.2544L88.6187 19.5986L82.3714 15.0597L76.1241 19.5986L78.5104 12.2544L72.2631 7.7155H79.9852L82.3714 0.371338Z" fill="#FFC700"/>
</svg>
