<svg width="71" height="70" viewBox="0 0 71 70" fill="none" xmlns="http://www.w3.org/2000/svg">
<circle cx="35.5" cy="35" r="35" fill="black"/>
<circle cx="35.5" cy="35" r="35" fill="black"/>
<circle cx="35.5" cy="35" r="35" fill="#FFC700" fill-opacity="0.7"/>
<mask id="mask0_102_1137" style="mask-type:alpha" maskUnits="userSpaceOnUse" x="23" y="23" width="25" height="24">
<rect x="23.5" y="23" width="24" height="24" fill="#D9D9D9"/>
</mask>
<g mask="url(#mask0_102_1137)">
<path d="M35.5 41C37.1667 41 38.575 40.4167 39.725 39.25C40.875 38.0833 41.4667 36.6667 41.5 35V29H35.5C33.8333 29.0333 32.4167 29.625 31.25 30.775C30.0833 31.925 29.5 33.3333 29.5 35C29.5 36.6667 30.0833 38.0833 31.25 39.25C32.4167 40.4167 33.8333 41 35.5 41ZM34.325 39.325L38.925 35.225C39.075 35.0917 39.1167 34.9333 39.05 34.75C38.9833 34.5667 38.85 34.4583 38.65 34.425L35.05 34.075L37.2 31.1C37.25 31.0167 37.2792 30.9375 37.2875 30.8625C37.2958 30.7875 37.2667 30.7167 37.2 30.65C37.1333 30.5667 37.05 30.5292 36.95 30.5375C36.85 30.5458 36.7583 30.5833 36.675 30.65L32.1 34.75C31.95 34.8833 31.9083 35.0417 31.975 35.225C32.0417 35.4083 32.175 35.5167 32.375 35.55L35.975 35.9L33.8 38.875C33.75 38.9583 33.725 39.0375 33.725 39.1125C33.725 39.1875 33.7583 39.2583 33.825 39.325C33.8917 39.3917 33.9708 39.425 34.0625 39.425C34.1542 39.425 34.2417 39.3917 34.325 39.325ZM35.5 43C34.5667 43 33.6875 42.8542 32.8625 42.5625C32.0375 42.2708 31.2833 41.8583 30.6 41.325L29.225 42.7C29.125 42.8 29.0125 42.875 28.8875 42.925C28.7625 42.975 28.6333 43 28.5 43C28.2167 43 27.9792 42.9042 27.7875 42.7125C27.5958 42.5208 27.5 42.2833 27.5 42C27.5 41.8667 27.525 41.7375 27.575 41.6125C27.625 41.4875 27.7 41.375 27.8 41.275L29.175 39.9C28.6417 39.2167 28.2292 38.4625 27.9375 37.6375C27.6458 36.8125 27.5 35.9333 27.5 35C27.5 32.7667 28.275 30.875 29.825 29.325C31.375 27.775 33.2667 27 35.5 27H43.5V35C43.5 37.2333 42.725 39.125 41.175 40.675C39.625 42.225 37.7333 43 35.5 43Z" fill="black"/>
<path d="M35.5 41C37.1667 41 38.575 40.4167 39.725 39.25C40.875 38.0833 41.4667 36.6667 41.5 35V29H35.5C33.8333 29.0333 32.4167 29.625 31.25 30.775C30.0833 31.925 29.5 33.3333 29.5 35C29.5 36.6667 30.0833 38.0833 31.25 39.25C32.4167 40.4167 33.8333 41 35.5 41ZM34.325 39.325L38.925 35.225C39.075 35.0917 39.1167 34.9333 39.05 34.75C38.9833 34.5667 38.85 34.4583 38.65 34.425L35.05 34.075L37.2 31.1C37.25 31.0167 37.2792 30.9375 37.2875 30.8625C37.2958 30.7875 37.2667 30.7167 37.2 30.65C37.1333 30.5667 37.05 30.5292 36.95 30.5375C36.85 30.5458 36.7583 30.5833 36.675 30.65L32.1 34.75C31.95 34.8833 31.9083 35.0417 31.975 35.225C32.0417 35.4083 32.175 35.5167 32.375 35.55L35.975 35.9L33.8 38.875C33.75 38.9583 33.725 39.0375 33.725 39.1125C33.725 39.1875 33.7583 39.2583 33.825 39.325C33.8917 39.3917 33.9708 39.425 34.0625 39.425C34.1542 39.425 34.2417 39.3917 34.325 39.325ZM35.5 43C34.5667 43 33.6875 42.8542 32.8625 42.5625C32.0375 42.2708 31.2833 41.8583 30.6 41.325L29.225 42.7C29.125 42.8 29.0125 42.875 28.8875 42.925C28.7625 42.975 28.6333 43 28.5 43C28.2167 43 27.9792 42.9042 27.7875 42.7125C27.5958 42.5208 27.5 42.2833 27.5 42C27.5 41.8667 27.525 41.7375 27.575 41.6125C27.625 41.4875 27.7 41.375 27.8 41.275L29.175 39.9C28.6417 39.2167 28.2292 38.4625 27.9375 37.6375C27.6458 36.8125 27.5 35.9333 27.5 35C27.5 32.7667 28.275 30.875 29.825 29.325C31.375 27.775 33.2667 27 35.5 27H43.5V35C43.5 37.2333 42.725 39.125 41.175 40.675C39.625 42.225 37.7333 43 35.5 43Z" fill="black"/>
<path d="M35.5 41C37.1667 41 38.575 40.4167 39.725 39.25C40.875 38.0833 41.4667 36.6667 41.5 35V29H35.5C33.8333 29.0333 32.4167 29.625 31.25 30.775C30.0833 31.925 29.5 33.3333 29.5 35C29.5 36.6667 30.0833 38.0833 31.25 39.25C32.4167 40.4167 33.8333 41 35.5 41ZM34.325 39.325L38.925 35.225C39.075 35.0917 39.1167 34.9333 39.05 34.75C38.9833 34.5667 38.85 34.4583 38.65 34.425L35.05 34.075L37.2 31.1C37.25 31.0167 37.2792 30.9375 37.2875 30.8625C37.2958 30.7875 37.2667 30.7167 37.2 30.65C37.1333 30.5667 37.05 30.5292 36.95 30.5375C36.85 30.5458 36.7583 30.5833 36.675 30.65L32.1 34.75C31.95 34.8833 31.9083 35.0417 31.975 35.225C32.0417 35.4083 32.175 35.5167 32.375 35.55L35.975 35.9L33.8 38.875C33.75 38.9583 33.725 39.0375 33.725 39.1125C33.725 39.1875 33.7583 39.2583 33.825 39.325C33.8917 39.3917 33.9708 39.425 34.0625 39.425C34.1542 39.425 34.2417 39.3917 34.325 39.325ZM35.5 43C34.5667 43 33.6875 42.8542 32.8625 42.5625C32.0375 42.2708 31.2833 41.8583 30.6 41.325L29.225 42.7C29.125 42.8 29.0125 42.875 28.8875 42.925C28.7625 42.975 28.6333 43 28.5 43C28.2167 43 27.9792 42.9042 27.7875 42.7125C27.5958 42.5208 27.5 42.2833 27.5 42C27.5 41.8667 27.525 41.7375 27.575 41.6125C27.625 41.4875 27.7 41.375 27.8 41.275L29.175 39.9C28.6417 39.2167 28.2292 38.4625 27.9375 37.6375C27.6458 36.8125 27.5 35.9333 27.5 35C27.5 32.7667 28.275 30.875 29.825 29.325C31.375 27.775 33.2667 27 35.5 27H43.5V35C43.5 37.2333 42.725 39.125 41.175 40.675C39.625 42.225 37.7333 43 35.5 43Z" fill="white"/>
</g>
</svg>
