<svg width="71" height="70" viewBox="0 0 71 70" fill="none" xmlns="http://www.w3.org/2000/svg">
<circle cx="35.5" cy="35" r="35" fill="black"/>
<circle cx="35.5" cy="35" r="35" fill="black"/>
<circle cx="35.5" cy="35" r="35" fill="#FFC700" fill-opacity="0.7"/>
<mask id="mask0_102_1157" style="mask-type:alpha" maskUnits="userSpaceOnUse" x="23" y="23" width="25" height="24">
<rect x="23.5" y="23" width="24" height="24" fill="#D9D9D9"/>
</mask>
<g mask="url(#mask0_102_1157)">
<path d="M32.5 37V33H34V37H32.5ZM34.75 37V34H36.25V37H34.75ZM37 37V35H38.5V37H37ZM32.5 45L31.15 40.45C30.35 39.8167 29.7083 39.025 29.225 38.075C28.7417 37.125 28.5 36.1 28.5 35C28.5 33.9 28.7417 32.875 29.225 31.925C29.7083 30.975 30.35 30.1833 31.15 29.55L32.5 25H38.5L39.85 29.55C40.65 30.1833 41.2917 30.975 41.775 31.925C42.2583 32.875 42.5 33.9 42.5 35C42.5 36.1 42.2583 37.125 41.775 38.075C41.2917 39.025 40.65 39.8167 39.85 40.45L38.5 45H32.5ZM35.5 40C36.8833 40 38.0625 39.5125 39.0375 38.5375C40.0125 37.5625 40.5 36.3833 40.5 35C40.5 33.6167 40.0125 32.4375 39.0375 31.4625C38.0625 30.4875 36.8833 30 35.5 30C34.1167 30 32.9375 30.4875 31.9625 31.4625C30.9875 32.4375 30.5 33.6167 30.5 35C30.5 36.3833 30.9875 37.5625 31.9625 38.5375C32.9375 39.5125 34.1167 40 35.5 40ZM33.6 28.25C33.9333 28.1667 34.2542 28.1 34.5625 28.05C34.8708 28 35.1833 27.975 35.5 27.975C35.8167 27.975 36.1292 28 36.4375 28.05C36.7458 28.1 37.0667 28.1667 37.4 28.25L37 27H34L33.6 28.25ZM34 43H37L37.4 41.75C37.0667 41.8333 36.7458 41.8958 36.4375 41.9375C36.1292 41.9792 35.8167 42 35.5 42C35.1833 42 34.8708 41.9792 34.5625 41.9375C34.2542 41.8958 33.9333 41.8333 33.6 41.75L34 43ZM34 43H33.6H37.4H34Z" fill="black"/>
<path d="M32.5 37V33H34V37H32.5ZM34.75 37V34H36.25V37H34.75ZM37 37V35H38.5V37H37ZM32.5 45L31.15 40.45C30.35 39.8167 29.7083 39.025 29.225 38.075C28.7417 37.125 28.5 36.1 28.5 35C28.5 33.9 28.7417 32.875 29.225 31.925C29.7083 30.975 30.35 30.1833 31.15 29.55L32.5 25H38.5L39.85 29.55C40.65 30.1833 41.2917 30.975 41.775 31.925C42.2583 32.875 42.5 33.9 42.5 35C42.5 36.1 42.2583 37.125 41.775 38.075C41.2917 39.025 40.65 39.8167 39.85 40.45L38.5 45H32.5ZM35.5 40C36.8833 40 38.0625 39.5125 39.0375 38.5375C40.0125 37.5625 40.5 36.3833 40.5 35C40.5 33.6167 40.0125 32.4375 39.0375 31.4625C38.0625 30.4875 36.8833 30 35.5 30C34.1167 30 32.9375 30.4875 31.9625 31.4625C30.9875 32.4375 30.5 33.6167 30.5 35C30.5 36.3833 30.9875 37.5625 31.9625 38.5375C32.9375 39.5125 34.1167 40 35.5 40ZM33.6 28.25C33.9333 28.1667 34.2542 28.1 34.5625 28.05C34.8708 28 35.1833 27.975 35.5 27.975C35.8167 27.975 36.1292 28 36.4375 28.05C36.7458 28.1 37.0667 28.1667 37.4 28.25L37 27H34L33.6 28.25ZM34 43H37L37.4 41.75C37.0667 41.8333 36.7458 41.8958 36.4375 41.9375C36.1292 41.9792 35.8167 42 35.5 42C35.1833 42 34.8708 41.9792 34.5625 41.9375C34.2542 41.8958 33.9333 41.8333 33.6 41.75L34 43ZM34 43H33.6H37.4H34Z" fill="black"/>
<path d="M32.5 37V33H34V37H32.5ZM34.75 37V34H36.25V37H34.75ZM37 37V35H38.5V37H37ZM32.5 45L31.15 40.45C30.35 39.8167 29.7083 39.025 29.225 38.075C28.7417 37.125 28.5 36.1 28.5 35C28.5 33.9 28.7417 32.875 29.225 31.925C29.7083 30.975 30.35 30.1833 31.15 29.55L32.5 25H38.5L39.85 29.55C40.65 30.1833 41.2917 30.975 41.775 31.925C42.2583 32.875 42.5 33.9 42.5 35C42.5 36.1 42.2583 37.125 41.775 38.075C41.2917 39.025 40.65 39.8167 39.85 40.45L38.5 45H32.5ZM35.5 40C36.8833 40 38.0625 39.5125 39.0375 38.5375C40.0125 37.5625 40.5 36.3833 40.5 35C40.5 33.6167 40.0125 32.4375 39.0375 31.4625C38.0625 30.4875 36.8833 30 35.5 30C34.1167 30 32.9375 30.4875 31.9625 31.4625C30.9875 32.4375 30.5 33.6167 30.5 35C30.5 36.3833 30.9875 37.5625 31.9625 38.5375C32.9375 39.5125 34.1167 40 35.5 40ZM33.6 28.25C33.9333 28.1667 34.2542 28.1 34.5625 28.05C34.8708 28 35.1833 27.975 35.5 27.975C35.8167 27.975 36.1292 28 36.4375 28.05C36.7458 28.1 37.0667 28.1667 37.4 28.25L37 27H34L33.6 28.25ZM34 43H37L37.4 41.75C37.0667 41.8333 36.7458 41.8958 36.4375 41.9375C36.1292 41.9792 35.8167 42 35.5 42C35.1833 42 34.8708 41.9792 34.5625 41.9375C34.2542 41.8958 33.9333 41.8333 33.6 41.75L34 43ZM34 43H33.6H37.4H34Z" fill="white"/>
</g>
</svg>
