<svg width="339" height="338" viewBox="0 0 339 338" fill="none" xmlns="http://www.w3.org/2000/svg">
<rect x="0.75" width="337.5" height="337.5" rx="40" fill="#F1EAAC"/>
<path d="M211.35 29.061H127.65C57.9 29.061 30 56.999 30 126.844V210.658C30 280.503 57.9 308.441 127.65 308.441H211.35C281.1 308.441 309 280.503 309 210.658V126.844C309 56.999 281.1 29.061 211.35 29.061ZM235.065 141.811L161.13 215.846C158.34 218.64 154.753 220.037 150.966 220.037C147.18 220.037 143.593 218.64 140.803 215.846L103.736 178.729C98.1557 173.141 98.1557 164.161 103.736 158.573C109.316 152.986 118.284 152.986 123.864 158.573L150.767 185.514L214.738 121.456C220.318 115.868 229.286 115.868 234.866 121.456C240.446 127.043 240.645 136.223 235.065 141.811Z" fill="black"/>
<path d="M211.35 29.061H127.65C57.9 29.061 30 56.999 30 126.844V210.658C30 280.503 57.9 308.441 127.65 308.441H211.35C281.1 308.441 309 280.503 309 210.658V126.844C309 56.999 281.1 29.061 211.35 29.061ZM235.065 141.811L161.13 215.846C158.34 218.64 154.753 220.037 150.966 220.037C147.18 220.037 143.593 218.64 140.803 215.846L103.736 178.729C98.1557 173.141 98.1557 164.161 103.736 158.573C109.316 152.986 118.284 152.986 123.864 158.573L150.767 185.514L214.738 121.456C220.318 115.868 229.286 115.868 234.866 121.456C240.446 127.043 240.645 136.223 235.065 141.811Z" fill="black"/>
<path d="M211.35 29.061H127.65C57.9 29.061 30 56.999 30 126.844V210.658C30 280.503 57.9 308.441 127.65 308.441H211.35C281.1 308.441 309 280.503 309 210.658V126.844C309 56.999 281.1 29.061 211.35 29.061ZM235.065 141.811L161.13 215.846C158.34 218.64 154.753 220.037 150.966 220.037C147.18 220.037 143.593 218.64 140.803 215.846L103.736 178.729C98.1557 173.141 98.1557 164.161 103.736 158.573C109.316 152.986 118.284 152.986 123.864 158.573L150.767 185.514L214.738 121.456C220.318 115.868 229.286 115.868 234.866 121.456C240.446 127.043 240.645 136.223 235.065 141.811Z" fill="#FFC700"/>
</svg>
