<svg width="71" height="70" viewBox="0 0 71 70" fill="none" xmlns="http://www.w3.org/2000/svg">
<circle cx="35.5" cy="35" r="35" fill="black"/>
<circle cx="35.5" cy="35" r="35" fill="black"/>
<circle cx="35.5" cy="35" r="35" fill="#FFC700" fill-opacity="0.7"/>
<path d="M33.1445 44.537C31.9347 44.2444 30.8491 43.5753 30.044 42.626C29.239 41.6768 28.7561 40.4965 28.665 39.2552H29.4445C29.4765 39.2549 29.5078 39.2456 29.5349 39.2285C29.562 39.2114 29.5837 39.187 29.5976 39.1582C29.6116 39.1293 29.6172 39.0972 29.6138 39.0653C29.6104 39.0335 29.5982 39.0032 29.5786 38.9779L27.1945 35.9461C27.1784 35.9259 27.158 35.9095 27.1348 35.8981C27.1117 35.8867 27.0862 35.8806 27.0604 35.8802C27.0345 35.8803 27.009 35.8863 26.9858 35.8977C26.9626 35.9092 26.9422 35.9257 26.9263 35.9461L24.5377 38.9779C24.5174 39.0031 24.5047 39.0336 24.5011 39.0658C24.4975 39.098 24.5031 39.1306 24.5172 39.1597C24.5316 39.1879 24.5534 39.2117 24.5802 39.2285C24.607 39.2453 24.6379 39.2545 24.6695 39.2552H25.4854C25.5919 40.8271 26.2922 42.2997 27.4444 43.3742C28.5966 44.4488 30.1144 45.0448 31.69 45.0415C32.1808 45.043 32.6699 44.985 33.1468 44.8688C33.184 44.86 33.2172 44.8388 33.2407 44.8086C33.2643 44.7785 33.2768 44.7412 33.2763 44.7029C33.2763 44.6644 33.2633 44.6271 33.2394 44.5969C33.2154 44.5668 33.182 44.5457 33.1445 44.537ZM27.999 28.8143C28.0246 28.8291 28.0536 28.837 28.0831 28.837C28.1301 28.8368 28.175 28.818 28.2081 28.7847C29.0668 27.883 30.1893 27.2771 31.4143 27.054C32.6393 26.831 33.9034 27.0024 35.0247 27.5436L34.6338 28.2208C34.6181 28.2484 34.6104 28.2799 34.6116 28.3116C34.6129 28.3433 34.6229 28.3741 34.6406 28.4004C34.6582 28.4274 34.6832 28.4486 34.7127 28.4616C34.7422 28.4745 34.7748 28.4785 34.8065 28.4731L38.6247 27.9254C38.6506 27.9217 38.6752 27.9122 38.6969 27.8977C38.7185 27.8831 38.7366 27.8638 38.7497 27.8413C38.7623 27.819 38.7697 27.7941 38.7713 27.7685C38.7729 27.7429 38.7686 27.7173 38.7588 27.6936L37.327 24.1072C37.3147 24.0779 37.2947 24.0524 37.2691 24.0336C37.2435 24.0148 37.2132 24.0033 37.1815 24.0004C37.1496 23.9982 37.1176 24.0052 37.0894 24.0205C37.0613 24.0358 37.038 24.0587 37.0224 24.0868L36.6134 24.7936C35.8009 24.3972 34.9118 24.1827 34.008 24.1649C33.1042 24.1472 32.2074 24.3266 31.38 24.6906C30.5525 25.0547 29.8144 25.5947 29.2169 26.273C28.6194 26.9514 28.1769 27.7518 27.9202 28.6186C27.9099 28.6553 27.9121 28.6944 27.9263 28.7298C27.9406 28.7652 27.9662 28.7949 27.999 28.8143ZM45.4854 33.3938C45.2404 32.9683 44.9451 32.5738 44.6059 32.2188C44.5795 32.1912 44.5446 32.1732 44.5068 32.1678C44.469 32.1624 44.4304 32.1699 44.3974 32.189C44.3643 32.2082 44.3387 32.2379 44.3245 32.2734C44.3104 32.3089 44.3086 32.3481 44.3195 32.3847C44.6709 33.579 44.6342 34.8541 44.2147 36.0262C43.7953 37.1984 43.0147 38.2072 41.9854 38.9074L41.5945 38.2324C41.579 38.2044 41.5558 38.1815 41.5277 38.1661C41.4996 38.1508 41.4677 38.1438 41.4357 38.146C41.4038 38.1481 41.3731 38.1593 41.3473 38.1783C41.3215 38.1972 41.3016 38.2231 41.2899 38.2529L39.8536 41.8347C39.8447 41.8591 39.8411 41.8851 39.843 41.9109C39.845 41.9368 39.8525 41.962 39.865 41.9847C39.878 42.0067 39.8958 42.0254 39.917 42.0396C39.9382 42.0537 39.9624 42.063 39.9877 42.0665L43.8104 42.6188C43.8178 42.6207 43.8255 42.6214 43.8331 42.6211C43.8613 42.621 43.889 42.6142 43.9139 42.6011C43.9388 42.5881 43.9602 42.5692 43.9763 42.5461C43.9942 42.5198 44.0042 42.4888 44.005 42.457C44.0058 42.4251 43.9974 42.3937 43.9809 42.3665L43.574 41.6597C44.8819 40.7816 45.8071 39.439 46.162 37.9042C46.5169 36.3693 46.275 34.757 45.4854 33.3938ZM35.4084 29.8743C34.3993 29.8743 33.4129 30.1734 32.5739 30.734C31.7349 31.2945 31.0809 32.0913 30.6947 33.0235C30.3084 33.9556 30.2073 34.9814 30.404 35.9711C30.6006 36.9608 31.0864 37.8699 31.7997 38.5836C32.513 39.2972 33.422 39.7834 34.4116 39.9805C35.4012 40.1776 36.427 40.0769 37.3593 39.6911C38.2917 39.3052 39.0887 38.6516 39.6496 37.8129C40.2106 36.9741 40.5102 35.9878 40.5106 34.9788C40.5098 33.6256 39.972 32.3281 39.0154 31.3711C38.0588 30.414 36.7615 29.8757 35.4084 29.8743ZM37.5424 34.3265L35.4379 38.1697C35.4202 38.2034 35.3938 38.2318 35.3614 38.2518C35.3291 38.2718 35.2919 38.2827 35.2538 38.2833C35.2304 38.2835 35.2072 38.2788 35.1856 38.2695C35.138 38.2552 35.0971 38.2241 35.0708 38.1819C35.0444 38.1396 35.0343 38.0893 35.0424 38.0402L35.372 35.6129L33.4788 35.7402C33.4412 35.7419 33.4037 35.7341 33.3699 35.7174C33.3361 35.7007 33.3071 35.6757 33.2856 35.6447C33.2649 35.6131 33.2529 35.5766 33.251 35.5388C33.2491 35.5011 33.2573 35.4635 33.2747 35.4299L35.2361 31.6165C35.2586 31.5717 35.2965 31.5365 35.3428 31.5173C35.3891 31.4981 35.4408 31.4962 35.4884 31.512C35.5368 31.5275 35.5781 31.5599 35.6048 31.6033C35.6315 31.6466 35.6418 31.6981 35.6338 31.7483L35.2356 34.2481L37.3334 34.0163C37.372 34.012 37.4111 34.0185 37.4464 34.0349C37.4817 34.0513 37.5117 34.0771 37.5334 34.1095C37.5546 34.1414 37.5666 34.1785 37.5682 34.2167C37.5698 34.255 37.5609 34.293 37.5424 34.3265Z" fill="black"/>
<path d="M33.1445 44.537C31.9347 44.2444 30.8491 43.5753 30.044 42.626C29.239 41.6768 28.7561 40.4965 28.665 39.2552H29.4445C29.4765 39.2549 29.5078 39.2456 29.5349 39.2285C29.562 39.2114 29.5837 39.187 29.5976 39.1582C29.6116 39.1293 29.6172 39.0972 29.6138 39.0653C29.6104 39.0335 29.5982 39.0032 29.5786 38.9779L27.1945 35.9461C27.1784 35.9259 27.158 35.9095 27.1348 35.8981C27.1117 35.8867 27.0862 35.8806 27.0604 35.8802C27.0345 35.8803 27.009 35.8863 26.9858 35.8977C26.9626 35.9092 26.9422 35.9257 26.9263 35.9461L24.5377 38.9779C24.5174 39.0031 24.5047 39.0336 24.5011 39.0658C24.4975 39.098 24.5031 39.1306 24.5172 39.1597C24.5316 39.1879 24.5534 39.2117 24.5802 39.2285C24.607 39.2453 24.6379 39.2545 24.6695 39.2552H25.4854C25.5919 40.8271 26.2922 42.2997 27.4444 43.3742C28.5966 44.4488 30.1144 45.0448 31.69 45.0415C32.1808 45.043 32.6699 44.985 33.1468 44.8688C33.184 44.86 33.2172 44.8388 33.2407 44.8086C33.2643 44.7785 33.2768 44.7412 33.2763 44.7029C33.2763 44.6644 33.2633 44.6271 33.2394 44.5969C33.2154 44.5668 33.182 44.5457 33.1445 44.537ZM27.999 28.8143C28.0246 28.8291 28.0536 28.837 28.0831 28.837C28.1301 28.8368 28.175 28.818 28.2081 28.7847C29.0668 27.883 30.1893 27.2771 31.4143 27.054C32.6393 26.831 33.9034 27.0024 35.0247 27.5436L34.6338 28.2208C34.6181 28.2484 34.6104 28.2799 34.6116 28.3116C34.6129 28.3433 34.6229 28.3741 34.6406 28.4004C34.6582 28.4274 34.6832 28.4486 34.7127 28.4616C34.7422 28.4745 34.7748 28.4785 34.8065 28.4731L38.6247 27.9254C38.6506 27.9217 38.6752 27.9122 38.6969 27.8977C38.7185 27.8831 38.7366 27.8638 38.7497 27.8413C38.7623 27.819 38.7697 27.7941 38.7713 27.7685C38.7729 27.7429 38.7686 27.7173 38.7588 27.6936L37.327 24.1072C37.3147 24.0779 37.2947 24.0524 37.2691 24.0336C37.2435 24.0148 37.2132 24.0033 37.1815 24.0004C37.1496 23.9982 37.1176 24.0052 37.0894 24.0205C37.0613 24.0358 37.038 24.0587 37.0224 24.0868L36.6134 24.7936C35.8009 24.3972 34.9118 24.1827 34.008 24.1649C33.1042 24.1472 32.2074 24.3266 31.38 24.6906C30.5525 25.0547 29.8144 25.5947 29.2169 26.273C28.6194 26.9514 28.1769 27.7518 27.9202 28.6186C27.9099 28.6553 27.9121 28.6944 27.9263 28.7298C27.9406 28.7652 27.9662 28.7949 27.999 28.8143ZM45.4854 33.3938C45.2404 32.9683 44.9451 32.5738 44.6059 32.2188C44.5795 32.1912 44.5446 32.1732 44.5068 32.1678C44.469 32.1624 44.4304 32.1699 44.3974 32.189C44.3643 32.2082 44.3387 32.2379 44.3245 32.2734C44.3104 32.3089 44.3086 32.3481 44.3195 32.3847C44.6709 33.579 44.6342 34.8541 44.2147 36.0262C43.7953 37.1984 43.0147 38.2072 41.9854 38.9074L41.5945 38.2324C41.579 38.2044 41.5558 38.1815 41.5277 38.1661C41.4996 38.1508 41.4677 38.1438 41.4357 38.146C41.4038 38.1481 41.3731 38.1593 41.3473 38.1783C41.3215 38.1972 41.3016 38.2231 41.2899 38.2529L39.8536 41.8347C39.8447 41.8591 39.8411 41.8851 39.843 41.9109C39.845 41.9368 39.8525 41.962 39.865 41.9847C39.878 42.0067 39.8958 42.0254 39.917 42.0396C39.9382 42.0537 39.9624 42.063 39.9877 42.0665L43.8104 42.6188C43.8178 42.6207 43.8255 42.6214 43.8331 42.6211C43.8613 42.621 43.889 42.6142 43.9139 42.6011C43.9388 42.5881 43.9602 42.5692 43.9763 42.5461C43.9942 42.5198 44.0042 42.4888 44.005 42.457C44.0058 42.4251 43.9974 42.3937 43.9809 42.3665L43.574 41.6597C44.8819 40.7816 45.8071 39.439 46.162 37.9042C46.5169 36.3693 46.275 34.757 45.4854 33.3938ZM35.4084 29.8743C34.3993 29.8743 33.4129 30.1734 32.5739 30.734C31.7349 31.2945 31.0809 32.0913 30.6947 33.0235C30.3084 33.9556 30.2073 34.9814 30.404 35.9711C30.6006 36.9608 31.0864 37.8699 31.7997 38.5836C32.513 39.2972 33.422 39.7834 34.4116 39.9805C35.4012 40.1776 36.427 40.0769 37.3593 39.6911C38.2917 39.3052 39.0887 38.6516 39.6496 37.8129C40.2106 36.9741 40.5102 35.9878 40.5106 34.9788C40.5098 33.6256 39.972 32.3281 39.0154 31.3711C38.0588 30.414 36.7615 29.8757 35.4084 29.8743ZM37.5424 34.3265L35.4379 38.1697C35.4202 38.2034 35.3938 38.2318 35.3614 38.2518C35.3291 38.2718 35.2919 38.2827 35.2538 38.2833C35.2304 38.2835 35.2072 38.2788 35.1856 38.2695C35.138 38.2552 35.0971 38.2241 35.0708 38.1819C35.0444 38.1396 35.0343 38.0893 35.0424 38.0402L35.372 35.6129L33.4788 35.7402C33.4412 35.7419 33.4037 35.7341 33.3699 35.7174C33.3361 35.7007 33.3071 35.6757 33.2856 35.6447C33.2649 35.6131 33.2529 35.5766 33.251 35.5388C33.2491 35.5011 33.2573 35.4635 33.2747 35.4299L35.2361 31.6165C35.2586 31.5717 35.2965 31.5365 35.3428 31.5173C35.3891 31.4981 35.4408 31.4962 35.4884 31.512C35.5368 31.5275 35.5781 31.5599 35.6048 31.6033C35.6315 31.6466 35.6418 31.6981 35.6338 31.7483L35.2356 34.2481L37.3334 34.0163C37.372 34.012 37.4111 34.0185 37.4464 34.0349C37.4817 34.0513 37.5117 34.0771 37.5334 34.1095C37.5546 34.1414 37.5666 34.1785 37.5682 34.2167C37.5698 34.255 37.5609 34.293 37.5424 34.3265Z" fill="black"/>
<path d="M33.1445 44.537C31.9347 44.2444 30.8491 43.5753 30.044 42.626C29.239 41.6768 28.7561 40.4965 28.665 39.2552H29.4445C29.4765 39.2549 29.5078 39.2456 29.5349 39.2285C29.562 39.2114 29.5837 39.187 29.5976 39.1582C29.6116 39.1293 29.6172 39.0972 29.6138 39.0653C29.6104 39.0335 29.5982 39.0032 29.5786 38.9779L27.1945 35.9461C27.1784 35.9259 27.158 35.9095 27.1348 35.8981C27.1117 35.8867 27.0862 35.8806 27.0604 35.8802C27.0345 35.8803 27.009 35.8863 26.9858 35.8977C26.9626 35.9092 26.9422 35.9257 26.9263 35.9461L24.5377 38.9779C24.5174 39.0031 24.5047 39.0336 24.5011 39.0658C24.4975 39.098 24.5031 39.1306 24.5172 39.1597C24.5316 39.1879 24.5534 39.2117 24.5802 39.2285C24.607 39.2453 24.6379 39.2545 24.6695 39.2552H25.4854C25.5919 40.8271 26.2922 42.2997 27.4444 43.3742C28.5966 44.4488 30.1144 45.0448 31.69 45.0415C32.1808 45.043 32.6699 44.985 33.1468 44.8688C33.184 44.86 33.2172 44.8388 33.2407 44.8086C33.2643 44.7785 33.2768 44.7412 33.2763 44.7029C33.2763 44.6644 33.2633 44.6271 33.2394 44.5969C33.2154 44.5668 33.182 44.5457 33.1445 44.537ZM27.999 28.8143C28.0246 28.8291 28.0536 28.837 28.0831 28.837C28.1301 28.8368 28.175 28.818 28.2081 28.7847C29.0668 27.883 30.1893 27.2771 31.4143 27.054C32.6393 26.831 33.9034 27.0024 35.0247 27.5436L34.6338 28.2208C34.6181 28.2484 34.6104 28.2799 34.6116 28.3116C34.6129 28.3433 34.6229 28.3741 34.6406 28.4004C34.6582 28.4274 34.6832 28.4486 34.7127 28.4616C34.7422 28.4745 34.7748 28.4785 34.8065 28.4731L38.6247 27.9254C38.6506 27.9217 38.6752 27.9122 38.6969 27.8977C38.7185 27.8831 38.7366 27.8638 38.7497 27.8413C38.7623 27.819 38.7697 27.7941 38.7713 27.7685C38.7729 27.7429 38.7686 27.7173 38.7588 27.6936L37.327 24.1072C37.3147 24.0779 37.2947 24.0524 37.2691 24.0336C37.2435 24.0148 37.2132 24.0033 37.1815 24.0004C37.1496 23.9982 37.1176 24.0052 37.0894 24.0205C37.0613 24.0358 37.038 24.0587 37.0224 24.0868L36.6134 24.7936C35.8009 24.3972 34.9118 24.1827 34.008 24.1649C33.1042 24.1472 32.2074 24.3266 31.38 24.6906C30.5525 25.0547 29.8144 25.5947 29.2169 26.273C28.6194 26.9514 28.1769 27.7518 27.9202 28.6186C27.9099 28.6553 27.9121 28.6944 27.9263 28.7298C27.9406 28.7652 27.9662 28.7949 27.999 28.8143ZM45.4854 33.3938C45.2404 32.9683 44.9451 32.5738 44.6059 32.2188C44.5795 32.1912 44.5446 32.1732 44.5068 32.1678C44.469 32.1624 44.4304 32.1699 44.3974 32.189C44.3643 32.2082 44.3387 32.2379 44.3245 32.2734C44.3104 32.3089 44.3086 32.3481 44.3195 32.3847C44.6709 33.579 44.6342 34.8541 44.2147 36.0262C43.7953 37.1984 43.0147 38.2072 41.9854 38.9074L41.5945 38.2324C41.579 38.2044 41.5558 38.1815 41.5277 38.1661C41.4996 38.1508 41.4677 38.1438 41.4357 38.146C41.4038 38.1481 41.3731 38.1593 41.3473 38.1783C41.3215 38.1972 41.3016 38.2231 41.2899 38.2529L39.8536 41.8347C39.8447 41.8591 39.8411 41.8851 39.843 41.9109C39.845 41.9368 39.8525 41.962 39.865 41.9847C39.878 42.0067 39.8958 42.0254 39.917 42.0396C39.9382 42.0537 39.9624 42.063 39.9877 42.0665L43.8104 42.6188C43.8178 42.6207 43.8255 42.6214 43.8331 42.6211C43.8613 42.621 43.889 42.6142 43.9139 42.6011C43.9388 42.5881 43.9602 42.5692 43.9763 42.5461C43.9942 42.5198 44.0042 42.4888 44.005 42.457C44.0058 42.4251 43.9974 42.3937 43.9809 42.3665L43.574 41.6597C44.8819 40.7816 45.8071 39.439 46.162 37.9042C46.5169 36.3693 46.275 34.757 45.4854 33.3938ZM35.4084 29.8743C34.3993 29.8743 33.4129 30.1734 32.5739 30.734C31.7349 31.2945 31.0809 32.0913 30.6947 33.0235C30.3084 33.9556 30.2073 34.9814 30.404 35.9711C30.6006 36.9608 31.0864 37.8699 31.7997 38.5836C32.513 39.2972 33.422 39.7834 34.4116 39.9805C35.4012 40.1776 36.427 40.0769 37.3593 39.6911C38.2917 39.3052 39.0887 38.6516 39.6496 37.8129C40.2106 36.9741 40.5102 35.9878 40.5106 34.9788C40.5098 33.6256 39.972 32.3281 39.0154 31.3711C38.0588 30.414 36.7615 29.8757 35.4084 29.8743ZM37.5424 34.3265L35.4379 38.1697C35.4202 38.2034 35.3938 38.2318 35.3614 38.2518C35.3291 38.2718 35.2919 38.2827 35.2538 38.2833C35.2304 38.2835 35.2072 38.2788 35.1856 38.2695C35.138 38.2552 35.0971 38.2241 35.0708 38.1819C35.0444 38.1396 35.0343 38.0893 35.0424 38.0402L35.372 35.6129L33.4788 35.7402C33.4412 35.7419 33.4037 35.7341 33.3699 35.7174C33.3361 35.7007 33.3071 35.6757 33.2856 35.6447C33.2649 35.6131 33.2529 35.5766 33.251 35.5388C33.2491 35.5011 33.2573 35.4635 33.2747 35.4299L35.2361 31.6165C35.2586 31.5717 35.2965 31.5365 35.3428 31.5173C35.3891 31.4981 35.4408 31.4962 35.4884 31.512C35.5368 31.5275 35.5781 31.5599 35.6048 31.6033C35.6315 31.6466 35.6418 31.6981 35.6338 31.7483L35.2356 34.2481L37.3334 34.0163C37.372 34.012 37.4111 34.0185 37.4464 34.0349C37.4817 34.0513 37.5117 34.0771 37.5334 34.1095C37.5546 34.1414 37.5666 34.1785 37.5682 34.2167C37.5698 34.255 37.5609 34.293 37.5424 34.3265Z" fill="white"/>
</svg>
