<svg width="199" height="43" viewBox="0 0 199 43" fill="none" xmlns="http://www.w3.org/2000/svg">
<path d="M48.2029 32.4658C47.9489 32.4658 47.7411 32.385 47.5795 32.2234C47.4179 32.0618 47.3371 31.854 47.3371 31.6V9.08899C47.3371 8.83502 47.4179 8.62723 47.5795 8.46561C47.7411 8.30399 47.9489 8.22318 48.2029 8.22318H63.8914C64.1453 8.22318 64.3531 8.30399 64.5147 8.46561C64.6763 8.62723 64.7572 8.83502 64.7572 9.08899V11.8596C64.7572 12.0905 64.6763 12.2867 64.5147 12.4483C64.3531 12.6099 64.1453 12.6908 63.8914 12.6908H52.6705V18.128H63.1294C63.3834 18.128 63.5912 18.2088 63.7528 18.3705C63.9144 18.5321 63.9952 18.7399 63.9952 18.9938V21.5566C63.9952 21.7875 63.9144 21.9838 63.7528 22.1454C63.5912 22.307 63.3834 22.3878 63.1294 22.3878H52.6705V27.9982H64.1684C64.4224 27.9982 64.6302 28.0791 64.7918 28.2407C64.9534 28.4023 65.0342 28.6101 65.0342 28.8641V31.6C65.0342 31.854 64.9534 32.0618 64.7918 32.2234C64.6302 32.385 64.4224 32.4658 64.1684 32.4658H48.2029ZM81.4137 39.046C81.1828 39.046 80.9866 38.9652 80.8249 38.8035C80.6633 38.6419 80.5825 38.4341 80.5825 38.1802V30.4225C80.0284 31.1613 79.3127 31.7501 78.4353 32.1888C77.581 32.6043 76.5652 32.8121 75.3877 32.8121C74.2102 32.8121 73.1712 32.6159 72.2708 32.2234C71.3703 31.8309 70.6084 31.2768 69.985 30.561C69.3616 29.8453 68.8883 28.991 68.5651 27.9982C68.2419 27.0055 68.0571 25.9203 68.011 24.7428C67.9879 24.281 67.9763 23.8539 67.9763 23.4614C67.9763 23.0689 67.9879 22.6533 68.011 22.2146C68.0571 20.9679 68.2419 19.8481 68.5651 18.8553C68.9114 17.8625 69.3847 17.0198 69.985 16.3272C70.6084 15.6114 71.3703 15.0688 72.2708 14.6994C73.1712 14.3069 74.2102 14.1107 75.3877 14.1107C76.7037 14.1107 77.8004 14.3531 78.6777 14.838C79.5782 15.2997 80.2939 15.9 80.8249 16.6388V15.3228C80.8249 15.0688 80.9057 14.861 81.0674 14.6994C81.229 14.5378 81.4368 14.457 81.6907 14.457H84.9808C85.2348 14.457 85.4426 14.5378 85.6042 14.6994C85.7658 14.861 85.8466 15.0688 85.8466 15.3228V38.1802C85.8466 38.4341 85.7658 38.6419 85.6042 38.8035C85.4426 38.9652 85.2348 39.046 84.9808 39.046H81.4137ZM76.9461 28.6563C77.7773 28.6563 78.4469 28.4716 78.9548 28.1021C79.4858 27.7327 79.8783 27.271 80.1323 26.7169C80.4093 26.1396 80.5594 25.5278 80.5825 24.8813C80.6056 24.4427 80.6171 24.004 80.6171 23.5653C80.6171 23.1266 80.6056 22.6995 80.5825 22.2839C80.5594 21.5913 80.4209 20.9448 80.1669 20.3445C79.936 19.7442 79.5551 19.2478 79.0241 18.8553C78.5161 18.4628 77.8235 18.2666 76.9461 18.2666C76.0919 18.2666 75.3992 18.4628 74.8682 18.8553C74.3602 19.2247 73.9908 19.7211 73.7599 20.3445C73.5521 20.9679 73.4252 21.649 73.379 22.3878C73.3328 23.1035 73.3328 23.8193 73.379 24.535C73.4252 25.2738 73.5521 25.9549 73.7599 26.5783C73.9908 27.2017 74.3602 27.7096 74.8682 28.1021C75.3992 28.4716 76.0919 28.6563 76.9461 28.6563ZM96.8275 32.8121C95.4884 32.8121 94.2994 32.512 93.2604 31.9117C92.2445 31.2883 91.448 30.3994 90.8708 29.245C90.3166 28.0675 90.0396 26.6476 90.0396 24.9852V15.3228C90.0396 15.0688 90.1204 14.861 90.282 14.6994C90.4436 14.5378 90.6399 14.457 90.8708 14.457H94.5418C94.7957 14.457 95.0035 14.5378 95.1652 14.6994C95.3268 14.861 95.4076 15.0688 95.4076 15.3228V24.7774C95.4076 27.3633 96.5389 28.6563 98.8016 28.6563C99.8867 28.6563 100.741 28.3215 101.364 27.6519C102.011 26.9593 102.334 26.0011 102.334 24.7774V15.3228C102.334 15.0688 102.415 14.861 102.576 14.6994C102.738 14.5378 102.946 14.457 103.2 14.457H106.871C107.102 14.457 107.298 14.5378 107.46 14.6994C107.621 14.861 107.702 15.0688 107.702 15.3228V31.6C107.702 31.854 107.621 32.0618 107.46 32.2234C107.298 32.385 107.102 32.4658 106.871 32.4658H103.477C103.223 32.4658 103.015 32.385 102.854 32.2234C102.692 32.0618 102.611 31.854 102.611 31.6V30.2494C102.011 31.0805 101.237 31.7155 100.291 32.1541C99.3441 32.5928 98.1897 32.8121 96.8275 32.8121ZM112.892 32.4658C112.661 32.4658 112.465 32.385 112.303 32.2234C112.142 32.0618 112.061 31.854 112.061 31.6V15.3228C112.061 15.0688 112.142 14.861 112.303 14.6994C112.465 14.5378 112.661 14.457 112.892 14.457H116.355C116.609 14.457 116.817 14.5378 116.979 14.6994C117.14 14.861 117.221 15.0688 117.221 15.3228V31.6C117.221 31.854 117.14 32.0618 116.979 32.2234C116.817 32.385 116.609 32.4658 116.355 32.4658H112.892ZM112.788 11.6864C112.557 11.6864 112.361 11.6056 112.199 11.444C112.038 11.2824 111.957 11.0746 111.957 10.8206V8.05002C111.957 7.79605 112.038 7.58826 112.199 7.42664C112.361 7.24194 112.557 7.14958 112.788 7.14958H116.425C116.679 7.14958 116.886 7.24194 117.048 7.42664C117.233 7.58826 117.325 7.79605 117.325 8.05002V10.8206C117.325 11.0746 117.233 11.2824 117.048 11.444C116.886 11.6056 116.679 11.6864 116.425 11.6864H112.788ZM122.811 32.4658C122.557 32.4658 122.349 32.385 122.188 32.2234C122.026 32.0618 121.945 31.854 121.945 31.6V9.08899C121.945 8.83502 122.026 8.62723 122.188 8.46561C122.349 8.30399 122.557 8.22318 122.811 8.22318H125.963C126.309 8.22318 126.563 8.30399 126.725 8.46561C126.886 8.62723 126.99 8.75421 127.036 8.84657L136.283 23.2883V9.08899C136.283 8.83502 136.364 8.62723 136.526 8.46561C136.687 8.30399 136.884 8.22318 137.114 8.22318H140.647C140.901 8.22318 141.109 8.30399 141.27 8.46561C141.432 8.62723 141.513 8.83502 141.513 9.08899V31.6C141.513 31.8309 141.432 32.0387 141.27 32.2234C141.109 32.385 140.901 32.4658 140.647 32.4658H137.461C137.114 32.4658 136.86 32.385 136.699 32.2234C136.56 32.0387 136.456 31.9117 136.387 31.8424L127.175 17.851V31.6C127.175 31.854 127.094 32.0618 126.932 32.2234C126.771 32.385 126.563 32.4658 126.309 32.4658H122.811ZM154.288 32.8121C151.633 32.8121 149.521 32.0733 147.951 30.5957C146.404 29.118 145.584 26.9708 145.492 24.1541C145.492 23.9694 145.492 23.7269 145.492 23.4268C145.492 23.1035 145.492 22.8496 145.492 22.6649C145.584 20.8871 145.988 19.3633 146.704 18.0934C147.419 16.8005 148.424 15.8192 149.717 15.1497C151.01 14.457 152.522 14.1107 154.254 14.1107C156.193 14.1107 157.809 14.5147 159.102 15.3228C160.418 16.1078 161.399 17.193 162.046 18.5783C162.715 19.9405 163.05 21.5105 163.05 23.2883V24.0848C163.05 24.3157 162.958 24.5119 162.773 24.6735C162.612 24.8352 162.415 24.916 162.184 24.916H150.86C150.86 24.9391 150.86 24.9852 150.86 25.0545C150.86 25.1007 150.86 25.1469 150.86 25.193C150.883 25.9319 151.021 26.613 151.275 27.2363C151.552 27.8366 151.933 28.3215 152.418 28.6909C152.926 29.0603 153.526 29.245 154.219 29.245C154.796 29.245 155.269 29.1642 155.639 29.0026C156.008 28.841 156.308 28.6447 156.539 28.4138C156.793 28.183 156.978 27.9867 157.093 27.8251C157.301 27.5942 157.463 27.4557 157.578 27.4095C157.717 27.3402 157.925 27.3056 158.202 27.3056H161.803C162.034 27.3056 162.219 27.3749 162.358 27.5134C162.519 27.6288 162.588 27.802 162.565 28.0329C162.542 28.4023 162.346 28.8641 161.977 29.4182C161.63 29.9492 161.111 30.4802 160.418 31.0113C159.726 31.5192 158.86 31.9463 157.821 32.2927C156.805 32.639 155.627 32.8121 154.288 32.8121ZM150.86 21.7644H157.648V21.6952C157.648 20.864 157.509 20.1483 157.232 19.548C156.978 18.9246 156.597 18.4397 156.089 18.0934C155.581 17.7471 154.969 17.5739 154.254 17.5739C153.538 17.5739 152.926 17.7471 152.418 18.0934C151.91 18.4397 151.518 18.9246 151.241 19.548C150.987 20.1483 150.86 20.864 150.86 21.6952V21.7644ZM173.612 32.8121C172.18 32.8121 170.945 32.6505 169.906 32.3273C168.89 31.981 168.059 31.5654 167.413 31.0805C166.789 30.5957 166.316 30.1108 165.993 29.626C165.692 29.118 165.531 28.6909 165.508 28.3446C165.485 28.0906 165.565 27.8828 165.75 27.7212C165.935 27.5596 166.12 27.4788 166.304 27.4788H169.664C169.733 27.4788 169.802 27.4903 169.871 27.5134C169.941 27.5365 170.01 27.5942 170.079 27.6866C170.379 27.8944 170.691 28.1368 171.014 28.4138C171.338 28.6678 171.707 28.8871 172.123 29.0719C172.561 29.2566 173.104 29.3489 173.75 29.3489C174.512 29.3489 175.159 29.1988 175.69 28.8987C176.221 28.5755 176.486 28.1252 176.486 27.548C176.486 27.1324 176.359 26.7861 176.105 26.5091C175.874 26.232 175.424 25.978 174.755 25.7471C174.085 25.5163 173.092 25.2623 171.776 24.9852C170.529 24.7082 169.467 24.3388 168.59 23.877C167.713 23.4152 167.055 22.838 166.616 22.1454C166.177 21.4296 165.958 20.5754 165.958 19.5826C165.958 18.6822 166.235 17.8163 166.789 16.9852C167.366 16.154 168.209 15.4729 169.317 14.9419C170.426 14.3877 171.811 14.1107 173.473 14.1107C174.743 14.1107 175.851 14.2723 176.798 14.5955C177.768 14.8957 178.576 15.2882 179.222 15.773C179.869 16.2348 180.353 16.7197 180.677 17.2276C181.023 17.7124 181.208 18.1396 181.231 18.509C181.254 18.7399 181.185 18.9361 181.023 19.0977C180.861 19.2594 180.677 19.3402 180.469 19.3402H177.387C177.271 19.3402 177.167 19.3286 177.075 19.3055C176.983 19.2594 176.902 19.2016 176.833 19.1324C176.555 18.9477 176.267 18.7399 175.967 18.509C175.69 18.255 175.355 18.0357 174.962 17.851C174.57 17.6663 174.062 17.5739 173.439 17.5739C172.677 17.5739 172.088 17.7471 171.672 18.0934C171.28 18.4166 171.084 18.8322 171.084 19.3402C171.084 19.6634 171.187 19.9635 171.395 20.2406C171.603 20.5177 172.03 20.7716 172.677 21.0025C173.323 21.2334 174.304 21.4758 175.62 21.7298C177.19 22.0069 178.437 22.4224 179.361 22.9766C180.284 23.5307 180.942 24.1771 181.335 24.916C181.75 25.6317 181.958 26.4052 181.958 27.2363C181.958 28.3215 181.635 29.2912 180.988 30.1455C180.342 30.9766 179.395 31.6346 178.149 32.1195C176.925 32.5813 175.413 32.8121 173.612 32.8121ZM193.873 32.4658C192.442 32.4658 191.218 32.2349 190.202 31.7732C189.186 31.2883 188.413 30.5495 187.882 29.5567C187.374 28.5639 187.12 27.3171 187.12 25.8164V18.5436H184.418C184.164 18.5436 183.957 18.4628 183.795 18.3012C183.633 18.1396 183.553 17.9318 183.553 17.6778V15.3228C183.553 15.0688 183.633 14.861 183.795 14.6994C183.957 14.5378 184.164 14.457 184.418 14.457H187.12V8.74267C187.12 8.4887 187.201 8.2809 187.362 8.11929C187.547 7.95767 187.755 7.87686 187.986 7.87686H191.379C191.633 7.87686 191.841 7.95767 192.003 8.11929C192.164 8.2809 192.245 8.4887 192.245 8.74267V14.457H196.574C196.805 14.457 197.001 14.5378 197.163 14.6994C197.325 14.861 197.406 15.0688 197.406 15.3228V17.6778C197.406 17.9318 197.325 18.1396 197.163 18.3012C197.001 18.4628 196.805 18.5436 196.574 18.5436H192.245V25.4008C192.245 26.2782 192.395 26.9708 192.696 27.4788C193.019 27.9636 193.573 28.206 194.358 28.206H196.886C197.117 28.206 197.313 28.2869 197.475 28.4485C197.636 28.6101 197.717 28.8063 197.717 29.0372V31.6C197.717 31.854 197.636 32.0618 197.475 32.2234C197.313 32.385 197.117 32.4658 196.886 32.4658H193.873Z" fill="white"/>
<circle cx="22.2681" cy="20.8139" r="19.8607" fill="white"/>
<circle cx="19.8607" cy="22.8202" r="19.3592" stroke="#1A1A1A" stroke-width="1.00307"/>
<rect x="14.0139" y="16.1309" width="3.13868" height="16.4319" rx="1.56934" fill="black"/>
<rect x="18.5376" y="18.9004" width="3.13868" height="13.6625" rx="1.56934" fill="black"/>
<rect x="23.0609" y="21.1162" width="3.13868" height="11.447" rx="1.56934" fill="black"/>
<rect x="27.5841" y="23.5161" width="3.13868" height="9.04679" rx="1.56934" fill="black"/>
<path d="M32.1245 19.0544C32.4134 18.8921 32.516 18.5263 32.3537 18.2374C32.1914 17.9485 31.8256 17.8458 31.5367 18.0081L32.1245 19.0544ZM15.8602 8.37678L15.7577 15.3047L21.8087 11.9296L15.8602 8.37678ZM31.5367 18.0081C28.9476 19.4627 26.5561 19.1638 24.4311 18.0066C22.2737 16.8318 20.4022 14.7717 18.9824 12.7491L18.0002 13.4386C19.4664 15.5274 21.4657 17.7583 23.8571 19.0605C26.2809 20.3804 29.116 20.7446 32.1245 19.0544L31.5367 18.0081Z" fill="#1A1A1A"/>
</svg>
