<svg width="34" height="42" viewBox="0 0 34 42" fill="none" xmlns="http://www.w3.org/2000/svg">
<path fill-rule="evenodd" clip-rule="evenodd" d="M16.9999 41.3335C19.2916 41.3335 21.1666 39.4585 21.1666 37.1668H12.8333C12.8333 39.4585 14.6874 41.3335 16.9999 41.3335ZM29.4999 28.8335V18.4168C29.4999 12.021 26.0833 6.66683 20.1249 5.25016V3.8335C20.1249 2.10433 18.7291 0.708496 16.9999 0.708496C15.2708 0.708496 13.8749 2.10433 13.8749 3.8335V5.25016C7.89575 6.66683 4.49992 12.0002 4.49992 18.4168V28.8335L0.333252 33.0002V35.0835H33.6666V33.0002L29.4999 28.8335Z" fill="black"/>
<path fill-rule="evenodd" clip-rule="evenodd" d="M16.9999 41.3335C19.2916 41.3335 21.1666 39.4585 21.1666 37.1668H12.8333C12.8333 39.4585 14.6874 41.3335 16.9999 41.3335ZM29.4999 28.8335V18.4168C29.4999 12.021 26.0833 6.66683 20.1249 5.25016V3.8335C20.1249 2.10433 18.7291 0.708496 16.9999 0.708496C15.2708 0.708496 13.8749 2.10433 13.8749 3.8335V5.25016C7.89575 6.66683 4.49992 12.0002 4.49992 18.4168V28.8335L0.333252 33.0002V35.0835H33.6666V33.0002L29.4999 28.8335Z" fill="black"/>
<path fill-rule="evenodd" clip-rule="evenodd" d="M16.9999 41.3335C19.2916 41.3335 21.1666 39.4585 21.1666 37.1668H12.8333C12.8333 39.4585 14.6874 41.3335 16.9999 41.3335ZM29.4999 28.8335V18.4168C29.4999 12.021 26.0833 6.66683 20.1249 5.25016V3.8335C20.1249 2.10433 18.7291 0.708496 16.9999 0.708496C15.2708 0.708496 13.8749 2.10433 13.8749 3.8335V5.25016C7.89575 6.66683 4.49992 12.0002 4.49992 18.4168V28.8335L0.333252 33.0002V35.0835H33.6666V33.0002L29.4999 28.8335Z" fill="white"/>
</svg>
