<svg width="50" height="51" viewBox="0 0 50 51" fill="none" xmlns="http://www.w3.org/2000/svg">
<mask id="mask0_77_584" style="mask-type:alpha" maskUnits="userSpaceOnUse" x="0" y="0" width="50" height="51">
<rect y="0.5" width="50" height="50" fill="#D9D9D9"/>
</mask>
<g mask="url(#mask0_77_584)">
<path d="M19.2708 46.3337L18.4375 39.667C17.9861 39.4934 17.5608 39.285 17.1615 39.042C16.7622 38.7989 16.3715 38.5385 15.9896 38.2607L9.79167 40.8649L4.0625 30.9691L9.42708 26.9066C9.39236 26.6635 9.375 26.4291 9.375 26.2035V24.7972C9.375 24.5715 9.39236 24.3371 9.42708 24.0941L4.0625 20.0316L9.79167 10.1357L15.9896 12.7399C16.3715 12.4621 16.7708 12.2017 17.1875 11.9587C17.6042 11.7156 18.0208 11.5073 18.4375 11.3337L19.2708 4.66699H30.7292L31.5625 11.3337C32.0139 11.5073 32.4392 11.7156 32.8385 11.9587C33.2378 12.2017 33.6285 12.4621 34.0104 12.7399L40.2083 10.1357L45.9375 20.0316L40.5729 24.0941C40.6076 24.3371 40.625 24.5715 40.625 24.7972V26.2035C40.625 26.4291 40.5903 26.6635 40.5208 26.9066L45.8854 30.9691L40.1562 40.8649L34.0104 38.2607C33.6285 38.5385 33.2292 38.7989 32.8125 39.042C32.3958 39.285 31.9792 39.4934 31.5625 39.667L30.7292 46.3337H19.2708ZM22.9167 42.167H27.0312L27.7604 36.6462C28.8368 36.3684 29.8351 35.9604 30.7552 35.4222C31.6753 34.884 32.5174 34.233 33.2812 33.4691L38.4375 35.6045L40.4688 32.0628L35.9896 28.6774C36.1632 28.1913 36.2847 27.6791 36.3542 27.141C36.4236 26.6028 36.4583 26.0559 36.4583 25.5003C36.4583 24.9448 36.4236 24.3979 36.3542 23.8597C36.2847 23.3215 36.1632 22.8094 35.9896 22.3232L40.4688 18.9378L38.4375 15.3962L33.2812 17.5837C32.5174 16.785 31.6753 16.1166 30.7552 15.5785C29.8351 15.0403 28.8368 14.6323 27.7604 14.3545L27.0833 8.83366H22.9687L22.2396 14.3545C21.1632 14.6323 20.1649 15.0403 19.2448 15.5785C18.3247 16.1166 17.4826 16.7677 16.7188 17.5316L11.5625 15.3962L9.53125 18.9378L14.0104 22.2712C13.8368 22.792 13.7153 23.3128 13.6458 23.8337C13.5764 24.3545 13.5417 24.91 13.5417 25.5003C13.5417 26.0559 13.5764 26.5941 13.6458 27.1149C13.7153 27.6357 13.8368 28.1566 14.0104 28.6774L9.53125 32.0628L11.5625 35.6045L16.7188 33.417C17.4826 34.2156 18.3247 34.884 19.2448 35.4222C20.1649 35.9604 21.1632 36.3684 22.2396 36.6462L22.9167 42.167ZM25.1042 32.792C27.1181 32.792 28.8368 32.0802 30.2604 30.6566C31.684 29.233 32.3958 27.5142 32.3958 25.5003C32.3958 23.4864 31.684 21.7677 30.2604 20.3441C28.8368 18.9205 27.1181 18.2087 25.1042 18.2087C23.0556 18.2087 21.3281 18.9205 19.9219 20.3441C18.5156 21.7677 17.8125 23.4864 17.8125 25.5003C17.8125 27.5142 18.5156 29.233 19.9219 30.6566C21.3281 32.0802 23.0556 32.792 25.1042 32.792Z" fill="black"/>
<path d="M19.2708 46.3337L18.4375 39.667C17.9861 39.4934 17.5608 39.285 17.1615 39.042C16.7622 38.7989 16.3715 38.5385 15.9896 38.2607L9.79167 40.8649L4.0625 30.9691L9.42708 26.9066C9.39236 26.6635 9.375 26.4291 9.375 26.2035V24.7972C9.375 24.5715 9.39236 24.3371 9.42708 24.0941L4.0625 20.0316L9.79167 10.1357L15.9896 12.7399C16.3715 12.4621 16.7708 12.2017 17.1875 11.9587C17.6042 11.7156 18.0208 11.5073 18.4375 11.3337L19.2708 4.66699H30.7292L31.5625 11.3337C32.0139 11.5073 32.4392 11.7156 32.8385 11.9587C33.2378 12.2017 33.6285 12.4621 34.0104 12.7399L40.2083 10.1357L45.9375 20.0316L40.5729 24.0941C40.6076 24.3371 40.625 24.5715 40.625 24.7972V26.2035C40.625 26.4291 40.5903 26.6635 40.5208 26.9066L45.8854 30.9691L40.1562 40.8649L34.0104 38.2607C33.6285 38.5385 33.2292 38.7989 32.8125 39.042C32.3958 39.285 31.9792 39.4934 31.5625 39.667L30.7292 46.3337H19.2708ZM22.9167 42.167H27.0312L27.7604 36.6462C28.8368 36.3684 29.8351 35.9604 30.7552 35.4222C31.6753 34.884 32.5174 34.233 33.2812 33.4691L38.4375 35.6045L40.4688 32.0628L35.9896 28.6774C36.1632 28.1913 36.2847 27.6791 36.3542 27.141C36.4236 26.6028 36.4583 26.0559 36.4583 25.5003C36.4583 24.9448 36.4236 24.3979 36.3542 23.8597C36.2847 23.3215 36.1632 22.8094 35.9896 22.3232L40.4688 18.9378L38.4375 15.3962L33.2812 17.5837C32.5174 16.785 31.6753 16.1166 30.7552 15.5785C29.8351 15.0403 28.8368 14.6323 27.7604 14.3545L27.0833 8.83366H22.9687L22.2396 14.3545C21.1632 14.6323 20.1649 15.0403 19.2448 15.5785C18.3247 16.1166 17.4826 16.7677 16.7188 17.5316L11.5625 15.3962L9.53125 18.9378L14.0104 22.2712C13.8368 22.792 13.7153 23.3128 13.6458 23.8337C13.5764 24.3545 13.5417 24.91 13.5417 25.5003C13.5417 26.0559 13.5764 26.5941 13.6458 27.1149C13.7153 27.6357 13.8368 28.1566 14.0104 28.6774L9.53125 32.0628L11.5625 35.6045L16.7188 33.417C17.4826 34.2156 18.3247 34.884 19.2448 35.4222C20.1649 35.9604 21.1632 36.3684 22.2396 36.6462L22.9167 42.167ZM25.1042 32.792C27.1181 32.792 28.8368 32.0802 30.2604 30.6566C31.684 29.233 32.3958 27.5142 32.3958 25.5003C32.3958 23.4864 31.684 21.7677 30.2604 20.3441C28.8368 18.9205 27.1181 18.2087 25.1042 18.2087C23.0556 18.2087 21.3281 18.9205 19.9219 20.3441C18.5156 21.7677 17.8125 23.4864 17.8125 25.5003C17.8125 27.5142 18.5156 29.233 19.9219 30.6566C21.3281 32.0802 23.0556 32.792 25.1042 32.792Z" fill="black"/>
<path d="M19.2708 46.3337L18.4375 39.667C17.9861 39.4934 17.5608 39.285 17.1615 39.042C16.7622 38.7989 16.3715 38.5385 15.9896 38.2607L9.79167 40.8649L4.0625 30.9691L9.42708 26.9066C9.39236 26.6635 9.375 26.4291 9.375 26.2035V24.7972C9.375 24.5715 9.39236 24.3371 9.42708 24.0941L4.0625 20.0316L9.79167 10.1357L15.9896 12.7399C16.3715 12.4621 16.7708 12.2017 17.1875 11.9587C17.6042 11.7156 18.0208 11.5073 18.4375 11.3337L19.2708 4.66699H30.7292L31.5625 11.3337C32.0139 11.5073 32.4392 11.7156 32.8385 11.9587C33.2378 12.2017 33.6285 12.4621 34.0104 12.7399L40.2083 10.1357L45.9375 20.0316L40.5729 24.0941C40.6076 24.3371 40.625 24.5715 40.625 24.7972V26.2035C40.625 26.4291 40.5903 26.6635 40.5208 26.9066L45.8854 30.9691L40.1562 40.8649L34.0104 38.2607C33.6285 38.5385 33.2292 38.7989 32.8125 39.042C32.3958 39.285 31.9792 39.4934 31.5625 39.667L30.7292 46.3337H19.2708ZM22.9167 42.167H27.0312L27.7604 36.6462C28.8368 36.3684 29.8351 35.9604 30.7552 35.4222C31.6753 34.884 32.5174 34.233 33.2812 33.4691L38.4375 35.6045L40.4688 32.0628L35.9896 28.6774C36.1632 28.1913 36.2847 27.6791 36.3542 27.141C36.4236 26.6028 36.4583 26.0559 36.4583 25.5003C36.4583 24.9448 36.4236 24.3979 36.3542 23.8597C36.2847 23.3215 36.1632 22.8094 35.9896 22.3232L40.4688 18.9378L38.4375 15.3962L33.2812 17.5837C32.5174 16.785 31.6753 16.1166 30.7552 15.5785C29.8351 15.0403 28.8368 14.6323 27.7604 14.3545L27.0833 8.83366H22.9687L22.2396 14.3545C21.1632 14.6323 20.1649 15.0403 19.2448 15.5785C18.3247 16.1166 17.4826 16.7677 16.7188 17.5316L11.5625 15.3962L9.53125 18.9378L14.0104 22.2712C13.8368 22.792 13.7153 23.3128 13.6458 23.8337C13.5764 24.3545 13.5417 24.91 13.5417 25.5003C13.5417 26.0559 13.5764 26.5941 13.6458 27.1149C13.7153 27.6357 13.8368 28.1566 14.0104 28.6774L9.53125 32.0628L11.5625 35.6045L16.7188 33.417C17.4826 34.2156 18.3247 34.884 19.2448 35.4222C20.1649 35.9604 21.1632 36.3684 22.2396 36.6462L22.9167 42.167ZM25.1042 32.792C27.1181 32.792 28.8368 32.0802 30.2604 30.6566C31.684 29.233 32.3958 27.5142 32.3958 25.5003C32.3958 23.4864 31.684 21.7677 30.2604 20.3441C28.8368 18.9205 27.1181 18.2087 25.1042 18.2087C23.0556 18.2087 21.3281 18.9205 19.9219 20.3441C18.5156 21.7677 17.8125 23.4864 17.8125 25.5003C17.8125 27.5142 18.5156 29.233 19.9219 30.6566C21.3281 32.0802 23.0556 32.792 25.1042 32.792Z" fill="white"/>
</g>
</svg>
